G75*
%MOIN*%
%OFA0B0*%
%FSLAX25Y25*%
%IPPOS*%
%LPD*%
%AMOC8*
5,1,8,0,0,1.08239X$1,22.5*
%
%ADD10C,0.01600*%
%ADD11C,0.00000*%
%ADD12C,0.00600*%
%ADD13C,0.00300*%
%ADD14C,0.01000*%
%ADD15C,0.00400*%
%ADD16C,0.00800*%
%ADD17C,0.00500*%
%ADD18C,0.00200*%
D10*
X0001800Y0001800D02*
X0395501Y0001800D01*
X0395501Y0159280D01*
X0001800Y0159280D01*
X0001800Y0001800D01*
D11*
X0008099Y0013611D02*
X0008101Y0013759D01*
X0008107Y0013907D01*
X0008117Y0014055D01*
X0008131Y0014202D01*
X0008149Y0014349D01*
X0008170Y0014495D01*
X0008196Y0014641D01*
X0008226Y0014786D01*
X0008259Y0014930D01*
X0008297Y0015073D01*
X0008338Y0015215D01*
X0008383Y0015356D01*
X0008431Y0015496D01*
X0008484Y0015635D01*
X0008540Y0015772D01*
X0008600Y0015907D01*
X0008663Y0016041D01*
X0008730Y0016173D01*
X0008801Y0016303D01*
X0008875Y0016431D01*
X0008952Y0016557D01*
X0009033Y0016681D01*
X0009117Y0016803D01*
X0009204Y0016922D01*
X0009295Y0017039D01*
X0009389Y0017154D01*
X0009485Y0017266D01*
X0009585Y0017376D01*
X0009687Y0017482D01*
X0009793Y0017586D01*
X0009901Y0017687D01*
X0010012Y0017785D01*
X0010125Y0017881D01*
X0010241Y0017973D01*
X0010359Y0018062D01*
X0010480Y0018147D01*
X0010603Y0018230D01*
X0010728Y0018309D01*
X0010855Y0018385D01*
X0010984Y0018457D01*
X0011115Y0018526D01*
X0011248Y0018591D01*
X0011383Y0018652D01*
X0011519Y0018710D01*
X0011656Y0018765D01*
X0011795Y0018815D01*
X0011936Y0018862D01*
X0012077Y0018905D01*
X0012220Y0018945D01*
X0012364Y0018980D01*
X0012508Y0019012D01*
X0012654Y0019039D01*
X0012800Y0019063D01*
X0012947Y0019083D01*
X0013094Y0019099D01*
X0013241Y0019111D01*
X0013389Y0019119D01*
X0013537Y0019123D01*
X0013685Y0019123D01*
X0013833Y0019119D01*
X0013981Y0019111D01*
X0014128Y0019099D01*
X0014275Y0019083D01*
X0014422Y0019063D01*
X0014568Y0019039D01*
X0014714Y0019012D01*
X0014858Y0018980D01*
X0015002Y0018945D01*
X0015145Y0018905D01*
X0015286Y0018862D01*
X0015427Y0018815D01*
X0015566Y0018765D01*
X0015703Y0018710D01*
X0015839Y0018652D01*
X0015974Y0018591D01*
X0016107Y0018526D01*
X0016238Y0018457D01*
X0016367Y0018385D01*
X0016494Y0018309D01*
X0016619Y0018230D01*
X0016742Y0018147D01*
X0016863Y0018062D01*
X0016981Y0017973D01*
X0017097Y0017881D01*
X0017210Y0017785D01*
X0017321Y0017687D01*
X0017429Y0017586D01*
X0017535Y0017482D01*
X0017637Y0017376D01*
X0017737Y0017266D01*
X0017833Y0017154D01*
X0017927Y0017039D01*
X0018018Y0016922D01*
X0018105Y0016803D01*
X0018189Y0016681D01*
X0018270Y0016557D01*
X0018347Y0016431D01*
X0018421Y0016303D01*
X0018492Y0016173D01*
X0018559Y0016041D01*
X0018622Y0015907D01*
X0018682Y0015772D01*
X0018738Y0015635D01*
X0018791Y0015496D01*
X0018839Y0015356D01*
X0018884Y0015215D01*
X0018925Y0015073D01*
X0018963Y0014930D01*
X0018996Y0014786D01*
X0019026Y0014641D01*
X0019052Y0014495D01*
X0019073Y0014349D01*
X0019091Y0014202D01*
X0019105Y0014055D01*
X0019115Y0013907D01*
X0019121Y0013759D01*
X0019123Y0013611D01*
X0019121Y0013463D01*
X0019115Y0013315D01*
X0019105Y0013167D01*
X0019091Y0013020D01*
X0019073Y0012873D01*
X0019052Y0012727D01*
X0019026Y0012581D01*
X0018996Y0012436D01*
X0018963Y0012292D01*
X0018925Y0012149D01*
X0018884Y0012007D01*
X0018839Y0011866D01*
X0018791Y0011726D01*
X0018738Y0011587D01*
X0018682Y0011450D01*
X0018622Y0011315D01*
X0018559Y0011181D01*
X0018492Y0011049D01*
X0018421Y0010919D01*
X0018347Y0010791D01*
X0018270Y0010665D01*
X0018189Y0010541D01*
X0018105Y0010419D01*
X0018018Y0010300D01*
X0017927Y0010183D01*
X0017833Y0010068D01*
X0017737Y0009956D01*
X0017637Y0009846D01*
X0017535Y0009740D01*
X0017429Y0009636D01*
X0017321Y0009535D01*
X0017210Y0009437D01*
X0017097Y0009341D01*
X0016981Y0009249D01*
X0016863Y0009160D01*
X0016742Y0009075D01*
X0016619Y0008992D01*
X0016494Y0008913D01*
X0016367Y0008837D01*
X0016238Y0008765D01*
X0016107Y0008696D01*
X0015974Y0008631D01*
X0015839Y0008570D01*
X0015703Y0008512D01*
X0015566Y0008457D01*
X0015427Y0008407D01*
X0015286Y0008360D01*
X0015145Y0008317D01*
X0015002Y0008277D01*
X0014858Y0008242D01*
X0014714Y0008210D01*
X0014568Y0008183D01*
X0014422Y0008159D01*
X0014275Y0008139D01*
X0014128Y0008123D01*
X0013981Y0008111D01*
X0013833Y0008103D01*
X0013685Y0008099D01*
X0013537Y0008099D01*
X0013389Y0008103D01*
X0013241Y0008111D01*
X0013094Y0008123D01*
X0012947Y0008139D01*
X0012800Y0008159D01*
X0012654Y0008183D01*
X0012508Y0008210D01*
X0012364Y0008242D01*
X0012220Y0008277D01*
X0012077Y0008317D01*
X0011936Y0008360D01*
X0011795Y0008407D01*
X0011656Y0008457D01*
X0011519Y0008512D01*
X0011383Y0008570D01*
X0011248Y0008631D01*
X0011115Y0008696D01*
X0010984Y0008765D01*
X0010855Y0008837D01*
X0010728Y0008913D01*
X0010603Y0008992D01*
X0010480Y0009075D01*
X0010359Y0009160D01*
X0010241Y0009249D01*
X0010125Y0009341D01*
X0010012Y0009437D01*
X0009901Y0009535D01*
X0009793Y0009636D01*
X0009687Y0009740D01*
X0009585Y0009846D01*
X0009485Y0009956D01*
X0009389Y0010068D01*
X0009295Y0010183D01*
X0009204Y0010300D01*
X0009117Y0010419D01*
X0009033Y0010541D01*
X0008952Y0010665D01*
X0008875Y0010791D01*
X0008801Y0010919D01*
X0008730Y0011049D01*
X0008663Y0011181D01*
X0008600Y0011315D01*
X0008540Y0011450D01*
X0008484Y0011587D01*
X0008431Y0011726D01*
X0008383Y0011866D01*
X0008338Y0012007D01*
X0008297Y0012149D01*
X0008259Y0012292D01*
X0008226Y0012436D01*
X0008196Y0012581D01*
X0008170Y0012727D01*
X0008149Y0012873D01*
X0008131Y0013020D01*
X0008117Y0013167D01*
X0008107Y0013315D01*
X0008101Y0013463D01*
X0008099Y0013611D01*
X0193138Y0013611D02*
X0193140Y0013759D01*
X0193146Y0013907D01*
X0193156Y0014055D01*
X0193170Y0014202D01*
X0193188Y0014349D01*
X0193209Y0014495D01*
X0193235Y0014641D01*
X0193265Y0014786D01*
X0193298Y0014930D01*
X0193336Y0015073D01*
X0193377Y0015215D01*
X0193422Y0015356D01*
X0193470Y0015496D01*
X0193523Y0015635D01*
X0193579Y0015772D01*
X0193639Y0015907D01*
X0193702Y0016041D01*
X0193769Y0016173D01*
X0193840Y0016303D01*
X0193914Y0016431D01*
X0193991Y0016557D01*
X0194072Y0016681D01*
X0194156Y0016803D01*
X0194243Y0016922D01*
X0194334Y0017039D01*
X0194428Y0017154D01*
X0194524Y0017266D01*
X0194624Y0017376D01*
X0194726Y0017482D01*
X0194832Y0017586D01*
X0194940Y0017687D01*
X0195051Y0017785D01*
X0195164Y0017881D01*
X0195280Y0017973D01*
X0195398Y0018062D01*
X0195519Y0018147D01*
X0195642Y0018230D01*
X0195767Y0018309D01*
X0195894Y0018385D01*
X0196023Y0018457D01*
X0196154Y0018526D01*
X0196287Y0018591D01*
X0196422Y0018652D01*
X0196558Y0018710D01*
X0196695Y0018765D01*
X0196834Y0018815D01*
X0196975Y0018862D01*
X0197116Y0018905D01*
X0197259Y0018945D01*
X0197403Y0018980D01*
X0197547Y0019012D01*
X0197693Y0019039D01*
X0197839Y0019063D01*
X0197986Y0019083D01*
X0198133Y0019099D01*
X0198280Y0019111D01*
X0198428Y0019119D01*
X0198576Y0019123D01*
X0198724Y0019123D01*
X0198872Y0019119D01*
X0199020Y0019111D01*
X0199167Y0019099D01*
X0199314Y0019083D01*
X0199461Y0019063D01*
X0199607Y0019039D01*
X0199753Y0019012D01*
X0199897Y0018980D01*
X0200041Y0018945D01*
X0200184Y0018905D01*
X0200325Y0018862D01*
X0200466Y0018815D01*
X0200605Y0018765D01*
X0200742Y0018710D01*
X0200878Y0018652D01*
X0201013Y0018591D01*
X0201146Y0018526D01*
X0201277Y0018457D01*
X0201406Y0018385D01*
X0201533Y0018309D01*
X0201658Y0018230D01*
X0201781Y0018147D01*
X0201902Y0018062D01*
X0202020Y0017973D01*
X0202136Y0017881D01*
X0202249Y0017785D01*
X0202360Y0017687D01*
X0202468Y0017586D01*
X0202574Y0017482D01*
X0202676Y0017376D01*
X0202776Y0017266D01*
X0202872Y0017154D01*
X0202966Y0017039D01*
X0203057Y0016922D01*
X0203144Y0016803D01*
X0203228Y0016681D01*
X0203309Y0016557D01*
X0203386Y0016431D01*
X0203460Y0016303D01*
X0203531Y0016173D01*
X0203598Y0016041D01*
X0203661Y0015907D01*
X0203721Y0015772D01*
X0203777Y0015635D01*
X0203830Y0015496D01*
X0203878Y0015356D01*
X0203923Y0015215D01*
X0203964Y0015073D01*
X0204002Y0014930D01*
X0204035Y0014786D01*
X0204065Y0014641D01*
X0204091Y0014495D01*
X0204112Y0014349D01*
X0204130Y0014202D01*
X0204144Y0014055D01*
X0204154Y0013907D01*
X0204160Y0013759D01*
X0204162Y0013611D01*
X0204160Y0013463D01*
X0204154Y0013315D01*
X0204144Y0013167D01*
X0204130Y0013020D01*
X0204112Y0012873D01*
X0204091Y0012727D01*
X0204065Y0012581D01*
X0204035Y0012436D01*
X0204002Y0012292D01*
X0203964Y0012149D01*
X0203923Y0012007D01*
X0203878Y0011866D01*
X0203830Y0011726D01*
X0203777Y0011587D01*
X0203721Y0011450D01*
X0203661Y0011315D01*
X0203598Y0011181D01*
X0203531Y0011049D01*
X0203460Y0010919D01*
X0203386Y0010791D01*
X0203309Y0010665D01*
X0203228Y0010541D01*
X0203144Y0010419D01*
X0203057Y0010300D01*
X0202966Y0010183D01*
X0202872Y0010068D01*
X0202776Y0009956D01*
X0202676Y0009846D01*
X0202574Y0009740D01*
X0202468Y0009636D01*
X0202360Y0009535D01*
X0202249Y0009437D01*
X0202136Y0009341D01*
X0202020Y0009249D01*
X0201902Y0009160D01*
X0201781Y0009075D01*
X0201658Y0008992D01*
X0201533Y0008913D01*
X0201406Y0008837D01*
X0201277Y0008765D01*
X0201146Y0008696D01*
X0201013Y0008631D01*
X0200878Y0008570D01*
X0200742Y0008512D01*
X0200605Y0008457D01*
X0200466Y0008407D01*
X0200325Y0008360D01*
X0200184Y0008317D01*
X0200041Y0008277D01*
X0199897Y0008242D01*
X0199753Y0008210D01*
X0199607Y0008183D01*
X0199461Y0008159D01*
X0199314Y0008139D01*
X0199167Y0008123D01*
X0199020Y0008111D01*
X0198872Y0008103D01*
X0198724Y0008099D01*
X0198576Y0008099D01*
X0198428Y0008103D01*
X0198280Y0008111D01*
X0198133Y0008123D01*
X0197986Y0008139D01*
X0197839Y0008159D01*
X0197693Y0008183D01*
X0197547Y0008210D01*
X0197403Y0008242D01*
X0197259Y0008277D01*
X0197116Y0008317D01*
X0196975Y0008360D01*
X0196834Y0008407D01*
X0196695Y0008457D01*
X0196558Y0008512D01*
X0196422Y0008570D01*
X0196287Y0008631D01*
X0196154Y0008696D01*
X0196023Y0008765D01*
X0195894Y0008837D01*
X0195767Y0008913D01*
X0195642Y0008992D01*
X0195519Y0009075D01*
X0195398Y0009160D01*
X0195280Y0009249D01*
X0195164Y0009341D01*
X0195051Y0009437D01*
X0194940Y0009535D01*
X0194832Y0009636D01*
X0194726Y0009740D01*
X0194624Y0009846D01*
X0194524Y0009956D01*
X0194428Y0010068D01*
X0194334Y0010183D01*
X0194243Y0010300D01*
X0194156Y0010419D01*
X0194072Y0010541D01*
X0193991Y0010665D01*
X0193914Y0010791D01*
X0193840Y0010919D01*
X0193769Y0011049D01*
X0193702Y0011181D01*
X0193639Y0011315D01*
X0193579Y0011450D01*
X0193523Y0011587D01*
X0193470Y0011726D01*
X0193422Y0011866D01*
X0193377Y0012007D01*
X0193336Y0012149D01*
X0193298Y0012292D01*
X0193265Y0012436D01*
X0193235Y0012581D01*
X0193209Y0012727D01*
X0193188Y0012873D01*
X0193170Y0013020D01*
X0193156Y0013167D01*
X0193146Y0013315D01*
X0193140Y0013463D01*
X0193138Y0013611D01*
X0378178Y0013611D02*
X0378180Y0013759D01*
X0378186Y0013907D01*
X0378196Y0014055D01*
X0378210Y0014202D01*
X0378228Y0014349D01*
X0378249Y0014495D01*
X0378275Y0014641D01*
X0378305Y0014786D01*
X0378338Y0014930D01*
X0378376Y0015073D01*
X0378417Y0015215D01*
X0378462Y0015356D01*
X0378510Y0015496D01*
X0378563Y0015635D01*
X0378619Y0015772D01*
X0378679Y0015907D01*
X0378742Y0016041D01*
X0378809Y0016173D01*
X0378880Y0016303D01*
X0378954Y0016431D01*
X0379031Y0016557D01*
X0379112Y0016681D01*
X0379196Y0016803D01*
X0379283Y0016922D01*
X0379374Y0017039D01*
X0379468Y0017154D01*
X0379564Y0017266D01*
X0379664Y0017376D01*
X0379766Y0017482D01*
X0379872Y0017586D01*
X0379980Y0017687D01*
X0380091Y0017785D01*
X0380204Y0017881D01*
X0380320Y0017973D01*
X0380438Y0018062D01*
X0380559Y0018147D01*
X0380682Y0018230D01*
X0380807Y0018309D01*
X0380934Y0018385D01*
X0381063Y0018457D01*
X0381194Y0018526D01*
X0381327Y0018591D01*
X0381462Y0018652D01*
X0381598Y0018710D01*
X0381735Y0018765D01*
X0381874Y0018815D01*
X0382015Y0018862D01*
X0382156Y0018905D01*
X0382299Y0018945D01*
X0382443Y0018980D01*
X0382587Y0019012D01*
X0382733Y0019039D01*
X0382879Y0019063D01*
X0383026Y0019083D01*
X0383173Y0019099D01*
X0383320Y0019111D01*
X0383468Y0019119D01*
X0383616Y0019123D01*
X0383764Y0019123D01*
X0383912Y0019119D01*
X0384060Y0019111D01*
X0384207Y0019099D01*
X0384354Y0019083D01*
X0384501Y0019063D01*
X0384647Y0019039D01*
X0384793Y0019012D01*
X0384937Y0018980D01*
X0385081Y0018945D01*
X0385224Y0018905D01*
X0385365Y0018862D01*
X0385506Y0018815D01*
X0385645Y0018765D01*
X0385782Y0018710D01*
X0385918Y0018652D01*
X0386053Y0018591D01*
X0386186Y0018526D01*
X0386317Y0018457D01*
X0386446Y0018385D01*
X0386573Y0018309D01*
X0386698Y0018230D01*
X0386821Y0018147D01*
X0386942Y0018062D01*
X0387060Y0017973D01*
X0387176Y0017881D01*
X0387289Y0017785D01*
X0387400Y0017687D01*
X0387508Y0017586D01*
X0387614Y0017482D01*
X0387716Y0017376D01*
X0387816Y0017266D01*
X0387912Y0017154D01*
X0388006Y0017039D01*
X0388097Y0016922D01*
X0388184Y0016803D01*
X0388268Y0016681D01*
X0388349Y0016557D01*
X0388426Y0016431D01*
X0388500Y0016303D01*
X0388571Y0016173D01*
X0388638Y0016041D01*
X0388701Y0015907D01*
X0388761Y0015772D01*
X0388817Y0015635D01*
X0388870Y0015496D01*
X0388918Y0015356D01*
X0388963Y0015215D01*
X0389004Y0015073D01*
X0389042Y0014930D01*
X0389075Y0014786D01*
X0389105Y0014641D01*
X0389131Y0014495D01*
X0389152Y0014349D01*
X0389170Y0014202D01*
X0389184Y0014055D01*
X0389194Y0013907D01*
X0389200Y0013759D01*
X0389202Y0013611D01*
X0389200Y0013463D01*
X0389194Y0013315D01*
X0389184Y0013167D01*
X0389170Y0013020D01*
X0389152Y0012873D01*
X0389131Y0012727D01*
X0389105Y0012581D01*
X0389075Y0012436D01*
X0389042Y0012292D01*
X0389004Y0012149D01*
X0388963Y0012007D01*
X0388918Y0011866D01*
X0388870Y0011726D01*
X0388817Y0011587D01*
X0388761Y0011450D01*
X0388701Y0011315D01*
X0388638Y0011181D01*
X0388571Y0011049D01*
X0388500Y0010919D01*
X0388426Y0010791D01*
X0388349Y0010665D01*
X0388268Y0010541D01*
X0388184Y0010419D01*
X0388097Y0010300D01*
X0388006Y0010183D01*
X0387912Y0010068D01*
X0387816Y0009956D01*
X0387716Y0009846D01*
X0387614Y0009740D01*
X0387508Y0009636D01*
X0387400Y0009535D01*
X0387289Y0009437D01*
X0387176Y0009341D01*
X0387060Y0009249D01*
X0386942Y0009160D01*
X0386821Y0009075D01*
X0386698Y0008992D01*
X0386573Y0008913D01*
X0386446Y0008837D01*
X0386317Y0008765D01*
X0386186Y0008696D01*
X0386053Y0008631D01*
X0385918Y0008570D01*
X0385782Y0008512D01*
X0385645Y0008457D01*
X0385506Y0008407D01*
X0385365Y0008360D01*
X0385224Y0008317D01*
X0385081Y0008277D01*
X0384937Y0008242D01*
X0384793Y0008210D01*
X0384647Y0008183D01*
X0384501Y0008159D01*
X0384354Y0008139D01*
X0384207Y0008123D01*
X0384060Y0008111D01*
X0383912Y0008103D01*
X0383764Y0008099D01*
X0383616Y0008099D01*
X0383468Y0008103D01*
X0383320Y0008111D01*
X0383173Y0008123D01*
X0383026Y0008139D01*
X0382879Y0008159D01*
X0382733Y0008183D01*
X0382587Y0008210D01*
X0382443Y0008242D01*
X0382299Y0008277D01*
X0382156Y0008317D01*
X0382015Y0008360D01*
X0381874Y0008407D01*
X0381735Y0008457D01*
X0381598Y0008512D01*
X0381462Y0008570D01*
X0381327Y0008631D01*
X0381194Y0008696D01*
X0381063Y0008765D01*
X0380934Y0008837D01*
X0380807Y0008913D01*
X0380682Y0008992D01*
X0380559Y0009075D01*
X0380438Y0009160D01*
X0380320Y0009249D01*
X0380204Y0009341D01*
X0380091Y0009437D01*
X0379980Y0009535D01*
X0379872Y0009636D01*
X0379766Y0009740D01*
X0379664Y0009846D01*
X0379564Y0009956D01*
X0379468Y0010068D01*
X0379374Y0010183D01*
X0379283Y0010300D01*
X0379196Y0010419D01*
X0379112Y0010541D01*
X0379031Y0010665D01*
X0378954Y0010791D01*
X0378880Y0010919D01*
X0378809Y0011049D01*
X0378742Y0011181D01*
X0378679Y0011315D01*
X0378619Y0011450D01*
X0378563Y0011587D01*
X0378510Y0011726D01*
X0378462Y0011866D01*
X0378417Y0012007D01*
X0378376Y0012149D01*
X0378338Y0012292D01*
X0378305Y0012436D01*
X0378275Y0012581D01*
X0378249Y0012727D01*
X0378228Y0012873D01*
X0378210Y0013020D01*
X0378196Y0013167D01*
X0378186Y0013315D01*
X0378180Y0013463D01*
X0378178Y0013611D01*
X0378178Y0147469D02*
X0378180Y0147617D01*
X0378186Y0147765D01*
X0378196Y0147913D01*
X0378210Y0148060D01*
X0378228Y0148207D01*
X0378249Y0148353D01*
X0378275Y0148499D01*
X0378305Y0148644D01*
X0378338Y0148788D01*
X0378376Y0148931D01*
X0378417Y0149073D01*
X0378462Y0149214D01*
X0378510Y0149354D01*
X0378563Y0149493D01*
X0378619Y0149630D01*
X0378679Y0149765D01*
X0378742Y0149899D01*
X0378809Y0150031D01*
X0378880Y0150161D01*
X0378954Y0150289D01*
X0379031Y0150415D01*
X0379112Y0150539D01*
X0379196Y0150661D01*
X0379283Y0150780D01*
X0379374Y0150897D01*
X0379468Y0151012D01*
X0379564Y0151124D01*
X0379664Y0151234D01*
X0379766Y0151340D01*
X0379872Y0151444D01*
X0379980Y0151545D01*
X0380091Y0151643D01*
X0380204Y0151739D01*
X0380320Y0151831D01*
X0380438Y0151920D01*
X0380559Y0152005D01*
X0380682Y0152088D01*
X0380807Y0152167D01*
X0380934Y0152243D01*
X0381063Y0152315D01*
X0381194Y0152384D01*
X0381327Y0152449D01*
X0381462Y0152510D01*
X0381598Y0152568D01*
X0381735Y0152623D01*
X0381874Y0152673D01*
X0382015Y0152720D01*
X0382156Y0152763D01*
X0382299Y0152803D01*
X0382443Y0152838D01*
X0382587Y0152870D01*
X0382733Y0152897D01*
X0382879Y0152921D01*
X0383026Y0152941D01*
X0383173Y0152957D01*
X0383320Y0152969D01*
X0383468Y0152977D01*
X0383616Y0152981D01*
X0383764Y0152981D01*
X0383912Y0152977D01*
X0384060Y0152969D01*
X0384207Y0152957D01*
X0384354Y0152941D01*
X0384501Y0152921D01*
X0384647Y0152897D01*
X0384793Y0152870D01*
X0384937Y0152838D01*
X0385081Y0152803D01*
X0385224Y0152763D01*
X0385365Y0152720D01*
X0385506Y0152673D01*
X0385645Y0152623D01*
X0385782Y0152568D01*
X0385918Y0152510D01*
X0386053Y0152449D01*
X0386186Y0152384D01*
X0386317Y0152315D01*
X0386446Y0152243D01*
X0386573Y0152167D01*
X0386698Y0152088D01*
X0386821Y0152005D01*
X0386942Y0151920D01*
X0387060Y0151831D01*
X0387176Y0151739D01*
X0387289Y0151643D01*
X0387400Y0151545D01*
X0387508Y0151444D01*
X0387614Y0151340D01*
X0387716Y0151234D01*
X0387816Y0151124D01*
X0387912Y0151012D01*
X0388006Y0150897D01*
X0388097Y0150780D01*
X0388184Y0150661D01*
X0388268Y0150539D01*
X0388349Y0150415D01*
X0388426Y0150289D01*
X0388500Y0150161D01*
X0388571Y0150031D01*
X0388638Y0149899D01*
X0388701Y0149765D01*
X0388761Y0149630D01*
X0388817Y0149493D01*
X0388870Y0149354D01*
X0388918Y0149214D01*
X0388963Y0149073D01*
X0389004Y0148931D01*
X0389042Y0148788D01*
X0389075Y0148644D01*
X0389105Y0148499D01*
X0389131Y0148353D01*
X0389152Y0148207D01*
X0389170Y0148060D01*
X0389184Y0147913D01*
X0389194Y0147765D01*
X0389200Y0147617D01*
X0389202Y0147469D01*
X0389200Y0147321D01*
X0389194Y0147173D01*
X0389184Y0147025D01*
X0389170Y0146878D01*
X0389152Y0146731D01*
X0389131Y0146585D01*
X0389105Y0146439D01*
X0389075Y0146294D01*
X0389042Y0146150D01*
X0389004Y0146007D01*
X0388963Y0145865D01*
X0388918Y0145724D01*
X0388870Y0145584D01*
X0388817Y0145445D01*
X0388761Y0145308D01*
X0388701Y0145173D01*
X0388638Y0145039D01*
X0388571Y0144907D01*
X0388500Y0144777D01*
X0388426Y0144649D01*
X0388349Y0144523D01*
X0388268Y0144399D01*
X0388184Y0144277D01*
X0388097Y0144158D01*
X0388006Y0144041D01*
X0387912Y0143926D01*
X0387816Y0143814D01*
X0387716Y0143704D01*
X0387614Y0143598D01*
X0387508Y0143494D01*
X0387400Y0143393D01*
X0387289Y0143295D01*
X0387176Y0143199D01*
X0387060Y0143107D01*
X0386942Y0143018D01*
X0386821Y0142933D01*
X0386698Y0142850D01*
X0386573Y0142771D01*
X0386446Y0142695D01*
X0386317Y0142623D01*
X0386186Y0142554D01*
X0386053Y0142489D01*
X0385918Y0142428D01*
X0385782Y0142370D01*
X0385645Y0142315D01*
X0385506Y0142265D01*
X0385365Y0142218D01*
X0385224Y0142175D01*
X0385081Y0142135D01*
X0384937Y0142100D01*
X0384793Y0142068D01*
X0384647Y0142041D01*
X0384501Y0142017D01*
X0384354Y0141997D01*
X0384207Y0141981D01*
X0384060Y0141969D01*
X0383912Y0141961D01*
X0383764Y0141957D01*
X0383616Y0141957D01*
X0383468Y0141961D01*
X0383320Y0141969D01*
X0383173Y0141981D01*
X0383026Y0141997D01*
X0382879Y0142017D01*
X0382733Y0142041D01*
X0382587Y0142068D01*
X0382443Y0142100D01*
X0382299Y0142135D01*
X0382156Y0142175D01*
X0382015Y0142218D01*
X0381874Y0142265D01*
X0381735Y0142315D01*
X0381598Y0142370D01*
X0381462Y0142428D01*
X0381327Y0142489D01*
X0381194Y0142554D01*
X0381063Y0142623D01*
X0380934Y0142695D01*
X0380807Y0142771D01*
X0380682Y0142850D01*
X0380559Y0142933D01*
X0380438Y0143018D01*
X0380320Y0143107D01*
X0380204Y0143199D01*
X0380091Y0143295D01*
X0379980Y0143393D01*
X0379872Y0143494D01*
X0379766Y0143598D01*
X0379664Y0143704D01*
X0379564Y0143814D01*
X0379468Y0143926D01*
X0379374Y0144041D01*
X0379283Y0144158D01*
X0379196Y0144277D01*
X0379112Y0144399D01*
X0379031Y0144523D01*
X0378954Y0144649D01*
X0378880Y0144777D01*
X0378809Y0144907D01*
X0378742Y0145039D01*
X0378679Y0145173D01*
X0378619Y0145308D01*
X0378563Y0145445D01*
X0378510Y0145584D01*
X0378462Y0145724D01*
X0378417Y0145865D01*
X0378376Y0146007D01*
X0378338Y0146150D01*
X0378305Y0146294D01*
X0378275Y0146439D01*
X0378249Y0146585D01*
X0378228Y0146731D01*
X0378210Y0146878D01*
X0378196Y0147025D01*
X0378186Y0147173D01*
X0378180Y0147321D01*
X0378178Y0147469D01*
X0193138Y0147469D02*
X0193140Y0147617D01*
X0193146Y0147765D01*
X0193156Y0147913D01*
X0193170Y0148060D01*
X0193188Y0148207D01*
X0193209Y0148353D01*
X0193235Y0148499D01*
X0193265Y0148644D01*
X0193298Y0148788D01*
X0193336Y0148931D01*
X0193377Y0149073D01*
X0193422Y0149214D01*
X0193470Y0149354D01*
X0193523Y0149493D01*
X0193579Y0149630D01*
X0193639Y0149765D01*
X0193702Y0149899D01*
X0193769Y0150031D01*
X0193840Y0150161D01*
X0193914Y0150289D01*
X0193991Y0150415D01*
X0194072Y0150539D01*
X0194156Y0150661D01*
X0194243Y0150780D01*
X0194334Y0150897D01*
X0194428Y0151012D01*
X0194524Y0151124D01*
X0194624Y0151234D01*
X0194726Y0151340D01*
X0194832Y0151444D01*
X0194940Y0151545D01*
X0195051Y0151643D01*
X0195164Y0151739D01*
X0195280Y0151831D01*
X0195398Y0151920D01*
X0195519Y0152005D01*
X0195642Y0152088D01*
X0195767Y0152167D01*
X0195894Y0152243D01*
X0196023Y0152315D01*
X0196154Y0152384D01*
X0196287Y0152449D01*
X0196422Y0152510D01*
X0196558Y0152568D01*
X0196695Y0152623D01*
X0196834Y0152673D01*
X0196975Y0152720D01*
X0197116Y0152763D01*
X0197259Y0152803D01*
X0197403Y0152838D01*
X0197547Y0152870D01*
X0197693Y0152897D01*
X0197839Y0152921D01*
X0197986Y0152941D01*
X0198133Y0152957D01*
X0198280Y0152969D01*
X0198428Y0152977D01*
X0198576Y0152981D01*
X0198724Y0152981D01*
X0198872Y0152977D01*
X0199020Y0152969D01*
X0199167Y0152957D01*
X0199314Y0152941D01*
X0199461Y0152921D01*
X0199607Y0152897D01*
X0199753Y0152870D01*
X0199897Y0152838D01*
X0200041Y0152803D01*
X0200184Y0152763D01*
X0200325Y0152720D01*
X0200466Y0152673D01*
X0200605Y0152623D01*
X0200742Y0152568D01*
X0200878Y0152510D01*
X0201013Y0152449D01*
X0201146Y0152384D01*
X0201277Y0152315D01*
X0201406Y0152243D01*
X0201533Y0152167D01*
X0201658Y0152088D01*
X0201781Y0152005D01*
X0201902Y0151920D01*
X0202020Y0151831D01*
X0202136Y0151739D01*
X0202249Y0151643D01*
X0202360Y0151545D01*
X0202468Y0151444D01*
X0202574Y0151340D01*
X0202676Y0151234D01*
X0202776Y0151124D01*
X0202872Y0151012D01*
X0202966Y0150897D01*
X0203057Y0150780D01*
X0203144Y0150661D01*
X0203228Y0150539D01*
X0203309Y0150415D01*
X0203386Y0150289D01*
X0203460Y0150161D01*
X0203531Y0150031D01*
X0203598Y0149899D01*
X0203661Y0149765D01*
X0203721Y0149630D01*
X0203777Y0149493D01*
X0203830Y0149354D01*
X0203878Y0149214D01*
X0203923Y0149073D01*
X0203964Y0148931D01*
X0204002Y0148788D01*
X0204035Y0148644D01*
X0204065Y0148499D01*
X0204091Y0148353D01*
X0204112Y0148207D01*
X0204130Y0148060D01*
X0204144Y0147913D01*
X0204154Y0147765D01*
X0204160Y0147617D01*
X0204162Y0147469D01*
X0204160Y0147321D01*
X0204154Y0147173D01*
X0204144Y0147025D01*
X0204130Y0146878D01*
X0204112Y0146731D01*
X0204091Y0146585D01*
X0204065Y0146439D01*
X0204035Y0146294D01*
X0204002Y0146150D01*
X0203964Y0146007D01*
X0203923Y0145865D01*
X0203878Y0145724D01*
X0203830Y0145584D01*
X0203777Y0145445D01*
X0203721Y0145308D01*
X0203661Y0145173D01*
X0203598Y0145039D01*
X0203531Y0144907D01*
X0203460Y0144777D01*
X0203386Y0144649D01*
X0203309Y0144523D01*
X0203228Y0144399D01*
X0203144Y0144277D01*
X0203057Y0144158D01*
X0202966Y0144041D01*
X0202872Y0143926D01*
X0202776Y0143814D01*
X0202676Y0143704D01*
X0202574Y0143598D01*
X0202468Y0143494D01*
X0202360Y0143393D01*
X0202249Y0143295D01*
X0202136Y0143199D01*
X0202020Y0143107D01*
X0201902Y0143018D01*
X0201781Y0142933D01*
X0201658Y0142850D01*
X0201533Y0142771D01*
X0201406Y0142695D01*
X0201277Y0142623D01*
X0201146Y0142554D01*
X0201013Y0142489D01*
X0200878Y0142428D01*
X0200742Y0142370D01*
X0200605Y0142315D01*
X0200466Y0142265D01*
X0200325Y0142218D01*
X0200184Y0142175D01*
X0200041Y0142135D01*
X0199897Y0142100D01*
X0199753Y0142068D01*
X0199607Y0142041D01*
X0199461Y0142017D01*
X0199314Y0141997D01*
X0199167Y0141981D01*
X0199020Y0141969D01*
X0198872Y0141961D01*
X0198724Y0141957D01*
X0198576Y0141957D01*
X0198428Y0141961D01*
X0198280Y0141969D01*
X0198133Y0141981D01*
X0197986Y0141997D01*
X0197839Y0142017D01*
X0197693Y0142041D01*
X0197547Y0142068D01*
X0197403Y0142100D01*
X0197259Y0142135D01*
X0197116Y0142175D01*
X0196975Y0142218D01*
X0196834Y0142265D01*
X0196695Y0142315D01*
X0196558Y0142370D01*
X0196422Y0142428D01*
X0196287Y0142489D01*
X0196154Y0142554D01*
X0196023Y0142623D01*
X0195894Y0142695D01*
X0195767Y0142771D01*
X0195642Y0142850D01*
X0195519Y0142933D01*
X0195398Y0143018D01*
X0195280Y0143107D01*
X0195164Y0143199D01*
X0195051Y0143295D01*
X0194940Y0143393D01*
X0194832Y0143494D01*
X0194726Y0143598D01*
X0194624Y0143704D01*
X0194524Y0143814D01*
X0194428Y0143926D01*
X0194334Y0144041D01*
X0194243Y0144158D01*
X0194156Y0144277D01*
X0194072Y0144399D01*
X0193991Y0144523D01*
X0193914Y0144649D01*
X0193840Y0144777D01*
X0193769Y0144907D01*
X0193702Y0145039D01*
X0193639Y0145173D01*
X0193579Y0145308D01*
X0193523Y0145445D01*
X0193470Y0145584D01*
X0193422Y0145724D01*
X0193377Y0145865D01*
X0193336Y0146007D01*
X0193298Y0146150D01*
X0193265Y0146294D01*
X0193235Y0146439D01*
X0193209Y0146585D01*
X0193188Y0146731D01*
X0193170Y0146878D01*
X0193156Y0147025D01*
X0193146Y0147173D01*
X0193140Y0147321D01*
X0193138Y0147469D01*
X0008099Y0147469D02*
X0008101Y0147617D01*
X0008107Y0147765D01*
X0008117Y0147913D01*
X0008131Y0148060D01*
X0008149Y0148207D01*
X0008170Y0148353D01*
X0008196Y0148499D01*
X0008226Y0148644D01*
X0008259Y0148788D01*
X0008297Y0148931D01*
X0008338Y0149073D01*
X0008383Y0149214D01*
X0008431Y0149354D01*
X0008484Y0149493D01*
X0008540Y0149630D01*
X0008600Y0149765D01*
X0008663Y0149899D01*
X0008730Y0150031D01*
X0008801Y0150161D01*
X0008875Y0150289D01*
X0008952Y0150415D01*
X0009033Y0150539D01*
X0009117Y0150661D01*
X0009204Y0150780D01*
X0009295Y0150897D01*
X0009389Y0151012D01*
X0009485Y0151124D01*
X0009585Y0151234D01*
X0009687Y0151340D01*
X0009793Y0151444D01*
X0009901Y0151545D01*
X0010012Y0151643D01*
X0010125Y0151739D01*
X0010241Y0151831D01*
X0010359Y0151920D01*
X0010480Y0152005D01*
X0010603Y0152088D01*
X0010728Y0152167D01*
X0010855Y0152243D01*
X0010984Y0152315D01*
X0011115Y0152384D01*
X0011248Y0152449D01*
X0011383Y0152510D01*
X0011519Y0152568D01*
X0011656Y0152623D01*
X0011795Y0152673D01*
X0011936Y0152720D01*
X0012077Y0152763D01*
X0012220Y0152803D01*
X0012364Y0152838D01*
X0012508Y0152870D01*
X0012654Y0152897D01*
X0012800Y0152921D01*
X0012947Y0152941D01*
X0013094Y0152957D01*
X0013241Y0152969D01*
X0013389Y0152977D01*
X0013537Y0152981D01*
X0013685Y0152981D01*
X0013833Y0152977D01*
X0013981Y0152969D01*
X0014128Y0152957D01*
X0014275Y0152941D01*
X0014422Y0152921D01*
X0014568Y0152897D01*
X0014714Y0152870D01*
X0014858Y0152838D01*
X0015002Y0152803D01*
X0015145Y0152763D01*
X0015286Y0152720D01*
X0015427Y0152673D01*
X0015566Y0152623D01*
X0015703Y0152568D01*
X0015839Y0152510D01*
X0015974Y0152449D01*
X0016107Y0152384D01*
X0016238Y0152315D01*
X0016367Y0152243D01*
X0016494Y0152167D01*
X0016619Y0152088D01*
X0016742Y0152005D01*
X0016863Y0151920D01*
X0016981Y0151831D01*
X0017097Y0151739D01*
X0017210Y0151643D01*
X0017321Y0151545D01*
X0017429Y0151444D01*
X0017535Y0151340D01*
X0017637Y0151234D01*
X0017737Y0151124D01*
X0017833Y0151012D01*
X0017927Y0150897D01*
X0018018Y0150780D01*
X0018105Y0150661D01*
X0018189Y0150539D01*
X0018270Y0150415D01*
X0018347Y0150289D01*
X0018421Y0150161D01*
X0018492Y0150031D01*
X0018559Y0149899D01*
X0018622Y0149765D01*
X0018682Y0149630D01*
X0018738Y0149493D01*
X0018791Y0149354D01*
X0018839Y0149214D01*
X0018884Y0149073D01*
X0018925Y0148931D01*
X0018963Y0148788D01*
X0018996Y0148644D01*
X0019026Y0148499D01*
X0019052Y0148353D01*
X0019073Y0148207D01*
X0019091Y0148060D01*
X0019105Y0147913D01*
X0019115Y0147765D01*
X0019121Y0147617D01*
X0019123Y0147469D01*
X0019121Y0147321D01*
X0019115Y0147173D01*
X0019105Y0147025D01*
X0019091Y0146878D01*
X0019073Y0146731D01*
X0019052Y0146585D01*
X0019026Y0146439D01*
X0018996Y0146294D01*
X0018963Y0146150D01*
X0018925Y0146007D01*
X0018884Y0145865D01*
X0018839Y0145724D01*
X0018791Y0145584D01*
X0018738Y0145445D01*
X0018682Y0145308D01*
X0018622Y0145173D01*
X0018559Y0145039D01*
X0018492Y0144907D01*
X0018421Y0144777D01*
X0018347Y0144649D01*
X0018270Y0144523D01*
X0018189Y0144399D01*
X0018105Y0144277D01*
X0018018Y0144158D01*
X0017927Y0144041D01*
X0017833Y0143926D01*
X0017737Y0143814D01*
X0017637Y0143704D01*
X0017535Y0143598D01*
X0017429Y0143494D01*
X0017321Y0143393D01*
X0017210Y0143295D01*
X0017097Y0143199D01*
X0016981Y0143107D01*
X0016863Y0143018D01*
X0016742Y0142933D01*
X0016619Y0142850D01*
X0016494Y0142771D01*
X0016367Y0142695D01*
X0016238Y0142623D01*
X0016107Y0142554D01*
X0015974Y0142489D01*
X0015839Y0142428D01*
X0015703Y0142370D01*
X0015566Y0142315D01*
X0015427Y0142265D01*
X0015286Y0142218D01*
X0015145Y0142175D01*
X0015002Y0142135D01*
X0014858Y0142100D01*
X0014714Y0142068D01*
X0014568Y0142041D01*
X0014422Y0142017D01*
X0014275Y0141997D01*
X0014128Y0141981D01*
X0013981Y0141969D01*
X0013833Y0141961D01*
X0013685Y0141957D01*
X0013537Y0141957D01*
X0013389Y0141961D01*
X0013241Y0141969D01*
X0013094Y0141981D01*
X0012947Y0141997D01*
X0012800Y0142017D01*
X0012654Y0142041D01*
X0012508Y0142068D01*
X0012364Y0142100D01*
X0012220Y0142135D01*
X0012077Y0142175D01*
X0011936Y0142218D01*
X0011795Y0142265D01*
X0011656Y0142315D01*
X0011519Y0142370D01*
X0011383Y0142428D01*
X0011248Y0142489D01*
X0011115Y0142554D01*
X0010984Y0142623D01*
X0010855Y0142695D01*
X0010728Y0142771D01*
X0010603Y0142850D01*
X0010480Y0142933D01*
X0010359Y0143018D01*
X0010241Y0143107D01*
X0010125Y0143199D01*
X0010012Y0143295D01*
X0009901Y0143393D01*
X0009793Y0143494D01*
X0009687Y0143598D01*
X0009585Y0143704D01*
X0009485Y0143814D01*
X0009389Y0143926D01*
X0009295Y0144041D01*
X0009204Y0144158D01*
X0009117Y0144277D01*
X0009033Y0144399D01*
X0008952Y0144523D01*
X0008875Y0144649D01*
X0008801Y0144777D01*
X0008730Y0144907D01*
X0008663Y0145039D01*
X0008600Y0145173D01*
X0008540Y0145308D01*
X0008484Y0145445D01*
X0008431Y0145584D01*
X0008383Y0145724D01*
X0008338Y0145865D01*
X0008297Y0146007D01*
X0008259Y0146150D01*
X0008226Y0146294D01*
X0008196Y0146439D01*
X0008170Y0146585D01*
X0008149Y0146731D01*
X0008131Y0146878D01*
X0008117Y0147025D01*
X0008107Y0147173D01*
X0008101Y0147321D01*
X0008099Y0147469D01*
D12*
X0069029Y0147936D02*
X0072232Y0147936D01*
X0073299Y0149004D01*
X0073299Y0151139D01*
X0072232Y0152206D01*
X0069029Y0152206D01*
X0069029Y0145801D01*
X0071164Y0147936D02*
X0073299Y0145801D01*
X0075475Y0146868D02*
X0075475Y0149004D01*
X0076542Y0150071D01*
X0078677Y0150071D01*
X0079745Y0149004D01*
X0079745Y0147936D01*
X0075475Y0147936D01*
X0075475Y0146868D02*
X0076542Y0145801D01*
X0078677Y0145801D01*
X0081920Y0145801D02*
X0081920Y0150071D01*
X0082988Y0150071D01*
X0084055Y0149004D01*
X0085123Y0150071D01*
X0086190Y0149004D01*
X0086190Y0145801D01*
X0084055Y0145801D02*
X0084055Y0149004D01*
X0088366Y0149004D02*
X0088366Y0146868D01*
X0089433Y0145801D01*
X0091568Y0145801D01*
X0092636Y0146868D01*
X0092636Y0149004D01*
X0091568Y0150071D01*
X0089433Y0150071D01*
X0088366Y0149004D01*
X0094811Y0150071D02*
X0096946Y0150071D01*
X0095879Y0151139D02*
X0095879Y0146868D01*
X0096946Y0145801D01*
X0099108Y0146868D02*
X0099108Y0149004D01*
X0100176Y0150071D01*
X0102311Y0150071D01*
X0103378Y0149004D01*
X0103378Y0147936D01*
X0099108Y0147936D01*
X0099108Y0146868D02*
X0100176Y0145801D01*
X0102311Y0145801D01*
X0105554Y0145801D02*
X0108756Y0145801D01*
X0109824Y0146868D01*
X0109824Y0151139D01*
X0108756Y0152206D01*
X0105554Y0152206D01*
X0105554Y0145801D01*
X0111999Y0145801D02*
X0111999Y0150071D01*
X0114134Y0152206D01*
X0116269Y0150071D01*
X0116269Y0145801D01*
X0118445Y0146868D02*
X0119512Y0145801D01*
X0121647Y0145801D01*
X0122715Y0146868D01*
X0122715Y0151139D01*
X0121647Y0152206D01*
X0119512Y0152206D01*
X0118445Y0151139D01*
X0118445Y0146868D01*
X0120580Y0147936D02*
X0122715Y0145801D01*
X0116269Y0149004D02*
X0111999Y0149004D01*
X0131336Y0146868D02*
X0131336Y0151139D01*
X0132403Y0152206D01*
X0134538Y0152206D01*
X0135606Y0151139D01*
X0131336Y0146868D01*
X0132403Y0145801D01*
X0134538Y0145801D01*
X0135606Y0146868D01*
X0135606Y0151139D01*
X0141004Y0150071D02*
X0143139Y0152206D01*
X0143139Y0145801D01*
X0141004Y0145801D02*
X0145274Y0145801D01*
X0138849Y0145801D02*
X0137781Y0145801D01*
X0137781Y0146868D01*
X0138849Y0146868D01*
X0138849Y0145801D01*
X0019910Y0120619D02*
X0019910Y0040461D01*
X0069005Y0018729D02*
X0149162Y0018729D01*
X0276682Y0021879D02*
X0356839Y0021879D01*
X0356839Y0147863D02*
X0276682Y0147863D01*
D13*
X0007622Y0110909D02*
X0003919Y0110909D01*
X0003919Y0112761D01*
X0004536Y0113378D01*
X0005770Y0113378D01*
X0006387Y0112761D01*
X0006387Y0110909D01*
X0005153Y0107949D02*
X0003919Y0106715D01*
X0005153Y0105480D01*
X0007622Y0105480D01*
X0005770Y0104266D02*
X0005770Y0101797D01*
X0007004Y0103032D02*
X0004536Y0103032D01*
X0003919Y0097122D02*
X0006387Y0097122D01*
X0007622Y0095888D01*
X0006387Y0094654D01*
X0003919Y0094654D01*
X0005770Y0094654D02*
X0005770Y0097122D01*
X0006387Y0087280D02*
X0007622Y0086046D01*
X0003919Y0086046D01*
X0003919Y0087280D02*
X0003919Y0084811D01*
X0003919Y0076453D02*
X0006387Y0073984D01*
X0007004Y0073984D01*
X0007622Y0074602D01*
X0007622Y0075836D01*
X0007004Y0076453D01*
X0003919Y0076453D02*
X0003919Y0073984D01*
X0004536Y0069563D02*
X0003919Y0068946D01*
X0003919Y0067095D01*
X0003301Y0067095D02*
X0006387Y0067095D01*
X0006387Y0068946D01*
X0005770Y0069563D01*
X0004536Y0069563D01*
X0002684Y0068329D02*
X0002684Y0067712D01*
X0003301Y0067095D01*
X0003919Y0065880D02*
X0006387Y0065880D01*
X0006387Y0064029D01*
X0005770Y0063411D01*
X0003919Y0063411D01*
X0004536Y0062197D02*
X0003919Y0061580D01*
X0003919Y0059728D01*
X0007622Y0059728D01*
X0006387Y0059728D02*
X0006387Y0061580D01*
X0005770Y0062197D01*
X0004536Y0062197D01*
X0004536Y0056768D02*
X0003919Y0056151D01*
X0003919Y0054917D01*
X0004536Y0054299D01*
X0005153Y0054299D01*
X0005770Y0054917D01*
X0005770Y0055534D01*
X0005770Y0054917D02*
X0006387Y0054299D01*
X0007004Y0054299D01*
X0007622Y0054917D01*
X0007622Y0056151D01*
X0007004Y0056768D01*
X0005770Y0046926D02*
X0005770Y0044457D01*
X0003919Y0045074D02*
X0007622Y0045074D01*
X0005770Y0046926D01*
X0005153Y0107949D02*
X0007622Y0107949D01*
X0005770Y0114593D02*
X0003919Y0114593D01*
X0005770Y0114593D02*
X0006387Y0115210D01*
X0006387Y0117061D01*
X0003919Y0117061D01*
X0003919Y0118276D02*
X0003919Y0120127D01*
X0004536Y0120744D01*
X0005770Y0120744D01*
X0006387Y0120127D01*
X0006387Y0118276D01*
X0003301Y0118276D01*
X0002684Y0118893D01*
X0002684Y0119510D01*
D14*
X0009871Y0121052D02*
X0021288Y0121052D01*
X0021288Y0040028D01*
X0009871Y0040028D01*
X0009871Y0121052D01*
X0068572Y0020107D02*
X0068572Y0008690D01*
X0149595Y0008690D01*
X0149595Y0020107D01*
X0068572Y0020107D01*
X0276249Y0023257D02*
X0276249Y0011839D01*
X0357272Y0011839D01*
X0357272Y0023257D01*
X0276249Y0023257D01*
X0276249Y0137824D02*
X0276249Y0149241D01*
X0357272Y0149241D01*
X0357272Y0137824D01*
X0276249Y0137824D01*
D15*
X0275961Y0150732D02*
X0279030Y0155336D01*
X0280565Y0153802D02*
X0282099Y0155336D01*
X0282099Y0150732D01*
X0280565Y0150732D02*
X0283634Y0150732D01*
X0279030Y0150732D02*
X0275961Y0155336D01*
X0233667Y0122119D02*
X0232900Y0122887D01*
X0232132Y0122887D01*
X0231365Y0122119D01*
X0231365Y0119817D01*
X0232900Y0119817D01*
X0233667Y0120585D01*
X0233667Y0122119D01*
X0231365Y0119817D02*
X0229830Y0121352D01*
X0229063Y0122887D01*
X0223667Y0122119D02*
X0222900Y0122887D01*
X0219830Y0122887D01*
X0219063Y0122119D01*
X0219063Y0120585D01*
X0219830Y0119817D01*
X0220598Y0119817D01*
X0221365Y0120585D01*
X0221365Y0122887D01*
X0223667Y0122119D02*
X0223667Y0120585D01*
X0222900Y0119817D01*
X0222900Y0118283D02*
X0222132Y0118283D01*
X0221365Y0117515D01*
X0221365Y0116748D01*
X0221365Y0117515D02*
X0220598Y0118283D01*
X0219830Y0118283D01*
X0219063Y0117515D01*
X0219063Y0115981D01*
X0219830Y0115213D01*
X0222900Y0115213D02*
X0223667Y0115981D01*
X0223667Y0117515D01*
X0222900Y0118283D01*
X0229063Y0117515D02*
X0229830Y0118283D01*
X0230598Y0118283D01*
X0231365Y0117515D01*
X0232132Y0118283D01*
X0232900Y0118283D01*
X0233667Y0117515D01*
X0233667Y0115981D01*
X0232900Y0115213D01*
X0231365Y0116748D02*
X0231365Y0117515D01*
X0229063Y0117515D02*
X0229063Y0115981D01*
X0229830Y0115213D01*
X0213667Y0115981D02*
X0212900Y0115213D01*
X0213667Y0115981D02*
X0213667Y0117515D01*
X0212900Y0118283D01*
X0212132Y0118283D01*
X0211365Y0117515D01*
X0211365Y0115981D01*
X0210598Y0115213D01*
X0209830Y0115213D01*
X0209063Y0115981D01*
X0209063Y0117515D01*
X0209830Y0118283D01*
X0209063Y0119817D02*
X0209063Y0122887D01*
X0209063Y0121352D02*
X0213667Y0121352D01*
X0203667Y0122119D02*
X0199063Y0122119D01*
X0201365Y0119817D01*
X0201365Y0122887D01*
X0193667Y0122119D02*
X0193667Y0120585D01*
X0192900Y0119817D01*
X0192900Y0118283D02*
X0193667Y0117515D01*
X0193667Y0115981D01*
X0192900Y0115213D01*
X0191365Y0116748D02*
X0191365Y0117515D01*
X0192132Y0118283D01*
X0192900Y0118283D01*
X0191365Y0117515D02*
X0190598Y0118283D01*
X0189830Y0118283D01*
X0189063Y0117515D01*
X0189063Y0115981D01*
X0189830Y0115213D01*
X0183667Y0115981D02*
X0182900Y0115213D01*
X0183667Y0115981D02*
X0183667Y0117515D01*
X0182900Y0118283D01*
X0182132Y0118283D01*
X0181365Y0117515D01*
X0181365Y0116748D01*
X0181365Y0117515D02*
X0180598Y0118283D01*
X0179830Y0118283D01*
X0179063Y0117515D01*
X0179063Y0115981D01*
X0179830Y0115213D01*
X0173667Y0115981D02*
X0172900Y0115213D01*
X0173667Y0115981D02*
X0173667Y0117515D01*
X0172900Y0118283D01*
X0172132Y0118283D01*
X0171365Y0117515D01*
X0171365Y0116748D01*
X0171365Y0117515D02*
X0170598Y0118283D01*
X0169830Y0118283D01*
X0169063Y0117515D01*
X0169063Y0115981D01*
X0169830Y0115213D01*
X0163667Y0115213D02*
X0160598Y0118283D01*
X0159830Y0118283D01*
X0159063Y0117515D01*
X0159063Y0115981D01*
X0159830Y0115213D01*
X0163667Y0115213D02*
X0163667Y0118283D01*
X0162900Y0119817D02*
X0163667Y0120585D01*
X0163667Y0122119D01*
X0162900Y0122887D01*
X0161365Y0122887D01*
X0160598Y0122119D01*
X0160598Y0121352D01*
X0161365Y0119817D01*
X0159063Y0119817D01*
X0159063Y0122887D01*
X0153667Y0122119D02*
X0153667Y0120585D01*
X0152900Y0119817D01*
X0151365Y0119817D01*
X0151365Y0122119D01*
X0152132Y0122887D01*
X0152900Y0122887D01*
X0153667Y0122119D01*
X0151365Y0119817D02*
X0149830Y0121352D01*
X0149063Y0122887D01*
X0143667Y0119817D02*
X0142900Y0119817D01*
X0139830Y0122887D01*
X0139063Y0122887D01*
X0139063Y0119817D01*
X0139830Y0118283D02*
X0139063Y0117515D01*
X0139063Y0115981D01*
X0139830Y0115213D01*
X0140598Y0118283D02*
X0143667Y0115213D01*
X0143667Y0118283D01*
X0140598Y0118283D02*
X0139830Y0118283D01*
X0133667Y0118283D02*
X0133667Y0115213D01*
X0133667Y0116748D02*
X0129063Y0116748D01*
X0130598Y0115213D01*
X0123667Y0115213D02*
X0123667Y0118283D01*
X0123667Y0119817D02*
X0120598Y0122887D01*
X0119830Y0122887D01*
X0119063Y0122119D01*
X0119063Y0120585D01*
X0119830Y0119817D01*
X0123667Y0119817D02*
X0123667Y0122887D01*
X0129063Y0122119D02*
X0131365Y0119817D01*
X0131365Y0122887D01*
X0133667Y0122119D02*
X0129063Y0122119D01*
X0123667Y0116748D02*
X0119063Y0116748D01*
X0120598Y0115213D01*
X0113667Y0115213D02*
X0113667Y0118283D01*
X0113667Y0116748D02*
X0109063Y0116748D01*
X0110598Y0115213D01*
X0104267Y0115843D02*
X0099062Y0115843D01*
X0100797Y0114108D01*
X0104267Y0114108D02*
X0104267Y0117578D01*
X0103400Y0119265D02*
X0104267Y0120132D01*
X0104267Y0121867D01*
X0103400Y0122734D01*
X0101665Y0122734D01*
X0100797Y0121867D01*
X0100797Y0121000D01*
X0101665Y0119265D01*
X0099062Y0119265D01*
X0099062Y0122734D01*
X0094267Y0121867D02*
X0093400Y0122734D01*
X0089930Y0122734D01*
X0089062Y0121867D01*
X0089062Y0119265D01*
X0094267Y0119265D01*
X0094267Y0121867D01*
X0094267Y0117578D02*
X0089062Y0117578D01*
X0089062Y0114108D02*
X0094267Y0117578D01*
X0094267Y0114108D02*
X0089062Y0114108D01*
X0089930Y0112422D02*
X0089062Y0111554D01*
X0089062Y0109819D01*
X0089930Y0108952D01*
X0093400Y0108952D01*
X0094267Y0109819D01*
X0094267Y0111554D01*
X0093400Y0112422D01*
X0091665Y0112422D01*
X0091665Y0110687D01*
X0109063Y0120585D02*
X0109063Y0122119D01*
X0109830Y0122887D01*
X0110598Y0122887D01*
X0111365Y0122119D01*
X0112132Y0122887D01*
X0112900Y0122887D01*
X0113667Y0122119D01*
X0113667Y0120585D01*
X0112900Y0119817D01*
X0111365Y0121352D02*
X0111365Y0122119D01*
X0109830Y0119817D02*
X0109063Y0120585D01*
X0149063Y0117515D02*
X0149063Y0115981D01*
X0149830Y0115213D01*
X0149063Y0117515D02*
X0149830Y0118283D01*
X0150598Y0118283D01*
X0153667Y0115213D01*
X0153667Y0118283D01*
X0169063Y0120585D02*
X0169063Y0122119D01*
X0169830Y0122887D01*
X0170598Y0122887D01*
X0171365Y0122119D01*
X0172132Y0122887D01*
X0172900Y0122887D01*
X0173667Y0122119D01*
X0173667Y0120585D01*
X0172900Y0119817D01*
X0171365Y0121352D02*
X0171365Y0122119D01*
X0169830Y0119817D02*
X0169063Y0120585D01*
X0179063Y0120585D02*
X0179830Y0119817D01*
X0179063Y0120585D02*
X0179063Y0122119D01*
X0179830Y0122887D01*
X0180598Y0122887D01*
X0183667Y0119817D01*
X0183667Y0122887D01*
X0189063Y0122887D02*
X0189063Y0119817D01*
X0191365Y0119817D01*
X0190598Y0121352D01*
X0190598Y0122119D01*
X0191365Y0122887D01*
X0192900Y0122887D01*
X0193667Y0122119D01*
X0199063Y0117515D02*
X0199830Y0118283D01*
X0200598Y0118283D01*
X0201365Y0117515D01*
X0202132Y0118283D01*
X0202900Y0118283D01*
X0203667Y0117515D01*
X0203667Y0115981D01*
X0202900Y0115213D01*
X0201365Y0116748D02*
X0201365Y0117515D01*
X0199063Y0117515D02*
X0199063Y0115981D01*
X0199830Y0115213D01*
X0209063Y0112911D02*
X0209830Y0113679D01*
X0211365Y0113679D01*
X0212132Y0112911D01*
X0212132Y0110609D01*
X0213667Y0110609D02*
X0209063Y0110609D01*
X0209063Y0112911D01*
X0212132Y0112144D02*
X0213667Y0113679D01*
X0203667Y0057887D02*
X0203667Y0054817D01*
X0203667Y0056352D02*
X0199063Y0056352D01*
X0200598Y0054817D01*
X0193667Y0055585D02*
X0192900Y0054817D01*
X0193667Y0055585D02*
X0193667Y0057119D01*
X0192900Y0057887D01*
X0192132Y0057887D01*
X0191365Y0057119D01*
X0191365Y0056352D01*
X0191365Y0057119D02*
X0190598Y0057887D01*
X0189830Y0057887D01*
X0189063Y0057119D01*
X0189063Y0055585D01*
X0189830Y0054817D01*
X0183667Y0052887D02*
X0183667Y0049817D01*
X0180598Y0052887D01*
X0179830Y0052887D01*
X0179063Y0052119D01*
X0179063Y0050585D01*
X0179830Y0049817D01*
X0179830Y0048283D02*
X0179063Y0047515D01*
X0179063Y0045981D01*
X0179830Y0045213D01*
X0179830Y0048283D02*
X0180598Y0048283D01*
X0183667Y0045213D01*
X0183667Y0048283D01*
X0189063Y0044842D02*
X0189830Y0045609D01*
X0192900Y0045609D01*
X0193667Y0044842D01*
X0193667Y0042540D01*
X0189063Y0042540D01*
X0189063Y0044842D01*
X0189063Y0041005D02*
X0193667Y0037936D01*
X0193667Y0036402D02*
X0192132Y0034867D01*
X0192132Y0035634D02*
X0192132Y0033332D01*
X0193667Y0033332D02*
X0189063Y0033332D01*
X0189063Y0035634D01*
X0189830Y0036402D01*
X0191365Y0036402D01*
X0192132Y0035634D01*
X0189063Y0037936D02*
X0193667Y0041005D01*
X0199063Y0041005D02*
X0203667Y0037936D01*
X0203667Y0041005D02*
X0199063Y0037936D01*
X0199063Y0036402D02*
X0199063Y0033332D01*
X0199063Y0034867D02*
X0203667Y0034867D01*
X0219063Y0041377D02*
X0219063Y0042911D01*
X0219830Y0043679D01*
X0220598Y0043679D01*
X0221365Y0042911D01*
X0222132Y0043679D01*
X0222900Y0043679D01*
X0223667Y0042911D01*
X0223667Y0041377D01*
X0222900Y0040609D01*
X0221365Y0042144D02*
X0221365Y0042911D01*
X0219830Y0040609D02*
X0219063Y0041377D01*
X0229063Y0041377D02*
X0229830Y0040609D01*
X0232900Y0040609D01*
X0233667Y0041377D01*
X0233667Y0042911D01*
X0232900Y0043679D01*
X0231365Y0043679D01*
X0231365Y0042144D01*
X0229830Y0043679D02*
X0229063Y0042911D01*
X0229063Y0041377D01*
X0229063Y0045213D02*
X0233667Y0048283D01*
X0229063Y0048283D01*
X0229063Y0049817D02*
X0229063Y0052119D01*
X0229830Y0052887D01*
X0232900Y0052887D01*
X0233667Y0052119D01*
X0233667Y0049817D01*
X0229063Y0049817D01*
X0223667Y0050585D02*
X0222900Y0049817D01*
X0223667Y0050585D02*
X0223667Y0052119D01*
X0222900Y0052887D01*
X0222132Y0052887D01*
X0221365Y0052119D01*
X0221365Y0051352D01*
X0221365Y0052119D02*
X0220598Y0052887D01*
X0219830Y0052887D01*
X0219063Y0052119D01*
X0219063Y0050585D01*
X0219830Y0049817D01*
X0220598Y0048283D02*
X0223667Y0046748D01*
X0220598Y0045213D01*
X0213667Y0045213D02*
X0210598Y0048283D01*
X0209830Y0048283D01*
X0209063Y0047515D01*
X0209063Y0045981D01*
X0209830Y0045213D01*
X0213667Y0045213D02*
X0213667Y0048283D01*
X0213667Y0049817D02*
X0213667Y0052887D01*
X0213667Y0051352D02*
X0209063Y0051352D01*
X0210598Y0049817D01*
X0205202Y0047144D02*
X0203667Y0048679D01*
X0203667Y0047911D01*
X0202900Y0047911D01*
X0202900Y0048679D01*
X0203667Y0048679D01*
X0202900Y0045609D02*
X0199830Y0045609D01*
X0199063Y0044842D01*
X0199063Y0042540D01*
X0203667Y0042540D01*
X0203667Y0044842D01*
X0202900Y0045609D01*
X0195202Y0047144D02*
X0193667Y0048679D01*
X0193667Y0047911D01*
X0192900Y0047911D01*
X0192900Y0048679D01*
X0193667Y0048679D01*
X0173667Y0048283D02*
X0173667Y0045213D01*
X0173667Y0046748D02*
X0169063Y0046748D01*
X0170598Y0045213D01*
X0163667Y0045213D02*
X0163667Y0048283D01*
X0162900Y0049817D02*
X0163667Y0050585D01*
X0163667Y0052119D01*
X0162900Y0052887D01*
X0162132Y0052887D01*
X0161365Y0052119D01*
X0161365Y0051352D01*
X0161365Y0052119D02*
X0160598Y0052887D01*
X0159830Y0052887D01*
X0159063Y0052119D01*
X0159063Y0050585D01*
X0159830Y0049817D01*
X0159830Y0048283D02*
X0159063Y0047515D01*
X0159063Y0045981D01*
X0159830Y0045213D01*
X0159830Y0048283D02*
X0160598Y0048283D01*
X0163667Y0045213D01*
X0169063Y0050585D02*
X0169830Y0049817D01*
X0170598Y0049817D01*
X0171365Y0050585D01*
X0171365Y0052887D01*
X0172900Y0052887D02*
X0169830Y0052887D01*
X0169063Y0052119D01*
X0169063Y0050585D01*
X0172900Y0049817D02*
X0173667Y0050585D01*
X0173667Y0052119D01*
X0172900Y0052887D01*
X0153667Y0052119D02*
X0153667Y0050585D01*
X0152900Y0049817D01*
X0152132Y0049817D01*
X0151365Y0050585D01*
X0151365Y0052119D01*
X0152132Y0052887D01*
X0152900Y0052887D01*
X0153667Y0052119D01*
X0151365Y0052119D02*
X0150598Y0052887D01*
X0149830Y0052887D01*
X0149063Y0052119D01*
X0149063Y0050585D01*
X0149830Y0049817D01*
X0150598Y0049817D01*
X0151365Y0050585D01*
X0153667Y0048283D02*
X0153667Y0045213D01*
X0153667Y0046748D02*
X0149063Y0046748D01*
X0150598Y0045213D01*
X0143667Y0050585D02*
X0142900Y0049817D01*
X0143667Y0050585D02*
X0143667Y0052119D01*
X0142900Y0052887D01*
X0141365Y0052887D01*
X0140598Y0052119D01*
X0140598Y0051352D01*
X0141365Y0049817D01*
X0139063Y0049817D01*
X0139063Y0052887D01*
X0133667Y0052887D02*
X0133667Y0049817D01*
X0130598Y0052887D01*
X0129830Y0052887D01*
X0129063Y0052119D01*
X0129063Y0050585D01*
X0129830Y0049817D01*
X0123667Y0049817D02*
X0123667Y0052119D01*
X0122900Y0052887D01*
X0119830Y0052887D01*
X0119063Y0052119D01*
X0119063Y0049817D01*
X0123667Y0049817D01*
X0123667Y0048283D02*
X0119063Y0048283D01*
X0119063Y0045213D02*
X0123667Y0048283D01*
X0123667Y0045213D02*
X0119063Y0045213D01*
X0119830Y0043679D02*
X0119063Y0042911D01*
X0119063Y0041377D01*
X0119830Y0040609D01*
X0122900Y0040609D01*
X0123667Y0041377D01*
X0123667Y0042911D01*
X0122900Y0043679D01*
X0121365Y0043679D01*
X0121365Y0042144D01*
X0113667Y0050585D02*
X0112900Y0049817D01*
X0109830Y0052887D01*
X0112900Y0052887D01*
X0113667Y0052119D01*
X0113667Y0050585D01*
X0112900Y0049817D02*
X0109830Y0049817D01*
X0109063Y0050585D01*
X0109063Y0052119D01*
X0109830Y0052887D01*
X0103667Y0052119D02*
X0099063Y0052119D01*
X0101365Y0049817D01*
X0101365Y0052887D01*
X0093667Y0051352D02*
X0092132Y0049817D01*
X0089063Y0049817D01*
X0089063Y0048283D02*
X0089063Y0045213D01*
X0091365Y0045213D01*
X0090598Y0046748D01*
X0090598Y0047515D01*
X0091365Y0048283D01*
X0092900Y0048283D01*
X0093667Y0047515D01*
X0093667Y0045981D01*
X0092900Y0045213D01*
X0093667Y0051352D02*
X0092132Y0052887D01*
X0089063Y0052887D01*
X0060244Y0051172D02*
X0057175Y0051172D01*
X0059477Y0053474D01*
X0059477Y0048870D01*
X0054105Y0048870D02*
X0054105Y0053474D01*
X0052571Y0053474D02*
X0055640Y0053474D01*
X0054105Y0062650D02*
X0054105Y0067254D01*
X0052571Y0067254D02*
X0055640Y0067254D01*
X0057175Y0066486D02*
X0057942Y0067254D01*
X0059477Y0067254D01*
X0060244Y0066486D01*
X0060244Y0065719D01*
X0059477Y0064952D01*
X0060244Y0064184D01*
X0060244Y0063417D01*
X0059477Y0062650D01*
X0057942Y0062650D01*
X0057175Y0063417D01*
X0058709Y0064952D02*
X0059477Y0064952D01*
X0060244Y0076429D02*
X0057175Y0076429D01*
X0060244Y0079498D01*
X0060244Y0080266D01*
X0059477Y0081033D01*
X0057942Y0081033D01*
X0057175Y0080266D01*
X0055640Y0081033D02*
X0052571Y0081033D01*
X0054105Y0081033D02*
X0054105Y0076429D01*
X0054105Y0090209D02*
X0054105Y0094813D01*
X0052571Y0094813D02*
X0055640Y0094813D01*
X0057175Y0093278D02*
X0058709Y0094813D01*
X0058709Y0090209D01*
X0057175Y0090209D02*
X0060244Y0090209D01*
X0018870Y0123173D02*
X0015801Y0123173D01*
X0018870Y0126243D01*
X0018870Y0127010D01*
X0018103Y0127777D01*
X0016568Y0127777D01*
X0015801Y0127010D01*
X0014266Y0127777D02*
X0011197Y0123173D01*
X0014266Y0123173D02*
X0011197Y0127777D01*
X0229063Y0045213D02*
X0233667Y0045213D01*
X0275961Y0029352D02*
X0279030Y0024748D01*
X0280565Y0027050D02*
X0283634Y0027050D01*
X0282867Y0024748D02*
X0282867Y0029352D01*
X0280565Y0027050D01*
X0279030Y0029352D02*
X0275961Y0024748D01*
X0066114Y0016577D02*
X0066114Y0015809D01*
X0065347Y0015042D01*
X0066114Y0014275D01*
X0066114Y0013507D01*
X0065347Y0012740D01*
X0063812Y0012740D01*
X0063045Y0013507D01*
X0061510Y0012740D02*
X0058441Y0017344D01*
X0061510Y0017344D02*
X0058441Y0012740D01*
X0064580Y0015042D02*
X0065347Y0015042D01*
X0066114Y0016577D02*
X0065347Y0017344D01*
X0063812Y0017344D01*
X0063045Y0016577D01*
D16*
X0032021Y0037381D02*
X0028271Y0037381D01*
X0028271Y0062184D02*
X0032021Y0062184D01*
X0032021Y0068385D02*
X0028271Y0068385D01*
X0028271Y0093680D02*
X0032021Y0093680D01*
X0151500Y0156672D02*
X0155250Y0156672D01*
X0164295Y0156672D02*
X0168045Y0156672D01*
X0176106Y0156672D02*
X0179856Y0156672D01*
D17*
X0174914Y0151940D02*
X0174280Y0151940D01*
X0173963Y0151623D01*
X0173963Y0151306D01*
X0174280Y0150672D01*
X0173329Y0150672D01*
X0173329Y0151940D01*
X0174914Y0151940D02*
X0175231Y0151623D01*
X0175231Y0150989D01*
X0174914Y0150672D01*
X0174914Y0149730D02*
X0173646Y0149730D01*
X0173329Y0149413D01*
X0173329Y0148462D01*
X0175231Y0148462D01*
X0175231Y0149413D01*
X0174914Y0149730D01*
X0175641Y0148123D02*
X0175324Y0147807D01*
X0175324Y0147173D01*
X0175641Y0146856D01*
X0175641Y0145914D02*
X0175958Y0145914D01*
X0176275Y0145597D01*
X0176592Y0145914D01*
X0176909Y0145914D01*
X0177226Y0145597D01*
X0177226Y0144963D01*
X0176909Y0144646D01*
X0176275Y0145280D02*
X0176275Y0145597D01*
X0175641Y0145914D02*
X0175324Y0145597D01*
X0175324Y0144963D01*
X0175641Y0144646D01*
X0175641Y0143704D02*
X0176275Y0143704D01*
X0176592Y0143387D01*
X0176592Y0142436D01*
X0177226Y0142436D02*
X0175324Y0142436D01*
X0175324Y0143387D01*
X0175641Y0143704D01*
X0176592Y0143070D02*
X0177226Y0143704D01*
X0177226Y0146856D02*
X0175958Y0148123D01*
X0175641Y0148123D01*
X0177226Y0148123D02*
X0177226Y0146856D01*
X0187135Y0147139D02*
X0187135Y0145871D01*
X0188086Y0145871D01*
X0187769Y0146505D01*
X0187769Y0146822D01*
X0188086Y0147139D01*
X0188720Y0147139D01*
X0189037Y0146822D01*
X0189037Y0146188D01*
X0188720Y0145871D01*
X0188720Y0144929D02*
X0189037Y0144612D01*
X0189037Y0143979D01*
X0188720Y0143662D01*
X0188086Y0144295D02*
X0188086Y0144612D01*
X0188403Y0144929D01*
X0188720Y0144929D01*
X0188086Y0144612D02*
X0187769Y0144929D01*
X0187452Y0144929D01*
X0187135Y0144612D01*
X0187135Y0143979D01*
X0187452Y0143662D01*
X0187452Y0142719D02*
X0188086Y0142719D01*
X0188403Y0142403D01*
X0188403Y0141452D01*
X0188403Y0142086D02*
X0189037Y0142719D01*
X0189037Y0141452D02*
X0187135Y0141452D01*
X0187135Y0142403D01*
X0187452Y0142719D01*
X0164922Y0142436D02*
X0163021Y0142436D01*
X0163021Y0143387D01*
X0163338Y0143704D01*
X0163972Y0143704D01*
X0164289Y0143387D01*
X0164289Y0142436D01*
X0164289Y0143070D02*
X0164922Y0143704D01*
X0164606Y0144646D02*
X0164922Y0144963D01*
X0164922Y0145597D01*
X0164606Y0145914D01*
X0164289Y0145914D01*
X0163972Y0145597D01*
X0163972Y0145280D01*
X0163972Y0145597D02*
X0163655Y0145914D01*
X0163338Y0145914D01*
X0163021Y0145597D01*
X0163021Y0144963D01*
X0163338Y0144646D01*
X0163338Y0146856D02*
X0163021Y0147173D01*
X0163021Y0147807D01*
X0163338Y0148123D01*
X0163655Y0148123D01*
X0163972Y0147807D01*
X0164289Y0148123D01*
X0164606Y0148123D01*
X0164922Y0147807D01*
X0164922Y0147173D01*
X0164606Y0146856D01*
X0163972Y0147490D02*
X0163972Y0147807D01*
X0163420Y0148462D02*
X0161518Y0148462D01*
X0161518Y0149413D01*
X0161835Y0149730D01*
X0163103Y0149730D01*
X0163420Y0149413D01*
X0163420Y0148462D01*
X0163103Y0150672D02*
X0162469Y0150672D01*
X0162469Y0151623D01*
X0162786Y0151940D01*
X0163103Y0151940D01*
X0163420Y0151623D01*
X0163420Y0150989D01*
X0163103Y0150672D01*
X0162469Y0150672D02*
X0161835Y0151306D01*
X0161518Y0151940D01*
X0150625Y0150672D02*
X0150308Y0150672D01*
X0149040Y0151940D01*
X0148723Y0151940D01*
X0148723Y0150672D01*
X0149040Y0149730D02*
X0148723Y0149413D01*
X0148723Y0148462D01*
X0150625Y0148462D01*
X0150625Y0149413D01*
X0150308Y0149730D01*
X0149040Y0149730D01*
X0248847Y0136721D02*
X0248847Y0026721D01*
X0036249Y0026721D01*
X0036249Y0136721D01*
X0248847Y0136721D01*
X0039889Y0090107D02*
X0039889Y0089473D01*
X0039572Y0089156D01*
X0039255Y0089156D01*
X0038938Y0089473D01*
X0038938Y0090107D01*
X0039255Y0090424D01*
X0039572Y0090424D01*
X0039889Y0090107D01*
X0038938Y0090107D02*
X0038621Y0090424D01*
X0038304Y0090424D01*
X0037987Y0090107D01*
X0037987Y0089473D01*
X0038304Y0089156D01*
X0038621Y0089156D01*
X0038938Y0089473D01*
X0038938Y0088214D02*
X0039255Y0087897D01*
X0039255Y0086946D01*
X0039889Y0086946D02*
X0037987Y0086946D01*
X0037987Y0087897D01*
X0038304Y0088214D01*
X0038938Y0088214D01*
X0039255Y0087580D02*
X0039889Y0088214D01*
X0027235Y0090162D02*
X0025967Y0090162D01*
X0026601Y0090162D02*
X0026601Y0092063D01*
X0025967Y0091430D01*
X0025025Y0091746D02*
X0024708Y0092063D01*
X0023757Y0092063D01*
X0023757Y0090162D01*
X0024708Y0090162D01*
X0025025Y0090479D01*
X0025025Y0091746D01*
X0024708Y0080252D02*
X0023757Y0080252D01*
X0023757Y0078351D01*
X0024708Y0078351D01*
X0025025Y0078668D01*
X0025025Y0079935D01*
X0024708Y0080252D01*
X0025967Y0079935D02*
X0026284Y0080252D01*
X0026918Y0080252D01*
X0027235Y0079935D01*
X0027235Y0079619D01*
X0025967Y0078351D01*
X0027235Y0078351D01*
X0037987Y0074851D02*
X0037987Y0074217D01*
X0038304Y0073900D01*
X0038621Y0073900D01*
X0038938Y0074217D01*
X0038938Y0075168D01*
X0039572Y0075168D02*
X0038304Y0075168D01*
X0037987Y0074851D01*
X0039572Y0075168D02*
X0039889Y0074851D01*
X0039889Y0074217D01*
X0039572Y0073900D01*
X0039889Y0072958D02*
X0039255Y0072324D01*
X0039255Y0072641D02*
X0039255Y0071691D01*
X0039889Y0071691D02*
X0037987Y0071691D01*
X0037987Y0072641D01*
X0038304Y0072958D01*
X0038938Y0072958D01*
X0039255Y0072641D01*
X0039572Y0062494D02*
X0039889Y0062177D01*
X0039889Y0061543D01*
X0039572Y0061226D01*
X0038304Y0062494D01*
X0039572Y0062494D01*
X0038304Y0062494D02*
X0037987Y0062177D01*
X0037987Y0061543D01*
X0038304Y0061226D01*
X0039572Y0061226D01*
X0039889Y0060284D02*
X0039889Y0059016D01*
X0039889Y0059650D02*
X0037987Y0059650D01*
X0038621Y0059016D01*
X0038938Y0058074D02*
X0039255Y0057757D01*
X0039255Y0056806D01*
X0039889Y0056806D02*
X0037987Y0056806D01*
X0037987Y0057757D01*
X0038304Y0058074D01*
X0038938Y0058074D01*
X0039255Y0057440D02*
X0039889Y0058074D01*
X0027235Y0059967D02*
X0026918Y0059650D01*
X0026284Y0059650D01*
X0025967Y0059967D01*
X0026601Y0060601D02*
X0026918Y0060601D01*
X0027235Y0060284D01*
X0027235Y0059967D01*
X0026918Y0060601D02*
X0027235Y0060918D01*
X0027235Y0061235D01*
X0026918Y0061552D01*
X0026284Y0061552D01*
X0025967Y0061235D01*
X0025025Y0061235D02*
X0024708Y0061552D01*
X0023757Y0061552D01*
X0023757Y0059650D01*
X0024708Y0059650D01*
X0025025Y0059967D01*
X0025025Y0061235D01*
X0024216Y0050251D02*
X0023265Y0050251D01*
X0023265Y0048349D01*
X0024216Y0048349D01*
X0024533Y0048666D01*
X0024533Y0049934D01*
X0024216Y0050251D01*
X0025475Y0049300D02*
X0026426Y0050251D01*
X0026426Y0048349D01*
X0026743Y0049300D02*
X0025475Y0049300D01*
X0037987Y0048080D02*
X0039889Y0048080D01*
X0039889Y0047446D02*
X0039889Y0048714D01*
X0038621Y0047446D02*
X0037987Y0048080D01*
X0037987Y0045870D02*
X0039889Y0045870D01*
X0039889Y0045236D02*
X0039889Y0046504D01*
X0038621Y0045236D02*
X0037987Y0045870D01*
X0038304Y0044294D02*
X0038938Y0044294D01*
X0039255Y0043977D01*
X0039255Y0043027D01*
X0039255Y0043660D02*
X0039889Y0044294D01*
X0039889Y0043027D02*
X0037987Y0043027D01*
X0037987Y0043977D01*
X0038304Y0044294D01*
X0152278Y0022700D02*
X0152278Y0020798D01*
X0152278Y0021432D02*
X0153229Y0021432D01*
X0153546Y0021749D01*
X0153546Y0022383D01*
X0153229Y0022700D01*
X0152278Y0022700D01*
X0152912Y0021432D02*
X0153546Y0020798D01*
X0154488Y0021749D02*
X0155756Y0021749D01*
X0156698Y0022066D02*
X0157332Y0022700D01*
X0157332Y0020798D01*
X0156698Y0020798D02*
X0157966Y0020798D01*
X0155439Y0020798D02*
X0155439Y0022700D01*
X0154488Y0021749D01*
X0161137Y0021432D02*
X0162088Y0021432D01*
X0162404Y0021749D01*
X0162404Y0022383D01*
X0162088Y0022700D01*
X0161137Y0022700D01*
X0161137Y0020798D01*
X0161771Y0021432D02*
X0162404Y0020798D01*
X0163347Y0021749D02*
X0164614Y0021749D01*
X0164297Y0022700D02*
X0163347Y0021749D01*
X0164297Y0020798D02*
X0164297Y0022700D01*
X0165557Y0022383D02*
X0165873Y0022700D01*
X0166507Y0022700D01*
X0166824Y0022383D01*
X0166824Y0022066D01*
X0165557Y0020798D01*
X0166824Y0020798D01*
D18*
X0168696Y0020930D02*
X0168696Y0022398D01*
X0169063Y0022765D01*
X0169796Y0022765D01*
X0170163Y0022398D01*
X0170905Y0022031D02*
X0171639Y0022765D01*
X0171639Y0020563D01*
X0170905Y0020563D02*
X0172373Y0020563D01*
X0173115Y0020930D02*
X0173482Y0020563D01*
X0174216Y0020563D01*
X0174583Y0020930D01*
X0174583Y0021297D01*
X0174216Y0021664D01*
X0173849Y0021664D01*
X0174216Y0021664D02*
X0174583Y0022031D01*
X0174583Y0022398D01*
X0174216Y0022765D01*
X0173482Y0022765D01*
X0173115Y0022398D01*
X0170163Y0020930D02*
X0169796Y0020563D01*
X0169063Y0020563D01*
X0168696Y0020930D01*
M02*
