%
M48
M72
T01C0.01181
T02C0.01969
T03C0.02362
T04C0.03937
T05C0.04724
T06C0.11024
%
T01
X27391Y31328
X30146Y35265
X36741Y37725
X42154Y35265
X78572Y49044
X78572Y62824
X78572Y80540
X48060Y96288
X34280Y91367
X33296Y96288
X73650Y99241
X87430Y106131
X93335Y105146
X96288Y114989
X102194Y114989
X170107Y81524
X177981Y76603
X181918Y73650
X182902Y81524
X159280Y76603
X145501Y74635
X225225Y107115
X260658Y121879
X275422Y109083
X273454Y96288
X296583Y94812
X310363Y107607
X331524Y114989
X340383Y114989
X231131Y90383
X231131Y79556
X333493Y43139
X342351Y43139
X181918Y15087
X180934Y19517
X34280Y69713
X30146Y64792
X25914Y55934
T02
X249831Y61839
X260658Y16564
X244910Y154359
T03
X55934Y105639
T04
X91367Y131721
X101367Y131721
X111367Y131721
X121367Y131721
X131367Y131721
X141367Y131721
X151367Y131721
X161367Y131721
X171367Y131721
X181367Y131721
X191367Y131721
X201367Y131721
X211367Y131721
X221367Y131721
X231367Y131721
X231367Y31721
X221367Y31721
X211367Y31721
X201367Y31721
X191367Y31721
X181367Y31721
X171367Y31721
X161367Y31721
X151367Y31721
X141367Y31721
X131367Y31721
X121367Y31721
X111367Y31721
X101367Y31721
X91367Y31721
T05
X94083Y14398
X84083Y14398
X74083Y14398
X104083Y14398
X114083Y14398
X124083Y14398
X134083Y14398
X144083Y14398
X15580Y45540
X15580Y55540
X15580Y65540
X15580Y75540
X15580Y85540
X15580Y95540
X15580Y105540
X15580Y115540
X281761Y143532
X291761Y143532
X301761Y143532
X311761Y143532
X321761Y143532
X331761Y143532
X341761Y143532
X351761Y143532
X351761Y17548
X341761Y17548
X331761Y17548
X321761Y17548
X311761Y17548
X301761Y17548
X291761Y17548
X281761Y17548
T06
X13611Y13611
X198650Y13611
X383690Y13611
X383690Y147469
X198650Y147469
X13611Y147469
M30
