G75*
%MOIN*%
%OFA0B0*%
%FSLAX25Y25*%
%IPPOS*%
%LPD*%
%AMOC8*
5,1,8,0,0,1.08239X$1,22.5*
%
%ADD10C,0.11824*%
%ADD11C,0.07887*%
%ADD12C,0.08400*%
%ADD13R,0.09500X0.03200*%
%ADD14R,0.04737X0.05131*%
%ADD15R,0.08674X0.01784*%
%ADD16R,0.02965X0.05524*%
%ADD17R,0.05052X0.04934*%
%ADD18R,0.05131X0.04737*%
%ADD19R,0.05524X0.03950*%
%ADD20R,0.03950X0.05524*%
%ADD21R,0.03950X0.07887*%
%ADD22R,0.07099X0.07099*%
%ADD23C,0.03581*%
%ADD24C,0.04369*%
D10*
X0013611Y0013611D03*
X0198650Y0013611D03*
X0383690Y0013611D03*
X0383690Y0147469D03*
X0198650Y0147469D03*
X0013611Y0147469D03*
D11*
X0012036Y0115540D02*
X0019123Y0115540D01*
X0019123Y0105540D02*
X0012036Y0105540D01*
X0012036Y0095540D02*
X0019123Y0095540D01*
X0019123Y0085540D02*
X0012036Y0085540D01*
X0012036Y0075540D02*
X0019123Y0075540D01*
X0019123Y0065540D02*
X0012036Y0065540D01*
X0012036Y0055540D02*
X0019123Y0055540D01*
X0019123Y0045540D02*
X0012036Y0045540D01*
X0074083Y0017942D02*
X0074083Y0010855D01*
X0084083Y0010855D02*
X0084083Y0017942D01*
X0094083Y0017942D02*
X0094083Y0010855D01*
X0104083Y0010855D02*
X0104083Y0017942D01*
X0114083Y0017942D02*
X0114083Y0010855D01*
X0124083Y0010855D02*
X0124083Y0017942D01*
X0134083Y0017942D02*
X0134083Y0010855D01*
X0144083Y0010855D02*
X0144083Y0017942D01*
X0281761Y0021091D02*
X0281761Y0014005D01*
X0291761Y0014005D02*
X0291761Y0021091D01*
X0301761Y0021091D02*
X0301761Y0014005D01*
X0311761Y0014005D02*
X0311761Y0021091D01*
X0321761Y0021091D02*
X0321761Y0014005D01*
X0331761Y0014005D02*
X0331761Y0021091D01*
X0341761Y0021091D02*
X0341761Y0014005D01*
X0351761Y0014005D02*
X0351761Y0021091D01*
X0351761Y0139989D02*
X0351761Y0147076D01*
X0341761Y0147076D02*
X0341761Y0139989D01*
X0331761Y0139989D02*
X0331761Y0147076D01*
X0321761Y0147076D02*
X0321761Y0139989D01*
X0311761Y0139989D02*
X0311761Y0147076D01*
X0301761Y0147076D02*
X0301761Y0139989D01*
X0291761Y0139989D02*
X0291761Y0147076D01*
X0281761Y0147076D02*
X0281761Y0139989D01*
D12*
X0233965Y0133690D03*
X0223965Y0133690D03*
X0213965Y0133690D03*
X0203965Y0133690D03*
X0193965Y0133690D03*
X0183965Y0133690D03*
X0173965Y0133690D03*
X0163965Y0133690D03*
X0153965Y0133690D03*
X0143965Y0133690D03*
X0133965Y0133690D03*
X0123965Y0133690D03*
X0113965Y0133690D03*
X0103965Y0133690D03*
X0093965Y0133690D03*
X0083965Y0133690D03*
X0073965Y0133690D03*
X0063965Y0133690D03*
X0053965Y0133690D03*
X0053965Y0033690D03*
X0063965Y0033690D03*
X0073965Y0033690D03*
X0083965Y0033690D03*
X0093965Y0033690D03*
X0103965Y0033690D03*
X0113965Y0033690D03*
X0123965Y0033690D03*
X0133965Y0033690D03*
X0143965Y0033690D03*
X0153965Y0033690D03*
X0163965Y0033690D03*
X0173965Y0033690D03*
X0183965Y0033690D03*
X0193965Y0033690D03*
X0203965Y0033690D03*
X0213965Y0033690D03*
X0223965Y0033690D03*
X0233965Y0033690D03*
D13*
X0058360Y0043513D03*
X0058360Y0048513D03*
X0058360Y0053513D03*
X0058360Y0058513D03*
X0037760Y0058513D03*
X0037760Y0053513D03*
X0037760Y0048513D03*
X0037760Y0043513D03*
X0037760Y0073040D03*
X0037760Y0078040D03*
X0037760Y0083040D03*
X0037760Y0088040D03*
X0058360Y0088040D03*
X0058360Y0083040D03*
X0058360Y0078040D03*
X0058360Y0073040D03*
D14*
X0066761Y0070304D03*
X0073650Y0070304D03*
X0073650Y0076997D03*
X0066761Y0076997D03*
X0066761Y0084083D03*
X0073650Y0084083D03*
X0073650Y0090776D03*
X0066761Y0090776D03*
X0094320Y0118532D03*
X0094320Y0125225D03*
X0114005Y0125225D03*
X0123847Y0125225D03*
X0123847Y0118532D03*
X0114005Y0118532D03*
X0233099Y0118335D03*
X0233099Y0111643D03*
X0250816Y0111643D03*
X0250816Y0118335D03*
X0295107Y0120501D03*
X0301013Y0120501D03*
X0306918Y0120501D03*
X0312824Y0120501D03*
X0312824Y0127194D03*
X0306918Y0127194D03*
X0301013Y0127194D03*
X0295107Y0127194D03*
X0328572Y0127194D03*
X0334477Y0127194D03*
X0340383Y0127194D03*
X0346288Y0127194D03*
X0346288Y0120501D03*
X0340383Y0120501D03*
X0334477Y0120501D03*
X0328572Y0120501D03*
X0326603Y0091269D03*
X0326603Y0084576D03*
X0249831Y0056328D03*
X0249831Y0049635D03*
X0287233Y0037627D03*
X0293139Y0037627D03*
X0299044Y0037627D03*
X0304950Y0037627D03*
X0304950Y0030934D03*
X0299044Y0030934D03*
X0293139Y0030934D03*
X0287233Y0030934D03*
X0327587Y0030934D03*
X0333493Y0030934D03*
X0339398Y0030934D03*
X0345304Y0030934D03*
X0345304Y0037627D03*
X0339398Y0037627D03*
X0333493Y0037627D03*
X0327587Y0037627D03*
X0073650Y0041761D03*
X0066761Y0041761D03*
X0066761Y0048454D03*
X0073650Y0048454D03*
X0073650Y0055540D03*
X0066761Y0055540D03*
X0066761Y0062233D03*
X0073650Y0062233D03*
D15*
X0279950Y0074241D03*
X0279950Y0076800D03*
X0279950Y0079359D03*
X0279950Y0081918D03*
X0279950Y0084477D03*
X0279950Y0087036D03*
X0279950Y0089595D03*
X0279950Y0092154D03*
X0279950Y0094713D03*
X0279950Y0097272D03*
X0302981Y0097272D03*
X0302981Y0094713D03*
X0302981Y0092154D03*
X0302981Y0089595D03*
X0302981Y0087036D03*
X0302981Y0084477D03*
X0302981Y0081918D03*
X0302981Y0079359D03*
X0302981Y0076800D03*
X0302981Y0074241D03*
D16*
X0264398Y0110855D03*
X0260658Y0110855D03*
X0256918Y0110855D03*
X0256918Y0121092D03*
X0264398Y0121092D03*
X0198454Y0056131D03*
X0190973Y0056131D03*
X0190973Y0045894D03*
X0194713Y0045894D03*
X0198454Y0045894D03*
D17*
X0269517Y0114497D03*
X0269517Y0121387D03*
D18*
X0256131Y0127784D03*
X0249438Y0127784D03*
X0303572Y0103178D03*
X0310265Y0103178D03*
X0312430Y0095304D03*
X0319123Y0095304D03*
X0320107Y0078572D03*
X0313414Y0078572D03*
X0307804Y0064792D03*
X0301111Y0064792D03*
X0269910Y0091367D03*
X0263217Y0091367D03*
D19*
X0275422Y0114398D03*
X0275422Y0121485D03*
D20*
X0296485Y0110068D03*
X0303572Y0110068D03*
D21*
X0245107Y0111052D03*
X0238808Y0111052D03*
D22*
X0258690Y0064123D03*
X0274438Y0064123D03*
X0274438Y0044123D03*
X0258690Y0044123D03*
D23*
X0223965Y0040461D03*
X0181918Y0015087D03*
X0078572Y0049044D03*
X0078572Y0062824D03*
X0078572Y0080540D03*
X0048060Y0096288D03*
X0034280Y0091367D03*
X0033296Y0096288D03*
X0073650Y0099241D03*
X0034280Y0069713D03*
X0030146Y0064792D03*
X0025914Y0055934D03*
X0036741Y0037725D03*
X0042154Y0035265D03*
X0030146Y0035265D03*
X0027391Y0031328D03*
X0145501Y0074635D03*
X0159280Y0076603D03*
X0163217Y0079556D03*
X0170107Y0081524D03*
X0177981Y0076603D03*
X0181918Y0073650D03*
X0186839Y0079064D03*
X0182902Y0081524D03*
X0193729Y0087430D03*
X0273454Y0096288D03*
X0296583Y0094812D03*
X0285265Y0107115D03*
X0275422Y0109083D03*
X0286249Y0113020D03*
X0310363Y0107607D03*
X0331524Y0114989D03*
X0340383Y0114989D03*
X0260658Y0121879D03*
X0333493Y0043139D03*
X0342351Y0043139D03*
D24*
X0260658Y0016564D03*
X0249831Y0061839D03*
X0244910Y0154359D03*
M02*
