%
M48
M72
T01C0.01181
T02C0.01969
T03C0.03937
T04C0.04724
T05C0.11024
%
T01
X27391Y31328
X30146Y35265
X36741Y37725
X42154Y35265
X78572Y49044
X78572Y62824
X78572Y80540
X48060Y96288
X34280Y91367
X33296Y96288
X73650Y99241
X34280Y69713
X30146Y64792
X25914Y55934
X145501Y74635
X159280Y76603
X163217Y79556
X170107Y81524
X177981Y76603
X181918Y73650
X186839Y79064
X182902Y81524
X193729Y87430
X273454Y96288
X296583Y94812
X285265Y107115
X275422Y109083
X286249Y113020
X310363Y107607
X331524Y114989
X340383Y114989
X260658Y121879
X333493Y43139
X342351Y43139
X223965Y40461
X181918Y15087
T02
X260658Y16564
X249831Y61839
X244910Y154359
T03
X233965Y133690
X223965Y133690
X213965Y133690
X203965Y133690
X193965Y133690
X183965Y133690
X173965Y133690
X163965Y133690
X153965Y133690
X143965Y133690
X133965Y133690
X123965Y133690
X113965Y133690
X103965Y133690
X93965Y133690
X83965Y133690
X73965Y133690
X63965Y133690
X53965Y133690
X53965Y33690
X63965Y33690
X73965Y33690
X83965Y33690
X93965Y33690
X103965Y33690
X113965Y33690
X123965Y33690
X133965Y33690
X143965Y33690
X153965Y33690
X163965Y33690
X173965Y33690
X183965Y33690
X193965Y33690
X203965Y33690
X213965Y33690
X223965Y33690
X233965Y33690
T04
X281761Y17548
X291761Y17548
X301761Y17548
X311761Y17548
X321761Y17548
X331761Y17548
X341761Y17548
X351761Y17548
X144083Y14398
X134083Y14398
X124083Y14398
X114083Y14398
X104083Y14398
X94083Y14398
X84083Y14398
X74083Y14398
X15580Y45540
X15580Y55540
X15580Y65540
X15580Y75540
X15580Y85540
X15580Y95540
X15580Y105540
X15580Y115540
X281761Y143532
X291761Y143532
X301761Y143532
X311761Y143532
X321761Y143532
X331761Y143532
X341761Y143532
X351761Y143532
T05
X13611Y13611
X198650Y13611
X383690Y13611
X383690Y147469
X198650Y147469
X13611Y147469
M30
