G75*
%MOIN*%
%OFA0B0*%
%FSLAX25Y25*%
%IPPOS*%
%LPD*%
%AMOC8*
5,1,8,0,0,1.08239X$1,22.5*
%
%ADD10C,0.11824*%
%ADD11C,0.07887*%
%ADD12C,0.08400*%
%ADD13C,0.01421*%
%ADD14R,0.04737X0.05131*%
%ADD15R,0.06312X0.04737*%
%ADD16R,0.05052X0.04934*%
%ADD17C,0.03581*%
%ADD18C,0.04369*%
D10*
X0013611Y0013611D03*
X0198650Y0013611D03*
X0383690Y0013611D03*
X0383690Y0147469D03*
X0198650Y0147469D03*
X0013611Y0147469D03*
D11*
X0012036Y0115540D02*
X0019123Y0115540D01*
X0019123Y0105540D02*
X0012036Y0105540D01*
X0012036Y0095540D02*
X0019123Y0095540D01*
X0019123Y0085540D02*
X0012036Y0085540D01*
X0012036Y0075540D02*
X0019123Y0075540D01*
X0019123Y0065540D02*
X0012036Y0065540D01*
X0012036Y0055540D02*
X0019123Y0055540D01*
X0019123Y0045540D02*
X0012036Y0045540D01*
X0074083Y0017942D02*
X0074083Y0010855D01*
X0084083Y0010855D02*
X0084083Y0017942D01*
X0094083Y0017942D02*
X0094083Y0010855D01*
X0104083Y0010855D02*
X0104083Y0017942D01*
X0114083Y0017942D02*
X0114083Y0010855D01*
X0124083Y0010855D02*
X0124083Y0017942D01*
X0134083Y0017942D02*
X0134083Y0010855D01*
X0144083Y0010855D02*
X0144083Y0017942D01*
X0281761Y0021091D02*
X0281761Y0014005D01*
X0291761Y0014005D02*
X0291761Y0021091D01*
X0301761Y0021091D02*
X0301761Y0014005D01*
X0311761Y0014005D02*
X0311761Y0021091D01*
X0321761Y0021091D02*
X0321761Y0014005D01*
X0331761Y0014005D02*
X0331761Y0021091D01*
X0341761Y0021091D02*
X0341761Y0014005D01*
X0351761Y0014005D02*
X0351761Y0021091D01*
X0351761Y0139989D02*
X0351761Y0147076D01*
X0341761Y0147076D02*
X0341761Y0139989D01*
X0331761Y0139989D02*
X0331761Y0147076D01*
X0321761Y0147076D02*
X0321761Y0139989D01*
X0311761Y0139989D02*
X0311761Y0147076D01*
X0301761Y0147076D02*
X0301761Y0139989D01*
X0291761Y0139989D02*
X0291761Y0147076D01*
X0281761Y0147076D02*
X0281761Y0139989D01*
D12*
X0233965Y0133690D03*
X0223965Y0133690D03*
X0213965Y0133690D03*
X0203965Y0133690D03*
X0193965Y0133690D03*
X0183965Y0133690D03*
X0173965Y0133690D03*
X0163965Y0133690D03*
X0153965Y0133690D03*
X0143965Y0133690D03*
X0133965Y0133690D03*
X0123965Y0133690D03*
X0113965Y0133690D03*
X0103965Y0133690D03*
X0093965Y0133690D03*
X0083965Y0133690D03*
X0073965Y0133690D03*
X0063965Y0133690D03*
X0053965Y0133690D03*
X0053965Y0033690D03*
X0063965Y0033690D03*
X0073965Y0033690D03*
X0083965Y0033690D03*
X0093965Y0033690D03*
X0103965Y0033690D03*
X0113965Y0033690D03*
X0123965Y0033690D03*
X0133965Y0033690D03*
X0143965Y0033690D03*
X0153965Y0033690D03*
X0163965Y0033690D03*
X0173965Y0033690D03*
X0183965Y0033690D03*
X0193965Y0033690D03*
X0203965Y0033690D03*
X0213965Y0033690D03*
X0223965Y0033690D03*
X0233965Y0033690D03*
D13*
X0031804Y0041836D02*
X0028488Y0041836D01*
X0031804Y0041836D02*
X0031804Y0038520D01*
X0028488Y0038520D01*
X0028488Y0041836D01*
X0028488Y0039940D02*
X0031804Y0039940D01*
X0031804Y0041360D02*
X0028488Y0041360D01*
X0028488Y0048741D02*
X0031804Y0048741D01*
X0031804Y0045425D01*
X0028488Y0045425D01*
X0028488Y0048741D01*
X0028488Y0046845D02*
X0031804Y0046845D01*
X0031804Y0048265D02*
X0028488Y0048265D01*
X0028488Y0050823D02*
X0031804Y0050823D01*
X0028488Y0050823D02*
X0028488Y0054139D01*
X0031804Y0054139D01*
X0031804Y0050823D01*
X0031804Y0052243D02*
X0028488Y0052243D01*
X0028488Y0053663D02*
X0031804Y0053663D01*
X0031804Y0057729D02*
X0028488Y0057729D01*
X0028488Y0061045D01*
X0031804Y0061045D01*
X0031804Y0057729D01*
X0031804Y0059149D02*
X0028488Y0059149D01*
X0028488Y0060569D02*
X0031804Y0060569D01*
X0031804Y0072840D02*
X0028488Y0072840D01*
X0031804Y0072840D02*
X0031804Y0069524D01*
X0028488Y0069524D01*
X0028488Y0072840D01*
X0028488Y0070944D02*
X0031804Y0070944D01*
X0031804Y0072364D02*
X0028488Y0072364D01*
X0028488Y0079745D02*
X0031804Y0079745D01*
X0031804Y0076429D01*
X0028488Y0076429D01*
X0028488Y0079745D01*
X0028488Y0077849D02*
X0031804Y0077849D01*
X0031804Y0079269D02*
X0028488Y0079269D01*
X0028488Y0082319D02*
X0031804Y0082319D01*
X0028488Y0082319D02*
X0028488Y0085635D01*
X0031804Y0085635D01*
X0031804Y0082319D01*
X0031804Y0083739D02*
X0028488Y0083739D01*
X0028488Y0085159D02*
X0031804Y0085159D01*
X0031804Y0089225D02*
X0028488Y0089225D01*
X0028488Y0092541D01*
X0031804Y0092541D01*
X0031804Y0089225D01*
X0031804Y0090645D02*
X0028488Y0090645D01*
X0028488Y0092065D02*
X0031804Y0092065D01*
X0143843Y0145311D02*
X0147159Y0145311D01*
X0143843Y0145311D02*
X0143843Y0148627D01*
X0147159Y0148627D01*
X0147159Y0145311D01*
X0147159Y0146731D02*
X0143843Y0146731D01*
X0143843Y0148151D02*
X0147159Y0148151D01*
X0156638Y0145311D02*
X0159954Y0145311D01*
X0156638Y0145311D02*
X0156638Y0148627D01*
X0159954Y0148627D01*
X0159954Y0145311D01*
X0159954Y0146731D02*
X0156638Y0146731D01*
X0156638Y0148151D02*
X0159954Y0148151D01*
X0168449Y0145311D02*
X0171765Y0145311D01*
X0168449Y0145311D02*
X0168449Y0148627D01*
X0171765Y0148627D01*
X0171765Y0145311D01*
X0171765Y0146731D02*
X0168449Y0146731D01*
X0168449Y0148151D02*
X0171765Y0148151D01*
X0171765Y0152217D02*
X0168449Y0152217D01*
X0168449Y0155533D01*
X0171765Y0155533D01*
X0171765Y0152217D01*
X0171765Y0153637D02*
X0168449Y0153637D01*
X0168449Y0155057D02*
X0171765Y0155057D01*
X0159954Y0152217D02*
X0156638Y0152217D01*
X0156638Y0155533D01*
X0159954Y0155533D01*
X0159954Y0152217D01*
X0159954Y0153637D02*
X0156638Y0153637D01*
X0156638Y0155057D02*
X0159954Y0155057D01*
X0147159Y0152217D02*
X0143843Y0152217D01*
X0143843Y0155533D01*
X0147159Y0155533D01*
X0147159Y0152217D01*
X0147159Y0153637D02*
X0143843Y0153637D01*
X0143843Y0155057D02*
X0147159Y0155057D01*
D14*
X0151898Y0148847D03*
X0164202Y0148847D03*
X0176013Y0148847D03*
X0176013Y0142154D03*
X0164202Y0142154D03*
X0151898Y0142154D03*
X0039202Y0092253D03*
X0039202Y0085560D03*
X0039202Y0076997D03*
X0039202Y0070304D03*
X0039202Y0063217D03*
X0039202Y0056524D03*
X0039202Y0049438D03*
X0039202Y0042745D03*
X0155343Y0016957D03*
X0164202Y0016957D03*
X0164202Y0010265D03*
X0155343Y0010265D03*
D15*
X0054359Y0046091D03*
X0045698Y0042351D03*
X0045698Y0049831D03*
X0045698Y0056131D03*
X0054359Y0059871D03*
X0045698Y0063611D03*
X0045698Y0069910D03*
X0054359Y0073650D03*
X0045698Y0077391D03*
X0045698Y0083690D03*
X0054359Y0087430D03*
X0045698Y0091170D03*
D16*
X0172076Y0017056D03*
X0172076Y0010166D03*
D17*
X0181918Y0015087D03*
X0223965Y0040461D03*
X0181918Y0073650D03*
X0177981Y0076603D03*
X0182902Y0081524D03*
X0186839Y0079064D03*
X0193729Y0087430D03*
X0170107Y0081524D03*
X0163217Y0079556D03*
X0159280Y0076603D03*
X0145501Y0074635D03*
X0078572Y0080540D03*
X0078572Y0062824D03*
X0078572Y0049044D03*
X0042154Y0035265D03*
X0036741Y0037725D03*
X0030146Y0035265D03*
X0027391Y0031328D03*
X0025914Y0055934D03*
X0030146Y0064792D03*
X0034280Y0069713D03*
X0034280Y0091367D03*
X0033296Y0096288D03*
X0048060Y0096288D03*
X0073650Y0099241D03*
X0260658Y0121879D03*
X0286249Y0113020D03*
X0275422Y0109083D03*
X0285265Y0107115D03*
X0273454Y0096288D03*
X0296583Y0094812D03*
X0310363Y0107607D03*
X0331524Y0114989D03*
X0340383Y0114989D03*
X0342351Y0043139D03*
X0333493Y0043139D03*
D18*
X0260658Y0016564D03*
X0249831Y0061839D03*
X0244910Y0154359D03*
M02*
