G75*
%MOIN*%
%OFA0B0*%
%FSLAX25Y25*%
%IPPOS*%
%LPD*%
%AMOC8*
5,1,8,0,0,1.08239X$1,22.5*
%
%ADD10C,0.07087*%
%ADD11R,0.08700X0.02400*%
%ADD12R,0.03937X0.04331*%
%ADD13R,0.07874X0.00984*%
%ADD14R,0.02165X0.04724*%
%ADD15R,0.04252X0.04134*%
%ADD16R,0.04331X0.03937*%
%ADD17R,0.04724X0.03150*%
%ADD18R,0.03150X0.04724*%
%ADD19R,0.03150X0.07087*%
%ADD20R,0.06299X0.06299*%
%ADD21C,0.05937*%
%ADD22R,0.04724X0.02165*%
%ADD23C,0.01000*%
%ADD24C,0.02781*%
%ADD25C,0.01200*%
%ADD26C,0.01600*%
%ADD27C,0.02400*%
%ADD28R,0.03962X0.03962*%
%ADD29C,0.03200*%
%ADD30C,0.07000*%
%ADD31C,0.04000*%
%ADD32C,0.03569*%
D10*
X0074083Y0010855D02*
X0074083Y0017942D01*
X0084083Y0017942D02*
X0084083Y0010855D01*
X0094083Y0010855D02*
X0094083Y0017942D01*
X0104083Y0017942D02*
X0104083Y0010855D01*
X0114083Y0010855D02*
X0114083Y0017942D01*
X0124083Y0017942D02*
X0124083Y0010855D01*
X0134083Y0010855D02*
X0134083Y0017942D01*
X0144083Y0017942D02*
X0144083Y0010855D01*
X0019123Y0045540D02*
X0012036Y0045540D01*
X0012036Y0055540D02*
X0019123Y0055540D01*
X0019123Y0065540D02*
X0012036Y0065540D01*
X0012036Y0075540D02*
X0019123Y0075540D01*
X0019123Y0085540D02*
X0012036Y0085540D01*
X0012036Y0095540D02*
X0019123Y0095540D01*
X0019123Y0105540D02*
X0012036Y0105540D01*
X0012036Y0115540D02*
X0019123Y0115540D01*
X0281761Y0139989D02*
X0281761Y0147076D01*
X0291761Y0147076D02*
X0291761Y0139989D01*
X0301761Y0139989D02*
X0301761Y0147076D01*
X0311761Y0147076D02*
X0311761Y0139989D01*
X0321761Y0139989D02*
X0321761Y0147076D01*
X0331761Y0147076D02*
X0331761Y0139989D01*
X0341761Y0139989D02*
X0341761Y0147076D01*
X0351761Y0147076D02*
X0351761Y0139989D01*
X0351761Y0021091D02*
X0351761Y0014005D01*
X0341761Y0014005D02*
X0341761Y0021091D01*
X0331761Y0021091D02*
X0331761Y0014005D01*
X0321761Y0014005D02*
X0321761Y0021091D01*
X0311761Y0021091D02*
X0311761Y0014005D01*
X0301761Y0014005D02*
X0301761Y0021091D01*
X0291761Y0021091D02*
X0291761Y0014005D01*
X0281761Y0014005D02*
X0281761Y0021091D01*
D11*
X0058360Y0043513D03*
X0058360Y0048513D03*
X0058360Y0053513D03*
X0058360Y0058513D03*
X0037760Y0058513D03*
X0037760Y0053513D03*
X0037760Y0048513D03*
X0037760Y0043513D03*
X0037760Y0073040D03*
X0037760Y0078040D03*
X0037760Y0083040D03*
X0037760Y0088040D03*
X0058360Y0088040D03*
X0058360Y0083040D03*
X0058360Y0078040D03*
X0058360Y0073040D03*
D12*
X0066761Y0070304D03*
X0073650Y0070304D03*
X0073650Y0076997D03*
X0066761Y0076997D03*
X0066761Y0084083D03*
X0073650Y0084083D03*
X0073650Y0090776D03*
X0066761Y0090776D03*
X0066761Y0062233D03*
X0073650Y0062233D03*
X0073650Y0055540D03*
X0066761Y0055540D03*
X0066761Y0048454D03*
X0073650Y0048454D03*
X0073650Y0041761D03*
X0066761Y0041761D03*
X0233099Y0111643D03*
X0233099Y0118335D03*
X0250816Y0118335D03*
X0250816Y0111643D03*
X0295107Y0120501D03*
X0301013Y0120501D03*
X0306918Y0120501D03*
X0312824Y0120501D03*
X0312824Y0127194D03*
X0306918Y0127194D03*
X0301013Y0127194D03*
X0295107Y0127194D03*
X0328572Y0127194D03*
X0334477Y0127194D03*
X0340383Y0127194D03*
X0346288Y0127194D03*
X0346288Y0120501D03*
X0340383Y0120501D03*
X0334477Y0120501D03*
X0328572Y0120501D03*
X0326603Y0091269D03*
X0326603Y0084576D03*
X0249831Y0056328D03*
X0249831Y0049635D03*
X0287233Y0037627D03*
X0293139Y0037627D03*
X0299044Y0037627D03*
X0304950Y0037627D03*
X0304950Y0030934D03*
X0299044Y0030934D03*
X0293139Y0030934D03*
X0287233Y0030934D03*
X0327587Y0030934D03*
X0333493Y0030934D03*
X0339398Y0030934D03*
X0345304Y0030934D03*
X0345304Y0037627D03*
X0339398Y0037627D03*
X0333493Y0037627D03*
X0327587Y0037627D03*
D13*
X0302981Y0074241D03*
X0302981Y0076800D03*
X0302981Y0079359D03*
X0302981Y0081918D03*
X0302981Y0084477D03*
X0302981Y0087036D03*
X0302981Y0089595D03*
X0302981Y0092154D03*
X0302981Y0094713D03*
X0302981Y0097272D03*
X0279950Y0097272D03*
X0279950Y0094713D03*
X0279950Y0092154D03*
X0279950Y0089595D03*
X0279950Y0087036D03*
X0279950Y0084477D03*
X0279950Y0081918D03*
X0279950Y0079359D03*
X0279950Y0076800D03*
X0279950Y0074241D03*
D14*
X0264398Y0110855D03*
X0260658Y0110855D03*
X0256918Y0110855D03*
X0256918Y0121092D03*
X0264398Y0121092D03*
D15*
X0269517Y0121387D03*
X0269517Y0114497D03*
D16*
X0256131Y0127784D03*
X0249438Y0127784D03*
X0303572Y0103178D03*
X0310265Y0103178D03*
X0312430Y0095304D03*
X0319123Y0095304D03*
X0320107Y0078572D03*
X0313414Y0078572D03*
X0307804Y0064792D03*
X0301111Y0064792D03*
X0269910Y0091367D03*
X0263217Y0091367D03*
D17*
X0275422Y0114398D03*
X0275422Y0121485D03*
D18*
X0296485Y0110068D03*
X0303572Y0110068D03*
D19*
X0245107Y0111052D03*
X0238808Y0111052D03*
D20*
X0258690Y0064123D03*
X0274438Y0064123D03*
X0274438Y0044123D03*
X0258690Y0044123D03*
D21*
X0231367Y0031721D03*
X0221367Y0031721D03*
X0211367Y0031721D03*
X0201367Y0031721D03*
X0191367Y0031721D03*
X0181367Y0031721D03*
X0171367Y0031721D03*
X0161367Y0031721D03*
X0151367Y0031721D03*
X0141367Y0031721D03*
X0131367Y0031721D03*
X0121367Y0031721D03*
X0111367Y0031721D03*
X0101367Y0031721D03*
X0091367Y0031721D03*
X0091367Y0131721D03*
X0101367Y0131721D03*
X0111367Y0131721D03*
X0121367Y0131721D03*
X0131367Y0131721D03*
X0141367Y0131721D03*
X0151367Y0131721D03*
X0161367Y0131721D03*
X0171367Y0131721D03*
X0181367Y0131721D03*
X0191367Y0131721D03*
X0201367Y0131721D03*
X0211367Y0131721D03*
X0221367Y0131721D03*
X0231367Y0131721D03*
D22*
X0210658Y0050816D03*
X0200422Y0050816D03*
X0200422Y0047076D03*
X0200422Y0043335D03*
X0210658Y0043335D03*
D23*
X0393001Y0004300D02*
X0004300Y0004300D01*
X0004300Y0156780D01*
X0393001Y0156780D01*
X0393001Y0004300D01*
X0393001Y0004796D02*
X0321040Y0004796D01*
X0320666Y0004421D02*
X0322635Y0006390D01*
X0323982Y0007737D01*
X0323982Y0009249D01*
X0324731Y0009560D01*
X0326206Y0011035D01*
X0326761Y0012374D01*
X0327316Y0011035D01*
X0328791Y0009560D01*
X0330718Y0008761D01*
X0332804Y0008761D01*
X0334731Y0009560D01*
X0336206Y0011035D01*
X0336761Y0012374D01*
X0337316Y0011035D01*
X0338791Y0009560D01*
X0340718Y0008761D01*
X0342804Y0008761D01*
X0344731Y0009560D01*
X0346206Y0011035D01*
X0346888Y0012681D01*
X0347087Y0012069D01*
X0347447Y0011361D01*
X0347914Y0010719D01*
X0348475Y0010158D01*
X0349117Y0009691D01*
X0349825Y0009331D01*
X0350580Y0009086D01*
X0351261Y0008978D01*
X0351261Y0017048D01*
X0352261Y0017048D01*
X0352261Y0018048D01*
X0356804Y0018048D01*
X0356804Y0021488D01*
X0356680Y0022272D01*
X0356434Y0023027D01*
X0356074Y0023735D01*
X0355607Y0024377D01*
X0355046Y0024938D01*
X0354404Y0025405D01*
X0353697Y0025765D01*
X0352942Y0026010D01*
X0352261Y0026118D01*
X0352261Y0018048D01*
X0351261Y0018048D01*
X0351261Y0026118D01*
X0350580Y0026010D01*
X0349825Y0025765D01*
X0349117Y0025405D01*
X0348475Y0024938D01*
X0347914Y0024377D01*
X0347447Y0023735D01*
X0347087Y0023027D01*
X0346888Y0022415D01*
X0346206Y0024061D01*
X0345646Y0024621D01*
X0346215Y0025191D01*
X0347504Y0026479D01*
X0347504Y0027069D01*
X0347977Y0027069D01*
X0348972Y0028064D01*
X0348972Y0033803D01*
X0348495Y0034280D01*
X0348972Y0034757D01*
X0348972Y0040496D01*
X0347977Y0041492D01*
X0345014Y0041492D01*
X0345442Y0042524D01*
X0345442Y0043753D01*
X0344971Y0044889D01*
X0344551Y0045309D01*
X0344551Y0046018D01*
X0343262Y0047307D01*
X0322307Y0068262D01*
X0322307Y0074903D01*
X0322977Y0074903D01*
X0323972Y0075899D01*
X0323972Y0080710D01*
X0329276Y0080710D01*
X0330272Y0081706D01*
X0330272Y0082277D01*
X0331451Y0082277D01*
X0332740Y0083566D01*
X0336677Y0087503D01*
X0336677Y0116635D01*
X0337150Y0116635D01*
X0337430Y0116916D01*
X0337710Y0116635D01*
X0337719Y0116635D01*
X0337292Y0115604D01*
X0337292Y0114374D01*
X0337763Y0113238D01*
X0338632Y0112369D01*
X0339768Y0111898D01*
X0340997Y0111898D01*
X0342133Y0112369D01*
X0343003Y0113238D01*
X0343473Y0114374D01*
X0343473Y0115604D01*
X0343046Y0116635D01*
X0343055Y0116635D01*
X0343335Y0116916D01*
X0343616Y0116635D01*
X0348961Y0116635D01*
X0349957Y0117631D01*
X0349957Y0123370D01*
X0349480Y0123847D01*
X0349957Y0124324D01*
X0349957Y0130063D01*
X0348961Y0131059D01*
X0348093Y0131059D01*
X0347199Y0131953D01*
X0343961Y0135192D01*
X0343961Y0135225D01*
X0344731Y0135544D01*
X0346206Y0137019D01*
X0346888Y0138666D01*
X0347087Y0138053D01*
X0347447Y0137346D01*
X0347914Y0136703D01*
X0348475Y0136142D01*
X0349117Y0135676D01*
X0349825Y0135315D01*
X0350580Y0135070D01*
X0351261Y0134962D01*
X0351261Y0143032D01*
X0352261Y0143032D01*
X0352261Y0144032D01*
X0356804Y0144032D01*
X0356804Y0147473D01*
X0356680Y0148257D01*
X0356434Y0149012D01*
X0356074Y0149719D01*
X0355607Y0150361D01*
X0355046Y0150922D01*
X0354404Y0151389D01*
X0353697Y0151749D01*
X0352942Y0151995D01*
X0352261Y0152103D01*
X0352261Y0144032D01*
X0351261Y0144032D01*
X0351261Y0152103D01*
X0350580Y0151995D01*
X0349825Y0151749D01*
X0349117Y0151389D01*
X0348475Y0150922D01*
X0347914Y0150361D01*
X0347447Y0149719D01*
X0347087Y0149012D01*
X0346888Y0148399D01*
X0346206Y0150046D01*
X0344731Y0151521D01*
X0342804Y0152319D01*
X0340718Y0152319D01*
X0338791Y0151521D01*
X0337316Y0150046D01*
X0336761Y0148706D01*
X0336206Y0150046D01*
X0334731Y0151521D01*
X0332804Y0152319D01*
X0330718Y0152319D01*
X0328791Y0151521D01*
X0327316Y0150046D01*
X0326761Y0148706D01*
X0326206Y0150046D01*
X0324731Y0151521D01*
X0324061Y0151798D01*
X0324061Y0152280D01*
X0321029Y0155312D01*
X0319682Y0156659D01*
X0284312Y0156659D01*
X0281359Y0153706D01*
X0280012Y0152359D01*
X0280012Y0152027D01*
X0278791Y0151521D01*
X0277316Y0150046D01*
X0276517Y0148119D01*
X0276517Y0138946D01*
X0277316Y0137019D01*
X0278791Y0135544D01*
X0280718Y0134746D01*
X0282804Y0134746D01*
X0282889Y0134781D01*
X0286902Y0130769D01*
X0286902Y0116989D01*
X0288249Y0115642D01*
X0291323Y0112568D01*
X0285316Y0112568D01*
X0284221Y0113662D01*
X0284221Y0121982D01*
X0283841Y0122901D01*
X0283137Y0123604D01*
X0282219Y0123985D01*
X0279263Y0123985D01*
X0278488Y0124760D01*
X0272740Y0124760D01*
X0272347Y0125154D01*
X0266686Y0125154D01*
X0266436Y0124903D01*
X0266185Y0125154D01*
X0262612Y0125154D01*
X0261616Y0124158D01*
X0261616Y0118025D01*
X0262612Y0117030D01*
X0265962Y0117030D01*
X0265891Y0116761D01*
X0265891Y0114997D01*
X0269016Y0114997D01*
X0269016Y0113997D01*
X0267105Y0113997D01*
X0266185Y0114917D01*
X0262612Y0114917D01*
X0262312Y0114617D01*
X0261938Y0114717D01*
X0260700Y0114717D01*
X0260700Y0110896D01*
X0260617Y0110896D01*
X0260617Y0114717D01*
X0259378Y0114717D01*
X0259005Y0114617D01*
X0258705Y0114917D01*
X0255131Y0114917D01*
X0254484Y0114270D01*
X0254484Y0114512D01*
X0253866Y0115130D01*
X0253985Y0115249D01*
X0254182Y0115591D01*
X0254284Y0115973D01*
X0254284Y0117851D01*
X0251300Y0117851D01*
X0251300Y0118820D01*
X0250331Y0118820D01*
X0250331Y0117851D01*
X0247347Y0117851D01*
X0247347Y0116295D01*
X0242828Y0116295D01*
X0241957Y0115425D01*
X0241087Y0116295D01*
X0236568Y0116295D01*
X0236568Y0117851D01*
X0233584Y0117851D01*
X0233584Y0118820D01*
X0236568Y0118820D01*
X0236568Y0120698D01*
X0236465Y0121080D01*
X0236268Y0121422D01*
X0235989Y0121701D01*
X0235647Y0121899D01*
X0235265Y0122001D01*
X0233583Y0122001D01*
X0233583Y0118820D01*
X0232615Y0118820D01*
X0232615Y0122001D01*
X0230933Y0122001D01*
X0230552Y0121899D01*
X0230210Y0121701D01*
X0229930Y0121422D01*
X0229733Y0121080D01*
X0229631Y0120698D01*
X0229631Y0118820D01*
X0232615Y0118820D01*
X0232615Y0117851D01*
X0229631Y0117851D01*
X0229631Y0115973D01*
X0229733Y0115591D01*
X0229930Y0115249D01*
X0230049Y0115130D01*
X0229431Y0114512D01*
X0229431Y0113952D01*
X0105109Y0113952D01*
X0105284Y0114374D01*
X0105284Y0114968D01*
X0113567Y0123251D01*
X0113567Y0127579D01*
X0114011Y0127763D01*
X0115325Y0129077D01*
X0116035Y0130793D01*
X0116035Y0132650D01*
X0115325Y0134366D01*
X0114011Y0135679D01*
X0112296Y0136390D01*
X0110438Y0136390D01*
X0108722Y0135679D01*
X0107409Y0134366D01*
X0106698Y0132650D01*
X0106698Y0130793D01*
X0107409Y0129077D01*
X0108722Y0127763D01*
X0109167Y0127579D01*
X0109167Y0125073D01*
X0103567Y0119473D01*
X0103567Y0127579D01*
X0104011Y0127763D01*
X0105325Y0129077D01*
X0106035Y0130793D01*
X0106035Y0132650D01*
X0105325Y0134366D01*
X0104011Y0135679D01*
X0102296Y0136390D01*
X0100438Y0136390D01*
X0098722Y0135679D01*
X0097409Y0134366D01*
X0096698Y0132650D01*
X0096698Y0130793D01*
X0097409Y0129077D01*
X0098722Y0127763D01*
X0099167Y0127579D01*
X0099167Y0120979D01*
X0096267Y0118080D01*
X0095673Y0118080D01*
X0094538Y0117609D01*
X0093668Y0116740D01*
X0093198Y0115604D01*
X0093198Y0114374D01*
X0093373Y0113952D01*
X0069367Y0113952D01*
X0068401Y0114352D01*
X0067088Y0114352D01*
X0065876Y0113850D01*
X0060965Y0108939D01*
X0059000Y0108939D01*
X0058619Y0109320D01*
X0053249Y0109320D01*
X0052253Y0108324D01*
X0052253Y0102953D01*
X0053249Y0101957D01*
X0058619Y0101957D01*
X0059000Y0102339D01*
X0062988Y0102339D01*
X0064201Y0102841D01*
X0069512Y0108152D01*
X0085080Y0108152D01*
X0084810Y0107881D01*
X0084339Y0106745D01*
X0084339Y0105516D01*
X0084810Y0104380D01*
X0085230Y0103960D01*
X0085230Y0092278D01*
X0079629Y0086677D01*
X0077319Y0086677D01*
X0077319Y0086953D01*
X0076842Y0087430D01*
X0077319Y0087907D01*
X0077319Y0093646D01*
X0076323Y0094642D01*
X0075850Y0094642D01*
X0075850Y0097070D01*
X0076270Y0097490D01*
X0076741Y0098626D01*
X0076741Y0099856D01*
X0076270Y0100992D01*
X0075401Y0101861D01*
X0074265Y0102331D01*
X0073036Y0102331D01*
X0071900Y0101861D01*
X0071030Y0100992D01*
X0070560Y0099856D01*
X0070560Y0098626D01*
X0071030Y0097490D01*
X0071450Y0097070D01*
X0071450Y0094642D01*
X0070978Y0094642D01*
X0070028Y0093692D01*
X0069929Y0093863D01*
X0069650Y0094142D01*
X0069308Y0094339D01*
X0068927Y0094442D01*
X0067245Y0094442D01*
X0067245Y0091261D01*
X0066276Y0091261D01*
X0066276Y0094442D01*
X0064595Y0094442D01*
X0064213Y0094339D01*
X0063871Y0094142D01*
X0063592Y0093863D01*
X0063394Y0093521D01*
X0063292Y0093139D01*
X0063292Y0091261D01*
X0066276Y0091261D01*
X0066276Y0090292D01*
X0063779Y0090292D01*
X0063631Y0090440D01*
X0063289Y0090638D01*
X0062907Y0090740D01*
X0058460Y0090740D01*
X0058460Y0088140D01*
X0058260Y0088140D01*
X0058260Y0087940D01*
X0052510Y0087940D01*
X0052510Y0086643D01*
X0052612Y0086261D01*
X0052810Y0085919D01*
X0053047Y0085682D01*
X0052310Y0084944D01*
X0052310Y0081136D01*
X0053047Y0080399D01*
X0052810Y0080161D01*
X0052612Y0079819D01*
X0052510Y0079438D01*
X0052510Y0078140D01*
X0058260Y0078140D01*
X0058260Y0077940D01*
X0052510Y0077940D01*
X0052510Y0076643D01*
X0052612Y0076261D01*
X0052810Y0075919D01*
X0053047Y0075682D01*
X0052310Y0074944D01*
X0052310Y0071136D01*
X0053306Y0070140D01*
X0058149Y0070140D01*
X0058442Y0069847D01*
X0058888Y0069245D01*
X0059070Y0069218D01*
X0059201Y0069088D01*
X0059950Y0069088D01*
X0063092Y0068623D01*
X0063092Y0067434D01*
X0064088Y0066439D01*
X0069433Y0066439D01*
X0070206Y0067211D01*
X0070978Y0066439D01*
X0076323Y0066439D01*
X0077319Y0067434D01*
X0077319Y0067513D01*
X0077514Y0067513D01*
X0078803Y0068802D01*
X0084709Y0074708D01*
X0084709Y0081597D01*
X0095535Y0092424D01*
X0095535Y0102976D01*
X0095955Y0103396D01*
X0096426Y0104532D01*
X0096426Y0105761D01*
X0095955Y0106897D01*
X0095086Y0107766D01*
X0094155Y0108152D01*
X0222310Y0108152D01*
X0222135Y0107730D01*
X0222135Y0106500D01*
X0222605Y0105364D01*
X0223475Y0104495D01*
X0224610Y0104024D01*
X0225204Y0104024D01*
X0228931Y0100298D01*
X0228931Y0092553D01*
X0228511Y0092133D01*
X0228040Y0090997D01*
X0228040Y0089768D01*
X0228260Y0089236D01*
X0178645Y0089236D01*
X0172705Y0083297D01*
X0171858Y0084144D01*
X0170722Y0084615D01*
X0169492Y0084615D01*
X0168356Y0084144D01*
X0167487Y0083275D01*
X0167017Y0082139D01*
X0167017Y0081545D01*
X0162371Y0076899D01*
X0162371Y0077218D01*
X0161900Y0078354D01*
X0161031Y0079223D01*
X0159895Y0079694D01*
X0158666Y0079694D01*
X0157530Y0079223D01*
X0156660Y0078354D01*
X0156190Y0077218D01*
X0156190Y0076624D01*
X0149511Y0069945D01*
X0148222Y0068656D01*
X0148222Y0041688D01*
X0142740Y0036206D01*
X0142296Y0036390D01*
X0140879Y0036390D01*
X0145732Y0041243D01*
X0145732Y0071544D01*
X0146116Y0071544D01*
X0147251Y0072015D01*
X0148121Y0072884D01*
X0148591Y0074020D01*
X0148591Y0075249D01*
X0148121Y0076385D01*
X0147251Y0077255D01*
X0146116Y0077725D01*
X0144886Y0077725D01*
X0143750Y0077255D01*
X0142881Y0076385D01*
X0142410Y0075249D01*
X0142410Y0074655D01*
X0141332Y0073577D01*
X0141332Y0043066D01*
X0136715Y0038449D01*
X0134983Y0038449D01*
X0132740Y0036206D01*
X0132296Y0036390D01*
X0130438Y0036390D01*
X0128722Y0035679D01*
X0127409Y0034366D01*
X0126698Y0032650D01*
X0126698Y0030793D01*
X0127409Y0029077D01*
X0128722Y0027763D01*
X0129603Y0027399D01*
X0125312Y0023108D01*
X0125126Y0023185D01*
X0123041Y0023185D01*
X0121113Y0022387D01*
X0119638Y0020912D01*
X0118956Y0019265D01*
X0118757Y0019878D01*
X0118397Y0020585D01*
X0117930Y0021227D01*
X0117369Y0021789D01*
X0116727Y0022255D01*
X0116019Y0022616D01*
X0115264Y0022861D01*
X0114583Y0022969D01*
X0114583Y0014898D01*
X0113583Y0014898D01*
X0113583Y0022969D01*
X0112902Y0022861D01*
X0112148Y0022616D01*
X0111440Y0022255D01*
X0110798Y0021789D01*
X0110237Y0021227D01*
X0109770Y0020585D01*
X0109410Y0019878D01*
X0109211Y0019265D01*
X0108529Y0020912D01*
X0107054Y0022387D01*
X0105126Y0023185D01*
X0103041Y0023185D01*
X0101113Y0022387D01*
X0099638Y0020912D01*
X0099083Y0019572D01*
X0098529Y0020912D01*
X0097054Y0022387D01*
X0095126Y0023185D01*
X0093041Y0023185D01*
X0091113Y0022387D01*
X0089638Y0020912D01*
X0089083Y0019572D01*
X0088529Y0020912D01*
X0087054Y0022387D01*
X0085126Y0023185D01*
X0083041Y0023185D01*
X0081113Y0022387D01*
X0079638Y0020912D01*
X0078956Y0019265D01*
X0078757Y0019878D01*
X0078397Y0020585D01*
X0077930Y0021227D01*
X0077369Y0021789D01*
X0076727Y0022255D01*
X0076019Y0022616D01*
X0075264Y0022861D01*
X0074583Y0022969D01*
X0074583Y0014898D01*
X0073583Y0014898D01*
X0073583Y0013898D01*
X0074583Y0013898D01*
X0074583Y0005828D01*
X0075264Y0005936D01*
X0076019Y0006181D01*
X0076727Y0006542D01*
X0077369Y0007008D01*
X0077930Y0007570D01*
X0078397Y0008212D01*
X0078757Y0008919D01*
X0078956Y0009532D01*
X0079638Y0007885D01*
X0081113Y0006410D01*
X0083041Y0005612D01*
X0085126Y0005612D01*
X0087054Y0006410D01*
X0088529Y0007885D01*
X0089083Y0009225D01*
X0089638Y0007885D01*
X0091113Y0006410D01*
X0093041Y0005612D01*
X0095126Y0005612D01*
X0097054Y0006410D01*
X0098529Y0007885D01*
X0099083Y0009225D01*
X0099638Y0007885D01*
X0101113Y0006410D01*
X0103041Y0005612D01*
X0105126Y0005612D01*
X0107054Y0006410D01*
X0108529Y0007885D01*
X0109211Y0009532D01*
X0109410Y0008919D01*
X0109770Y0008212D01*
X0110237Y0007570D01*
X0110798Y0007008D01*
X0111440Y0006542D01*
X0112148Y0006181D01*
X0112902Y0005936D01*
X0113583Y0005828D01*
X0113583Y0013898D01*
X0114583Y0013898D01*
X0114583Y0005828D01*
X0115264Y0005936D01*
X0116019Y0006181D01*
X0116727Y0006542D01*
X0117369Y0007008D01*
X0117930Y0007570D01*
X0118397Y0008212D01*
X0118757Y0008919D01*
X0118956Y0009532D01*
X0119638Y0007885D01*
X0121113Y0006410D01*
X0123041Y0005612D01*
X0125126Y0005612D01*
X0127054Y0006410D01*
X0128529Y0007885D01*
X0129083Y0009225D01*
X0129638Y0007885D01*
X0131113Y0006410D01*
X0133041Y0005612D01*
X0135126Y0005612D01*
X0137054Y0006410D01*
X0138529Y0007885D01*
X0139083Y0009225D01*
X0139638Y0007885D01*
X0141113Y0006410D01*
X0143041Y0005612D01*
X0145126Y0005612D01*
X0147054Y0006410D01*
X0148529Y0007885D01*
X0149327Y0009812D01*
X0149327Y0018985D01*
X0148529Y0020912D01*
X0148187Y0021254D01*
X0176086Y0021254D01*
X0177843Y0019496D01*
X0177843Y0018902D01*
X0178314Y0017766D01*
X0179183Y0016896D01*
X0180319Y0016426D01*
X0181549Y0016426D01*
X0182685Y0016896D01*
X0183554Y0017766D01*
X0184024Y0018902D01*
X0184024Y0020131D01*
X0183554Y0021267D01*
X0182685Y0022137D01*
X0181549Y0022607D01*
X0180955Y0022607D01*
X0179355Y0024206D01*
X0209404Y0024206D01*
X0212251Y0027053D01*
X0212296Y0027053D01*
X0214011Y0027763D01*
X0215325Y0029077D01*
X0216035Y0030793D01*
X0216035Y0032650D01*
X0215325Y0034366D01*
X0214011Y0035679D01*
X0212296Y0036390D01*
X0210438Y0036390D01*
X0209994Y0036206D01*
X0207740Y0038459D01*
X0207740Y0040849D01*
X0208099Y0040753D01*
X0210617Y0040753D01*
X0210617Y0043294D01*
X0210700Y0043294D01*
X0210700Y0043377D01*
X0214520Y0043377D01*
X0214520Y0044616D01*
X0214418Y0044997D01*
X0214221Y0045339D01*
X0213941Y0045618D01*
X0213599Y0045816D01*
X0213218Y0045918D01*
X0210700Y0045918D01*
X0210700Y0043377D01*
X0210617Y0043377D01*
X0210617Y0045918D01*
X0208099Y0045918D01*
X0207740Y0045822D01*
X0207740Y0048033D01*
X0213725Y0048033D01*
X0214307Y0048616D01*
X0216637Y0048616D01*
X0218104Y0047149D01*
X0218104Y0035061D01*
X0217409Y0034366D01*
X0216698Y0032650D01*
X0216698Y0030793D01*
X0217409Y0029077D01*
X0218722Y0027763D01*
X0220438Y0027053D01*
X0222296Y0027053D01*
X0224011Y0027763D01*
X0225325Y0029077D01*
X0226035Y0030793D01*
X0226035Y0032650D01*
X0225491Y0033964D01*
X0239056Y0047528D01*
X0246163Y0047528D01*
X0246163Y0046765D01*
X0247159Y0045769D01*
X0251964Y0045769D01*
X0253840Y0043893D01*
X0253840Y0040269D01*
X0254836Y0039273D01*
X0262544Y0039273D01*
X0263539Y0040269D01*
X0263539Y0041923D01*
X0269588Y0041923D01*
X0269588Y0040269D01*
X0270584Y0039273D01*
X0278292Y0039273D01*
X0279287Y0040269D01*
X0279287Y0047977D01*
X0278292Y0048972D01*
X0276638Y0048972D01*
X0276638Y0050249D01*
X0290839Y0068237D01*
X0290839Y0060768D01*
X0280101Y0049101D01*
X0279461Y0048461D01*
X0279461Y0048406D01*
X0279423Y0048365D01*
X0279461Y0047461D01*
X0279461Y0025814D01*
X0278791Y0025536D01*
X0277316Y0024061D01*
X0276517Y0022134D01*
X0276517Y0012962D01*
X0277316Y0011035D01*
X0278791Y0009560D01*
X0279461Y0009282D01*
X0279461Y0009273D01*
X0282965Y0005769D01*
X0284312Y0004421D01*
X0320666Y0004421D01*
X0322039Y0005794D02*
X0393001Y0005794D01*
X0393001Y0006793D02*
X0386074Y0006793D01*
X0385124Y0006399D02*
X0387775Y0007497D01*
X0389804Y0009526D01*
X0390902Y0012177D01*
X0390902Y0015046D01*
X0389804Y0017696D01*
X0387775Y0019725D01*
X0385124Y0020823D01*
X0382255Y0020823D01*
X0379605Y0019725D01*
X0377576Y0017696D01*
X0376478Y0015046D01*
X0376478Y0012177D01*
X0377576Y0009526D01*
X0379605Y0007497D01*
X0382255Y0006399D01*
X0385124Y0006399D01*
X0388069Y0007791D02*
X0393001Y0007791D01*
X0393001Y0008790D02*
X0389067Y0008790D01*
X0389912Y0009788D02*
X0393001Y0009788D01*
X0393001Y0010787D02*
X0390326Y0010787D01*
X0390739Y0011785D02*
X0393001Y0011785D01*
X0393001Y0012784D02*
X0390902Y0012784D01*
X0390902Y0013782D02*
X0393001Y0013782D01*
X0393001Y0014781D02*
X0390902Y0014781D01*
X0390598Y0015779D02*
X0393001Y0015779D01*
X0393001Y0016778D02*
X0390184Y0016778D01*
X0389724Y0017776D02*
X0393001Y0017776D01*
X0393001Y0018775D02*
X0388725Y0018775D01*
X0387658Y0019773D02*
X0393001Y0019773D01*
X0393001Y0020772D02*
X0385248Y0020772D01*
X0382132Y0020772D02*
X0356804Y0020772D01*
X0356804Y0019773D02*
X0379721Y0019773D01*
X0378654Y0018775D02*
X0356804Y0018775D01*
X0356804Y0017048D02*
X0352261Y0017048D01*
X0352261Y0008978D01*
X0352942Y0009086D01*
X0353697Y0009331D01*
X0354404Y0009691D01*
X0355046Y0010158D01*
X0355607Y0010719D01*
X0356074Y0011361D01*
X0356434Y0012069D01*
X0356680Y0012824D01*
X0356804Y0013608D01*
X0356804Y0017048D01*
X0356804Y0016778D02*
X0377195Y0016778D01*
X0376782Y0015779D02*
X0356804Y0015779D01*
X0356804Y0014781D02*
X0376478Y0014781D01*
X0376478Y0013782D02*
X0356804Y0013782D01*
X0356667Y0012784D02*
X0376478Y0012784D01*
X0376640Y0011785D02*
X0356290Y0011785D01*
X0355656Y0010787D02*
X0377054Y0010787D01*
X0377467Y0009788D02*
X0354537Y0009788D01*
X0352261Y0009788D02*
X0351261Y0009788D01*
X0351261Y0010787D02*
X0352261Y0010787D01*
X0352261Y0011785D02*
X0351261Y0011785D01*
X0351261Y0012784D02*
X0352261Y0012784D01*
X0352261Y0013782D02*
X0351261Y0013782D01*
X0351261Y0014781D02*
X0352261Y0014781D01*
X0352261Y0015779D02*
X0351261Y0015779D01*
X0351261Y0016778D02*
X0352261Y0016778D01*
X0352261Y0017776D02*
X0377656Y0017776D01*
X0393001Y0021770D02*
X0356759Y0021770D01*
X0356518Y0022769D02*
X0393001Y0022769D01*
X0393001Y0023767D02*
X0356050Y0023767D01*
X0355219Y0024766D02*
X0393001Y0024766D01*
X0393001Y0025764D02*
X0353698Y0025764D01*
X0352261Y0025764D02*
X0351261Y0025764D01*
X0351261Y0024766D02*
X0352261Y0024766D01*
X0352261Y0023767D02*
X0351261Y0023767D01*
X0351261Y0022769D02*
X0352261Y0022769D01*
X0352261Y0021770D02*
X0351261Y0021770D01*
X0351261Y0020772D02*
X0352261Y0020772D01*
X0352261Y0019773D02*
X0351261Y0019773D01*
X0351261Y0018775D02*
X0352261Y0018775D01*
X0341761Y0017548D02*
X0341761Y0023847D01*
X0345304Y0027391D01*
X0345304Y0030934D01*
X0348972Y0030757D02*
X0393001Y0030757D01*
X0393001Y0031755D02*
X0348972Y0031755D01*
X0348972Y0032754D02*
X0393001Y0032754D01*
X0393001Y0033752D02*
X0348972Y0033752D01*
X0348966Y0034751D02*
X0393001Y0034751D01*
X0393001Y0035749D02*
X0348972Y0035749D01*
X0348972Y0036748D02*
X0393001Y0036748D01*
X0393001Y0037746D02*
X0348972Y0037746D01*
X0348972Y0038745D02*
X0393001Y0038745D01*
X0393001Y0039743D02*
X0348972Y0039743D01*
X0348727Y0040742D02*
X0393001Y0040742D01*
X0393001Y0041740D02*
X0345117Y0041740D01*
X0345442Y0042739D02*
X0393001Y0042739D01*
X0393001Y0043737D02*
X0345442Y0043737D01*
X0345035Y0044736D02*
X0393001Y0044736D01*
X0393001Y0045734D02*
X0344551Y0045734D01*
X0343837Y0046733D02*
X0393001Y0046733D01*
X0393001Y0047732D02*
X0342838Y0047732D01*
X0341839Y0048730D02*
X0393001Y0048730D01*
X0393001Y0049729D02*
X0340841Y0049729D01*
X0339842Y0050727D02*
X0393001Y0050727D01*
X0393001Y0051726D02*
X0338844Y0051726D01*
X0337845Y0052724D02*
X0393001Y0052724D01*
X0393001Y0053723D02*
X0336847Y0053723D01*
X0335848Y0054721D02*
X0393001Y0054721D01*
X0393001Y0055720D02*
X0334850Y0055720D01*
X0333851Y0056718D02*
X0393001Y0056718D01*
X0393001Y0057717D02*
X0332853Y0057717D01*
X0331854Y0058715D02*
X0393001Y0058715D01*
X0393001Y0059714D02*
X0330856Y0059714D01*
X0329857Y0060712D02*
X0393001Y0060712D01*
X0393001Y0061711D02*
X0328859Y0061711D01*
X0327860Y0062709D02*
X0393001Y0062709D01*
X0393001Y0063708D02*
X0326862Y0063708D01*
X0325863Y0064706D02*
X0393001Y0064706D01*
X0393001Y0065705D02*
X0324865Y0065705D01*
X0323866Y0066703D02*
X0393001Y0066703D01*
X0393001Y0067702D02*
X0322868Y0067702D01*
X0322307Y0068700D02*
X0393001Y0068700D01*
X0393001Y0069699D02*
X0322307Y0069699D01*
X0322307Y0070697D02*
X0393001Y0070697D01*
X0393001Y0071696D02*
X0322307Y0071696D01*
X0322307Y0072694D02*
X0393001Y0072694D01*
X0393001Y0073693D02*
X0322307Y0073693D01*
X0322307Y0074691D02*
X0393001Y0074691D01*
X0393001Y0075690D02*
X0323763Y0075690D01*
X0323972Y0076688D02*
X0393001Y0076688D01*
X0393001Y0077687D02*
X0323972Y0077687D01*
X0323972Y0078685D02*
X0393001Y0078685D01*
X0393001Y0079684D02*
X0323972Y0079684D01*
X0323972Y0080682D02*
X0393001Y0080682D01*
X0393001Y0081681D02*
X0330246Y0081681D01*
X0331854Y0082679D02*
X0393001Y0082679D01*
X0393001Y0083678D02*
X0332852Y0083678D01*
X0333851Y0084676D02*
X0393001Y0084676D01*
X0393001Y0085675D02*
X0334849Y0085675D01*
X0335848Y0086673D02*
X0393001Y0086673D01*
X0393001Y0087672D02*
X0336677Y0087672D01*
X0336677Y0088670D02*
X0393001Y0088670D01*
X0393001Y0089669D02*
X0336677Y0089669D01*
X0336677Y0090668D02*
X0393001Y0090668D01*
X0393001Y0091666D02*
X0336677Y0091666D01*
X0336677Y0092665D02*
X0393001Y0092665D01*
X0393001Y0093663D02*
X0336677Y0093663D01*
X0336677Y0094662D02*
X0393001Y0094662D01*
X0393001Y0095660D02*
X0336677Y0095660D01*
X0336677Y0096659D02*
X0393001Y0096659D01*
X0393001Y0097657D02*
X0336677Y0097657D01*
X0336677Y0098656D02*
X0393001Y0098656D01*
X0393001Y0099654D02*
X0336677Y0099654D01*
X0336677Y0100653D02*
X0393001Y0100653D01*
X0393001Y0101651D02*
X0336677Y0101651D01*
X0336677Y0102650D02*
X0393001Y0102650D01*
X0393001Y0103648D02*
X0336677Y0103648D01*
X0336677Y0104647D02*
X0393001Y0104647D01*
X0393001Y0105645D02*
X0336677Y0105645D01*
X0336677Y0106644D02*
X0393001Y0106644D01*
X0393001Y0107642D02*
X0336677Y0107642D01*
X0336677Y0108641D02*
X0393001Y0108641D01*
X0393001Y0109639D02*
X0336677Y0109639D01*
X0336677Y0110638D02*
X0393001Y0110638D01*
X0393001Y0111636D02*
X0336677Y0111636D01*
X0336677Y0112635D02*
X0338366Y0112635D01*
X0337599Y0113633D02*
X0336677Y0113633D01*
X0336677Y0114632D02*
X0337292Y0114632D01*
X0337303Y0115630D02*
X0336677Y0115630D01*
X0336677Y0116629D02*
X0337717Y0116629D01*
X0340383Y0114989D02*
X0340383Y0120501D01*
X0346288Y0120501D01*
X0349957Y0120623D02*
X0393001Y0120623D01*
X0393001Y0121621D02*
X0349957Y0121621D01*
X0349957Y0122620D02*
X0393001Y0122620D01*
X0393001Y0123618D02*
X0349709Y0123618D01*
X0349957Y0124617D02*
X0393001Y0124617D01*
X0393001Y0125615D02*
X0349957Y0125615D01*
X0349957Y0126614D02*
X0393001Y0126614D01*
X0393001Y0127612D02*
X0349957Y0127612D01*
X0349957Y0128611D02*
X0393001Y0128611D01*
X0393001Y0129609D02*
X0349957Y0129609D01*
X0349412Y0130608D02*
X0393001Y0130608D01*
X0393001Y0131606D02*
X0347546Y0131606D01*
X0346547Y0132605D02*
X0393001Y0132605D01*
X0393001Y0133603D02*
X0345549Y0133603D01*
X0344550Y0134602D02*
X0393001Y0134602D01*
X0393001Y0135601D02*
X0354257Y0135601D01*
X0354404Y0135676D02*
X0355046Y0136142D01*
X0355607Y0136703D01*
X0356074Y0137346D01*
X0356434Y0138053D01*
X0356680Y0138808D01*
X0356804Y0139592D01*
X0356804Y0143032D01*
X0352261Y0143032D01*
X0352261Y0134962D01*
X0352942Y0135070D01*
X0353697Y0135315D01*
X0354404Y0135676D01*
X0355503Y0136599D02*
X0393001Y0136599D01*
X0393001Y0137598D02*
X0356202Y0137598D01*
X0356611Y0138596D02*
X0393001Y0138596D01*
X0393001Y0139595D02*
X0356804Y0139595D01*
X0356804Y0140593D02*
X0381445Y0140593D01*
X0382255Y0140257D02*
X0385124Y0140257D01*
X0387775Y0141355D01*
X0389804Y0143384D01*
X0390902Y0146035D01*
X0390902Y0148904D01*
X0389804Y0151554D01*
X0387775Y0153583D01*
X0385124Y0154681D01*
X0382255Y0154681D01*
X0379605Y0153583D01*
X0377576Y0151554D01*
X0376478Y0148904D01*
X0376478Y0146035D01*
X0377576Y0143384D01*
X0379605Y0141355D01*
X0382255Y0140257D01*
X0379368Y0141592D02*
X0356804Y0141592D01*
X0356804Y0142590D02*
X0378370Y0142590D01*
X0377491Y0143589D02*
X0352261Y0143589D01*
X0352261Y0144587D02*
X0351261Y0144587D01*
X0351261Y0145586D02*
X0352261Y0145586D01*
X0352261Y0146584D02*
X0351261Y0146584D01*
X0351261Y0147583D02*
X0352261Y0147583D01*
X0352261Y0148581D02*
X0351261Y0148581D01*
X0351261Y0149580D02*
X0352261Y0149580D01*
X0352261Y0150578D02*
X0351261Y0150578D01*
X0351261Y0151577D02*
X0352261Y0151577D01*
X0354036Y0151577D02*
X0377598Y0151577D01*
X0377172Y0150578D02*
X0355390Y0150578D01*
X0356145Y0149580D02*
X0376758Y0149580D01*
X0376478Y0148581D02*
X0356574Y0148581D01*
X0356786Y0147583D02*
X0376478Y0147583D01*
X0376478Y0146584D02*
X0356804Y0146584D01*
X0356804Y0145586D02*
X0376664Y0145586D01*
X0377078Y0144587D02*
X0356804Y0144587D01*
X0352261Y0142590D02*
X0351261Y0142590D01*
X0351261Y0141592D02*
X0352261Y0141592D01*
X0352261Y0140593D02*
X0351261Y0140593D01*
X0351261Y0139595D02*
X0352261Y0139595D01*
X0352261Y0138596D02*
X0351261Y0138596D01*
X0351261Y0137598D02*
X0352261Y0137598D01*
X0352261Y0136599D02*
X0351261Y0136599D01*
X0351261Y0135601D02*
X0352261Y0135601D01*
X0349265Y0135601D02*
X0344787Y0135601D01*
X0345786Y0136599D02*
X0348018Y0136599D01*
X0347319Y0137598D02*
X0346445Y0137598D01*
X0346859Y0138596D02*
X0346910Y0138596D01*
X0341761Y0134280D02*
X0346288Y0129753D01*
X0346288Y0127194D01*
X0340383Y0127194D02*
X0334477Y0127194D01*
X0328572Y0127194D02*
X0328572Y0129753D01*
X0331761Y0132942D01*
X0331761Y0143532D01*
X0336399Y0149580D02*
X0337123Y0149580D01*
X0337848Y0150578D02*
X0335673Y0150578D01*
X0334595Y0151577D02*
X0338926Y0151577D01*
X0344595Y0151577D02*
X0349486Y0151577D01*
X0348131Y0150578D02*
X0345673Y0150578D01*
X0346399Y0149580D02*
X0347376Y0149580D01*
X0346947Y0148581D02*
X0346812Y0148581D01*
X0341761Y0143532D02*
X0341761Y0134280D01*
X0329561Y0134602D02*
X0310773Y0134602D01*
X0310580Y0135070D02*
X0311261Y0134962D01*
X0311261Y0143032D01*
X0312261Y0143032D01*
X0312261Y0134962D01*
X0312942Y0135070D01*
X0313697Y0135315D01*
X0314404Y0135676D01*
X0315046Y0136142D01*
X0315607Y0136703D01*
X0316074Y0137346D01*
X0316434Y0138053D01*
X0316633Y0138666D01*
X0317316Y0137019D01*
X0318791Y0135544D01*
X0320718Y0134746D01*
X0322804Y0134746D01*
X0324731Y0135544D01*
X0326206Y0137019D01*
X0326761Y0138359D01*
X0327316Y0137019D01*
X0328791Y0135544D01*
X0329561Y0135225D01*
X0329561Y0133853D01*
X0327660Y0131953D01*
X0326767Y0131059D01*
X0325899Y0131059D01*
X0324903Y0130063D01*
X0324903Y0124324D01*
X0325380Y0123847D01*
X0324903Y0123370D01*
X0324903Y0117631D01*
X0325899Y0116635D01*
X0328861Y0116635D01*
X0328434Y0115604D01*
X0328434Y0114374D01*
X0328904Y0113238D01*
X0329324Y0112818D01*
X0329324Y0095085D01*
X0329276Y0095134D01*
X0323930Y0095134D01*
X0322988Y0094192D01*
X0322988Y0097977D01*
X0321992Y0098972D01*
X0321323Y0098972D01*
X0321323Y0115113D01*
X0316492Y0119944D01*
X0316492Y0123370D01*
X0316015Y0123847D01*
X0316492Y0124324D01*
X0316492Y0130063D01*
X0315496Y0131059D01*
X0315024Y0131059D01*
X0315024Y0131411D01*
X0315190Y0131988D01*
X0315024Y0132289D01*
X0315024Y0132633D01*
X0314599Y0133057D01*
X0314309Y0133583D01*
X0313978Y0133678D01*
X0313735Y0133921D01*
X0313134Y0133921D01*
X0305352Y0136165D01*
X0306206Y0137019D01*
X0306888Y0138666D01*
X0307087Y0138053D01*
X0307447Y0137346D01*
X0307914Y0136703D01*
X0308475Y0136142D01*
X0309117Y0135676D01*
X0309825Y0135315D01*
X0310580Y0135070D01*
X0311261Y0135601D02*
X0312261Y0135601D01*
X0312261Y0136599D02*
X0311261Y0136599D01*
X0311261Y0137598D02*
X0312261Y0137598D01*
X0312261Y0138596D02*
X0311261Y0138596D01*
X0311261Y0139595D02*
X0312261Y0139595D01*
X0312261Y0140593D02*
X0311261Y0140593D01*
X0311261Y0141592D02*
X0312261Y0141592D01*
X0312261Y0142590D02*
X0311261Y0142590D01*
X0306910Y0138596D02*
X0306859Y0138596D01*
X0306445Y0137598D02*
X0307319Y0137598D01*
X0308018Y0136599D02*
X0305786Y0136599D01*
X0307309Y0135601D02*
X0309265Y0135601D01*
X0314257Y0135601D02*
X0318734Y0135601D01*
X0317735Y0136599D02*
X0315503Y0136599D01*
X0316202Y0137598D02*
X0317076Y0137598D01*
X0316662Y0138596D02*
X0316611Y0138596D01*
X0324787Y0135601D02*
X0328734Y0135601D01*
X0327735Y0136599D02*
X0325786Y0136599D01*
X0326445Y0137598D02*
X0327076Y0137598D01*
X0329311Y0133603D02*
X0314237Y0133603D01*
X0315024Y0132605D02*
X0328313Y0132605D01*
X0327314Y0131606D02*
X0315080Y0131606D01*
X0315947Y0130608D02*
X0325448Y0130608D01*
X0324903Y0129609D02*
X0316492Y0129609D01*
X0316492Y0128611D02*
X0324903Y0128611D01*
X0324903Y0127612D02*
X0316492Y0127612D01*
X0316492Y0126614D02*
X0324903Y0126614D01*
X0324903Y0125615D02*
X0316492Y0125615D01*
X0316492Y0124617D02*
X0324903Y0124617D01*
X0325151Y0123618D02*
X0316244Y0123618D01*
X0316492Y0122620D02*
X0324903Y0122620D01*
X0324903Y0121621D02*
X0316492Y0121621D01*
X0316492Y0120623D02*
X0324903Y0120623D01*
X0324903Y0119624D02*
X0316811Y0119624D01*
X0317810Y0118626D02*
X0324903Y0118626D01*
X0324907Y0117627D02*
X0318808Y0117627D01*
X0319807Y0116629D02*
X0328858Y0116629D01*
X0328445Y0115630D02*
X0320805Y0115630D01*
X0321323Y0114632D02*
X0328434Y0114632D01*
X0328741Y0113633D02*
X0321323Y0113633D01*
X0321323Y0112635D02*
X0329324Y0112635D01*
X0329324Y0111636D02*
X0321323Y0111636D01*
X0321323Y0110638D02*
X0329324Y0110638D01*
X0329324Y0109639D02*
X0321323Y0109639D01*
X0321323Y0108641D02*
X0329324Y0108641D01*
X0329324Y0107642D02*
X0321323Y0107642D01*
X0321323Y0106644D02*
X0329324Y0106644D01*
X0329324Y0105645D02*
X0321323Y0105645D01*
X0321323Y0104647D02*
X0329324Y0104647D01*
X0329324Y0103648D02*
X0321323Y0103648D01*
X0321323Y0102650D02*
X0329324Y0102650D01*
X0329324Y0101651D02*
X0321323Y0101651D01*
X0321323Y0100653D02*
X0329324Y0100653D01*
X0329324Y0099654D02*
X0321323Y0099654D01*
X0322309Y0098656D02*
X0329324Y0098656D01*
X0329324Y0097657D02*
X0322988Y0097657D01*
X0322988Y0096659D02*
X0329324Y0096659D01*
X0329324Y0095660D02*
X0322988Y0095660D01*
X0322988Y0094662D02*
X0323458Y0094662D01*
X0319123Y0095304D02*
X0319123Y0114202D01*
X0312824Y0120501D01*
X0306918Y0120501D01*
X0301013Y0120501D02*
X0301013Y0117942D01*
X0302981Y0115973D01*
X0312824Y0115973D01*
X0315776Y0113020D01*
X0315776Y0101209D01*
X0312430Y0097863D01*
X0312430Y0095304D01*
X0310855Y0095304D01*
X0307706Y0092154D01*
X0302981Y0092154D01*
X0302981Y0094713D02*
X0297544Y0094713D01*
X0297544Y0094024D01*
X0297644Y0093651D01*
X0297344Y0093351D01*
X0297344Y0090958D01*
X0297427Y0090875D01*
X0297344Y0090792D01*
X0297344Y0088399D01*
X0297427Y0088316D01*
X0297344Y0088233D01*
X0297344Y0085840D01*
X0297427Y0085757D01*
X0297344Y0085673D01*
X0297344Y0083281D01*
X0297427Y0083198D01*
X0297344Y0083114D01*
X0297344Y0080722D01*
X0297427Y0080639D01*
X0297344Y0080555D01*
X0297344Y0078163D01*
X0297427Y0078080D01*
X0297344Y0077996D01*
X0297344Y0075604D01*
X0297427Y0075520D01*
X0297344Y0075437D01*
X0297344Y0073045D01*
X0298340Y0072049D01*
X0299182Y0072049D01*
X0299047Y0068461D01*
X0298241Y0068461D01*
X0297246Y0067465D01*
X0297246Y0062119D01*
X0298241Y0061124D01*
X0298813Y0061124D01*
X0298813Y0059798D01*
X0290939Y0051924D01*
X0290939Y0041492D01*
X0290466Y0041492D01*
X0290186Y0041212D01*
X0289906Y0041492D01*
X0284560Y0041492D01*
X0284061Y0040992D01*
X0284061Y0046611D01*
X0294799Y0058278D01*
X0295439Y0058918D01*
X0295439Y0058974D01*
X0295476Y0059014D01*
X0295439Y0059919D01*
X0295439Y0100257D01*
X0296060Y0100878D01*
X0299706Y0100878D01*
X0299706Y0100505D01*
X0300702Y0099509D01*
X0300948Y0099509D01*
X0300946Y0099465D01*
X0298340Y0099465D01*
X0297344Y0098469D01*
X0297344Y0096076D01*
X0297644Y0095776D01*
X0297544Y0095403D01*
X0297544Y0094713D01*
X0302981Y0094713D01*
X0302981Y0094713D01*
X0297666Y0094713D01*
X0296583Y0094812D01*
X0297544Y0094662D02*
X0295439Y0094662D01*
X0295439Y0095660D02*
X0297613Y0095660D01*
X0297344Y0096659D02*
X0295439Y0096659D01*
X0295439Y0097657D02*
X0297344Y0097657D01*
X0297531Y0098656D02*
X0295439Y0098656D01*
X0295439Y0099654D02*
X0300557Y0099654D01*
X0299706Y0100653D02*
X0295834Y0100653D01*
X0292807Y0104131D02*
X0290839Y0102162D01*
X0290839Y0096778D01*
X0289433Y0098184D01*
X0288144Y0099472D01*
X0285333Y0099472D01*
X0285233Y0099572D01*
X0278997Y0099572D01*
X0278889Y0099465D01*
X0275308Y0099465D01*
X0274313Y0098469D01*
X0274313Y0096076D01*
X0274613Y0095776D01*
X0274513Y0095403D01*
X0274513Y0094713D01*
X0274513Y0094354D01*
X0273461Y0094354D01*
X0272780Y0095035D01*
X0267041Y0095035D01*
X0266422Y0094417D01*
X0266304Y0094536D01*
X0265962Y0094733D01*
X0265580Y0094835D01*
X0263702Y0094835D01*
X0263702Y0091851D01*
X0262733Y0091851D01*
X0262733Y0090883D01*
X0259552Y0090883D01*
X0259552Y0089236D01*
X0234001Y0089236D01*
X0234221Y0089768D01*
X0234221Y0090997D01*
X0233751Y0092133D01*
X0233331Y0092553D01*
X0233331Y0102121D01*
X0228316Y0107136D01*
X0228316Y0107730D01*
X0228141Y0108152D01*
X0230052Y0108152D01*
X0230427Y0107777D01*
X0235533Y0107777D01*
X0235533Y0106804D01*
X0236529Y0105809D01*
X0241087Y0105809D01*
X0241957Y0106679D01*
X0242828Y0105809D01*
X0247386Y0105809D01*
X0248382Y0106804D01*
X0248382Y0107777D01*
X0253488Y0107777D01*
X0254135Y0108424D01*
X0254135Y0107788D01*
X0254418Y0107506D01*
X0254418Y0107405D01*
X0254799Y0106486D01*
X0256570Y0104715D01*
X0257274Y0104011D01*
X0258192Y0103631D01*
X0263616Y0103631D01*
X0264535Y0104011D01*
X0266011Y0105488D01*
X0266715Y0106191D01*
X0267095Y0107110D01*
X0267095Y0107703D01*
X0267181Y0107788D01*
X0267181Y0110933D01*
X0267193Y0110930D01*
X0269017Y0110930D01*
X0269017Y0113997D01*
X0270016Y0113997D01*
X0270016Y0110930D01*
X0271840Y0110930D01*
X0272221Y0111032D01*
X0272564Y0111230D01*
X0272701Y0111367D01*
X0272862Y0111324D01*
X0275135Y0111324D01*
X0275135Y0114111D01*
X0275709Y0114111D01*
X0275709Y0111324D01*
X0277982Y0111324D01*
X0278363Y0111426D01*
X0278705Y0111623D01*
X0278985Y0111903D01*
X0279182Y0112245D01*
X0279221Y0112391D01*
X0279221Y0112129D01*
X0279602Y0111211D01*
X0282161Y0108652D01*
X0282864Y0107948D01*
X0283783Y0107568D01*
X0293210Y0107568D01*
X0293210Y0107001D01*
X0294206Y0106006D01*
X0298764Y0106006D01*
X0299760Y0107001D01*
X0299760Y0111705D01*
X0300060Y0111705D01*
X0300297Y0111468D01*
X0300297Y0107001D01*
X0300577Y0106721D01*
X0299706Y0105851D01*
X0299706Y0105478D01*
X0294154Y0105478D01*
X0292807Y0104131D01*
X0292325Y0103648D02*
X0263658Y0103648D01*
X0265170Y0104647D02*
X0293323Y0104647D01*
X0291326Y0102650D02*
X0232802Y0102650D01*
X0233331Y0101651D02*
X0290839Y0101651D01*
X0290839Y0100653D02*
X0233331Y0100653D01*
X0233331Y0099654D02*
X0290839Y0099654D01*
X0290839Y0098656D02*
X0288961Y0098656D01*
X0289960Y0097657D02*
X0290839Y0097657D01*
X0289202Y0095304D02*
X0287233Y0097272D01*
X0281328Y0097272D01*
X0285387Y0095072D02*
X0286322Y0095072D01*
X0287002Y0094393D01*
X0287002Y0090281D01*
X0286972Y0090310D01*
X0285684Y0091598D01*
X0285587Y0091598D01*
X0285587Y0093351D01*
X0285287Y0093651D01*
X0285387Y0094024D01*
X0285387Y0094713D01*
X0279950Y0094713D01*
X0279950Y0094713D01*
X0285387Y0094713D01*
X0285387Y0095072D01*
X0285387Y0094662D02*
X0286733Y0094662D01*
X0287002Y0093663D02*
X0285290Y0093663D01*
X0285587Y0092665D02*
X0287002Y0092665D01*
X0287002Y0091666D02*
X0285587Y0091666D01*
X0286615Y0090668D02*
X0287002Y0090668D01*
X0284772Y0089398D02*
X0280146Y0089398D01*
X0279950Y0089595D01*
X0279950Y0087036D02*
X0179556Y0087036D01*
X0161249Y0068729D01*
X0161249Y0031839D01*
X0161367Y0031721D01*
X0153965Y0034320D02*
X0151367Y0031721D01*
X0153965Y0034320D02*
X0153965Y0065383D01*
X0170107Y0081524D01*
X0167240Y0082679D02*
X0085791Y0082679D01*
X0084792Y0081681D02*
X0167017Y0081681D01*
X0166154Y0080682D02*
X0084709Y0080682D01*
X0084709Y0079684D02*
X0158642Y0079684D01*
X0159919Y0079684D02*
X0165155Y0079684D01*
X0164157Y0078685D02*
X0161569Y0078685D01*
X0162177Y0077687D02*
X0163158Y0077687D01*
X0159280Y0076603D02*
X0150422Y0067745D01*
X0150422Y0040776D01*
X0141367Y0031721D01*
X0135894Y0036249D02*
X0131367Y0031721D01*
X0127155Y0033752D02*
X0125347Y0033752D01*
X0125189Y0034063D02*
X0125508Y0033437D01*
X0125725Y0032768D01*
X0125814Y0032206D01*
X0121851Y0032206D01*
X0120883Y0032206D01*
X0120883Y0036169D01*
X0120321Y0036080D01*
X0119652Y0035862D01*
X0119025Y0035543D01*
X0118456Y0035130D01*
X0117959Y0034632D01*
X0117545Y0034063D01*
X0117226Y0033437D01*
X0117008Y0032768D01*
X0116919Y0032206D01*
X0120883Y0032206D01*
X0120883Y0031237D01*
X0121851Y0031237D01*
X0121851Y0027274D01*
X0122413Y0027363D01*
X0123082Y0027580D01*
X0123709Y0027899D01*
X0124278Y0028313D01*
X0124775Y0028810D01*
X0125189Y0029379D01*
X0125508Y0030006D01*
X0125725Y0030675D01*
X0125814Y0031237D01*
X0121851Y0031237D01*
X0121851Y0032206D01*
X0121851Y0036169D01*
X0122413Y0036080D01*
X0123082Y0035862D01*
X0123709Y0035543D01*
X0124278Y0035130D01*
X0124775Y0034632D01*
X0125189Y0034063D01*
X0124657Y0034751D02*
X0127794Y0034751D01*
X0128892Y0035749D02*
X0123304Y0035749D01*
X0121851Y0035749D02*
X0120883Y0035749D01*
X0120883Y0034751D02*
X0121851Y0034751D01*
X0121851Y0033752D02*
X0120883Y0033752D01*
X0120883Y0032754D02*
X0121851Y0032754D01*
X0121851Y0031755D02*
X0126698Y0031755D01*
X0126713Y0030757D02*
X0125738Y0030757D01*
X0125382Y0029758D02*
X0127127Y0029758D01*
X0127726Y0028760D02*
X0124725Y0028760D01*
X0123438Y0027761D02*
X0128728Y0027761D01*
X0128966Y0026763D02*
X0004300Y0026763D01*
X0004300Y0027761D02*
X0088728Y0027761D01*
X0088722Y0027763D02*
X0090438Y0027053D01*
X0092296Y0027053D01*
X0094011Y0027763D01*
X0095325Y0029077D01*
X0096035Y0030793D01*
X0096035Y0032650D01*
X0095512Y0033914D01*
X0096721Y0032705D01*
X0096698Y0032650D01*
X0096698Y0030793D01*
X0097409Y0029077D01*
X0098722Y0027763D01*
X0100438Y0027053D01*
X0102296Y0027053D01*
X0104011Y0027763D01*
X0105325Y0029077D01*
X0106035Y0030793D01*
X0106035Y0031264D01*
X0106834Y0030466D01*
X0107409Y0029077D01*
X0108722Y0027763D01*
X0110438Y0027053D01*
X0112296Y0027053D01*
X0114011Y0027763D01*
X0115325Y0029077D01*
X0116035Y0030793D01*
X0116035Y0032650D01*
X0115325Y0034366D01*
X0114011Y0035679D01*
X0112296Y0036390D01*
X0110438Y0036390D01*
X0108722Y0035679D01*
X0108283Y0035239D01*
X0087169Y0056353D01*
X0085881Y0057642D01*
X0077319Y0057642D01*
X0077319Y0058410D01*
X0076842Y0058887D01*
X0077319Y0059364D01*
X0077319Y0059997D01*
X0077957Y0059733D01*
X0079186Y0059733D01*
X0080322Y0060204D01*
X0081192Y0061073D01*
X0081662Y0062209D01*
X0081662Y0063438D01*
X0081192Y0064574D01*
X0080322Y0065444D01*
X0079186Y0065914D01*
X0077957Y0065914D01*
X0076932Y0065490D01*
X0076323Y0066098D01*
X0070978Y0066098D01*
X0070028Y0065149D01*
X0069929Y0065319D01*
X0069650Y0065599D01*
X0069308Y0065796D01*
X0068927Y0065898D01*
X0067245Y0065898D01*
X0067245Y0062717D01*
X0066276Y0062717D01*
X0066276Y0061749D01*
X0063292Y0061749D01*
X0063292Y0061108D01*
X0063289Y0061110D01*
X0062907Y0061213D01*
X0058460Y0061213D01*
X0058460Y0058613D01*
X0058260Y0058613D01*
X0058260Y0061213D01*
X0053812Y0061213D01*
X0053431Y0061110D01*
X0053089Y0060913D01*
X0052810Y0060634D01*
X0052612Y0060292D01*
X0052510Y0059910D01*
X0052510Y0058613D01*
X0058260Y0058613D01*
X0058260Y0058413D01*
X0052510Y0058413D01*
X0052510Y0057115D01*
X0052612Y0056734D01*
X0052810Y0056392D01*
X0053047Y0056154D01*
X0052310Y0055417D01*
X0052310Y0051608D01*
X0053047Y0050871D01*
X0052810Y0050634D01*
X0052612Y0050292D01*
X0052510Y0049910D01*
X0052510Y0048613D01*
X0058260Y0048613D01*
X0058260Y0048413D01*
X0052510Y0048413D01*
X0052510Y0047115D01*
X0052612Y0046734D01*
X0052810Y0046392D01*
X0053047Y0046154D01*
X0052310Y0045417D01*
X0052310Y0041608D01*
X0053306Y0040613D01*
X0063092Y0040613D01*
X0063092Y0038891D01*
X0064088Y0037895D01*
X0069433Y0037895D01*
X0070205Y0038667D01*
X0070978Y0037895D01*
X0076323Y0037895D01*
X0077319Y0038891D01*
X0077319Y0038970D01*
X0090456Y0038970D01*
X0093560Y0035866D01*
X0092296Y0036390D01*
X0090438Y0036390D01*
X0088722Y0035679D01*
X0087409Y0034366D01*
X0086698Y0032650D01*
X0086698Y0030793D01*
X0087409Y0029077D01*
X0088722Y0027763D01*
X0087726Y0028760D02*
X0029193Y0028760D01*
X0029141Y0028708D02*
X0029561Y0029128D01*
X0037111Y0029128D01*
X0037896Y0029040D01*
X0038005Y0029128D01*
X0038144Y0029128D01*
X0038703Y0029686D01*
X0041813Y0032174D01*
X0042769Y0032174D01*
X0043905Y0032645D01*
X0044774Y0033514D01*
X0045245Y0034650D01*
X0045245Y0035879D01*
X0044774Y0037015D01*
X0043905Y0037885D01*
X0042769Y0038355D01*
X0041540Y0038355D01*
X0040404Y0037885D01*
X0039831Y0037312D01*
X0039831Y0038340D01*
X0039361Y0039476D01*
X0038869Y0039967D01*
X0039856Y0040376D01*
X0040092Y0040613D01*
X0042814Y0040613D01*
X0043810Y0041608D01*
X0043810Y0045417D01*
X0043214Y0046013D01*
X0043810Y0046608D01*
X0043810Y0050417D01*
X0043214Y0051013D01*
X0043810Y0051608D01*
X0043810Y0055417D01*
X0043214Y0056013D01*
X0043810Y0056608D01*
X0043810Y0060417D01*
X0042814Y0061413D01*
X0040092Y0061413D01*
X0039856Y0061649D01*
X0038496Y0062213D01*
X0034548Y0062213D01*
X0033188Y0061649D01*
X0032952Y0061413D01*
X0032706Y0061413D01*
X0031710Y0060417D01*
X0031710Y0060171D01*
X0030779Y0059240D01*
X0022838Y0059240D01*
X0022093Y0059985D01*
X0020446Y0060667D01*
X0021059Y0060866D01*
X0021766Y0061227D01*
X0022408Y0061693D01*
X0022970Y0062255D01*
X0023436Y0062897D01*
X0023797Y0063604D01*
X0024042Y0064359D01*
X0024150Y0065040D01*
X0016080Y0065040D01*
X0016080Y0066040D01*
X0024150Y0066040D01*
X0024042Y0066721D01*
X0023797Y0067476D01*
X0023436Y0068183D01*
X0022970Y0068826D01*
X0022408Y0069387D01*
X0021766Y0069854D01*
X0021059Y0070214D01*
X0020446Y0070413D01*
X0022093Y0071095D01*
X0023003Y0072006D01*
X0031609Y0072006D01*
X0031710Y0071904D01*
X0031710Y0071514D01*
X0031660Y0071464D01*
X0031190Y0070328D01*
X0031190Y0069099D01*
X0031660Y0067963D01*
X0032530Y0067093D01*
X0033666Y0066623D01*
X0034895Y0066623D01*
X0036031Y0067093D01*
X0036900Y0067963D01*
X0037371Y0069099D01*
X0037371Y0069340D01*
X0038496Y0069340D01*
X0039856Y0069903D01*
X0040092Y0070140D01*
X0042814Y0070140D01*
X0043810Y0071136D01*
X0043810Y0074944D01*
X0043214Y0075540D01*
X0043810Y0076136D01*
X0043810Y0079944D01*
X0043214Y0080540D01*
X0043810Y0081136D01*
X0043810Y0084944D01*
X0043214Y0085540D01*
X0043810Y0086136D01*
X0043810Y0089944D01*
X0042814Y0090940D01*
X0040092Y0090940D01*
X0039856Y0091177D01*
X0038496Y0091740D01*
X0037371Y0091740D01*
X0037371Y0091982D01*
X0036900Y0093118D01*
X0036031Y0093987D01*
X0034895Y0094457D01*
X0033666Y0094457D01*
X0032530Y0093987D01*
X0031660Y0093118D01*
X0031190Y0091982D01*
X0031190Y0090752D01*
X0031512Y0089973D01*
X0030779Y0089240D01*
X0022838Y0089240D01*
X0022093Y0089985D01*
X0020753Y0090540D01*
X0022093Y0091095D01*
X0023568Y0092570D01*
X0024366Y0094497D01*
X0024366Y0096583D01*
X0023568Y0098510D01*
X0022093Y0099985D01*
X0020753Y0100540D01*
X0022093Y0101095D01*
X0023568Y0102570D01*
X0024366Y0104497D01*
X0024366Y0106583D01*
X0023568Y0108510D01*
X0022093Y0109985D01*
X0020446Y0110667D01*
X0021059Y0110866D01*
X0021766Y0111227D01*
X0022408Y0111693D01*
X0022970Y0112255D01*
X0023436Y0112897D01*
X0023797Y0113604D01*
X0024042Y0114359D01*
X0024150Y0115040D01*
X0016080Y0115040D01*
X0016080Y0116040D01*
X0024150Y0116040D01*
X0024042Y0116721D01*
X0023797Y0117476D01*
X0023436Y0118183D01*
X0022970Y0118826D01*
X0022408Y0119387D01*
X0021766Y0119854D01*
X0021059Y0120214D01*
X0020304Y0120459D01*
X0019520Y0120583D01*
X0016080Y0120583D01*
X0016080Y0116040D01*
X0015080Y0116040D01*
X0015080Y0120583D01*
X0011639Y0120583D01*
X0010855Y0120459D01*
X0010100Y0120214D01*
X0009393Y0119854D01*
X0008751Y0119387D01*
X0008189Y0118826D01*
X0007723Y0118183D01*
X0007362Y0117476D01*
X0007117Y0116721D01*
X0007009Y0116040D01*
X0015079Y0116040D01*
X0015079Y0115040D01*
X0007009Y0115040D01*
X0007117Y0114359D01*
X0007362Y0113604D01*
X0007723Y0112897D01*
X0008189Y0112255D01*
X0008751Y0111693D01*
X0009393Y0111227D01*
X0010100Y0110866D01*
X0010713Y0110667D01*
X0009066Y0109985D01*
X0007591Y0108510D01*
X0006793Y0106583D01*
X0006793Y0104497D01*
X0007591Y0102570D01*
X0009066Y0101095D01*
X0010406Y0100540D01*
X0009066Y0099985D01*
X0007591Y0098510D01*
X0006793Y0096583D01*
X0006793Y0094497D01*
X0007591Y0092570D01*
X0009066Y0091095D01*
X0010406Y0090540D01*
X0009066Y0089985D01*
X0007591Y0088510D01*
X0006793Y0086583D01*
X0006793Y0084497D01*
X0007591Y0082570D01*
X0009066Y0081095D01*
X0010406Y0080540D01*
X0009066Y0079985D01*
X0007591Y0078510D01*
X0006793Y0076583D01*
X0006793Y0074497D01*
X0007591Y0072570D01*
X0009066Y0071095D01*
X0010713Y0070413D01*
X0010100Y0070214D01*
X0009393Y0069854D01*
X0008751Y0069387D01*
X0008189Y0068826D01*
X0007723Y0068183D01*
X0007362Y0067476D01*
X0007117Y0066721D01*
X0007009Y0066040D01*
X0015079Y0066040D01*
X0015079Y0065040D01*
X0007009Y0065040D01*
X0007117Y0064359D01*
X0007362Y0063604D01*
X0007723Y0062897D01*
X0008189Y0062255D01*
X0008751Y0061693D01*
X0009393Y0061227D01*
X0010100Y0060866D01*
X0010713Y0060667D01*
X0009066Y0059985D01*
X0007591Y0058510D01*
X0006793Y0056583D01*
X0006793Y0054497D01*
X0007591Y0052570D01*
X0009066Y0051095D01*
X0010406Y0050540D01*
X0009066Y0049985D01*
X0007591Y0048510D01*
X0006793Y0046583D01*
X0006793Y0044497D01*
X0007591Y0042570D01*
X0009066Y0041095D01*
X0010993Y0040297D01*
X0020166Y0040297D01*
X0022093Y0041095D01*
X0022819Y0041821D01*
X0031710Y0041821D01*
X0031710Y0041608D01*
X0032706Y0040613D01*
X0033961Y0040613D01*
X0034049Y0040524D01*
X0034049Y0039302D01*
X0033650Y0038340D01*
X0033650Y0037110D01*
X0034121Y0035975D01*
X0034990Y0035105D01*
X0036126Y0034635D01*
X0037356Y0034635D01*
X0038371Y0035055D01*
X0036461Y0033528D01*
X0029561Y0033528D01*
X0029141Y0033948D01*
X0028005Y0034418D01*
X0026776Y0034418D01*
X0025640Y0033948D01*
X0024771Y0033078D01*
X0024300Y0031942D01*
X0024300Y0030713D01*
X0024771Y0029577D01*
X0025640Y0028708D01*
X0026776Y0028237D01*
X0028005Y0028237D01*
X0029141Y0028708D01*
X0025588Y0028760D02*
X0004300Y0028760D01*
X0004300Y0029758D02*
X0024695Y0029758D01*
X0024300Y0030757D02*
X0004300Y0030757D01*
X0004300Y0031755D02*
X0024300Y0031755D01*
X0024636Y0032754D02*
X0004300Y0032754D01*
X0004300Y0033752D02*
X0025445Y0033752D01*
X0027391Y0031328D02*
X0037233Y0031328D01*
X0042154Y0035265D01*
X0044885Y0036748D02*
X0092678Y0036748D01*
X0091679Y0037746D02*
X0044043Y0037746D01*
X0045245Y0035749D02*
X0088892Y0035749D01*
X0087794Y0034751D02*
X0045245Y0034751D01*
X0044873Y0033752D02*
X0087155Y0033752D01*
X0086741Y0032754D02*
X0044014Y0032754D01*
X0041289Y0031755D02*
X0086698Y0031755D01*
X0086713Y0030757D02*
X0040041Y0030757D01*
X0038793Y0029758D02*
X0087127Y0029758D01*
X0094006Y0027761D02*
X0098728Y0027761D01*
X0097726Y0028760D02*
X0095008Y0028760D01*
X0095607Y0029758D02*
X0097127Y0029758D01*
X0096713Y0030757D02*
X0096021Y0030757D01*
X0096035Y0031755D02*
X0096698Y0031755D01*
X0096672Y0032754D02*
X0095992Y0032754D01*
X0095673Y0033752D02*
X0095579Y0033752D01*
X0100816Y0031721D02*
X0091367Y0041170D01*
X0074241Y0041170D01*
X0073650Y0041761D01*
X0073060Y0041170D01*
X0067154Y0041170D01*
X0066761Y0041761D01*
X0065009Y0043513D01*
X0058360Y0043513D01*
X0052310Y0043737D02*
X0043810Y0043737D01*
X0043810Y0042739D02*
X0052310Y0042739D01*
X0052310Y0041740D02*
X0043810Y0041740D01*
X0042943Y0040742D02*
X0053176Y0040742D01*
X0052310Y0044736D02*
X0043810Y0044736D01*
X0043492Y0045734D02*
X0052628Y0045734D01*
X0052612Y0046733D02*
X0043810Y0046733D01*
X0043810Y0047732D02*
X0052510Y0047732D01*
X0052510Y0048730D02*
X0043810Y0048730D01*
X0043810Y0049729D02*
X0052510Y0049729D01*
X0052903Y0050727D02*
X0043500Y0050727D01*
X0043810Y0051726D02*
X0052310Y0051726D01*
X0052310Y0052724D02*
X0043810Y0052724D01*
X0043810Y0053723D02*
X0052310Y0053723D01*
X0052310Y0054721D02*
X0043810Y0054721D01*
X0043507Y0055720D02*
X0052613Y0055720D01*
X0052621Y0056718D02*
X0043810Y0056718D01*
X0043810Y0057717D02*
X0052510Y0057717D01*
X0052510Y0058715D02*
X0043810Y0058715D01*
X0043810Y0059714D02*
X0052510Y0059714D01*
X0052888Y0060712D02*
X0043514Y0060712D01*
X0039708Y0061711D02*
X0063292Y0061711D01*
X0063292Y0062717D02*
X0066276Y0062717D01*
X0066276Y0065898D01*
X0064595Y0065898D01*
X0064213Y0065796D01*
X0063871Y0065599D01*
X0063592Y0065319D01*
X0063394Y0064977D01*
X0063292Y0064596D01*
X0063292Y0062717D01*
X0063292Y0063708D02*
X0023830Y0063708D01*
X0024097Y0064706D02*
X0063322Y0064706D01*
X0064055Y0065705D02*
X0016080Y0065705D01*
X0015079Y0065705D02*
X0004300Y0065705D01*
X0004300Y0066703D02*
X0007114Y0066703D01*
X0007477Y0067702D02*
X0004300Y0067702D01*
X0004300Y0068700D02*
X0008098Y0068700D01*
X0009180Y0069699D02*
X0004300Y0069699D01*
X0004300Y0070697D02*
X0010027Y0070697D01*
X0008465Y0071696D02*
X0004300Y0071696D01*
X0004300Y0072694D02*
X0007540Y0072694D01*
X0007126Y0073693D02*
X0004300Y0073693D01*
X0004300Y0074691D02*
X0006793Y0074691D01*
X0006793Y0075690D02*
X0004300Y0075690D01*
X0004300Y0076688D02*
X0006837Y0076688D01*
X0007250Y0077687D02*
X0004300Y0077687D01*
X0004300Y0078685D02*
X0007766Y0078685D01*
X0008765Y0079684D02*
X0004300Y0079684D01*
X0004300Y0080682D02*
X0010062Y0080682D01*
X0008480Y0081681D02*
X0004300Y0081681D01*
X0004300Y0082679D02*
X0007546Y0082679D01*
X0007132Y0083678D02*
X0004300Y0083678D01*
X0004300Y0084676D02*
X0006793Y0084676D01*
X0006793Y0085675D02*
X0004300Y0085675D01*
X0004300Y0086673D02*
X0006830Y0086673D01*
X0007244Y0087672D02*
X0004300Y0087672D01*
X0004300Y0088670D02*
X0007751Y0088670D01*
X0008750Y0089669D02*
X0004300Y0089669D01*
X0004300Y0090668D02*
X0010098Y0090668D01*
X0008495Y0091666D02*
X0004300Y0091666D01*
X0004300Y0092665D02*
X0007552Y0092665D01*
X0007138Y0093663D02*
X0004300Y0093663D01*
X0004300Y0094662D02*
X0006793Y0094662D01*
X0006793Y0095660D02*
X0004300Y0095660D01*
X0004300Y0096659D02*
X0006824Y0096659D01*
X0007238Y0097657D02*
X0004300Y0097657D01*
X0004300Y0098656D02*
X0007737Y0098656D01*
X0008735Y0099654D02*
X0004300Y0099654D01*
X0004300Y0100653D02*
X0010134Y0100653D01*
X0008510Y0101651D02*
X0004300Y0101651D01*
X0004300Y0102650D02*
X0007558Y0102650D01*
X0007145Y0103648D02*
X0004300Y0103648D01*
X0004300Y0104647D02*
X0006793Y0104647D01*
X0006793Y0105645D02*
X0004300Y0105645D01*
X0004300Y0106644D02*
X0006818Y0106644D01*
X0007232Y0107642D02*
X0004300Y0107642D01*
X0004300Y0108641D02*
X0007722Y0108641D01*
X0008720Y0109639D02*
X0004300Y0109639D01*
X0004300Y0110638D02*
X0010641Y0110638D01*
X0008829Y0111636D02*
X0004300Y0111636D01*
X0004300Y0112635D02*
X0007913Y0112635D01*
X0007353Y0113633D02*
X0004300Y0113633D01*
X0004300Y0114632D02*
X0007074Y0114632D01*
X0007102Y0116629D02*
X0004300Y0116629D01*
X0004300Y0117627D02*
X0007439Y0117627D01*
X0008044Y0118626D02*
X0004300Y0118626D01*
X0004300Y0119624D02*
X0009077Y0119624D01*
X0004300Y0120623D02*
X0098811Y0120623D01*
X0099167Y0121621D02*
X0004300Y0121621D01*
X0004300Y0122620D02*
X0099167Y0122620D01*
X0099167Y0123618D02*
X0004300Y0123618D01*
X0004300Y0124617D02*
X0099167Y0124617D01*
X0099167Y0125615D02*
X0004300Y0125615D01*
X0004300Y0126614D02*
X0099167Y0126614D01*
X0099087Y0127612D02*
X0093146Y0127612D01*
X0093082Y0127580D02*
X0093709Y0127899D01*
X0094278Y0128313D01*
X0094775Y0128810D01*
X0095189Y0129379D01*
X0095508Y0130006D01*
X0095725Y0130675D01*
X0095814Y0131237D01*
X0091851Y0131237D01*
X0091851Y0127274D01*
X0092413Y0127363D01*
X0093082Y0127580D01*
X0091851Y0127612D02*
X0090883Y0127612D01*
X0090883Y0127274D02*
X0090883Y0131237D01*
X0091851Y0131237D01*
X0091851Y0132206D01*
X0090883Y0132206D01*
X0090883Y0136169D01*
X0090321Y0136080D01*
X0089652Y0135862D01*
X0089025Y0135543D01*
X0088456Y0135130D01*
X0087959Y0134632D01*
X0087545Y0134063D01*
X0087226Y0133437D01*
X0087008Y0132768D01*
X0086919Y0132206D01*
X0090883Y0132206D01*
X0090883Y0131237D01*
X0086919Y0131237D01*
X0087008Y0130675D01*
X0087226Y0130006D01*
X0087545Y0129379D01*
X0087959Y0128810D01*
X0088456Y0128313D01*
X0089025Y0127899D01*
X0089652Y0127580D01*
X0090321Y0127363D01*
X0090883Y0127274D01*
X0090883Y0128611D02*
X0091851Y0128611D01*
X0091851Y0129609D02*
X0090883Y0129609D01*
X0090883Y0130608D02*
X0091851Y0130608D01*
X0091851Y0131606D02*
X0096698Y0131606D01*
X0096698Y0132605D02*
X0095751Y0132605D01*
X0095725Y0132768D02*
X0095508Y0133437D01*
X0095189Y0134063D01*
X0094775Y0134632D01*
X0094278Y0135130D01*
X0093709Y0135543D01*
X0093082Y0135862D01*
X0092413Y0136080D01*
X0091851Y0136169D01*
X0091851Y0132206D01*
X0095814Y0132206D01*
X0095725Y0132768D01*
X0095423Y0133603D02*
X0097093Y0133603D01*
X0097645Y0134602D02*
X0094797Y0134602D01*
X0093596Y0135601D02*
X0098644Y0135601D01*
X0091851Y0135601D02*
X0090883Y0135601D01*
X0090883Y0134602D02*
X0091851Y0134602D01*
X0091851Y0133603D02*
X0090883Y0133603D01*
X0090883Y0132605D02*
X0091851Y0132605D01*
X0090883Y0131606D02*
X0004300Y0131606D01*
X0004300Y0130608D02*
X0087030Y0130608D01*
X0087428Y0129609D02*
X0004300Y0129609D01*
X0004300Y0128611D02*
X0088158Y0128611D01*
X0089588Y0127612D02*
X0004300Y0127612D01*
X0004300Y0132605D02*
X0086983Y0132605D01*
X0087311Y0133603D02*
X0004300Y0133603D01*
X0004300Y0134602D02*
X0087937Y0134602D01*
X0089138Y0135601D02*
X0004300Y0135601D01*
X0004300Y0136599D02*
X0277735Y0136599D01*
X0277076Y0137598D02*
X0004300Y0137598D01*
X0004300Y0138596D02*
X0276662Y0138596D01*
X0276517Y0139595D02*
X0004300Y0139595D01*
X0004300Y0140593D02*
X0011366Y0140593D01*
X0012177Y0140257D02*
X0009526Y0141355D01*
X0007497Y0143384D01*
X0006399Y0146035D01*
X0006399Y0148904D01*
X0007497Y0151554D01*
X0009526Y0153583D01*
X0012177Y0154681D01*
X0015046Y0154681D01*
X0017696Y0153583D01*
X0019725Y0151554D01*
X0020823Y0148904D01*
X0020823Y0146035D01*
X0019725Y0143384D01*
X0017696Y0141355D01*
X0015046Y0140257D01*
X0012177Y0140257D01*
X0009290Y0141592D02*
X0004300Y0141592D01*
X0004300Y0142590D02*
X0008291Y0142590D01*
X0007412Y0143589D02*
X0004300Y0143589D01*
X0004300Y0144587D02*
X0006999Y0144587D01*
X0006585Y0145586D02*
X0004300Y0145586D01*
X0004300Y0146584D02*
X0006399Y0146584D01*
X0006399Y0147583D02*
X0004300Y0147583D01*
X0004300Y0148581D02*
X0006399Y0148581D01*
X0006679Y0149580D02*
X0004300Y0149580D01*
X0004300Y0150578D02*
X0007093Y0150578D01*
X0007519Y0151577D02*
X0004300Y0151577D01*
X0004300Y0152575D02*
X0008518Y0152575D01*
X0009516Y0153574D02*
X0004300Y0153574D01*
X0004300Y0154572D02*
X0011914Y0154572D01*
X0015308Y0154572D02*
X0196953Y0154572D01*
X0197216Y0154681D02*
X0194565Y0153583D01*
X0192537Y0151554D01*
X0191439Y0148904D01*
X0191439Y0146035D01*
X0192537Y0143384D01*
X0194565Y0141355D01*
X0197216Y0140257D01*
X0200085Y0140257D01*
X0202736Y0141355D01*
X0204764Y0143384D01*
X0205862Y0146035D01*
X0205862Y0148904D01*
X0204764Y0151554D01*
X0202736Y0153583D01*
X0200085Y0154681D01*
X0197216Y0154681D01*
X0194556Y0153574D02*
X0017706Y0153574D01*
X0018704Y0152575D02*
X0193557Y0152575D01*
X0192559Y0151577D02*
X0019703Y0151577D01*
X0020129Y0150578D02*
X0192132Y0150578D01*
X0191719Y0149580D02*
X0020543Y0149580D01*
X0020823Y0148581D02*
X0191439Y0148581D01*
X0191439Y0147583D02*
X0020823Y0147583D01*
X0020823Y0146584D02*
X0191439Y0146584D01*
X0191625Y0145586D02*
X0020637Y0145586D01*
X0020223Y0144587D02*
X0192038Y0144587D01*
X0192452Y0143589D02*
X0019810Y0143589D01*
X0018931Y0142590D02*
X0193331Y0142590D01*
X0194329Y0141592D02*
X0017932Y0141592D01*
X0015856Y0140593D02*
X0196406Y0140593D01*
X0200895Y0140593D02*
X0276517Y0140593D01*
X0276517Y0141592D02*
X0202972Y0141592D01*
X0203970Y0142590D02*
X0276517Y0142590D01*
X0276517Y0143589D02*
X0204849Y0143589D01*
X0205263Y0144587D02*
X0276517Y0144587D01*
X0276517Y0145586D02*
X0205676Y0145586D01*
X0205862Y0146584D02*
X0276517Y0146584D01*
X0276517Y0147583D02*
X0205862Y0147583D01*
X0205862Y0148581D02*
X0276709Y0148581D01*
X0277123Y0149580D02*
X0205582Y0149580D01*
X0205169Y0150578D02*
X0277848Y0150578D01*
X0278926Y0151577D02*
X0204742Y0151577D01*
X0203743Y0152575D02*
X0280228Y0152575D01*
X0281227Y0153574D02*
X0202745Y0153574D01*
X0200348Y0154572D02*
X0282225Y0154572D01*
X0283224Y0155571D02*
X0004300Y0155571D01*
X0004300Y0156569D02*
X0284222Y0156569D01*
X0291761Y0143532D02*
X0291761Y0135265D01*
X0295107Y0130737D01*
X0295107Y0127194D01*
X0301013Y0127194D02*
X0306918Y0127194D01*
X0312824Y0127194D02*
X0312824Y0131721D01*
X0301761Y0134910D01*
X0301761Y0143532D01*
X0278734Y0135601D02*
X0234090Y0135601D01*
X0234011Y0135679D02*
X0232296Y0136390D01*
X0230438Y0136390D01*
X0228722Y0135679D01*
X0227409Y0134366D01*
X0226698Y0132650D01*
X0226698Y0130793D01*
X0227409Y0129077D01*
X0228722Y0127763D01*
X0230438Y0127053D01*
X0232296Y0127053D01*
X0234011Y0127763D01*
X0235325Y0129077D01*
X0236035Y0130793D01*
X0236035Y0132650D01*
X0235325Y0134366D01*
X0234011Y0135679D01*
X0235088Y0134602D02*
X0283068Y0134602D01*
X0284067Y0133603D02*
X0235640Y0133603D01*
X0236035Y0132605D02*
X0285065Y0132605D01*
X0286064Y0131606D02*
X0236035Y0131606D01*
X0235959Y0130608D02*
X0246034Y0130608D01*
X0246072Y0130674D02*
X0245875Y0130332D01*
X0245772Y0129950D01*
X0245772Y0128269D01*
X0248953Y0128269D01*
X0248953Y0127300D01*
X0245772Y0127300D01*
X0245772Y0125618D01*
X0245875Y0125237D01*
X0246072Y0124895D01*
X0246351Y0124615D01*
X0246693Y0124418D01*
X0247075Y0124316D01*
X0248954Y0124316D01*
X0248954Y0127300D01*
X0249922Y0127300D01*
X0249922Y0124316D01*
X0251801Y0124316D01*
X0252182Y0124418D01*
X0252524Y0124615D01*
X0252643Y0124734D01*
X0253261Y0124116D01*
X0254135Y0124116D01*
X0254135Y0121160D01*
X0253985Y0121422D01*
X0253705Y0121701D01*
X0253363Y0121899D01*
X0252982Y0122001D01*
X0251300Y0122001D01*
X0251300Y0118820D01*
X0254135Y0118820D01*
X0254135Y0118025D01*
X0255131Y0117030D01*
X0258705Y0117030D01*
X0259701Y0118025D01*
X0259701Y0124158D01*
X0259418Y0124441D01*
X0259418Y0124534D01*
X0259996Y0125112D01*
X0259996Y0130457D01*
X0259000Y0131453D01*
X0253261Y0131453D01*
X0252643Y0130834D01*
X0252524Y0130953D01*
X0252182Y0131151D01*
X0251801Y0131253D01*
X0249922Y0131253D01*
X0249922Y0128269D01*
X0248954Y0128269D01*
X0248954Y0131253D01*
X0247075Y0131253D01*
X0246693Y0131151D01*
X0246351Y0130953D01*
X0246072Y0130674D01*
X0245772Y0129609D02*
X0235545Y0129609D01*
X0234859Y0128611D02*
X0245772Y0128611D01*
X0245772Y0126614D02*
X0113567Y0126614D01*
X0113567Y0125615D02*
X0245773Y0125615D01*
X0246350Y0124617D02*
X0113567Y0124617D01*
X0113567Y0123618D02*
X0254135Y0123618D01*
X0254135Y0122620D02*
X0112936Y0122620D01*
X0111937Y0121621D02*
X0230130Y0121621D01*
X0229631Y0120623D02*
X0110939Y0120623D01*
X0109940Y0119624D02*
X0229631Y0119624D01*
X0229631Y0117627D02*
X0107943Y0117627D01*
X0106945Y0116629D02*
X0229631Y0116629D01*
X0229722Y0115630D02*
X0105946Y0115630D01*
X0105284Y0114632D02*
X0229550Y0114632D01*
X0232615Y0118626D02*
X0108942Y0118626D01*
X0104716Y0120623D02*
X0103567Y0120623D01*
X0103567Y0121621D02*
X0105715Y0121621D01*
X0106713Y0122620D02*
X0103567Y0122620D01*
X0103567Y0123618D02*
X0107712Y0123618D01*
X0108710Y0124617D02*
X0103567Y0124617D01*
X0103567Y0125615D02*
X0109167Y0125615D01*
X0109167Y0126614D02*
X0103567Y0126614D01*
X0103647Y0127612D02*
X0109087Y0127612D01*
X0107875Y0128611D02*
X0104859Y0128611D01*
X0105545Y0129609D02*
X0107189Y0129609D01*
X0106775Y0130608D02*
X0105959Y0130608D01*
X0106035Y0131606D02*
X0106698Y0131606D01*
X0106698Y0132605D02*
X0106035Y0132605D01*
X0105640Y0133603D02*
X0107093Y0133603D01*
X0107645Y0134602D02*
X0105088Y0134602D01*
X0104090Y0135601D02*
X0108644Y0135601D01*
X0114090Y0135601D02*
X0118644Y0135601D01*
X0118722Y0135679D02*
X0117409Y0134366D01*
X0116698Y0132650D01*
X0116698Y0130793D01*
X0117409Y0129077D01*
X0118722Y0127763D01*
X0120438Y0127053D01*
X0122296Y0127053D01*
X0124011Y0127763D01*
X0125325Y0129077D01*
X0126035Y0130793D01*
X0126035Y0132650D01*
X0125325Y0134366D01*
X0124011Y0135679D01*
X0122296Y0136390D01*
X0120438Y0136390D01*
X0118722Y0135679D01*
X0117645Y0134602D02*
X0115088Y0134602D01*
X0115640Y0133603D02*
X0117093Y0133603D01*
X0116698Y0132605D02*
X0116035Y0132605D01*
X0116035Y0131606D02*
X0116698Y0131606D01*
X0116775Y0130608D02*
X0115959Y0130608D01*
X0115545Y0129609D02*
X0117189Y0129609D01*
X0117875Y0128611D02*
X0114859Y0128611D01*
X0113647Y0127612D02*
X0119087Y0127612D01*
X0123647Y0127612D02*
X0129087Y0127612D01*
X0128722Y0127763D02*
X0130438Y0127053D01*
X0132296Y0127053D01*
X0134011Y0127763D01*
X0135325Y0129077D01*
X0136035Y0130793D01*
X0136035Y0132650D01*
X0135325Y0134366D01*
X0134011Y0135679D01*
X0132296Y0136390D01*
X0130438Y0136390D01*
X0128722Y0135679D01*
X0127409Y0134366D01*
X0126698Y0132650D01*
X0126698Y0130793D01*
X0127409Y0129077D01*
X0128722Y0127763D01*
X0127875Y0128611D02*
X0124859Y0128611D01*
X0125545Y0129609D02*
X0127189Y0129609D01*
X0126775Y0130608D02*
X0125959Y0130608D01*
X0126035Y0131606D02*
X0126698Y0131606D01*
X0126698Y0132605D02*
X0126035Y0132605D01*
X0125640Y0133603D02*
X0127093Y0133603D01*
X0127645Y0134602D02*
X0125088Y0134602D01*
X0124090Y0135601D02*
X0128644Y0135601D01*
X0134090Y0135601D02*
X0138644Y0135601D01*
X0138722Y0135679D02*
X0137409Y0134366D01*
X0136698Y0132650D01*
X0136698Y0130793D01*
X0137409Y0129077D01*
X0138722Y0127763D01*
X0140438Y0127053D01*
X0142296Y0127053D01*
X0144011Y0127763D01*
X0145325Y0129077D01*
X0146035Y0130793D01*
X0146035Y0132650D01*
X0145325Y0134366D01*
X0144011Y0135679D01*
X0142296Y0136390D01*
X0140438Y0136390D01*
X0138722Y0135679D01*
X0137645Y0134602D02*
X0135088Y0134602D01*
X0135640Y0133603D02*
X0137093Y0133603D01*
X0136698Y0132605D02*
X0136035Y0132605D01*
X0136035Y0131606D02*
X0136698Y0131606D01*
X0136775Y0130608D02*
X0135959Y0130608D01*
X0135545Y0129609D02*
X0137189Y0129609D01*
X0137875Y0128611D02*
X0134859Y0128611D01*
X0133647Y0127612D02*
X0139087Y0127612D01*
X0143647Y0127612D02*
X0149087Y0127612D01*
X0148722Y0127763D02*
X0150438Y0127053D01*
X0152296Y0127053D01*
X0154011Y0127763D01*
X0155325Y0129077D01*
X0156035Y0130793D01*
X0156035Y0132650D01*
X0155325Y0134366D01*
X0154011Y0135679D01*
X0152296Y0136390D01*
X0150438Y0136390D01*
X0148722Y0135679D01*
X0147409Y0134366D01*
X0146698Y0132650D01*
X0146698Y0130793D01*
X0147409Y0129077D01*
X0148722Y0127763D01*
X0147875Y0128611D02*
X0144859Y0128611D01*
X0145545Y0129609D02*
X0147189Y0129609D01*
X0146775Y0130608D02*
X0145959Y0130608D01*
X0146035Y0131606D02*
X0146698Y0131606D01*
X0146698Y0132605D02*
X0146035Y0132605D01*
X0145640Y0133603D02*
X0147093Y0133603D01*
X0147645Y0134602D02*
X0145088Y0134602D01*
X0144090Y0135601D02*
X0148644Y0135601D01*
X0154090Y0135601D02*
X0158644Y0135601D01*
X0158722Y0135679D02*
X0157409Y0134366D01*
X0156698Y0132650D01*
X0156698Y0130793D01*
X0157409Y0129077D01*
X0158722Y0127763D01*
X0160438Y0127053D01*
X0162296Y0127053D01*
X0164011Y0127763D01*
X0165325Y0129077D01*
X0166035Y0130793D01*
X0166035Y0132650D01*
X0165325Y0134366D01*
X0164011Y0135679D01*
X0162296Y0136390D01*
X0160438Y0136390D01*
X0158722Y0135679D01*
X0157645Y0134602D02*
X0155088Y0134602D01*
X0155640Y0133603D02*
X0157093Y0133603D01*
X0156698Y0132605D02*
X0156035Y0132605D01*
X0156035Y0131606D02*
X0156698Y0131606D01*
X0156775Y0130608D02*
X0155959Y0130608D01*
X0155545Y0129609D02*
X0157189Y0129609D01*
X0157875Y0128611D02*
X0154859Y0128611D01*
X0153647Y0127612D02*
X0159087Y0127612D01*
X0163647Y0127612D02*
X0169087Y0127612D01*
X0168722Y0127763D02*
X0170438Y0127053D01*
X0172296Y0127053D01*
X0174011Y0127763D01*
X0175325Y0129077D01*
X0176035Y0130793D01*
X0176035Y0132650D01*
X0175325Y0134366D01*
X0174011Y0135679D01*
X0172296Y0136390D01*
X0170438Y0136390D01*
X0168722Y0135679D01*
X0167409Y0134366D01*
X0166698Y0132650D01*
X0166698Y0130793D01*
X0167409Y0129077D01*
X0168722Y0127763D01*
X0167875Y0128611D02*
X0164859Y0128611D01*
X0165545Y0129609D02*
X0167189Y0129609D01*
X0166775Y0130608D02*
X0165959Y0130608D01*
X0166035Y0131606D02*
X0166698Y0131606D01*
X0166698Y0132605D02*
X0166035Y0132605D01*
X0165640Y0133603D02*
X0167093Y0133603D01*
X0167645Y0134602D02*
X0165088Y0134602D01*
X0164090Y0135601D02*
X0168644Y0135601D01*
X0174090Y0135601D02*
X0178644Y0135601D01*
X0178722Y0135679D02*
X0177409Y0134366D01*
X0176698Y0132650D01*
X0176698Y0130793D01*
X0177409Y0129077D01*
X0178722Y0127763D01*
X0180438Y0127053D01*
X0182296Y0127053D01*
X0184011Y0127763D01*
X0185325Y0129077D01*
X0186035Y0130793D01*
X0186035Y0132650D01*
X0185325Y0134366D01*
X0184011Y0135679D01*
X0182296Y0136390D01*
X0180438Y0136390D01*
X0178722Y0135679D01*
X0177645Y0134602D02*
X0175088Y0134602D01*
X0175640Y0133603D02*
X0177093Y0133603D01*
X0176698Y0132605D02*
X0176035Y0132605D01*
X0176035Y0131606D02*
X0176698Y0131606D01*
X0176775Y0130608D02*
X0175959Y0130608D01*
X0175545Y0129609D02*
X0177189Y0129609D01*
X0177875Y0128611D02*
X0174859Y0128611D01*
X0173647Y0127612D02*
X0179087Y0127612D01*
X0183647Y0127612D02*
X0189087Y0127612D01*
X0188722Y0127763D02*
X0190438Y0127053D01*
X0192296Y0127053D01*
X0194011Y0127763D01*
X0195325Y0129077D01*
X0196035Y0130793D01*
X0196035Y0132650D01*
X0195325Y0134366D01*
X0194011Y0135679D01*
X0192296Y0136390D01*
X0190438Y0136390D01*
X0188722Y0135679D01*
X0187409Y0134366D01*
X0186698Y0132650D01*
X0186698Y0130793D01*
X0187409Y0129077D01*
X0188722Y0127763D01*
X0187875Y0128611D02*
X0184859Y0128611D01*
X0185545Y0129609D02*
X0187189Y0129609D01*
X0186775Y0130608D02*
X0185959Y0130608D01*
X0186035Y0131606D02*
X0186698Y0131606D01*
X0186698Y0132605D02*
X0186035Y0132605D01*
X0185640Y0133603D02*
X0187093Y0133603D01*
X0187645Y0134602D02*
X0185088Y0134602D01*
X0184090Y0135601D02*
X0188644Y0135601D01*
X0194090Y0135601D02*
X0198644Y0135601D01*
X0198722Y0135679D02*
X0197409Y0134366D01*
X0196698Y0132650D01*
X0196698Y0130793D01*
X0197409Y0129077D01*
X0198722Y0127763D01*
X0200438Y0127053D01*
X0202296Y0127053D01*
X0204011Y0127763D01*
X0205325Y0129077D01*
X0206035Y0130793D01*
X0206035Y0132650D01*
X0205325Y0134366D01*
X0204011Y0135679D01*
X0202296Y0136390D01*
X0200438Y0136390D01*
X0198722Y0135679D01*
X0197645Y0134602D02*
X0195088Y0134602D01*
X0195640Y0133603D02*
X0197093Y0133603D01*
X0196698Y0132605D02*
X0196035Y0132605D01*
X0196035Y0131606D02*
X0196698Y0131606D01*
X0196775Y0130608D02*
X0195959Y0130608D01*
X0195545Y0129609D02*
X0197189Y0129609D01*
X0197875Y0128611D02*
X0194859Y0128611D01*
X0193647Y0127612D02*
X0199087Y0127612D01*
X0203647Y0127612D02*
X0209087Y0127612D01*
X0208722Y0127763D02*
X0210438Y0127053D01*
X0212296Y0127053D01*
X0214011Y0127763D01*
X0215325Y0129077D01*
X0216035Y0130793D01*
X0216035Y0132650D01*
X0215325Y0134366D01*
X0214011Y0135679D01*
X0212296Y0136390D01*
X0210438Y0136390D01*
X0208722Y0135679D01*
X0207409Y0134366D01*
X0206698Y0132650D01*
X0206698Y0130793D01*
X0207409Y0129077D01*
X0208722Y0127763D01*
X0207875Y0128611D02*
X0204859Y0128611D01*
X0205545Y0129609D02*
X0207189Y0129609D01*
X0206775Y0130608D02*
X0205959Y0130608D01*
X0206035Y0131606D02*
X0206698Y0131606D01*
X0206698Y0132605D02*
X0206035Y0132605D01*
X0205640Y0133603D02*
X0207093Y0133603D01*
X0207645Y0134602D02*
X0205088Y0134602D01*
X0204090Y0135601D02*
X0208644Y0135601D01*
X0214090Y0135601D02*
X0218644Y0135601D01*
X0218722Y0135679D02*
X0217409Y0134366D01*
X0216698Y0132650D01*
X0216698Y0130793D01*
X0217409Y0129077D01*
X0218722Y0127763D01*
X0220438Y0127053D01*
X0222296Y0127053D01*
X0224011Y0127763D01*
X0225325Y0129077D01*
X0226035Y0130793D01*
X0226035Y0132650D01*
X0225325Y0134366D01*
X0224011Y0135679D01*
X0222296Y0136390D01*
X0220438Y0136390D01*
X0218722Y0135679D01*
X0217645Y0134602D02*
X0215088Y0134602D01*
X0215640Y0133603D02*
X0217093Y0133603D01*
X0216698Y0132605D02*
X0216035Y0132605D01*
X0216035Y0131606D02*
X0216698Y0131606D01*
X0216775Y0130608D02*
X0215959Y0130608D01*
X0215545Y0129609D02*
X0217189Y0129609D01*
X0217875Y0128611D02*
X0214859Y0128611D01*
X0213647Y0127612D02*
X0219087Y0127612D01*
X0223647Y0127612D02*
X0229087Y0127612D01*
X0227875Y0128611D02*
X0224859Y0128611D01*
X0225545Y0129609D02*
X0227189Y0129609D01*
X0226775Y0130608D02*
X0225959Y0130608D01*
X0226035Y0131606D02*
X0226698Y0131606D01*
X0226698Y0132605D02*
X0226035Y0132605D01*
X0225640Y0133603D02*
X0227093Y0133603D01*
X0227645Y0134602D02*
X0225088Y0134602D01*
X0224090Y0135601D02*
X0228644Y0135601D01*
X0233647Y0127612D02*
X0248953Y0127612D01*
X0248954Y0126614D02*
X0249922Y0126614D01*
X0249922Y0125615D02*
X0248954Y0125615D01*
X0248954Y0124617D02*
X0249922Y0124617D01*
X0252526Y0124617D02*
X0252760Y0124617D01*
X0253785Y0121621D02*
X0254135Y0121621D01*
X0251300Y0121621D02*
X0250331Y0121621D01*
X0250331Y0122001D02*
X0248650Y0122001D01*
X0248268Y0121899D01*
X0247926Y0121701D01*
X0247647Y0121422D01*
X0247449Y0121080D01*
X0247347Y0120698D01*
X0247347Y0118820D01*
X0250331Y0118820D01*
X0250331Y0122001D01*
X0250331Y0120623D02*
X0251300Y0120623D01*
X0251300Y0119624D02*
X0250331Y0119624D01*
X0250331Y0118626D02*
X0233584Y0118626D01*
X0233583Y0119624D02*
X0232615Y0119624D01*
X0232615Y0120623D02*
X0233583Y0120623D01*
X0233583Y0121621D02*
X0232615Y0121621D01*
X0236068Y0121621D02*
X0247847Y0121621D01*
X0247347Y0120623D02*
X0236568Y0120623D01*
X0236568Y0119624D02*
X0247347Y0119624D01*
X0247347Y0117627D02*
X0236568Y0117627D01*
X0236568Y0116629D02*
X0247347Y0116629D01*
X0251300Y0118626D02*
X0254135Y0118626D01*
X0254284Y0117627D02*
X0254533Y0117627D01*
X0254284Y0116629D02*
X0265891Y0116629D01*
X0265891Y0115630D02*
X0254193Y0115630D01*
X0254364Y0114632D02*
X0254846Y0114632D01*
X0258990Y0114632D02*
X0259060Y0114632D01*
X0260617Y0114632D02*
X0260700Y0114632D01*
X0260700Y0113633D02*
X0260617Y0113633D01*
X0260617Y0112635D02*
X0260700Y0112635D01*
X0260700Y0111636D02*
X0260617Y0111636D01*
X0260658Y0110855D02*
X0260658Y0121879D01*
X0259701Y0121621D02*
X0261616Y0121621D01*
X0261616Y0120623D02*
X0259701Y0120623D01*
X0259701Y0119624D02*
X0261616Y0119624D01*
X0261616Y0118626D02*
X0259701Y0118626D01*
X0259303Y0117627D02*
X0262014Y0117627D01*
X0262256Y0114632D02*
X0262326Y0114632D01*
X0266470Y0114632D02*
X0269016Y0114632D01*
X0269017Y0113633D02*
X0270016Y0113633D01*
X0270017Y0113997D02*
X0270017Y0114997D01*
X0271560Y0114997D01*
X0271560Y0114686D01*
X0275135Y0114686D01*
X0275135Y0117473D01*
X0272862Y0117473D01*
X0272851Y0117470D01*
X0272843Y0117485D01*
X0272564Y0117764D01*
X0272518Y0117791D01*
X0272937Y0118210D01*
X0278488Y0118210D01*
X0279221Y0118943D01*
X0279221Y0116406D01*
X0279182Y0116552D01*
X0278985Y0116894D01*
X0278705Y0117174D01*
X0278363Y0117371D01*
X0277982Y0117473D01*
X0275709Y0117473D01*
X0275709Y0114686D01*
X0275135Y0114686D01*
X0275135Y0114111D01*
X0271560Y0114111D01*
X0271560Y0113997D01*
X0270017Y0113997D01*
X0270017Y0114632D02*
X0275135Y0114632D01*
X0275422Y0114398D02*
X0275422Y0109083D01*
X0280175Y0110638D02*
X0267181Y0110638D01*
X0267181Y0109639D02*
X0281173Y0109639D01*
X0282172Y0108641D02*
X0267181Y0108641D01*
X0267095Y0107642D02*
X0283603Y0107642D01*
X0293568Y0106644D02*
X0266902Y0106644D01*
X0266169Y0105645D02*
X0299706Y0105645D01*
X0299402Y0106644D02*
X0300499Y0106644D01*
X0300297Y0107642D02*
X0299760Y0107642D01*
X0299760Y0108641D02*
X0300297Y0108641D01*
X0300297Y0109639D02*
X0299760Y0109639D01*
X0299760Y0110638D02*
X0300297Y0110638D01*
X0300128Y0111636D02*
X0299760Y0111636D01*
X0306207Y0113773D02*
X0311912Y0113773D01*
X0313576Y0112109D01*
X0313576Y0106121D01*
X0313351Y0106347D01*
X0313009Y0106544D01*
X0312627Y0106646D01*
X0310749Y0106646D01*
X0310749Y0103662D01*
X0309780Y0103662D01*
X0309780Y0106646D01*
X0307902Y0106646D01*
X0307520Y0106544D01*
X0307178Y0106347D01*
X0307060Y0106228D01*
X0306566Y0106721D01*
X0306846Y0107001D01*
X0306846Y0113134D01*
X0306207Y0113773D01*
X0306347Y0113633D02*
X0312052Y0113633D01*
X0313051Y0112635D02*
X0306846Y0112635D01*
X0306846Y0111636D02*
X0313576Y0111636D01*
X0313576Y0110638D02*
X0306846Y0110638D01*
X0306846Y0109639D02*
X0313576Y0109639D01*
X0313576Y0108641D02*
X0306846Y0108641D01*
X0306846Y0107642D02*
X0313576Y0107642D01*
X0313576Y0106644D02*
X0312638Y0106644D01*
X0310749Y0106644D02*
X0309780Y0106644D01*
X0309780Y0105645D02*
X0310749Y0105645D01*
X0310749Y0104647D02*
X0309780Y0104647D01*
X0309780Y0102694D02*
X0310749Y0102694D01*
X0310749Y0099709D01*
X0311165Y0099709D01*
X0310428Y0098972D01*
X0309560Y0098972D01*
X0308618Y0098030D01*
X0308618Y0098469D01*
X0307622Y0099465D01*
X0305949Y0099465D01*
X0305951Y0099509D01*
X0306441Y0099509D01*
X0307060Y0100128D01*
X0307178Y0100009D01*
X0307520Y0099812D01*
X0307902Y0099709D01*
X0309780Y0099709D01*
X0309780Y0102694D01*
X0309780Y0102650D02*
X0310749Y0102650D01*
X0310749Y0101651D02*
X0309780Y0101651D01*
X0309780Y0100653D02*
X0310749Y0100653D01*
X0311110Y0099654D02*
X0306586Y0099654D01*
X0308431Y0098656D02*
X0309244Y0098656D01*
X0318729Y0094910D02*
X0319123Y0095304D01*
X0318729Y0094910D02*
X0318729Y0092351D01*
X0317745Y0091367D01*
X0309871Y0091367D01*
X0308099Y0089595D01*
X0302981Y0089595D01*
X0302981Y0087036D02*
X0322371Y0087036D01*
X0326603Y0091269D01*
X0329457Y0091269D01*
X0331524Y0093335D01*
X0331524Y0114989D01*
X0328572Y0120501D02*
X0334477Y0120501D01*
X0334477Y0088414D01*
X0330540Y0084477D01*
X0326702Y0084477D01*
X0326603Y0084576D01*
X0315383Y0084477D01*
X0302981Y0084477D01*
X0302981Y0081918D02*
X0319320Y0081918D01*
X0319713Y0081524D01*
X0319713Y0078965D01*
X0320107Y0078572D01*
X0320107Y0067351D01*
X0342351Y0045107D01*
X0342351Y0043139D01*
X0339398Y0044615D02*
X0313316Y0070698D01*
X0313316Y0078473D01*
X0313414Y0078572D01*
X0308887Y0078572D01*
X0307902Y0079556D01*
X0303178Y0079556D01*
X0302981Y0079359D01*
X0302981Y0076800D02*
X0303178Y0076603D01*
X0307902Y0076603D01*
X0309871Y0074635D01*
X0309871Y0072666D01*
X0307804Y0070599D01*
X0307804Y0064792D01*
X0307902Y0064694D01*
X0307902Y0059871D01*
X0299044Y0051013D01*
X0299044Y0037627D01*
X0301244Y0041492D02*
X0301244Y0050101D01*
X0308814Y0057671D01*
X0310102Y0058960D01*
X0310102Y0061124D01*
X0310673Y0061124D01*
X0311669Y0062119D01*
X0311669Y0067465D01*
X0310673Y0068461D01*
X0310004Y0068461D01*
X0310004Y0069688D01*
X0310782Y0070466D01*
X0311116Y0070800D01*
X0311116Y0069786D01*
X0312404Y0068498D01*
X0335073Y0045829D01*
X0334108Y0046229D01*
X0332878Y0046229D01*
X0331742Y0045759D01*
X0330873Y0044889D01*
X0330402Y0043753D01*
X0330402Y0042524D01*
X0330830Y0041492D01*
X0330820Y0041492D01*
X0330540Y0041212D01*
X0330260Y0041492D01*
X0324915Y0041492D01*
X0323919Y0040496D01*
X0323919Y0034757D01*
X0324396Y0034280D01*
X0323919Y0033803D01*
X0323919Y0028064D01*
X0324915Y0027069D01*
X0325387Y0027069D01*
X0325387Y0026479D01*
X0326676Y0025191D01*
X0327560Y0024306D01*
X0327316Y0024061D01*
X0326761Y0022722D01*
X0326206Y0024061D01*
X0324731Y0025536D01*
X0322804Y0026335D01*
X0320718Y0026335D01*
X0318791Y0025536D01*
X0317316Y0024061D01*
X0316633Y0022415D01*
X0316434Y0023027D01*
X0316074Y0023735D01*
X0315607Y0024377D01*
X0315046Y0024938D01*
X0314404Y0025405D01*
X0313697Y0025765D01*
X0312942Y0026010D01*
X0312261Y0026118D01*
X0312261Y0018048D01*
X0311261Y0018048D01*
X0311261Y0026118D01*
X0310580Y0026010D01*
X0309825Y0025765D01*
X0309117Y0025405D01*
X0308475Y0024938D01*
X0307914Y0024377D01*
X0307447Y0023735D01*
X0307087Y0023027D01*
X0306888Y0022415D01*
X0306206Y0024061D01*
X0305469Y0024798D01*
X0305861Y0025191D01*
X0307150Y0026479D01*
X0307150Y0027069D01*
X0307622Y0027069D01*
X0308618Y0028064D01*
X0308618Y0033803D01*
X0308141Y0034280D01*
X0308618Y0034757D01*
X0308618Y0040496D01*
X0307622Y0041492D01*
X0302277Y0041492D01*
X0301997Y0041212D01*
X0301717Y0041492D01*
X0301244Y0041492D01*
X0301244Y0041740D02*
X0330727Y0041740D01*
X0330402Y0042739D02*
X0301244Y0042739D01*
X0301244Y0043737D02*
X0330402Y0043737D01*
X0330809Y0044736D02*
X0301244Y0044736D01*
X0301244Y0045734D02*
X0331718Y0045734D01*
X0333171Y0047732D02*
X0301244Y0047732D01*
X0301244Y0048730D02*
X0332172Y0048730D01*
X0331174Y0049729D02*
X0301244Y0049729D01*
X0301870Y0050727D02*
X0330175Y0050727D01*
X0329177Y0051726D02*
X0302868Y0051726D01*
X0303867Y0052724D02*
X0328178Y0052724D01*
X0327180Y0053723D02*
X0304865Y0053723D01*
X0305864Y0054721D02*
X0326181Y0054721D01*
X0325182Y0055720D02*
X0306862Y0055720D01*
X0307861Y0056718D02*
X0324184Y0056718D01*
X0323185Y0057717D02*
X0308859Y0057717D01*
X0308814Y0057671D02*
X0308814Y0057671D01*
X0309858Y0058715D02*
X0322187Y0058715D01*
X0321188Y0059714D02*
X0310102Y0059714D01*
X0310102Y0060712D02*
X0320190Y0060712D01*
X0319191Y0061711D02*
X0311261Y0061711D01*
X0311669Y0062709D02*
X0318193Y0062709D01*
X0317194Y0063708D02*
X0311669Y0063708D01*
X0311669Y0064706D02*
X0316196Y0064706D01*
X0315197Y0065705D02*
X0311669Y0065705D01*
X0311669Y0066703D02*
X0314199Y0066703D01*
X0313200Y0067702D02*
X0311432Y0067702D01*
X0312202Y0068700D02*
X0310004Y0068700D01*
X0310015Y0069699D02*
X0311203Y0069699D01*
X0311116Y0070697D02*
X0311013Y0070697D01*
X0302981Y0074241D02*
X0301406Y0072666D01*
X0301111Y0064792D01*
X0301013Y0064398D01*
X0301013Y0058887D01*
X0293139Y0051013D01*
X0293139Y0037627D01*
X0290939Y0041740D02*
X0284061Y0041740D01*
X0284061Y0042739D02*
X0290939Y0042739D01*
X0290939Y0043737D02*
X0284061Y0043737D01*
X0284061Y0044736D02*
X0290939Y0044736D01*
X0290939Y0045734D02*
X0284061Y0045734D01*
X0284173Y0046733D02*
X0290939Y0046733D01*
X0290939Y0047732D02*
X0285092Y0047732D01*
X0286011Y0048730D02*
X0290939Y0048730D01*
X0290939Y0049729D02*
X0286930Y0049729D01*
X0287849Y0050727D02*
X0290939Y0050727D01*
X0290939Y0051726D02*
X0288768Y0051726D01*
X0289687Y0052724D02*
X0291739Y0052724D01*
X0292737Y0053723D02*
X0290606Y0053723D01*
X0291525Y0054721D02*
X0293736Y0054721D01*
X0294734Y0055720D02*
X0292444Y0055720D01*
X0293363Y0056718D02*
X0295733Y0056718D01*
X0296731Y0057717D02*
X0294282Y0057717D01*
X0295236Y0058715D02*
X0297730Y0058715D01*
X0298728Y0059714D02*
X0295447Y0059714D01*
X0295439Y0060712D02*
X0298813Y0060712D01*
X0297654Y0061711D02*
X0295439Y0061711D01*
X0295439Y0062709D02*
X0297246Y0062709D01*
X0297246Y0063708D02*
X0295439Y0063708D01*
X0295439Y0064706D02*
X0297246Y0064706D01*
X0297246Y0065705D02*
X0295439Y0065705D01*
X0295439Y0066703D02*
X0297246Y0066703D01*
X0297483Y0067702D02*
X0295439Y0067702D01*
X0295439Y0068700D02*
X0299056Y0068700D01*
X0299093Y0069699D02*
X0295439Y0069699D01*
X0295439Y0070697D02*
X0299131Y0070697D01*
X0299168Y0071696D02*
X0295439Y0071696D01*
X0295439Y0072694D02*
X0297694Y0072694D01*
X0297344Y0073693D02*
X0295439Y0073693D01*
X0295439Y0074691D02*
X0297344Y0074691D01*
X0297344Y0075690D02*
X0295439Y0075690D01*
X0295439Y0076688D02*
X0297344Y0076688D01*
X0297344Y0077687D02*
X0295439Y0077687D01*
X0295439Y0078685D02*
X0297344Y0078685D01*
X0297344Y0079684D02*
X0295439Y0079684D01*
X0295439Y0080682D02*
X0297384Y0080682D01*
X0297344Y0081681D02*
X0295439Y0081681D01*
X0295439Y0082679D02*
X0297344Y0082679D01*
X0297344Y0083678D02*
X0295439Y0083678D01*
X0295439Y0084676D02*
X0297344Y0084676D01*
X0297346Y0085675D02*
X0295439Y0085675D01*
X0295439Y0086673D02*
X0297344Y0086673D01*
X0297344Y0087672D02*
X0295439Y0087672D01*
X0295439Y0088670D02*
X0297344Y0088670D01*
X0297344Y0089669D02*
X0295439Y0089669D01*
X0295439Y0090668D02*
X0297344Y0090668D01*
X0297344Y0091666D02*
X0295439Y0091666D01*
X0295439Y0092665D02*
X0297344Y0092665D01*
X0297641Y0093663D02*
X0295439Y0093663D01*
X0289202Y0095304D02*
X0289202Y0069713D01*
X0274438Y0051013D01*
X0274438Y0044123D01*
X0258690Y0044123D01*
X0256721Y0044123D01*
X0251209Y0049635D01*
X0249831Y0049635D01*
X0253500Y0050455D02*
X0253500Y0052504D01*
X0252882Y0053123D01*
X0253000Y0053241D01*
X0253198Y0053583D01*
X0253300Y0053965D01*
X0253300Y0055843D01*
X0250316Y0055843D01*
X0250316Y0056812D01*
X0253300Y0056812D01*
X0253300Y0058690D01*
X0253198Y0059072D01*
X0253000Y0059414D01*
X0252721Y0059693D01*
X0252379Y0059891D01*
X0251997Y0059993D01*
X0250316Y0059993D01*
X0250316Y0056812D01*
X0249347Y0056812D01*
X0249347Y0055843D01*
X0246363Y0055843D01*
X0246363Y0053965D01*
X0246465Y0053583D01*
X0246663Y0053241D01*
X0246781Y0053123D01*
X0246187Y0052528D01*
X0237523Y0052528D01*
X0236604Y0052148D01*
X0235901Y0051444D01*
X0222504Y0038047D01*
X0222504Y0048971D01*
X0221215Y0050260D01*
X0218459Y0053016D01*
X0214307Y0053016D01*
X0213725Y0053598D01*
X0207592Y0053598D01*
X0206596Y0052603D01*
X0206596Y0052084D01*
X0205664Y0053016D01*
X0204071Y0053016D01*
X0203488Y0053598D01*
X0197356Y0053598D01*
X0196360Y0052603D01*
X0196360Y0049029D01*
X0196660Y0048729D01*
X0196560Y0048356D01*
X0196560Y0047117D01*
X0200381Y0047117D01*
X0200381Y0047034D01*
X0196560Y0047034D01*
X0196560Y0045795D01*
X0196630Y0045535D01*
X0189078Y0045535D01*
X0181007Y0037465D01*
X0179718Y0036176D01*
X0179718Y0036091D01*
X0178722Y0035679D01*
X0177409Y0034366D01*
X0176698Y0032650D01*
X0176698Y0030793D01*
X0177409Y0029077D01*
X0177880Y0028606D01*
X0174854Y0028606D01*
X0175325Y0029077D01*
X0176035Y0030793D01*
X0176035Y0032650D01*
X0175325Y0034366D01*
X0174011Y0035679D01*
X0173291Y0035977D01*
X0173291Y0074708D01*
X0174891Y0076307D01*
X0174891Y0075988D01*
X0175361Y0074852D01*
X0176230Y0073983D01*
X0177366Y0073513D01*
X0178596Y0073513D01*
X0178828Y0073609D01*
X0178828Y0073036D01*
X0179298Y0071900D01*
X0180167Y0071030D01*
X0181303Y0070560D01*
X0182533Y0070560D01*
X0183669Y0071030D01*
X0184089Y0071450D01*
X0265014Y0071450D01*
X0265507Y0071943D01*
X0280762Y0071943D01*
X0280869Y0072049D01*
X0283784Y0072049D01*
X0279549Y0066323D01*
X0279287Y0066323D01*
X0279287Y0067977D01*
X0278292Y0068972D01*
X0270584Y0068972D01*
X0269588Y0067977D01*
X0269588Y0060269D01*
X0270584Y0059273D01*
X0278156Y0059273D01*
X0272791Y0052477D01*
X0272238Y0051924D01*
X0272238Y0051776D01*
X0272146Y0051661D01*
X0272238Y0050884D01*
X0272238Y0048972D01*
X0270584Y0048972D01*
X0269588Y0047977D01*
X0269588Y0046323D01*
X0263539Y0046323D01*
X0263539Y0047977D01*
X0262544Y0048972D01*
X0254983Y0048972D01*
X0253500Y0050455D01*
X0253500Y0050727D02*
X0272238Y0050727D01*
X0272238Y0049729D02*
X0254227Y0049729D01*
X0253500Y0051726D02*
X0272198Y0051726D01*
X0272986Y0052724D02*
X0253280Y0052724D01*
X0253235Y0053723D02*
X0273774Y0053723D01*
X0274563Y0054721D02*
X0253300Y0054721D01*
X0253300Y0055720D02*
X0275351Y0055720D01*
X0276139Y0056718D02*
X0250316Y0056718D01*
X0249831Y0056328D02*
X0249831Y0061839D01*
X0249347Y0059993D02*
X0247666Y0059993D01*
X0247284Y0059891D01*
X0246942Y0059693D01*
X0246663Y0059414D01*
X0246465Y0059072D01*
X0246363Y0058690D01*
X0246363Y0056812D01*
X0249347Y0056812D01*
X0249347Y0059993D01*
X0249347Y0059714D02*
X0250316Y0059714D01*
X0250316Y0058715D02*
X0249347Y0058715D01*
X0249347Y0057717D02*
X0250316Y0057717D01*
X0249347Y0056718D02*
X0173291Y0056718D01*
X0173291Y0055720D02*
X0246363Y0055720D01*
X0246363Y0054721D02*
X0173291Y0054721D01*
X0173291Y0053723D02*
X0246428Y0053723D01*
X0246383Y0052724D02*
X0218751Y0052724D01*
X0219749Y0051726D02*
X0236182Y0051726D01*
X0235184Y0050727D02*
X0220748Y0050727D01*
X0221746Y0049729D02*
X0234185Y0049729D01*
X0233187Y0048730D02*
X0222504Y0048730D01*
X0222504Y0047732D02*
X0232188Y0047732D01*
X0231190Y0046733D02*
X0222504Y0046733D01*
X0222504Y0045734D02*
X0230191Y0045734D01*
X0229193Y0044736D02*
X0222504Y0044736D01*
X0222504Y0043737D02*
X0228194Y0043737D01*
X0227196Y0042739D02*
X0222504Y0042739D01*
X0222504Y0041740D02*
X0226197Y0041740D01*
X0225199Y0040742D02*
X0222504Y0040742D01*
X0222504Y0039743D02*
X0224200Y0039743D01*
X0223202Y0038745D02*
X0222504Y0038745D01*
X0229274Y0037746D02*
X0279461Y0037746D01*
X0279461Y0036748D02*
X0228276Y0036748D01*
X0227277Y0035749D02*
X0229430Y0035749D01*
X0229652Y0035862D02*
X0229025Y0035543D01*
X0228456Y0035130D01*
X0227959Y0034632D01*
X0227545Y0034063D01*
X0227226Y0033437D01*
X0227008Y0032768D01*
X0226919Y0032206D01*
X0230883Y0032206D01*
X0230883Y0036169D01*
X0230321Y0036080D01*
X0229652Y0035862D01*
X0230883Y0035749D02*
X0231851Y0035749D01*
X0231851Y0036169D02*
X0231851Y0032206D01*
X0230883Y0032206D01*
X0230883Y0031237D01*
X0231851Y0031237D01*
X0231851Y0027274D01*
X0232413Y0027363D01*
X0233082Y0027580D01*
X0233709Y0027899D01*
X0234278Y0028313D01*
X0234775Y0028810D01*
X0235189Y0029379D01*
X0235508Y0030006D01*
X0235725Y0030675D01*
X0235814Y0031237D01*
X0231851Y0031237D01*
X0231851Y0032206D01*
X0235814Y0032206D01*
X0235725Y0032768D01*
X0235508Y0033437D01*
X0235189Y0034063D01*
X0234775Y0034632D01*
X0234278Y0035130D01*
X0233709Y0035543D01*
X0233082Y0035862D01*
X0232413Y0036080D01*
X0231851Y0036169D01*
X0231851Y0034751D02*
X0230883Y0034751D01*
X0230883Y0033752D02*
X0231851Y0033752D01*
X0231851Y0032754D02*
X0230883Y0032754D01*
X0230883Y0031755D02*
X0226035Y0031755D01*
X0226021Y0030757D02*
X0226995Y0030757D01*
X0227008Y0030675D02*
X0227226Y0030006D01*
X0227545Y0029379D01*
X0227959Y0028810D01*
X0228456Y0028313D01*
X0229025Y0027899D01*
X0229652Y0027580D01*
X0230321Y0027363D01*
X0230883Y0027274D01*
X0230883Y0031237D01*
X0226919Y0031237D01*
X0227008Y0030675D01*
X0227352Y0029758D02*
X0225607Y0029758D01*
X0225008Y0028760D02*
X0228009Y0028760D01*
X0229296Y0027761D02*
X0224006Y0027761D01*
X0218728Y0027761D02*
X0214006Y0027761D01*
X0215008Y0028760D02*
X0217726Y0028760D01*
X0217127Y0029758D02*
X0215607Y0029758D01*
X0216021Y0030757D02*
X0216713Y0030757D01*
X0216698Y0031755D02*
X0216035Y0031755D01*
X0215992Y0032754D02*
X0216741Y0032754D01*
X0217155Y0033752D02*
X0215579Y0033752D01*
X0214940Y0034751D02*
X0217794Y0034751D01*
X0218104Y0035749D02*
X0213842Y0035749D01*
X0218104Y0036748D02*
X0209452Y0036748D01*
X0208453Y0037746D02*
X0218104Y0037746D01*
X0218104Y0038745D02*
X0207740Y0038745D01*
X0207740Y0039743D02*
X0218104Y0039743D01*
X0218104Y0040742D02*
X0207740Y0040742D01*
X0210700Y0040753D02*
X0210700Y0043294D01*
X0214520Y0043294D01*
X0214520Y0042055D01*
X0214418Y0041674D01*
X0214221Y0041332D01*
X0213941Y0041052D01*
X0213599Y0040855D01*
X0213218Y0040753D01*
X0210700Y0040753D01*
X0210700Y0041740D02*
X0210617Y0041740D01*
X0210617Y0042739D02*
X0210700Y0042739D01*
X0210700Y0043737D02*
X0210617Y0043737D01*
X0210617Y0044736D02*
X0210700Y0044736D01*
X0210700Y0045734D02*
X0210617Y0045734D01*
X0207740Y0046733D02*
X0218104Y0046733D01*
X0218104Y0045734D02*
X0213740Y0045734D01*
X0214488Y0044736D02*
X0218104Y0044736D01*
X0218104Y0043737D02*
X0214520Y0043737D01*
X0214520Y0042739D02*
X0218104Y0042739D01*
X0218104Y0041740D02*
X0214436Y0041740D01*
X0205540Y0037548D02*
X0211367Y0031721D01*
X0211446Y0031643D01*
X0211446Y0029359D01*
X0208493Y0026406D01*
X0131721Y0026406D01*
X0124831Y0019517D01*
X0124831Y0015146D01*
X0124083Y0014398D01*
X0133690Y0014792D02*
X0134083Y0014398D01*
X0133690Y0014792D02*
X0133690Y0021485D01*
X0135658Y0023454D01*
X0176997Y0023454D01*
X0180934Y0019517D01*
X0183759Y0020772D02*
X0197092Y0020772D01*
X0197216Y0020823D02*
X0194565Y0019725D01*
X0192537Y0017696D01*
X0191439Y0015046D01*
X0191439Y0012177D01*
X0192537Y0009526D01*
X0194565Y0007497D01*
X0197216Y0006399D01*
X0200085Y0006399D01*
X0202736Y0007497D01*
X0204764Y0009526D01*
X0205862Y0012177D01*
X0205862Y0015046D01*
X0204764Y0017696D01*
X0202736Y0019725D01*
X0200085Y0020823D01*
X0197216Y0020823D01*
X0194682Y0019773D02*
X0184024Y0019773D01*
X0183972Y0018775D02*
X0193615Y0018775D01*
X0192617Y0017776D02*
X0183558Y0017776D01*
X0182398Y0016778D02*
X0192156Y0016778D01*
X0191742Y0015779D02*
X0149327Y0015779D01*
X0149327Y0014781D02*
X0191439Y0014781D01*
X0191439Y0013782D02*
X0149327Y0013782D01*
X0149327Y0012784D02*
X0191439Y0012784D01*
X0191601Y0011785D02*
X0149327Y0011785D01*
X0149327Y0010787D02*
X0192014Y0010787D01*
X0192428Y0009788D02*
X0149317Y0009788D01*
X0148903Y0008790D02*
X0193273Y0008790D01*
X0194271Y0007791D02*
X0148435Y0007791D01*
X0147436Y0006793D02*
X0196266Y0006793D01*
X0201035Y0006793D02*
X0281941Y0006793D01*
X0280942Y0007791D02*
X0203029Y0007791D01*
X0204028Y0008790D02*
X0279944Y0008790D01*
X0278562Y0009788D02*
X0204873Y0009788D01*
X0205286Y0010787D02*
X0277564Y0010787D01*
X0277005Y0011785D02*
X0205700Y0011785D01*
X0205862Y0012784D02*
X0276591Y0012784D01*
X0276517Y0013782D02*
X0205862Y0013782D01*
X0205862Y0014781D02*
X0276517Y0014781D01*
X0276517Y0015779D02*
X0205558Y0015779D01*
X0205145Y0016778D02*
X0276517Y0016778D01*
X0276517Y0017776D02*
X0204684Y0017776D01*
X0203686Y0018775D02*
X0276517Y0018775D01*
X0276517Y0019773D02*
X0202619Y0019773D01*
X0200208Y0020772D02*
X0276517Y0020772D01*
X0276517Y0021770D02*
X0183051Y0021770D01*
X0180793Y0022769D02*
X0276780Y0022769D01*
X0277194Y0023767D02*
X0179794Y0023767D01*
X0176567Y0020772D02*
X0148587Y0020772D01*
X0149000Y0019773D02*
X0177566Y0019773D01*
X0177896Y0018775D02*
X0149327Y0018775D01*
X0149327Y0017776D02*
X0178310Y0017776D01*
X0179470Y0016778D02*
X0149327Y0016778D01*
X0139264Y0008790D02*
X0138903Y0008790D01*
X0138435Y0007791D02*
X0139732Y0007791D01*
X0140731Y0006793D02*
X0137436Y0006793D01*
X0135566Y0005794D02*
X0142601Y0005794D01*
X0145566Y0005794D02*
X0282939Y0005794D01*
X0283938Y0004796D02*
X0004300Y0004796D01*
X0004300Y0005794D02*
X0082601Y0005794D01*
X0080731Y0006793D02*
X0077072Y0006793D01*
X0078091Y0007791D02*
X0079732Y0007791D01*
X0079264Y0008790D02*
X0078691Y0008790D01*
X0074583Y0008790D02*
X0073583Y0008790D01*
X0073583Y0009788D02*
X0074583Y0009788D01*
X0074583Y0010787D02*
X0073583Y0010787D01*
X0073583Y0011785D02*
X0074583Y0011785D01*
X0074583Y0012784D02*
X0073583Y0012784D01*
X0073583Y0013782D02*
X0074583Y0013782D01*
X0073583Y0013898D02*
X0073583Y0005828D01*
X0072902Y0005936D01*
X0072148Y0006181D01*
X0071440Y0006542D01*
X0070798Y0007008D01*
X0070237Y0007570D01*
X0069770Y0008212D01*
X0069410Y0008919D01*
X0069164Y0009674D01*
X0069040Y0010458D01*
X0069040Y0013898D01*
X0073583Y0013898D01*
X0073583Y0014781D02*
X0020823Y0014781D01*
X0020823Y0015046D02*
X0019725Y0017696D01*
X0017696Y0019725D01*
X0015046Y0020823D01*
X0012177Y0020823D01*
X0009526Y0019725D01*
X0007497Y0017696D01*
X0006399Y0015046D01*
X0006399Y0012177D01*
X0007497Y0009526D01*
X0009526Y0007497D01*
X0012177Y0006399D01*
X0015046Y0006399D01*
X0017696Y0007497D01*
X0019725Y0009526D01*
X0020823Y0012177D01*
X0020823Y0015046D01*
X0020519Y0015779D02*
X0069040Y0015779D01*
X0069040Y0014898D02*
X0073583Y0014898D01*
X0073583Y0022969D01*
X0072902Y0022861D01*
X0072148Y0022616D01*
X0071440Y0022255D01*
X0070798Y0021789D01*
X0070237Y0021227D01*
X0069770Y0020585D01*
X0069410Y0019878D01*
X0069164Y0019123D01*
X0069040Y0018339D01*
X0069040Y0014898D01*
X0069040Y0013782D02*
X0020823Y0013782D01*
X0020823Y0012784D02*
X0069040Y0012784D01*
X0069040Y0011785D02*
X0020661Y0011785D01*
X0020247Y0010787D02*
X0069040Y0010787D01*
X0069146Y0009788D02*
X0019834Y0009788D01*
X0018989Y0008790D02*
X0069476Y0008790D01*
X0070076Y0007791D02*
X0017990Y0007791D01*
X0015995Y0006793D02*
X0071095Y0006793D01*
X0073583Y0006793D02*
X0074583Y0006793D01*
X0074583Y0007791D02*
X0073583Y0007791D01*
X0085566Y0005794D02*
X0092601Y0005794D01*
X0090731Y0006793D02*
X0087436Y0006793D01*
X0088435Y0007791D02*
X0089732Y0007791D01*
X0089264Y0008790D02*
X0088903Y0008790D01*
X0095566Y0005794D02*
X0102601Y0005794D01*
X0100731Y0006793D02*
X0097436Y0006793D01*
X0098435Y0007791D02*
X0099732Y0007791D01*
X0099264Y0008790D02*
X0098903Y0008790D01*
X0105566Y0005794D02*
X0122601Y0005794D01*
X0120731Y0006793D02*
X0117072Y0006793D01*
X0118091Y0007791D02*
X0119732Y0007791D01*
X0119264Y0008790D02*
X0118691Y0008790D01*
X0114583Y0008790D02*
X0113583Y0008790D01*
X0113583Y0009788D02*
X0114583Y0009788D01*
X0114583Y0010787D02*
X0113583Y0010787D01*
X0113583Y0011785D02*
X0114583Y0011785D01*
X0114583Y0012784D02*
X0113583Y0012784D01*
X0113583Y0013782D02*
X0114583Y0013782D01*
X0114583Y0015779D02*
X0113583Y0015779D01*
X0113583Y0016778D02*
X0114583Y0016778D01*
X0114583Y0017776D02*
X0113583Y0017776D01*
X0113583Y0018775D02*
X0114583Y0018775D01*
X0114583Y0019773D02*
X0113583Y0019773D01*
X0113583Y0020772D02*
X0114583Y0020772D01*
X0114583Y0021770D02*
X0113583Y0021770D01*
X0113583Y0022769D02*
X0114583Y0022769D01*
X0115548Y0022769D02*
X0122035Y0022769D01*
X0120497Y0021770D02*
X0117387Y0021770D01*
X0118261Y0020772D02*
X0119580Y0020772D01*
X0119167Y0019773D02*
X0118791Y0019773D01*
X0112619Y0022769D02*
X0106131Y0022769D01*
X0107670Y0021770D02*
X0110780Y0021770D01*
X0109906Y0020772D02*
X0108587Y0020772D01*
X0109000Y0019773D02*
X0109376Y0019773D01*
X0102035Y0022769D02*
X0096131Y0022769D01*
X0097670Y0021770D02*
X0100497Y0021770D01*
X0099580Y0020772D02*
X0098587Y0020772D01*
X0099000Y0019773D02*
X0099167Y0019773D01*
X0092035Y0022769D02*
X0086131Y0022769D01*
X0087670Y0021770D02*
X0090497Y0021770D01*
X0089580Y0020772D02*
X0088587Y0020772D01*
X0089000Y0019773D02*
X0089167Y0019773D01*
X0082035Y0022769D02*
X0075548Y0022769D01*
X0074583Y0022769D02*
X0073583Y0022769D01*
X0072619Y0022769D02*
X0004300Y0022769D01*
X0004300Y0023767D02*
X0125971Y0023767D01*
X0126969Y0024766D02*
X0004300Y0024766D01*
X0004300Y0025764D02*
X0127968Y0025764D01*
X0121851Y0027761D02*
X0120883Y0027761D01*
X0120883Y0027274D02*
X0120883Y0031237D01*
X0116919Y0031237D01*
X0117008Y0030675D01*
X0117226Y0030006D01*
X0117545Y0029379D01*
X0117959Y0028810D01*
X0118456Y0028313D01*
X0119025Y0027899D01*
X0119652Y0027580D01*
X0120321Y0027363D01*
X0120883Y0027274D01*
X0120883Y0028760D02*
X0121851Y0028760D01*
X0121851Y0029758D02*
X0120883Y0029758D01*
X0120883Y0030757D02*
X0121851Y0030757D01*
X0120883Y0031755D02*
X0116035Y0031755D01*
X0116021Y0030757D02*
X0116995Y0030757D01*
X0117352Y0029758D02*
X0115607Y0029758D01*
X0115008Y0028760D02*
X0118009Y0028760D01*
X0119296Y0027761D02*
X0114006Y0027761D01*
X0108728Y0027761D02*
X0104006Y0027761D01*
X0105008Y0028760D02*
X0107726Y0028760D01*
X0107127Y0029758D02*
X0105607Y0029758D01*
X0106021Y0030757D02*
X0106543Y0030757D01*
X0108690Y0031721D02*
X0084969Y0055442D01*
X0076111Y0055442D01*
X0076013Y0055540D01*
X0073650Y0055540D01*
X0067646Y0055442D01*
X0066761Y0055540D01*
X0065383Y0054556D01*
X0063808Y0052981D01*
X0058891Y0052981D01*
X0058360Y0053513D01*
X0058460Y0048613D02*
X0064210Y0048613D01*
X0064210Y0048938D01*
X0066276Y0048938D01*
X0066276Y0047969D01*
X0064210Y0047969D01*
X0064210Y0048413D01*
X0058460Y0048413D01*
X0058460Y0048613D01*
X0058360Y0048513D02*
X0058419Y0048454D01*
X0066761Y0048454D01*
X0066276Y0048730D02*
X0064210Y0048730D01*
X0073650Y0048454D02*
X0078572Y0048454D01*
X0078572Y0049044D01*
X0088801Y0054721D02*
X0141332Y0054721D01*
X0141332Y0053723D02*
X0089800Y0053723D01*
X0090798Y0052724D02*
X0141332Y0052724D01*
X0141332Y0051726D02*
X0091797Y0051726D01*
X0092795Y0050727D02*
X0141332Y0050727D01*
X0141332Y0049729D02*
X0093794Y0049729D01*
X0094792Y0048730D02*
X0141332Y0048730D01*
X0141332Y0047732D02*
X0095791Y0047732D01*
X0096789Y0046733D02*
X0141332Y0046733D01*
X0141332Y0045734D02*
X0097788Y0045734D01*
X0098786Y0044736D02*
X0141332Y0044736D01*
X0141332Y0043737D02*
X0099785Y0043737D01*
X0100783Y0042739D02*
X0141006Y0042739D01*
X0140007Y0041740D02*
X0101782Y0041740D01*
X0102780Y0040742D02*
X0139009Y0040742D01*
X0138010Y0039743D02*
X0103779Y0039743D01*
X0104777Y0038745D02*
X0137012Y0038745D01*
X0134281Y0037746D02*
X0105776Y0037746D01*
X0106774Y0036748D02*
X0133282Y0036748D01*
X0135894Y0036249D02*
X0137627Y0036249D01*
X0143532Y0042154D01*
X0143532Y0072666D01*
X0145501Y0074635D01*
X0148591Y0074691D02*
X0154257Y0074691D01*
X0153259Y0073693D02*
X0148456Y0073693D01*
X0147931Y0072694D02*
X0152260Y0072694D01*
X0151262Y0071696D02*
X0146482Y0071696D01*
X0145732Y0070697D02*
X0150263Y0070697D01*
X0149265Y0069699D02*
X0145732Y0069699D01*
X0145732Y0068700D02*
X0148266Y0068700D01*
X0148222Y0067702D02*
X0145732Y0067702D01*
X0145732Y0066703D02*
X0148222Y0066703D01*
X0148222Y0065705D02*
X0145732Y0065705D01*
X0145732Y0064706D02*
X0148222Y0064706D01*
X0148222Y0063708D02*
X0145732Y0063708D01*
X0145732Y0062709D02*
X0148222Y0062709D01*
X0148222Y0061711D02*
X0145732Y0061711D01*
X0145732Y0060712D02*
X0148222Y0060712D01*
X0148222Y0059714D02*
X0145732Y0059714D01*
X0145732Y0058715D02*
X0148222Y0058715D01*
X0148222Y0057717D02*
X0145732Y0057717D01*
X0145732Y0056718D02*
X0148222Y0056718D01*
X0148222Y0055720D02*
X0145732Y0055720D01*
X0145732Y0054721D02*
X0148222Y0054721D01*
X0148222Y0053723D02*
X0145732Y0053723D01*
X0145732Y0052724D02*
X0148222Y0052724D01*
X0148222Y0051726D02*
X0145732Y0051726D01*
X0145732Y0050727D02*
X0148222Y0050727D01*
X0148222Y0049729D02*
X0145732Y0049729D01*
X0145732Y0048730D02*
X0148222Y0048730D01*
X0148222Y0047732D02*
X0145732Y0047732D01*
X0145732Y0046733D02*
X0148222Y0046733D01*
X0148222Y0045734D02*
X0145732Y0045734D01*
X0145732Y0044736D02*
X0148222Y0044736D01*
X0148222Y0043737D02*
X0145732Y0043737D01*
X0145732Y0042739D02*
X0148222Y0042739D01*
X0148222Y0041740D02*
X0145732Y0041740D01*
X0145231Y0040742D02*
X0147276Y0040742D01*
X0146278Y0039743D02*
X0144233Y0039743D01*
X0143234Y0038745D02*
X0145279Y0038745D01*
X0144281Y0037746D02*
X0142236Y0037746D01*
X0141237Y0036748D02*
X0143282Y0036748D01*
X0126741Y0032754D02*
X0125728Y0032754D01*
X0119430Y0035749D02*
X0113842Y0035749D01*
X0114940Y0034751D02*
X0118077Y0034751D01*
X0117387Y0033752D02*
X0115579Y0033752D01*
X0115992Y0032754D02*
X0117006Y0032754D01*
X0111367Y0031721D02*
X0108690Y0031721D01*
X0101367Y0031721D02*
X0100816Y0031721D01*
X0107773Y0035749D02*
X0108892Y0035749D01*
X0090681Y0038745D02*
X0077173Y0038745D01*
X0063238Y0038745D02*
X0039664Y0038745D01*
X0039831Y0037746D02*
X0040265Y0037746D01*
X0039093Y0039743D02*
X0063092Y0039743D01*
X0037991Y0034751D02*
X0037636Y0034751D01*
X0036742Y0033752D02*
X0029336Y0033752D01*
X0033801Y0036748D02*
X0004300Y0036748D01*
X0004300Y0037746D02*
X0033650Y0037746D01*
X0033818Y0038745D02*
X0004300Y0038745D01*
X0004300Y0039743D02*
X0034049Y0039743D01*
X0032576Y0040742D02*
X0021240Y0040742D01*
X0022738Y0041740D02*
X0031710Y0041740D01*
X0036249Y0043139D02*
X0036249Y0038217D01*
X0036741Y0037725D01*
X0034346Y0035749D02*
X0004300Y0035749D01*
X0004300Y0034751D02*
X0035846Y0034751D01*
X0009919Y0040742D02*
X0004300Y0040742D01*
X0004300Y0041740D02*
X0008421Y0041740D01*
X0007521Y0042739D02*
X0004300Y0042739D01*
X0004300Y0043737D02*
X0007108Y0043737D01*
X0006793Y0044736D02*
X0004300Y0044736D01*
X0004300Y0045734D02*
X0006793Y0045734D01*
X0006855Y0046733D02*
X0004300Y0046733D01*
X0004300Y0047732D02*
X0007269Y0047732D01*
X0007811Y0048730D02*
X0004300Y0048730D01*
X0004300Y0049729D02*
X0008809Y0049729D01*
X0009955Y0050727D02*
X0004300Y0050727D01*
X0004300Y0051726D02*
X0008436Y0051726D01*
X0007527Y0052724D02*
X0004300Y0052724D01*
X0004300Y0053723D02*
X0007114Y0053723D01*
X0006793Y0054721D02*
X0004300Y0054721D01*
X0004300Y0055720D02*
X0006793Y0055720D01*
X0006849Y0056718D02*
X0004300Y0056718D01*
X0004300Y0057717D02*
X0007262Y0057717D01*
X0007796Y0058715D02*
X0004300Y0058715D01*
X0004300Y0059714D02*
X0008795Y0059714D01*
X0008733Y0061711D02*
X0004300Y0061711D01*
X0004300Y0062709D02*
X0007859Y0062709D01*
X0007329Y0063708D02*
X0004300Y0063708D01*
X0004300Y0064706D02*
X0007062Y0064706D01*
X0004300Y0060712D02*
X0010575Y0060712D01*
X0020584Y0060712D02*
X0032005Y0060712D01*
X0031253Y0059714D02*
X0022364Y0059714D01*
X0022426Y0061711D02*
X0033337Y0061711D01*
X0035284Y0058513D02*
X0035265Y0057528D01*
X0023300Y0062709D02*
X0066276Y0062709D01*
X0066761Y0062233D02*
X0065186Y0061249D01*
X0062824Y0058887D01*
X0058734Y0058887D01*
X0058360Y0058513D01*
X0058260Y0058715D02*
X0058460Y0058715D01*
X0058460Y0059714D02*
X0058260Y0059714D01*
X0058260Y0060712D02*
X0058460Y0060712D01*
X0066276Y0063708D02*
X0067245Y0063708D01*
X0067245Y0064706D02*
X0066276Y0064706D01*
X0066276Y0065705D02*
X0067245Y0065705D01*
X0069467Y0065705D02*
X0070584Y0065705D01*
X0070713Y0066703D02*
X0069698Y0066703D01*
X0063823Y0066703D02*
X0035089Y0066703D01*
X0033471Y0066703D02*
X0024045Y0066703D01*
X0023682Y0067702D02*
X0031921Y0067702D01*
X0031355Y0068700D02*
X0023061Y0068700D01*
X0021979Y0069699D02*
X0031190Y0069699D01*
X0031343Y0070697D02*
X0021133Y0070697D01*
X0022694Y0071696D02*
X0031710Y0071696D01*
X0034280Y0073040D02*
X0034280Y0069713D01*
X0037206Y0068700D02*
X0062570Y0068700D01*
X0063092Y0067702D02*
X0036639Y0067702D01*
X0039362Y0069699D02*
X0058552Y0069699D01*
X0060112Y0071288D02*
X0058360Y0073040D01*
X0060112Y0071288D02*
X0066761Y0070304D01*
X0067154Y0070206D01*
X0073650Y0070304D01*
X0074241Y0069713D01*
X0076603Y0069713D01*
X0082509Y0075619D01*
X0082509Y0082509D01*
X0093335Y0093335D01*
X0093335Y0105146D01*
X0096060Y0103648D02*
X0225581Y0103648D01*
X0226579Y0102650D02*
X0095535Y0102650D01*
X0095535Y0101651D02*
X0227578Y0101651D01*
X0228576Y0100653D02*
X0095535Y0100653D01*
X0095535Y0099654D02*
X0228931Y0099654D01*
X0228931Y0098656D02*
X0095535Y0098656D01*
X0095535Y0097657D02*
X0228931Y0097657D01*
X0228931Y0096659D02*
X0095535Y0096659D01*
X0095535Y0095660D02*
X0228931Y0095660D01*
X0228931Y0094662D02*
X0095535Y0094662D01*
X0095535Y0093663D02*
X0228931Y0093663D01*
X0228931Y0092665D02*
X0095535Y0092665D01*
X0094777Y0091666D02*
X0228317Y0091666D01*
X0228040Y0090668D02*
X0093779Y0090668D01*
X0092780Y0089669D02*
X0228081Y0089669D01*
X0231131Y0090383D02*
X0231131Y0101209D01*
X0225225Y0107115D01*
X0222489Y0105645D02*
X0096426Y0105645D01*
X0096426Y0104647D02*
X0223323Y0104647D01*
X0229806Y0105645D02*
X0255640Y0105645D01*
X0254733Y0106644D02*
X0248221Y0106644D01*
X0248382Y0107642D02*
X0254282Y0107642D01*
X0256638Y0104647D02*
X0230805Y0104647D01*
X0231803Y0103648D02*
X0258150Y0103648D01*
X0241993Y0106644D02*
X0241922Y0106644D01*
X0235694Y0106644D02*
X0228808Y0106644D01*
X0228316Y0107642D02*
X0235533Y0107642D01*
X0222135Y0107642D02*
X0095210Y0107642D01*
X0096060Y0106644D02*
X0222135Y0106644D01*
X0233331Y0098656D02*
X0274499Y0098656D01*
X0274313Y0097657D02*
X0233331Y0097657D01*
X0233331Y0096659D02*
X0274313Y0096659D01*
X0273454Y0096288D02*
X0265580Y0096288D01*
X0263217Y0093926D01*
X0263217Y0091367D01*
X0262733Y0091666D02*
X0233944Y0091666D01*
X0234221Y0090668D02*
X0259552Y0090668D01*
X0259552Y0089669D02*
X0234180Y0089669D01*
X0233331Y0092665D02*
X0259552Y0092665D01*
X0259552Y0091851D02*
X0262733Y0091851D01*
X0262733Y0094835D01*
X0260854Y0094835D01*
X0260473Y0094733D01*
X0260131Y0094536D01*
X0259852Y0094256D01*
X0259654Y0093914D01*
X0259552Y0093533D01*
X0259552Y0091851D01*
X0259587Y0093663D02*
X0233331Y0093663D01*
X0233331Y0094662D02*
X0260349Y0094662D01*
X0262733Y0094662D02*
X0263702Y0094662D01*
X0263702Y0093663D02*
X0262733Y0093663D01*
X0262733Y0092665D02*
X0263702Y0092665D01*
X0266086Y0094662D02*
X0266667Y0094662D01*
X0269910Y0091367D02*
X0270698Y0092154D01*
X0279950Y0092154D01*
X0279949Y0094713D02*
X0274513Y0094713D01*
X0279949Y0094713D01*
X0279949Y0094713D01*
X0279950Y0094713D02*
X0275028Y0094713D01*
X0273454Y0096288D01*
X0274581Y0095660D02*
X0233331Y0095660D01*
X0232115Y0082509D02*
X0230146Y0082509D01*
X0229162Y0081524D01*
X0182902Y0081524D01*
X0183394Y0082017D01*
X0179950Y0084477D02*
X0171091Y0075619D01*
X0171091Y0031997D01*
X0171367Y0031721D01*
X0176035Y0031755D02*
X0176698Y0031755D01*
X0176713Y0030757D02*
X0176021Y0030757D01*
X0175607Y0029758D02*
X0177127Y0029758D01*
X0177726Y0028760D02*
X0175008Y0028760D01*
X0181367Y0031721D02*
X0181918Y0032272D01*
X0181918Y0035265D01*
X0189989Y0043335D01*
X0200422Y0043335D01*
X0196576Y0045734D02*
X0173291Y0045734D01*
X0173291Y0044736D02*
X0188278Y0044736D01*
X0187280Y0043737D02*
X0173291Y0043737D01*
X0173291Y0042739D02*
X0186281Y0042739D01*
X0185283Y0041740D02*
X0173291Y0041740D01*
X0173291Y0040742D02*
X0184284Y0040742D01*
X0183286Y0039743D02*
X0173291Y0039743D01*
X0173291Y0038745D02*
X0182287Y0038745D01*
X0181289Y0037746D02*
X0173291Y0037746D01*
X0173291Y0036748D02*
X0180290Y0036748D01*
X0178892Y0035749D02*
X0173842Y0035749D01*
X0174940Y0034751D02*
X0177794Y0034751D01*
X0177155Y0033752D02*
X0175579Y0033752D01*
X0175992Y0032754D02*
X0176741Y0032754D01*
X0205540Y0037548D02*
X0205540Y0050028D01*
X0204753Y0050816D01*
X0200422Y0050816D01*
X0196360Y0050727D02*
X0173291Y0050727D01*
X0173291Y0049729D02*
X0196360Y0049729D01*
X0196659Y0048730D02*
X0173291Y0048730D01*
X0173291Y0047732D02*
X0196560Y0047732D01*
X0196560Y0046733D02*
X0173291Y0046733D01*
X0173291Y0051726D02*
X0196360Y0051726D01*
X0196481Y0052724D02*
X0173291Y0052724D01*
X0173291Y0057717D02*
X0246363Y0057717D01*
X0246370Y0058715D02*
X0173291Y0058715D01*
X0173291Y0059714D02*
X0246977Y0059714D01*
X0252686Y0059714D02*
X0254722Y0059714D01*
X0254619Y0059773D02*
X0254961Y0059575D01*
X0255343Y0059473D01*
X0258190Y0059473D01*
X0258190Y0063623D01*
X0259190Y0063623D01*
X0259190Y0064623D01*
X0263339Y0064623D01*
X0263339Y0067470D01*
X0263237Y0067851D01*
X0263040Y0068193D01*
X0262760Y0068473D01*
X0262418Y0068670D01*
X0262037Y0068772D01*
X0259190Y0068772D01*
X0259190Y0064623D01*
X0258190Y0064623D01*
X0258190Y0068772D01*
X0255343Y0068772D01*
X0254961Y0068670D01*
X0254619Y0068473D01*
X0254340Y0068193D01*
X0254142Y0067851D01*
X0254040Y0067470D01*
X0254040Y0064623D01*
X0258190Y0064623D01*
X0258190Y0063623D01*
X0254040Y0063623D01*
X0254040Y0060776D01*
X0254142Y0060394D01*
X0254340Y0060052D01*
X0254619Y0059773D01*
X0254057Y0060712D02*
X0173291Y0060712D01*
X0173291Y0061711D02*
X0254040Y0061711D01*
X0254040Y0062709D02*
X0173291Y0062709D01*
X0173291Y0063708D02*
X0258190Y0063708D01*
X0258690Y0064123D02*
X0250894Y0056328D01*
X0249831Y0056328D01*
X0253300Y0057717D02*
X0276928Y0057717D01*
X0277716Y0058715D02*
X0253293Y0058715D01*
X0258190Y0059714D02*
X0259190Y0059714D01*
X0259190Y0059473D02*
X0262037Y0059473D01*
X0262418Y0059575D01*
X0262760Y0059773D01*
X0263040Y0060052D01*
X0263237Y0060394D01*
X0263339Y0060776D01*
X0263339Y0063623D01*
X0259190Y0063623D01*
X0259190Y0059473D01*
X0259190Y0060712D02*
X0258190Y0060712D01*
X0258190Y0061711D02*
X0259190Y0061711D01*
X0259190Y0062709D02*
X0258190Y0062709D01*
X0259190Y0063708D02*
X0269588Y0063708D01*
X0269588Y0064706D02*
X0263339Y0064706D01*
X0263339Y0065705D02*
X0269588Y0065705D01*
X0269588Y0066703D02*
X0263339Y0066703D01*
X0263277Y0067702D02*
X0269588Y0067702D01*
X0270312Y0068700D02*
X0262306Y0068700D01*
X0259190Y0068700D02*
X0258190Y0068700D01*
X0258190Y0067702D02*
X0259190Y0067702D01*
X0259190Y0066703D02*
X0258190Y0066703D01*
X0258190Y0065705D02*
X0259190Y0065705D01*
X0259190Y0064706D02*
X0258190Y0064706D01*
X0254040Y0064706D02*
X0173291Y0064706D01*
X0173291Y0065705D02*
X0254040Y0065705D01*
X0254040Y0066703D02*
X0173291Y0066703D01*
X0173291Y0067702D02*
X0254102Y0067702D01*
X0255073Y0068700D02*
X0173291Y0068700D01*
X0173291Y0069699D02*
X0282046Y0069699D01*
X0282784Y0070697D02*
X0182865Y0070697D01*
X0180972Y0070697D02*
X0173291Y0070697D01*
X0173291Y0071696D02*
X0179502Y0071696D01*
X0178969Y0072694D02*
X0173291Y0072694D01*
X0173291Y0073693D02*
X0176931Y0073693D01*
X0175522Y0074691D02*
X0173291Y0074691D01*
X0174274Y0075690D02*
X0175014Y0075690D01*
X0177981Y0076603D02*
X0279753Y0076603D01*
X0279950Y0076800D01*
X0279950Y0074241D02*
X0279851Y0074143D01*
X0264595Y0074143D01*
X0264103Y0073650D01*
X0181918Y0073650D01*
X0173086Y0083678D02*
X0172324Y0083678D01*
X0174085Y0084676D02*
X0087788Y0084676D01*
X0086789Y0083678D02*
X0167890Y0083678D01*
X0175083Y0085675D02*
X0088786Y0085675D01*
X0089785Y0086673D02*
X0176082Y0086673D01*
X0177080Y0087672D02*
X0090783Y0087672D01*
X0091782Y0088670D02*
X0178079Y0088670D01*
X0179950Y0084477D02*
X0279950Y0084477D01*
X0279950Y0081918D02*
X0232706Y0081918D01*
X0232115Y0082509D01*
X0231131Y0079556D02*
X0231328Y0079359D01*
X0279950Y0079359D01*
X0283523Y0071696D02*
X0265260Y0071696D01*
X0278564Y0068700D02*
X0281307Y0068700D01*
X0280569Y0067702D02*
X0279287Y0067702D01*
X0279287Y0066703D02*
X0279830Y0066703D01*
X0280658Y0064123D02*
X0274438Y0064123D01*
X0280658Y0064123D02*
X0286249Y0071682D01*
X0286249Y0087922D01*
X0284772Y0089398D01*
X0274513Y0094662D02*
X0273154Y0094662D01*
X0306644Y0106644D02*
X0307891Y0106644D01*
X0291256Y0112635D02*
X0285249Y0112635D01*
X0284250Y0113633D02*
X0290257Y0113633D01*
X0289259Y0114632D02*
X0284221Y0114632D01*
X0284221Y0115630D02*
X0288260Y0115630D01*
X0287262Y0116629D02*
X0284221Y0116629D01*
X0284221Y0117627D02*
X0286902Y0117627D01*
X0286902Y0118626D02*
X0284221Y0118626D01*
X0284221Y0119624D02*
X0286902Y0119624D01*
X0286902Y0120623D02*
X0284221Y0120623D01*
X0284221Y0121621D02*
X0286902Y0121621D01*
X0286902Y0122620D02*
X0283957Y0122620D01*
X0283104Y0123618D02*
X0286902Y0123618D01*
X0286902Y0124617D02*
X0278631Y0124617D01*
X0286902Y0125615D02*
X0259996Y0125615D01*
X0259996Y0126614D02*
X0286902Y0126614D01*
X0286902Y0127612D02*
X0259996Y0127612D01*
X0259996Y0128611D02*
X0286902Y0128611D01*
X0286902Y0129609D02*
X0259996Y0129609D01*
X0259845Y0130608D02*
X0286902Y0130608D01*
X0295107Y0120501D02*
X0301013Y0120501D01*
X0279221Y0118626D02*
X0278904Y0118626D01*
X0279221Y0117627D02*
X0272700Y0117627D01*
X0275135Y0116629D02*
X0275709Y0116629D01*
X0275709Y0115630D02*
X0275135Y0115630D01*
X0275135Y0113633D02*
X0275709Y0113633D01*
X0275709Y0112635D02*
X0275135Y0112635D01*
X0275135Y0111636D02*
X0275709Y0111636D01*
X0278718Y0111636D02*
X0279426Y0111636D01*
X0279221Y0116629D02*
X0279138Y0116629D01*
X0270016Y0112635D02*
X0269017Y0112635D01*
X0269017Y0111636D02*
X0270016Y0111636D01*
X0261616Y0122620D02*
X0259701Y0122620D01*
X0259701Y0123618D02*
X0261616Y0123618D01*
X0262075Y0124617D02*
X0259501Y0124617D01*
X0249922Y0128611D02*
X0248954Y0128611D01*
X0248954Y0129609D02*
X0249922Y0129609D01*
X0249922Y0130608D02*
X0248954Y0130608D01*
X0242163Y0115630D02*
X0241752Y0115630D01*
X0325673Y0150578D02*
X0327848Y0150578D01*
X0327123Y0149580D02*
X0326399Y0149580D01*
X0324595Y0151577D02*
X0328926Y0151577D01*
X0323766Y0152575D02*
X0378597Y0152575D01*
X0379595Y0153574D02*
X0322767Y0153574D01*
X0321769Y0154572D02*
X0381992Y0154572D01*
X0385387Y0154572D02*
X0393001Y0154572D01*
X0393001Y0153574D02*
X0387784Y0153574D01*
X0388783Y0152575D02*
X0393001Y0152575D01*
X0393001Y0151577D02*
X0389781Y0151577D01*
X0390208Y0150578D02*
X0393001Y0150578D01*
X0393001Y0149580D02*
X0390622Y0149580D01*
X0390902Y0148581D02*
X0393001Y0148581D01*
X0393001Y0147583D02*
X0390902Y0147583D01*
X0390902Y0146584D02*
X0393001Y0146584D01*
X0393001Y0145586D02*
X0390716Y0145586D01*
X0390302Y0144587D02*
X0393001Y0144587D01*
X0393001Y0143589D02*
X0389888Y0143589D01*
X0389010Y0142590D02*
X0393001Y0142590D01*
X0393001Y0141592D02*
X0388011Y0141592D01*
X0385934Y0140593D02*
X0393001Y0140593D01*
X0393001Y0155571D02*
X0320770Y0155571D01*
X0319772Y0156569D02*
X0393001Y0156569D01*
X0393001Y0119624D02*
X0349957Y0119624D01*
X0349957Y0118626D02*
X0393001Y0118626D01*
X0393001Y0117627D02*
X0349953Y0117627D01*
X0343462Y0115630D02*
X0393001Y0115630D01*
X0393001Y0114632D02*
X0343473Y0114632D01*
X0343166Y0113633D02*
X0393001Y0113633D01*
X0393001Y0112635D02*
X0342399Y0112635D01*
X0343049Y0116629D02*
X0393001Y0116629D01*
X0290839Y0067702D02*
X0290416Y0067702D01*
X0290839Y0066703D02*
X0289628Y0066703D01*
X0288840Y0065705D02*
X0290839Y0065705D01*
X0290839Y0064706D02*
X0288051Y0064706D01*
X0287263Y0063708D02*
X0290839Y0063708D01*
X0290839Y0062709D02*
X0286475Y0062709D01*
X0285687Y0061711D02*
X0290839Y0061711D01*
X0290787Y0060712D02*
X0284898Y0060712D01*
X0284110Y0059714D02*
X0289868Y0059714D01*
X0288949Y0058715D02*
X0283322Y0058715D01*
X0282533Y0057717D02*
X0288030Y0057717D01*
X0287111Y0056718D02*
X0281745Y0056718D01*
X0280957Y0055720D02*
X0286192Y0055720D01*
X0285273Y0054721D02*
X0280169Y0054721D01*
X0279380Y0053723D02*
X0284354Y0053723D01*
X0283435Y0052724D02*
X0278592Y0052724D01*
X0277804Y0051726D02*
X0282516Y0051726D01*
X0281597Y0050727D02*
X0277015Y0050727D01*
X0276638Y0049729D02*
X0280678Y0049729D01*
X0279729Y0048730D02*
X0278534Y0048730D01*
X0279287Y0047732D02*
X0279449Y0047732D01*
X0279461Y0046733D02*
X0279287Y0046733D01*
X0279287Y0045734D02*
X0279461Y0045734D01*
X0279461Y0044736D02*
X0279287Y0044736D01*
X0279287Y0043737D02*
X0279461Y0043737D01*
X0279461Y0042739D02*
X0279287Y0042739D01*
X0279287Y0041740D02*
X0279461Y0041740D01*
X0279461Y0040742D02*
X0279287Y0040742D01*
X0279461Y0039743D02*
X0278762Y0039743D01*
X0279461Y0038745D02*
X0230273Y0038745D01*
X0231271Y0039743D02*
X0254366Y0039743D01*
X0253840Y0040742D02*
X0232270Y0040742D01*
X0233268Y0041740D02*
X0253840Y0041740D01*
X0253840Y0042739D02*
X0234267Y0042739D01*
X0235265Y0043737D02*
X0253840Y0043737D01*
X0252997Y0044736D02*
X0236264Y0044736D01*
X0237262Y0045734D02*
X0251998Y0045734D01*
X0246195Y0046733D02*
X0238261Y0046733D01*
X0220304Y0048060D02*
X0220304Y0034438D01*
X0221367Y0033375D01*
X0225579Y0033752D02*
X0227387Y0033752D01*
X0227006Y0032754D02*
X0225992Y0032754D01*
X0226279Y0034751D02*
X0228077Y0034751D01*
X0233304Y0035749D02*
X0279461Y0035749D01*
X0279461Y0034751D02*
X0234657Y0034751D01*
X0235347Y0033752D02*
X0279461Y0033752D01*
X0279461Y0032754D02*
X0235728Y0032754D01*
X0235738Y0030757D02*
X0279461Y0030757D01*
X0279461Y0031755D02*
X0231851Y0031755D01*
X0231851Y0030757D02*
X0230883Y0030757D01*
X0230883Y0029758D02*
X0231851Y0029758D01*
X0231851Y0028760D02*
X0230883Y0028760D01*
X0230883Y0027761D02*
X0231851Y0027761D01*
X0233438Y0027761D02*
X0279461Y0027761D01*
X0279461Y0026763D02*
X0211961Y0026763D01*
X0210962Y0025764D02*
X0279341Y0025764D01*
X0278020Y0024766D02*
X0209964Y0024766D01*
X0234725Y0028760D02*
X0279461Y0028760D01*
X0279461Y0029758D02*
X0235382Y0029758D01*
X0263014Y0039743D02*
X0270114Y0039743D01*
X0269588Y0040742D02*
X0263539Y0040742D01*
X0263539Y0041740D02*
X0269588Y0041740D01*
X0269588Y0046733D02*
X0263539Y0046733D01*
X0263539Y0047732D02*
X0269588Y0047732D01*
X0270342Y0048730D02*
X0262786Y0048730D01*
X0262658Y0059714D02*
X0270144Y0059714D01*
X0269588Y0060712D02*
X0263322Y0060712D01*
X0263339Y0061711D02*
X0269588Y0061711D01*
X0269588Y0062709D02*
X0263339Y0062709D01*
X0301244Y0046733D02*
X0334169Y0046733D01*
X0339398Y0044615D02*
X0339398Y0037627D01*
X0345304Y0037627D01*
X0333493Y0037627D02*
X0333493Y0043139D01*
X0324165Y0040742D02*
X0308372Y0040742D01*
X0308618Y0039743D02*
X0323919Y0039743D01*
X0323919Y0038745D02*
X0308618Y0038745D01*
X0308618Y0037746D02*
X0323919Y0037746D01*
X0323919Y0036748D02*
X0308618Y0036748D01*
X0308618Y0035749D02*
X0323919Y0035749D01*
X0323925Y0034751D02*
X0308612Y0034751D01*
X0308618Y0033752D02*
X0323919Y0033752D01*
X0323919Y0032754D02*
X0308618Y0032754D01*
X0308618Y0031755D02*
X0323919Y0031755D01*
X0323919Y0030757D02*
X0308618Y0030757D01*
X0308618Y0029758D02*
X0323919Y0029758D01*
X0323919Y0028760D02*
X0308618Y0028760D01*
X0308315Y0027761D02*
X0324222Y0027761D01*
X0325387Y0026763D02*
X0307150Y0026763D01*
X0306435Y0025764D02*
X0309823Y0025764D01*
X0311261Y0025764D02*
X0312261Y0025764D01*
X0312261Y0024766D02*
X0311261Y0024766D01*
X0311261Y0023767D02*
X0312261Y0023767D01*
X0312261Y0022769D02*
X0311261Y0022769D01*
X0311261Y0021770D02*
X0312261Y0021770D01*
X0312261Y0020772D02*
X0311261Y0020772D01*
X0311261Y0019773D02*
X0312261Y0019773D01*
X0312261Y0018775D02*
X0311261Y0018775D01*
X0307003Y0022769D02*
X0306741Y0022769D01*
X0306328Y0023767D02*
X0307471Y0023767D01*
X0308303Y0024766D02*
X0305501Y0024766D01*
X0304950Y0027391D02*
X0301761Y0024202D01*
X0301761Y0017548D01*
X0291761Y0017548D02*
X0291761Y0023847D01*
X0287233Y0028375D01*
X0287233Y0030934D01*
X0293139Y0030934D02*
X0299044Y0030934D01*
X0304950Y0030934D02*
X0304950Y0027391D01*
X0313698Y0025764D02*
X0319341Y0025764D01*
X0318020Y0024766D02*
X0315219Y0024766D01*
X0316050Y0023767D02*
X0317194Y0023767D01*
X0316780Y0022769D02*
X0316518Y0022769D01*
X0324181Y0025764D02*
X0326102Y0025764D01*
X0325501Y0024766D02*
X0327101Y0024766D01*
X0327194Y0023767D02*
X0326328Y0023767D01*
X0326741Y0022769D02*
X0326780Y0022769D01*
X0327587Y0027391D02*
X0331761Y0023217D01*
X0331761Y0017548D01*
X0336517Y0011785D02*
X0337005Y0011785D01*
X0337564Y0010787D02*
X0335958Y0010787D01*
X0334959Y0009788D02*
X0338562Y0009788D01*
X0340650Y0008790D02*
X0332872Y0008790D01*
X0330650Y0008790D02*
X0323982Y0008790D01*
X0323982Y0007791D02*
X0379311Y0007791D01*
X0378312Y0008790D02*
X0342872Y0008790D01*
X0344959Y0009788D02*
X0348984Y0009788D01*
X0347865Y0010787D02*
X0345958Y0010787D01*
X0346517Y0011785D02*
X0347231Y0011785D01*
X0328562Y0009788D02*
X0324959Y0009788D01*
X0325958Y0010787D02*
X0327564Y0010787D01*
X0327005Y0011785D02*
X0326517Y0011785D01*
X0323037Y0006793D02*
X0381306Y0006793D01*
X0347003Y0022769D02*
X0346741Y0022769D01*
X0346328Y0023767D02*
X0347471Y0023767D01*
X0348303Y0024766D02*
X0345790Y0024766D01*
X0346789Y0025764D02*
X0349823Y0025764D01*
X0347504Y0026763D02*
X0393001Y0026763D01*
X0393001Y0027761D02*
X0348669Y0027761D01*
X0348972Y0028760D02*
X0393001Y0028760D01*
X0393001Y0029758D02*
X0348972Y0029758D01*
X0339398Y0030934D02*
X0333493Y0030934D01*
X0327587Y0030934D02*
X0327587Y0027391D01*
X0327587Y0037627D02*
X0333493Y0037627D01*
X0220304Y0048060D02*
X0217548Y0050816D01*
X0210658Y0050816D01*
X0206718Y0052724D02*
X0205956Y0052724D01*
X0207740Y0047732D02*
X0217521Y0047732D01*
X0155256Y0075690D02*
X0148409Y0075690D01*
X0147818Y0076688D02*
X0156190Y0076688D01*
X0156384Y0077687D02*
X0146208Y0077687D01*
X0144794Y0077687D02*
X0084709Y0077687D01*
X0084709Y0078685D02*
X0156992Y0078685D01*
X0143184Y0076688D02*
X0084709Y0076688D01*
X0084709Y0075690D02*
X0142593Y0075690D01*
X0142410Y0074691D02*
X0084692Y0074691D01*
X0083694Y0073693D02*
X0141448Y0073693D01*
X0141332Y0072694D02*
X0082695Y0072694D01*
X0081697Y0071696D02*
X0141332Y0071696D01*
X0141332Y0070697D02*
X0080698Y0070697D01*
X0079700Y0069699D02*
X0141332Y0069699D01*
X0141332Y0068700D02*
X0078701Y0068700D01*
X0077703Y0067702D02*
X0141332Y0067702D01*
X0141332Y0066703D02*
X0076588Y0066703D01*
X0076717Y0065705D02*
X0077451Y0065705D01*
X0079692Y0065705D02*
X0141332Y0065705D01*
X0141332Y0064706D02*
X0081060Y0064706D01*
X0081551Y0063708D02*
X0141332Y0063708D01*
X0141332Y0062709D02*
X0081662Y0062709D01*
X0081456Y0061711D02*
X0141332Y0061711D01*
X0141332Y0060712D02*
X0080831Y0060712D01*
X0077319Y0059714D02*
X0141332Y0059714D01*
X0141332Y0058715D02*
X0077013Y0058715D01*
X0077319Y0057717D02*
X0141332Y0057717D01*
X0141332Y0056718D02*
X0086804Y0056718D01*
X0087803Y0055720D02*
X0141332Y0055720D01*
X0078572Y0062824D02*
X0074241Y0062824D01*
X0073650Y0062233D01*
X0052749Y0070697D02*
X0043371Y0070697D01*
X0043810Y0071696D02*
X0052310Y0071696D01*
X0052310Y0072694D02*
X0043810Y0072694D01*
X0043810Y0073693D02*
X0052310Y0073693D01*
X0052310Y0074691D02*
X0043810Y0074691D01*
X0043364Y0075690D02*
X0053039Y0075690D01*
X0052510Y0076688D02*
X0043810Y0076688D01*
X0043810Y0077687D02*
X0052510Y0077687D01*
X0052510Y0078685D02*
X0043810Y0078685D01*
X0043810Y0079684D02*
X0052576Y0079684D01*
X0052763Y0080682D02*
X0043356Y0080682D01*
X0043810Y0081681D02*
X0052310Y0081681D01*
X0052310Y0082679D02*
X0043810Y0082679D01*
X0043810Y0083678D02*
X0052310Y0083678D01*
X0052310Y0084676D02*
X0043810Y0084676D01*
X0043349Y0085675D02*
X0053040Y0085675D01*
X0052510Y0086673D02*
X0043810Y0086673D01*
X0043810Y0087672D02*
X0052510Y0087672D01*
X0052510Y0088140D02*
X0058260Y0088140D01*
X0058260Y0090740D01*
X0053812Y0090740D01*
X0053431Y0090638D01*
X0053089Y0090440D01*
X0052810Y0090161D01*
X0052612Y0089819D01*
X0052510Y0089438D01*
X0052510Y0088140D01*
X0052510Y0088670D02*
X0043810Y0088670D01*
X0043810Y0089669D02*
X0052572Y0089669D01*
X0053541Y0090668D02*
X0043087Y0090668D01*
X0038675Y0091666D02*
X0063292Y0091666D01*
X0063292Y0092665D02*
X0037088Y0092665D01*
X0036355Y0093663D02*
X0063477Y0093663D01*
X0066276Y0093663D02*
X0067245Y0093663D01*
X0067245Y0092665D02*
X0066276Y0092665D01*
X0066276Y0091666D02*
X0067245Y0091666D01*
X0066761Y0090776D02*
X0064024Y0088040D01*
X0058360Y0088040D01*
X0058260Y0088670D02*
X0058460Y0088670D01*
X0058460Y0089669D02*
X0058260Y0089669D01*
X0058260Y0090668D02*
X0058460Y0090668D01*
X0063178Y0090668D02*
X0066276Y0090668D01*
X0071450Y0094662D02*
X0024366Y0094662D01*
X0024366Y0095660D02*
X0071450Y0095660D01*
X0071450Y0096659D02*
X0024335Y0096659D01*
X0023921Y0097657D02*
X0070961Y0097657D01*
X0070560Y0098656D02*
X0023423Y0098656D01*
X0022424Y0099654D02*
X0070560Y0099654D01*
X0070890Y0100653D02*
X0021025Y0100653D01*
X0022649Y0101651D02*
X0071690Y0101651D01*
X0075611Y0101651D02*
X0085230Y0101651D01*
X0085230Y0100653D02*
X0076411Y0100653D01*
X0076741Y0099654D02*
X0085230Y0099654D01*
X0085230Y0098656D02*
X0076741Y0098656D01*
X0076340Y0097657D02*
X0085230Y0097657D01*
X0085230Y0096659D02*
X0075850Y0096659D01*
X0075850Y0095660D02*
X0085230Y0095660D01*
X0085230Y0094662D02*
X0075850Y0094662D01*
X0077302Y0093663D02*
X0085230Y0093663D01*
X0085230Y0092665D02*
X0077319Y0092665D01*
X0077319Y0091666D02*
X0084618Y0091666D01*
X0083619Y0090668D02*
X0077319Y0090668D01*
X0077319Y0089669D02*
X0082621Y0089669D01*
X0081622Y0088670D02*
X0077319Y0088670D01*
X0077084Y0087672D02*
X0080624Y0087672D01*
X0080540Y0084477D02*
X0074044Y0084477D01*
X0073650Y0084083D01*
X0067154Y0084477D01*
X0066761Y0084083D01*
X0059403Y0084083D01*
X0058360Y0083040D01*
X0066276Y0080218D02*
X0067245Y0080218D01*
X0067245Y0077481D01*
X0066276Y0077481D01*
X0066276Y0080218D01*
X0066276Y0079684D02*
X0067245Y0079684D01*
X0067245Y0078685D02*
X0066276Y0078685D01*
X0066702Y0078040D02*
X0066761Y0076997D01*
X0067245Y0077687D02*
X0066276Y0077687D01*
X0066702Y0078040D02*
X0058360Y0078040D01*
X0073650Y0076997D02*
X0077194Y0080540D01*
X0078572Y0080540D01*
X0080540Y0084477D02*
X0087430Y0091367D01*
X0087430Y0106131D01*
X0084699Y0104647D02*
X0066006Y0104647D01*
X0065008Y0103648D02*
X0085230Y0103648D01*
X0085230Y0102650D02*
X0063739Y0102650D01*
X0067005Y0105645D02*
X0084339Y0105645D01*
X0084339Y0106644D02*
X0068003Y0106644D01*
X0069002Y0107642D02*
X0084711Y0107642D01*
X0093198Y0114632D02*
X0024085Y0114632D01*
X0023806Y0113633D02*
X0065659Y0113633D01*
X0064661Y0112635D02*
X0023246Y0112635D01*
X0022330Y0111636D02*
X0063662Y0111636D01*
X0062664Y0110638D02*
X0020518Y0110638D01*
X0022439Y0109639D02*
X0061665Y0109639D01*
X0052570Y0108641D02*
X0023437Y0108641D01*
X0023927Y0107642D02*
X0052253Y0107642D01*
X0052253Y0106644D02*
X0024341Y0106644D01*
X0024366Y0105645D02*
X0052253Y0105645D01*
X0052253Y0104647D02*
X0024366Y0104647D01*
X0024014Y0103648D02*
X0052253Y0103648D01*
X0052556Y0102650D02*
X0023601Y0102650D01*
X0024021Y0093663D02*
X0032206Y0093663D01*
X0031473Y0092665D02*
X0023607Y0092665D01*
X0022664Y0091666D02*
X0031190Y0091666D01*
X0031225Y0090668D02*
X0021061Y0090668D01*
X0022409Y0089669D02*
X0031208Y0089669D01*
X0034812Y0088040D02*
X0035875Y0088040D01*
X0036249Y0088414D01*
X0035265Y0088414D01*
X0034280Y0073040D02*
X0037760Y0073040D01*
X0073650Y0090776D02*
X0073650Y0099241D01*
X0093209Y0115630D02*
X0016080Y0115630D01*
X0016080Y0116629D02*
X0015080Y0116629D01*
X0015080Y0117627D02*
X0016080Y0117627D01*
X0016080Y0118626D02*
X0015080Y0118626D01*
X0015080Y0119624D02*
X0016080Y0119624D01*
X0022082Y0119624D02*
X0097812Y0119624D01*
X0096814Y0118626D02*
X0023115Y0118626D01*
X0023720Y0117627D02*
X0094582Y0117627D01*
X0093622Y0116629D02*
X0024057Y0116629D01*
X0015079Y0115630D02*
X0004300Y0115630D01*
X0094576Y0128611D02*
X0097875Y0128611D01*
X0097189Y0129609D02*
X0095306Y0129609D01*
X0095704Y0130608D02*
X0096775Y0130608D01*
X0101367Y0131721D02*
X0101367Y0120068D01*
X0096288Y0114989D01*
X0102194Y0114989D02*
X0111367Y0124162D01*
X0111367Y0131721D01*
X0103718Y0119624D02*
X0103567Y0119624D01*
X0080497Y0021770D02*
X0077387Y0021770D01*
X0078261Y0020772D02*
X0079580Y0020772D01*
X0079167Y0019773D02*
X0078791Y0019773D01*
X0074583Y0019773D02*
X0073583Y0019773D01*
X0073583Y0018775D02*
X0074583Y0018775D01*
X0074583Y0017776D02*
X0073583Y0017776D01*
X0073583Y0016778D02*
X0074583Y0016778D01*
X0074583Y0015779D02*
X0073583Y0015779D01*
X0069040Y0016778D02*
X0020105Y0016778D01*
X0019645Y0017776D02*
X0069040Y0017776D01*
X0069109Y0018775D02*
X0018646Y0018775D01*
X0017580Y0019773D02*
X0069376Y0019773D01*
X0069906Y0020772D02*
X0015169Y0020772D01*
X0012053Y0020772D02*
X0004300Y0020772D01*
X0004300Y0021770D02*
X0070780Y0021770D01*
X0073583Y0021770D02*
X0074583Y0021770D01*
X0074583Y0020772D02*
X0073583Y0020772D01*
X0107436Y0006793D02*
X0111095Y0006793D01*
X0110076Y0007791D02*
X0108435Y0007791D01*
X0108903Y0008790D02*
X0109476Y0008790D01*
X0113583Y0007791D02*
X0114583Y0007791D01*
X0114583Y0006793D02*
X0113583Y0006793D01*
X0125566Y0005794D02*
X0132601Y0005794D01*
X0130731Y0006793D02*
X0127436Y0006793D01*
X0128435Y0007791D02*
X0129732Y0007791D01*
X0129264Y0008790D02*
X0128903Y0008790D01*
X0011227Y0006793D02*
X0004300Y0006793D01*
X0004300Y0007791D02*
X0009232Y0007791D01*
X0008233Y0008790D02*
X0004300Y0008790D01*
X0004300Y0009788D02*
X0007389Y0009788D01*
X0006975Y0010787D02*
X0004300Y0010787D01*
X0004300Y0011785D02*
X0006561Y0011785D01*
X0006399Y0012784D02*
X0004300Y0012784D01*
X0004300Y0013782D02*
X0006399Y0013782D01*
X0006399Y0014781D02*
X0004300Y0014781D01*
X0004300Y0015779D02*
X0006703Y0015779D01*
X0007117Y0016778D02*
X0004300Y0016778D01*
X0004300Y0017776D02*
X0007577Y0017776D01*
X0008576Y0018775D02*
X0004300Y0018775D01*
X0004300Y0019773D02*
X0009643Y0019773D01*
D24*
X0027391Y0031328D03*
X0030146Y0035265D03*
X0036741Y0037725D03*
X0042154Y0035265D03*
X0078572Y0049044D03*
X0078572Y0062824D03*
X0078572Y0080540D03*
X0048060Y0096288D03*
X0034280Y0091367D03*
X0033296Y0096288D03*
X0073650Y0099241D03*
X0087430Y0106131D03*
X0093335Y0105146D03*
X0096288Y0114989D03*
X0102194Y0114989D03*
X0170107Y0081524D03*
X0177981Y0076603D03*
X0181918Y0073650D03*
X0182902Y0081524D03*
X0159280Y0076603D03*
X0145501Y0074635D03*
X0225225Y0107115D03*
X0260658Y0121879D03*
X0275422Y0109083D03*
X0273454Y0096288D03*
X0296583Y0094812D03*
X0310363Y0107607D03*
X0331524Y0114989D03*
X0340383Y0114989D03*
X0231131Y0090383D03*
X0231131Y0079556D03*
X0333493Y0043139D03*
X0342351Y0043139D03*
X0181918Y0015087D03*
X0180934Y0019517D03*
X0034280Y0069713D03*
X0030146Y0064792D03*
X0025914Y0055934D03*
D25*
X0281761Y0047509D02*
X0281761Y0017548D01*
X0281761Y0010225D01*
X0285265Y0006721D01*
X0319713Y0006721D01*
X0321682Y0008690D01*
X0321682Y0017469D01*
X0321761Y0017548D01*
X0281761Y0047509D02*
X0293139Y0059871D01*
X0293139Y0101209D01*
X0295107Y0103178D01*
X0303572Y0103178D01*
X0310265Y0103178D02*
X0310265Y0107509D01*
X0310363Y0107607D01*
X0303572Y0110068D02*
X0303572Y0111446D01*
X0301013Y0114005D01*
X0293139Y0114005D01*
X0289202Y0117942D01*
X0289202Y0131721D01*
X0281328Y0139595D01*
X0281328Y0143099D01*
X0281761Y0143532D01*
X0282312Y0144083D01*
X0282312Y0151406D01*
X0285265Y0154359D01*
X0318729Y0154359D01*
X0321761Y0151328D01*
X0321761Y0143532D01*
X0284280Y0097272D02*
X0281328Y0097272D01*
X0279950Y0097272D01*
D26*
X0264595Y0107607D02*
X0263119Y0106131D01*
X0258690Y0106131D01*
X0256918Y0107902D01*
X0256918Y0110855D01*
X0256918Y0111643D01*
X0250816Y0111643D01*
X0250816Y0111052D01*
X0245107Y0111052D01*
X0238808Y0111052D02*
X0238808Y0111643D01*
X0233099Y0111643D01*
X0233099Y0118335D02*
X0250816Y0118335D01*
X0252194Y0116957D01*
X0257706Y0116957D01*
X0260658Y0114005D01*
X0260658Y0113020D01*
X0262627Y0114989D01*
X0269024Y0114989D01*
X0269517Y0114497D01*
X0275324Y0114497D01*
X0275422Y0114398D01*
X0281721Y0112627D02*
X0284280Y0110068D01*
X0296485Y0110068D01*
X0303572Y0110068D02*
X0303572Y0103178D01*
X0303375Y0097272D01*
X0302981Y0097272D01*
X0281721Y0112627D02*
X0281721Y0121485D01*
X0275422Y0121485D01*
X0275324Y0121387D01*
X0269517Y0121387D01*
X0269222Y0121092D01*
X0264398Y0121092D01*
X0256918Y0121092D02*
X0256918Y0126997D01*
X0256131Y0127784D01*
X0250816Y0126406D02*
X0249438Y0127784D01*
X0250816Y0126406D02*
X0250816Y0118335D01*
X0260658Y0113020D02*
X0260658Y0110855D01*
X0264398Y0110855D02*
X0264595Y0110658D01*
X0264595Y0107607D01*
X0249438Y0050028D02*
X0238020Y0050028D01*
X0221367Y0033375D01*
X0221367Y0031721D01*
X0249438Y0050028D02*
X0249831Y0049635D01*
D27*
X0232509Y0111052D02*
X0233099Y0111643D01*
X0232509Y0111052D02*
X0067745Y0111052D01*
D28*
X0055934Y0105639D03*
D29*
X0062331Y0105639D01*
X0067745Y0111052D01*
D30*
X0047076Y0107115D02*
X0047076Y0087430D01*
X0047076Y0078572D01*
X0047076Y0065776D01*
X0046839Y0065540D01*
X0047076Y0065776D02*
X0047076Y0058887D01*
X0047076Y0049044D01*
X0047076Y0107115D02*
X0038650Y0115540D01*
X0015580Y0115540D01*
D31*
X0034812Y0088040D02*
X0032312Y0085540D01*
X0015580Y0085540D01*
X0032312Y0085540D02*
X0034812Y0083040D01*
X0037760Y0083040D01*
X0037760Y0078040D02*
X0035631Y0078040D01*
X0033296Y0075706D01*
X0033141Y0075706D01*
X0021650Y0075706D01*
X0015580Y0075540D01*
X0033141Y0075706D02*
X0035807Y0073040D01*
X0037760Y0073040D01*
X0047076Y0078572D02*
X0047607Y0078040D01*
X0058360Y0078040D01*
X0058360Y0088040D02*
X0047686Y0088040D01*
X0047076Y0087430D01*
X0037760Y0088040D02*
X0034812Y0088040D01*
X0046839Y0065540D02*
X0015580Y0065540D01*
X0032312Y0055540D02*
X0035284Y0058513D01*
X0037760Y0058513D01*
X0035324Y0053513D02*
X0032312Y0055540D01*
X0015580Y0055540D01*
X0035324Y0053513D02*
X0037760Y0053513D01*
X0037760Y0048513D02*
X0036702Y0048513D01*
X0033505Y0045316D01*
X0033300Y0045521D01*
X0021504Y0045521D01*
X0015580Y0045540D01*
X0033505Y0045316D02*
X0036293Y0043513D01*
X0037760Y0043513D01*
X0047076Y0048060D02*
X0047076Y0049044D01*
X0047528Y0048513D02*
X0047076Y0048060D01*
X0047528Y0048513D02*
X0058360Y0048513D01*
X0058734Y0058887D02*
X0047076Y0058887D01*
D32*
X0249831Y0061839D03*
X0260658Y0016564D03*
X0244910Y0154359D03*
M02*
