G75*
%MOIN*%
%OFA0B0*%
%FSLAX25Y25*%
%IPPOS*%
%LPD*%
%AMOC8*
5,1,8,0,0,1.08239X$1,22.5*
%
%ADD10C,0.07087*%
%ADD11C,0.01181*%
%ADD12R,0.03937X0.04331*%
%ADD13R,0.05512X0.03937*%
%ADD14R,0.04252X0.04134*%
%ADD15C,0.05937*%
%ADD16C,0.02781*%
%ADD17C,0.01000*%
%ADD18C,0.01600*%
%ADD19C,0.04000*%
%ADD20C,0.03200*%
%ADD21R,0.03962X0.03962*%
%ADD22C,0.03569*%
D10*
X0074083Y0010855D02*
X0074083Y0017942D01*
X0084083Y0017942D02*
X0084083Y0010855D01*
X0094083Y0010855D02*
X0094083Y0017942D01*
X0104083Y0017942D02*
X0104083Y0010855D01*
X0114083Y0010855D02*
X0114083Y0017942D01*
X0124083Y0017942D02*
X0124083Y0010855D01*
X0134083Y0010855D02*
X0134083Y0017942D01*
X0144083Y0017942D02*
X0144083Y0010855D01*
X0019123Y0045540D02*
X0012036Y0045540D01*
X0012036Y0055540D02*
X0019123Y0055540D01*
X0019123Y0065540D02*
X0012036Y0065540D01*
X0012036Y0075540D02*
X0019123Y0075540D01*
X0019123Y0085540D02*
X0012036Y0085540D01*
X0012036Y0095540D02*
X0019123Y0095540D01*
X0019123Y0105540D02*
X0012036Y0105540D01*
X0012036Y0115540D02*
X0019123Y0115540D01*
X0281761Y0139989D02*
X0281761Y0147076D01*
X0291761Y0147076D02*
X0291761Y0139989D01*
X0301761Y0139989D02*
X0301761Y0147076D01*
X0311761Y0147076D02*
X0311761Y0139989D01*
X0321761Y0139989D02*
X0321761Y0147076D01*
X0331761Y0147076D02*
X0331761Y0139989D01*
X0341761Y0139989D02*
X0341761Y0147076D01*
X0351761Y0147076D02*
X0351761Y0139989D01*
X0351761Y0021091D02*
X0351761Y0014005D01*
X0341761Y0014005D02*
X0341761Y0021091D01*
X0331761Y0021091D02*
X0331761Y0014005D01*
X0321761Y0014005D02*
X0321761Y0021091D01*
X0311761Y0021091D02*
X0311761Y0014005D01*
X0301761Y0014005D02*
X0301761Y0021091D01*
X0291761Y0021091D02*
X0291761Y0014005D01*
X0281761Y0014005D02*
X0281761Y0021091D01*
D11*
X0031524Y0041556D02*
X0028768Y0041556D01*
X0031524Y0041556D02*
X0031524Y0038800D01*
X0028768Y0038800D01*
X0028768Y0041556D01*
X0028768Y0039980D02*
X0031524Y0039980D01*
X0031524Y0041160D02*
X0028768Y0041160D01*
X0028768Y0048461D02*
X0031524Y0048461D01*
X0031524Y0045705D01*
X0028768Y0045705D01*
X0028768Y0048461D01*
X0028768Y0046885D02*
X0031524Y0046885D01*
X0031524Y0048065D02*
X0028768Y0048065D01*
X0028768Y0051103D02*
X0031524Y0051103D01*
X0028768Y0051103D02*
X0028768Y0053859D01*
X0031524Y0053859D01*
X0031524Y0051103D01*
X0031524Y0052283D02*
X0028768Y0052283D01*
X0028768Y0053463D02*
X0031524Y0053463D01*
X0031524Y0058009D02*
X0028768Y0058009D01*
X0028768Y0060765D01*
X0031524Y0060765D01*
X0031524Y0058009D01*
X0031524Y0059189D02*
X0028768Y0059189D01*
X0028768Y0060369D02*
X0031524Y0060369D01*
X0031524Y0072560D02*
X0028768Y0072560D01*
X0031524Y0072560D02*
X0031524Y0069804D01*
X0028768Y0069804D01*
X0028768Y0072560D01*
X0028768Y0070984D02*
X0031524Y0070984D01*
X0031524Y0072164D02*
X0028768Y0072164D01*
X0028768Y0079465D02*
X0031524Y0079465D01*
X0031524Y0076709D01*
X0028768Y0076709D01*
X0028768Y0079465D01*
X0028768Y0077889D02*
X0031524Y0077889D01*
X0031524Y0079069D02*
X0028768Y0079069D01*
X0028768Y0082599D02*
X0031524Y0082599D01*
X0028768Y0082599D02*
X0028768Y0085355D01*
X0031524Y0085355D01*
X0031524Y0082599D01*
X0031524Y0083779D02*
X0028768Y0083779D01*
X0028768Y0084959D02*
X0031524Y0084959D01*
X0031524Y0089505D02*
X0028768Y0089505D01*
X0028768Y0092261D01*
X0031524Y0092261D01*
X0031524Y0089505D01*
X0031524Y0090685D02*
X0028768Y0090685D01*
X0028768Y0091865D02*
X0031524Y0091865D01*
X0151997Y0145591D02*
X0154753Y0145591D01*
X0151997Y0145591D02*
X0151997Y0148347D01*
X0154753Y0148347D01*
X0154753Y0145591D01*
X0154753Y0146771D02*
X0151997Y0146771D01*
X0151997Y0147951D02*
X0154753Y0147951D01*
X0164792Y0145591D02*
X0167548Y0145591D01*
X0164792Y0145591D02*
X0164792Y0148347D01*
X0167548Y0148347D01*
X0167548Y0145591D01*
X0167548Y0146771D02*
X0164792Y0146771D01*
X0164792Y0147951D02*
X0167548Y0147951D01*
X0176603Y0145591D02*
X0179359Y0145591D01*
X0176603Y0145591D02*
X0176603Y0148347D01*
X0179359Y0148347D01*
X0179359Y0145591D01*
X0179359Y0146771D02*
X0176603Y0146771D01*
X0176603Y0147951D02*
X0179359Y0147951D01*
X0179359Y0152497D02*
X0176603Y0152497D01*
X0176603Y0155253D01*
X0179359Y0155253D01*
X0179359Y0152497D01*
X0179359Y0153677D02*
X0176603Y0153677D01*
X0176603Y0154857D02*
X0179359Y0154857D01*
X0167548Y0152497D02*
X0164792Y0152497D01*
X0164792Y0155253D01*
X0167548Y0155253D01*
X0167548Y0152497D01*
X0167548Y0153677D02*
X0164792Y0153677D01*
X0164792Y0154857D02*
X0167548Y0154857D01*
X0154753Y0152497D02*
X0151997Y0152497D01*
X0151997Y0155253D01*
X0154753Y0155253D01*
X0154753Y0152497D01*
X0154753Y0153677D02*
X0151997Y0153677D01*
X0151997Y0154857D02*
X0154753Y0154857D01*
D12*
X0159772Y0148847D03*
X0172076Y0148847D03*
X0183887Y0147863D03*
X0172076Y0142154D03*
X0183887Y0141170D03*
X0159772Y0142154D03*
X0039202Y0092253D03*
X0039202Y0085560D03*
X0039202Y0076997D03*
X0039202Y0070304D03*
X0039202Y0063217D03*
X0039202Y0056524D03*
X0039202Y0049438D03*
X0039202Y0042745D03*
X0155343Y0016957D03*
X0164202Y0016957D03*
X0164202Y0010265D03*
X0155343Y0010265D03*
D13*
X0054359Y0046091D03*
X0045698Y0042351D03*
X0045698Y0049831D03*
X0045698Y0056131D03*
X0054359Y0059871D03*
X0045698Y0063611D03*
X0045698Y0069910D03*
X0054359Y0073650D03*
X0045698Y0077391D03*
X0045698Y0083690D03*
X0054359Y0087430D03*
X0045698Y0091170D03*
D14*
X0172076Y0017056D03*
X0172076Y0010166D03*
D15*
X0171367Y0031721D03*
X0181367Y0031721D03*
X0191367Y0031721D03*
X0201367Y0031721D03*
X0211367Y0031721D03*
X0221367Y0031721D03*
X0231367Y0031721D03*
X0161367Y0031721D03*
X0151367Y0031721D03*
X0141367Y0031721D03*
X0131367Y0031721D03*
X0121367Y0031721D03*
X0111367Y0031721D03*
X0101367Y0031721D03*
X0091367Y0031721D03*
X0091367Y0131721D03*
X0101367Y0131721D03*
X0111367Y0131721D03*
X0121367Y0131721D03*
X0131367Y0131721D03*
X0141367Y0131721D03*
X0151367Y0131721D03*
X0161367Y0131721D03*
X0171367Y0131721D03*
X0181367Y0131721D03*
X0191367Y0131721D03*
X0201367Y0131721D03*
X0211367Y0131721D03*
X0221367Y0131721D03*
X0231367Y0131721D03*
D16*
X0260658Y0121879D03*
X0275422Y0109083D03*
X0273454Y0096288D03*
X0296583Y0094812D03*
X0310363Y0107607D03*
X0331524Y0114989D03*
X0340383Y0114989D03*
X0231131Y0090383D03*
X0231131Y0079556D03*
X0182902Y0081524D03*
X0177981Y0076603D03*
X0181918Y0073650D03*
X0170107Y0081524D03*
X0159280Y0076603D03*
X0145501Y0074635D03*
X0078572Y0080540D03*
X0078572Y0062824D03*
X0078572Y0049044D03*
X0042154Y0035265D03*
X0036741Y0037725D03*
X0030146Y0035265D03*
X0027391Y0031328D03*
X0025914Y0055934D03*
X0030146Y0064792D03*
X0034280Y0069713D03*
X0034280Y0091367D03*
X0033296Y0096288D03*
X0048060Y0096288D03*
X0073650Y0099241D03*
X0087430Y0106131D03*
X0093335Y0105146D03*
X0096288Y0114989D03*
X0102194Y0114989D03*
X0225225Y0107115D03*
X0333493Y0043139D03*
X0342351Y0043139D03*
X0181918Y0015087D03*
X0180934Y0019517D03*
D17*
X0004700Y0034022D02*
X0004700Y0004700D01*
X0132034Y0004700D01*
X0131978Y0004756D01*
X0131582Y0005712D01*
X0131582Y0005783D01*
X0130887Y0006071D01*
X0129299Y0007658D01*
X0129083Y0008180D01*
X0128868Y0007658D01*
X0127280Y0006071D01*
X0125206Y0005212D01*
X0122961Y0005212D01*
X0120887Y0006071D01*
X0119299Y0007658D01*
X0118766Y0008946D01*
X0118757Y0008919D01*
X0118397Y0008212D01*
X0117930Y0007570D01*
X0117369Y0007008D01*
X0116727Y0006542D01*
X0116019Y0006181D01*
X0115264Y0005936D01*
X0114583Y0005828D01*
X0114583Y0013898D01*
X0113583Y0013898D01*
X0113583Y0005828D01*
X0112902Y0005936D01*
X0112148Y0006181D01*
X0111440Y0006542D01*
X0110798Y0007008D01*
X0110237Y0007570D01*
X0109770Y0008212D01*
X0109410Y0008919D01*
X0109401Y0008946D01*
X0108868Y0007658D01*
X0107280Y0006071D01*
X0105206Y0005212D01*
X0102961Y0005212D01*
X0100887Y0006071D01*
X0099299Y0007658D01*
X0099083Y0008180D01*
X0098868Y0007658D01*
X0097280Y0006071D01*
X0095206Y0005212D01*
X0092961Y0005212D01*
X0090887Y0006071D01*
X0089299Y0007658D01*
X0089083Y0008180D01*
X0088868Y0007658D01*
X0087280Y0006071D01*
X0085206Y0005212D01*
X0082961Y0005212D01*
X0080887Y0006071D01*
X0079299Y0007658D01*
X0078766Y0008946D01*
X0078757Y0008919D01*
X0078397Y0008212D01*
X0077930Y0007570D01*
X0077369Y0007008D01*
X0076727Y0006542D01*
X0076019Y0006181D01*
X0075264Y0005936D01*
X0074583Y0005828D01*
X0074583Y0013898D01*
X0073583Y0013898D01*
X0073583Y0005828D01*
X0072902Y0005936D01*
X0072148Y0006181D01*
X0071440Y0006542D01*
X0070798Y0007008D01*
X0070237Y0007570D01*
X0069770Y0008212D01*
X0069410Y0008919D01*
X0069164Y0009674D01*
X0069040Y0010458D01*
X0069040Y0013898D01*
X0073583Y0013898D01*
X0073583Y0014898D01*
X0069040Y0014898D01*
X0069040Y0018339D01*
X0069164Y0019123D01*
X0069410Y0019878D01*
X0069770Y0020585D01*
X0070237Y0021227D01*
X0070798Y0021789D01*
X0071440Y0022255D01*
X0072148Y0022616D01*
X0072902Y0022861D01*
X0073583Y0022969D01*
X0073583Y0014898D01*
X0074583Y0014898D01*
X0074583Y0022969D01*
X0075264Y0022861D01*
X0076019Y0022616D01*
X0076727Y0022255D01*
X0077369Y0021789D01*
X0077930Y0021227D01*
X0078397Y0020585D01*
X0078757Y0019878D01*
X0078766Y0019851D01*
X0079299Y0021138D01*
X0080887Y0022726D01*
X0082961Y0023585D01*
X0085206Y0023585D01*
X0087280Y0022726D01*
X0088868Y0021138D01*
X0089083Y0020617D01*
X0089299Y0021138D01*
X0090887Y0022726D01*
X0092961Y0023585D01*
X0095206Y0023585D01*
X0097280Y0022726D01*
X0098868Y0021138D01*
X0099083Y0020617D01*
X0099299Y0021138D01*
X0100887Y0022726D01*
X0102961Y0023585D01*
X0105206Y0023585D01*
X0107280Y0022726D01*
X0108868Y0021138D01*
X0109401Y0019851D01*
X0109410Y0019878D01*
X0109770Y0020585D01*
X0110237Y0021227D01*
X0110798Y0021789D01*
X0111440Y0022255D01*
X0112148Y0022616D01*
X0112902Y0022861D01*
X0113583Y0022969D01*
X0113583Y0014898D01*
X0114583Y0014898D01*
X0114583Y0022969D01*
X0115264Y0022861D01*
X0116019Y0022616D01*
X0116727Y0022255D01*
X0117369Y0021789D01*
X0117930Y0021227D01*
X0118397Y0020585D01*
X0118757Y0019878D01*
X0118766Y0019851D01*
X0119299Y0021138D01*
X0120887Y0022726D01*
X0122961Y0023585D01*
X0123255Y0023585D01*
X0124835Y0025166D01*
X0125791Y0025561D01*
X0162258Y0025561D01*
X0163214Y0025166D01*
X0163945Y0024434D01*
X0166406Y0021974D01*
X0166717Y0021223D01*
X0167040Y0021223D01*
X0168270Y0019993D01*
X0168270Y0013922D01*
X0167959Y0013611D01*
X0168158Y0013412D01*
X0168782Y0014035D01*
X0168749Y0014068D01*
X0168552Y0014410D01*
X0168450Y0014791D01*
X0168450Y0016556D01*
X0171576Y0016556D01*
X0171576Y0017556D01*
X0171576Y0020623D01*
X0169752Y0020623D01*
X0169371Y0020521D01*
X0169029Y0020323D01*
X0168749Y0020044D01*
X0168552Y0019702D01*
X0168450Y0019320D01*
X0168450Y0017556D01*
X0171576Y0017556D01*
X0172576Y0017556D01*
X0175702Y0017556D01*
X0175702Y0019320D01*
X0175599Y0019702D01*
X0175402Y0020044D01*
X0175123Y0020323D01*
X0174781Y0020521D01*
X0174399Y0020623D01*
X0172576Y0020623D01*
X0172576Y0017556D01*
X0172576Y0016556D01*
X0175702Y0016556D01*
X0175702Y0014791D01*
X0175599Y0014410D01*
X0175402Y0014068D01*
X0175369Y0014035D01*
X0176302Y0013103D01*
X0176302Y0009617D01*
X0178566Y0007353D01*
X0194144Y0007353D01*
X0192197Y0009299D01*
X0191039Y0012097D01*
X0191039Y0015125D01*
X0192197Y0017923D01*
X0194339Y0020064D01*
X0197136Y0021223D01*
X0200164Y0021223D01*
X0202962Y0020064D01*
X0205103Y0017923D01*
X0206262Y0015125D01*
X0206262Y0012097D01*
X0205103Y0009299D01*
X0203157Y0007353D01*
X0216274Y0007353D01*
X0218767Y0009845D01*
X0218767Y0027312D01*
X0218496Y0027424D01*
X0217070Y0028850D01*
X0216367Y0030548D01*
X0215664Y0028850D01*
X0214238Y0027424D01*
X0212375Y0026653D01*
X0210359Y0026653D01*
X0208496Y0027424D01*
X0207070Y0028850D01*
X0206367Y0030548D01*
X0205664Y0028850D01*
X0204238Y0027424D01*
X0202375Y0026653D01*
X0200359Y0026653D01*
X0198496Y0027424D01*
X0197070Y0028850D01*
X0196367Y0030548D01*
X0195664Y0028850D01*
X0194238Y0027424D01*
X0192375Y0026653D01*
X0190359Y0026653D01*
X0188496Y0027424D01*
X0187070Y0028850D01*
X0186367Y0030548D01*
X0185664Y0028850D01*
X0184238Y0027424D01*
X0183534Y0027133D01*
X0183534Y0021853D01*
X0183893Y0021494D01*
X0184424Y0020211D01*
X0184424Y0018822D01*
X0183893Y0017539D01*
X0182911Y0016557D01*
X0181628Y0016026D01*
X0180240Y0016026D01*
X0178957Y0016557D01*
X0177975Y0017539D01*
X0177443Y0018822D01*
X0177443Y0020211D01*
X0177975Y0021494D01*
X0178334Y0021853D01*
X0178334Y0027586D01*
X0177070Y0028850D01*
X0176367Y0030548D01*
X0175664Y0028850D01*
X0174238Y0027424D01*
X0172375Y0026653D01*
X0170359Y0026653D01*
X0168496Y0027424D01*
X0167070Y0028850D01*
X0166367Y0030548D01*
X0165664Y0028850D01*
X0164238Y0027424D01*
X0162375Y0026653D01*
X0160359Y0026653D01*
X0158496Y0027424D01*
X0157070Y0028850D01*
X0156367Y0030548D01*
X0155664Y0028850D01*
X0154238Y0027424D01*
X0152375Y0026653D01*
X0150359Y0026653D01*
X0148496Y0027424D01*
X0147070Y0028850D01*
X0146367Y0030548D01*
X0145664Y0028850D01*
X0144238Y0027424D01*
X0142375Y0026653D01*
X0140359Y0026653D01*
X0138496Y0027424D01*
X0137070Y0028850D01*
X0136367Y0030548D01*
X0135664Y0028850D01*
X0134238Y0027424D01*
X0132375Y0026653D01*
X0130359Y0026653D01*
X0128496Y0027424D01*
X0127070Y0028850D01*
X0126298Y0030713D01*
X0126298Y0032729D01*
X0127070Y0034592D01*
X0128496Y0036018D01*
X0130359Y0036790D01*
X0132375Y0036790D01*
X0134238Y0036018D01*
X0135664Y0034592D01*
X0136367Y0032895D01*
X0137070Y0034592D01*
X0138496Y0036018D01*
X0140359Y0036790D01*
X0142375Y0036790D01*
X0144238Y0036018D01*
X0145664Y0034592D01*
X0146367Y0032895D01*
X0147070Y0034592D01*
X0148496Y0036018D01*
X0150359Y0036790D01*
X0152375Y0036790D01*
X0154238Y0036018D01*
X0155664Y0034592D01*
X0156367Y0032895D01*
X0157070Y0034592D01*
X0158496Y0036018D01*
X0160359Y0036790D01*
X0162375Y0036790D01*
X0164238Y0036018D01*
X0165664Y0034592D01*
X0166367Y0032895D01*
X0167070Y0034592D01*
X0168496Y0036018D01*
X0170359Y0036790D01*
X0172375Y0036790D01*
X0174238Y0036018D01*
X0175664Y0034592D01*
X0176367Y0032895D01*
X0177070Y0034592D01*
X0178496Y0036018D01*
X0180359Y0036790D01*
X0182375Y0036790D01*
X0184238Y0036018D01*
X0185664Y0034592D01*
X0186367Y0032895D01*
X0187070Y0034592D01*
X0188496Y0036018D01*
X0190359Y0036790D01*
X0192375Y0036790D01*
X0194238Y0036018D01*
X0195664Y0034592D01*
X0196367Y0032895D01*
X0197070Y0034592D01*
X0198496Y0036018D01*
X0200359Y0036790D01*
X0202375Y0036790D01*
X0204238Y0036018D01*
X0205664Y0034592D01*
X0206367Y0032895D01*
X0207070Y0034592D01*
X0208496Y0036018D01*
X0210359Y0036790D01*
X0212375Y0036790D01*
X0214238Y0036018D01*
X0215664Y0034592D01*
X0216367Y0032895D01*
X0217070Y0034592D01*
X0218496Y0036018D01*
X0220359Y0036790D01*
X0222375Y0036790D01*
X0224238Y0036018D01*
X0225664Y0034592D01*
X0226435Y0032729D01*
X0226435Y0030713D01*
X0225664Y0028850D01*
X0224238Y0027424D01*
X0223967Y0027312D01*
X0223967Y0008251D01*
X0223571Y0007296D01*
X0220975Y0004700D01*
X0392601Y0004700D01*
X0392601Y0156380D01*
X0181122Y0156380D01*
X0181307Y0156060D01*
X0181450Y0155528D01*
X0181450Y0154359D01*
X0178465Y0154359D01*
X0178465Y0153391D01*
X0181450Y0153391D01*
X0181450Y0152222D01*
X0181425Y0152128D01*
X0186725Y0152128D01*
X0187955Y0150898D01*
X0187955Y0144828D01*
X0187644Y0144517D01*
X0187955Y0144205D01*
X0187955Y0138135D01*
X0186725Y0136905D01*
X0183967Y0136905D01*
X0183967Y0136130D01*
X0184238Y0136018D01*
X0185664Y0134592D01*
X0186367Y0132895D01*
X0187070Y0134592D01*
X0188496Y0136018D01*
X0190359Y0136790D01*
X0192375Y0136790D01*
X0194238Y0136018D01*
X0195664Y0134592D01*
X0196367Y0132895D01*
X0197070Y0134592D01*
X0198496Y0136018D01*
X0200359Y0136790D01*
X0202375Y0136790D01*
X0204238Y0136018D01*
X0205664Y0134592D01*
X0206367Y0132895D01*
X0207070Y0134592D01*
X0208496Y0136018D01*
X0210359Y0136790D01*
X0212375Y0136790D01*
X0214238Y0136018D01*
X0215664Y0134592D01*
X0216367Y0132895D01*
X0217070Y0134592D01*
X0218496Y0136018D01*
X0220359Y0136790D01*
X0222375Y0136790D01*
X0224238Y0136018D01*
X0225664Y0134592D01*
X0226367Y0132895D01*
X0227070Y0134592D01*
X0228496Y0136018D01*
X0230359Y0136790D01*
X0232375Y0136790D01*
X0234238Y0136018D01*
X0235664Y0134592D01*
X0236435Y0132729D01*
X0236435Y0130713D01*
X0235664Y0128850D01*
X0234238Y0127424D01*
X0232375Y0126653D01*
X0230359Y0126653D01*
X0230088Y0126765D01*
X0227825Y0124503D01*
X0227825Y0109451D01*
X0228184Y0109092D01*
X0228716Y0107809D01*
X0228716Y0106421D01*
X0228184Y0105138D01*
X0227202Y0104156D01*
X0225920Y0103624D01*
X0224531Y0103624D01*
X0223248Y0104156D01*
X0222266Y0105138D01*
X0221735Y0106421D01*
X0221735Y0107809D01*
X0222266Y0109092D01*
X0222625Y0109451D01*
X0222625Y0126097D01*
X0222955Y0126893D01*
X0222375Y0126653D01*
X0220359Y0126653D01*
X0218496Y0127424D01*
X0217070Y0128850D01*
X0216367Y0130548D01*
X0215664Y0128850D01*
X0214238Y0127424D01*
X0212375Y0126653D01*
X0210359Y0126653D01*
X0208496Y0127424D01*
X0207070Y0128850D01*
X0206367Y0130548D01*
X0205664Y0128850D01*
X0204238Y0127424D01*
X0202375Y0126653D01*
X0200359Y0126653D01*
X0198496Y0127424D01*
X0197070Y0128850D01*
X0196367Y0130548D01*
X0195664Y0128850D01*
X0194238Y0127424D01*
X0192375Y0126653D01*
X0190359Y0126653D01*
X0188496Y0127424D01*
X0187070Y0128850D01*
X0186367Y0130548D01*
X0185664Y0128850D01*
X0184238Y0127424D01*
X0182375Y0126653D01*
X0180359Y0126653D01*
X0178496Y0127424D01*
X0177070Y0128850D01*
X0176367Y0130548D01*
X0175664Y0128850D01*
X0174238Y0127424D01*
X0172375Y0126653D01*
X0170359Y0126653D01*
X0168496Y0127424D01*
X0167070Y0128850D01*
X0166367Y0130548D01*
X0165664Y0128850D01*
X0164238Y0127424D01*
X0162375Y0126653D01*
X0160359Y0126653D01*
X0158496Y0127424D01*
X0157070Y0128850D01*
X0156367Y0130548D01*
X0155664Y0128850D01*
X0154238Y0127424D01*
X0152375Y0126653D01*
X0150359Y0126653D01*
X0150088Y0126765D01*
X0147918Y0124596D01*
X0146963Y0124200D01*
X0141656Y0124200D01*
X0139100Y0121643D01*
X0138144Y0121247D01*
X0131814Y0121247D01*
X0127289Y0116722D01*
X0126333Y0116326D01*
X0124924Y0116326D01*
X0091998Y0083400D01*
X0091998Y0078054D01*
X0091603Y0077099D01*
X0090871Y0076367D01*
X0080363Y0065860D01*
X0080549Y0065783D01*
X0081531Y0064801D01*
X0082062Y0063518D01*
X0082062Y0062129D01*
X0081531Y0060846D01*
X0080549Y0059864D01*
X0079266Y0059333D01*
X0078758Y0059333D01*
X0076250Y0056825D01*
X0076250Y0051659D01*
X0076594Y0052003D01*
X0077877Y0052535D01*
X0079266Y0052535D01*
X0080549Y0052003D01*
X0081531Y0051021D01*
X0082062Y0049738D01*
X0082062Y0048350D01*
X0081531Y0047067D01*
X0080549Y0046085D01*
X0079266Y0045554D01*
X0078758Y0045554D01*
X0070933Y0037729D01*
X0070933Y0037729D01*
X0070202Y0036997D01*
X0069246Y0036602D01*
X0053074Y0036602D01*
X0051893Y0035421D01*
X0087899Y0035421D01*
X0088496Y0036018D01*
X0090359Y0036790D01*
X0092375Y0036790D01*
X0094238Y0036018D01*
X0095664Y0034592D01*
X0096367Y0032895D01*
X0097070Y0034592D01*
X0098496Y0036018D01*
X0100359Y0036790D01*
X0102375Y0036790D01*
X0104238Y0036018D01*
X0105664Y0034592D01*
X0106367Y0032895D01*
X0107070Y0034592D01*
X0108496Y0036018D01*
X0110359Y0036790D01*
X0112375Y0036790D01*
X0114238Y0036018D01*
X0115664Y0034592D01*
X0116435Y0032729D01*
X0116435Y0030713D01*
X0115664Y0028850D01*
X0114238Y0027424D01*
X0112375Y0026653D01*
X0110359Y0026653D01*
X0108496Y0027424D01*
X0107070Y0028850D01*
X0106367Y0030548D01*
X0105664Y0028850D01*
X0104238Y0027424D01*
X0102375Y0026653D01*
X0100359Y0026653D01*
X0098496Y0027424D01*
X0097070Y0028850D01*
X0096367Y0030548D01*
X0095664Y0028850D01*
X0094238Y0027424D01*
X0092375Y0026653D01*
X0090359Y0026653D01*
X0088496Y0027424D01*
X0087899Y0028021D01*
X0053923Y0028021D01*
X0047260Y0021358D01*
X0046219Y0020317D01*
X0044859Y0019754D01*
X0019765Y0019754D01*
X0018405Y0020317D01*
X0004700Y0034022D01*
X0004700Y0033752D02*
X0004969Y0033752D01*
X0004700Y0032754D02*
X0005968Y0032754D01*
X0006966Y0031755D02*
X0004700Y0031755D01*
X0004700Y0030757D02*
X0007965Y0030757D01*
X0008963Y0029758D02*
X0004700Y0029758D01*
X0004700Y0028760D02*
X0009962Y0028760D01*
X0010960Y0027761D02*
X0004700Y0027761D01*
X0004700Y0026763D02*
X0011959Y0026763D01*
X0012957Y0025764D02*
X0004700Y0025764D01*
X0004700Y0024766D02*
X0013956Y0024766D01*
X0014954Y0023767D02*
X0004700Y0023767D01*
X0004700Y0022769D02*
X0015953Y0022769D01*
X0016952Y0021770D02*
X0004700Y0021770D01*
X0004700Y0020772D02*
X0011008Y0020772D01*
X0012097Y0021223D02*
X0009299Y0020064D01*
X0007158Y0017923D01*
X0005999Y0015125D01*
X0005999Y0012097D01*
X0007158Y0009299D01*
X0009299Y0007158D01*
X0012097Y0005999D01*
X0015125Y0005999D01*
X0017923Y0007158D01*
X0020064Y0009299D01*
X0021223Y0012097D01*
X0021223Y0015125D01*
X0020064Y0017923D01*
X0017923Y0020064D01*
X0015125Y0021223D01*
X0012097Y0021223D01*
X0009008Y0019773D02*
X0004700Y0019773D01*
X0004700Y0018775D02*
X0008010Y0018775D01*
X0007097Y0017776D02*
X0004700Y0017776D01*
X0004700Y0016778D02*
X0006684Y0016778D01*
X0006270Y0015779D02*
X0004700Y0015779D01*
X0004700Y0014781D02*
X0005999Y0014781D01*
X0005999Y0013782D02*
X0004700Y0013782D01*
X0004700Y0012784D02*
X0005999Y0012784D01*
X0006128Y0011785D02*
X0004700Y0011785D01*
X0004700Y0010787D02*
X0006542Y0010787D01*
X0006956Y0009788D02*
X0004700Y0009788D01*
X0004700Y0008790D02*
X0007668Y0008790D01*
X0008666Y0007791D02*
X0004700Y0007791D01*
X0004700Y0006793D02*
X0010182Y0006793D01*
X0004700Y0005794D02*
X0081555Y0005794D01*
X0080165Y0006793D02*
X0077072Y0006793D01*
X0078091Y0007791D02*
X0079244Y0007791D01*
X0078831Y0008790D02*
X0078691Y0008790D01*
X0074583Y0008790D02*
X0073583Y0008790D01*
X0073583Y0009788D02*
X0074583Y0009788D01*
X0074583Y0010787D02*
X0073583Y0010787D01*
X0073583Y0011785D02*
X0074583Y0011785D01*
X0074583Y0012784D02*
X0073583Y0012784D01*
X0073583Y0013782D02*
X0074583Y0013782D01*
X0073583Y0014781D02*
X0021223Y0014781D01*
X0021223Y0013782D02*
X0069040Y0013782D01*
X0069040Y0012784D02*
X0021223Y0012784D01*
X0021094Y0011785D02*
X0069040Y0011785D01*
X0069040Y0010787D02*
X0020680Y0010787D01*
X0020266Y0009788D02*
X0069146Y0009788D01*
X0069476Y0008790D02*
X0019554Y0008790D01*
X0018556Y0007791D02*
X0070076Y0007791D01*
X0071095Y0006793D02*
X0017040Y0006793D01*
X0004700Y0004796D02*
X0131961Y0004796D01*
X0131555Y0005794D02*
X0126612Y0005794D01*
X0128002Y0006793D02*
X0130165Y0006793D01*
X0129244Y0007791D02*
X0128923Y0007791D01*
X0134182Y0006229D02*
X0134182Y0014300D01*
X0134083Y0014398D01*
X0124339Y0014654D02*
X0124083Y0014398D01*
X0124339Y0014654D02*
X0124339Y0020993D01*
X0126308Y0022961D01*
X0161741Y0022961D01*
X0164202Y0020501D01*
X0164202Y0016957D01*
X0168270Y0016778D02*
X0171576Y0016778D01*
X0172076Y0017056D02*
X0172568Y0017056D01*
X0175028Y0014595D01*
X0181426Y0014595D01*
X0181918Y0015087D01*
X0183131Y0016778D02*
X0191723Y0016778D01*
X0192137Y0017776D02*
X0183991Y0017776D01*
X0184405Y0018775D02*
X0193049Y0018775D01*
X0194048Y0019773D02*
X0184424Y0019773D01*
X0184192Y0020772D02*
X0196047Y0020772D01*
X0201254Y0020772D02*
X0218767Y0020772D01*
X0218767Y0021770D02*
X0183617Y0021770D01*
X0183534Y0022769D02*
X0218767Y0022769D01*
X0218767Y0023767D02*
X0183534Y0023767D01*
X0183534Y0024766D02*
X0218767Y0024766D01*
X0218767Y0025764D02*
X0183534Y0025764D01*
X0183534Y0026763D02*
X0190093Y0026763D01*
X0188159Y0027761D02*
X0184575Y0027761D01*
X0185573Y0028760D02*
X0187160Y0028760D01*
X0186694Y0029758D02*
X0186040Y0029758D01*
X0181367Y0031721D02*
X0180934Y0031288D01*
X0180934Y0019517D01*
X0177676Y0020772D02*
X0167491Y0020772D01*
X0168270Y0019773D02*
X0168593Y0019773D01*
X0168450Y0018775D02*
X0168270Y0018775D01*
X0168270Y0017776D02*
X0168450Y0017776D01*
X0171576Y0017776D02*
X0172576Y0017776D01*
X0172576Y0016778D02*
X0178736Y0016778D01*
X0177877Y0017776D02*
X0175702Y0017776D01*
X0175702Y0018775D02*
X0177463Y0018775D01*
X0177443Y0019773D02*
X0175558Y0019773D01*
X0172576Y0019773D02*
X0171576Y0019773D01*
X0171576Y0018775D02*
X0172576Y0018775D01*
X0175702Y0015779D02*
X0191310Y0015779D01*
X0191039Y0014781D02*
X0175699Y0014781D01*
X0175622Y0013782D02*
X0191039Y0013782D01*
X0191039Y0012784D02*
X0176302Y0012784D01*
X0176302Y0011785D02*
X0191168Y0011785D01*
X0191581Y0010787D02*
X0176302Y0010787D01*
X0176302Y0009788D02*
X0191995Y0009788D01*
X0192707Y0008790D02*
X0177129Y0008790D01*
X0178128Y0007791D02*
X0193706Y0007791D01*
X0203595Y0007791D02*
X0216713Y0007791D01*
X0217711Y0008790D02*
X0204594Y0008790D01*
X0205306Y0009788D02*
X0218710Y0009788D01*
X0218767Y0010787D02*
X0205719Y0010787D01*
X0206133Y0011785D02*
X0218767Y0011785D01*
X0218767Y0012784D02*
X0206262Y0012784D01*
X0206262Y0013782D02*
X0218767Y0013782D01*
X0218767Y0014781D02*
X0206262Y0014781D01*
X0205991Y0015779D02*
X0218767Y0015779D01*
X0218767Y0016778D02*
X0205578Y0016778D01*
X0205164Y0017776D02*
X0218767Y0017776D01*
X0218767Y0018775D02*
X0204251Y0018775D01*
X0203253Y0019773D02*
X0218767Y0019773D01*
X0223967Y0019773D02*
X0276117Y0019773D01*
X0276117Y0018775D02*
X0223967Y0018775D01*
X0223967Y0017776D02*
X0276117Y0017776D01*
X0276117Y0016778D02*
X0223967Y0016778D01*
X0223967Y0015779D02*
X0276117Y0015779D01*
X0276117Y0014781D02*
X0223967Y0014781D01*
X0223967Y0013782D02*
X0276117Y0013782D01*
X0276117Y0012882D02*
X0276976Y0010808D01*
X0278564Y0009221D01*
X0280638Y0008361D01*
X0282883Y0008361D01*
X0284957Y0009221D01*
X0286545Y0010808D01*
X0286761Y0011329D01*
X0286976Y0010808D01*
X0288564Y0009221D01*
X0290638Y0008361D01*
X0292883Y0008361D01*
X0294957Y0009221D01*
X0296545Y0010808D01*
X0296761Y0011329D01*
X0296976Y0010808D01*
X0298564Y0009221D01*
X0300638Y0008361D01*
X0302883Y0008361D01*
X0304957Y0009221D01*
X0306545Y0010808D01*
X0307078Y0012096D01*
X0307087Y0012069D01*
X0307447Y0011361D01*
X0307914Y0010719D01*
X0308475Y0010158D01*
X0309117Y0009691D01*
X0309825Y0009331D01*
X0310580Y0009086D01*
X0311261Y0008978D01*
X0311261Y0017048D01*
X0312261Y0017048D01*
X0312261Y0008978D01*
X0312942Y0009086D01*
X0313697Y0009331D01*
X0314404Y0009691D01*
X0315046Y0010158D01*
X0315607Y0010719D01*
X0316074Y0011361D01*
X0316434Y0012069D01*
X0316443Y0012096D01*
X0316976Y0010808D01*
X0318564Y0009221D01*
X0320638Y0008361D01*
X0322883Y0008361D01*
X0324957Y0009221D01*
X0326545Y0010808D01*
X0326761Y0011329D01*
X0326976Y0010808D01*
X0328564Y0009221D01*
X0330638Y0008361D01*
X0332883Y0008361D01*
X0334957Y0009221D01*
X0336545Y0010808D01*
X0336761Y0011329D01*
X0336976Y0010808D01*
X0338564Y0009221D01*
X0340638Y0008361D01*
X0342883Y0008361D01*
X0344957Y0009221D01*
X0346545Y0010808D01*
X0347078Y0012096D01*
X0347087Y0012069D01*
X0347447Y0011361D01*
X0347914Y0010719D01*
X0348475Y0010158D01*
X0349117Y0009691D01*
X0349825Y0009331D01*
X0350580Y0009086D01*
X0351261Y0008978D01*
X0351261Y0017048D01*
X0352261Y0017048D01*
X0352261Y0018048D01*
X0356804Y0018048D01*
X0356804Y0021488D01*
X0356680Y0022272D01*
X0356434Y0023027D01*
X0356074Y0023735D01*
X0355607Y0024377D01*
X0355046Y0024938D01*
X0354404Y0025405D01*
X0353697Y0025765D01*
X0352942Y0026010D01*
X0352261Y0026118D01*
X0352261Y0018048D01*
X0351261Y0018048D01*
X0351261Y0026118D01*
X0350580Y0026010D01*
X0349825Y0025765D01*
X0349117Y0025405D01*
X0348475Y0024938D01*
X0347914Y0024377D01*
X0347447Y0023735D01*
X0347087Y0023027D01*
X0347078Y0023000D01*
X0346545Y0024288D01*
X0344957Y0025875D01*
X0342883Y0026735D01*
X0340638Y0026735D01*
X0338564Y0025875D01*
X0336976Y0024288D01*
X0336761Y0023767D01*
X0336760Y0023767D01*
X0336761Y0023767D02*
X0336545Y0024288D01*
X0334957Y0025875D01*
X0332883Y0026735D01*
X0330638Y0026735D01*
X0328564Y0025875D01*
X0326976Y0024288D01*
X0326761Y0023767D01*
X0326760Y0023767D01*
X0326761Y0023767D02*
X0326545Y0024288D01*
X0324957Y0025875D01*
X0322883Y0026735D01*
X0320638Y0026735D01*
X0318564Y0025875D01*
X0316976Y0024288D01*
X0316443Y0023000D01*
X0316434Y0023027D01*
X0316074Y0023735D01*
X0315607Y0024377D01*
X0315046Y0024938D01*
X0314404Y0025405D01*
X0313697Y0025765D01*
X0312942Y0026010D01*
X0312261Y0026118D01*
X0312261Y0018048D01*
X0311261Y0018048D01*
X0311261Y0026118D01*
X0310580Y0026010D01*
X0309825Y0025765D01*
X0309117Y0025405D01*
X0308475Y0024938D01*
X0307914Y0024377D01*
X0307447Y0023735D01*
X0307087Y0023027D01*
X0307078Y0023000D01*
X0306545Y0024288D01*
X0304957Y0025875D01*
X0302883Y0026735D01*
X0300638Y0026735D01*
X0298564Y0025875D01*
X0296976Y0024288D01*
X0296761Y0023767D01*
X0296760Y0023767D01*
X0296761Y0023767D02*
X0296545Y0024288D01*
X0294957Y0025875D01*
X0292883Y0026735D01*
X0290638Y0026735D01*
X0288564Y0025875D01*
X0286976Y0024288D01*
X0286761Y0023767D01*
X0286760Y0023767D01*
X0286761Y0023767D02*
X0286545Y0024288D01*
X0284957Y0025875D01*
X0282883Y0026735D01*
X0280638Y0026735D01*
X0278564Y0025875D01*
X0276976Y0024288D01*
X0276117Y0022214D01*
X0276117Y0012882D01*
X0276158Y0012784D02*
X0223967Y0012784D01*
X0223967Y0011785D02*
X0276572Y0011785D01*
X0276998Y0010787D02*
X0223967Y0010787D01*
X0223967Y0009788D02*
X0277996Y0009788D01*
X0279604Y0008790D02*
X0223967Y0008790D01*
X0223776Y0007791D02*
X0378745Y0007791D01*
X0379378Y0007158D02*
X0382176Y0005999D01*
X0385204Y0005999D01*
X0388002Y0007158D01*
X0390143Y0009299D01*
X0391302Y0012097D01*
X0391302Y0015125D01*
X0390143Y0017923D01*
X0388002Y0020064D01*
X0385204Y0021223D01*
X0382176Y0021223D01*
X0379378Y0020064D01*
X0377237Y0017923D01*
X0376078Y0015125D01*
X0376078Y0012097D01*
X0377237Y0009299D01*
X0379378Y0007158D01*
X0380260Y0006793D02*
X0223068Y0006793D01*
X0222069Y0005794D02*
X0392601Y0005794D01*
X0392601Y0004796D02*
X0221071Y0004796D01*
X0217351Y0004753D02*
X0177489Y0004753D01*
X0172076Y0010166D01*
X0163316Y0010166D01*
X0163217Y0010265D01*
X0168130Y0013782D02*
X0168529Y0013782D01*
X0168453Y0014781D02*
X0168270Y0014781D01*
X0168270Y0015779D02*
X0168450Y0015779D01*
X0155343Y0010265D02*
X0155343Y0006721D01*
X0154359Y0005737D01*
X0134674Y0005737D01*
X0134182Y0006229D01*
X0121555Y0005794D02*
X0106612Y0005794D01*
X0108002Y0006793D02*
X0111095Y0006793D01*
X0110076Y0007791D02*
X0108923Y0007791D01*
X0109336Y0008790D02*
X0109476Y0008790D01*
X0113583Y0008790D02*
X0114583Y0008790D01*
X0114583Y0009788D02*
X0113583Y0009788D01*
X0113583Y0010787D02*
X0114583Y0010787D01*
X0114583Y0011785D02*
X0113583Y0011785D01*
X0113583Y0012784D02*
X0114583Y0012784D01*
X0114583Y0013782D02*
X0113583Y0013782D01*
X0113583Y0015779D02*
X0114583Y0015779D01*
X0114583Y0016778D02*
X0113583Y0016778D01*
X0113583Y0017776D02*
X0114583Y0017776D01*
X0114583Y0018775D02*
X0113583Y0018775D01*
X0113583Y0019773D02*
X0114583Y0019773D01*
X0114583Y0020772D02*
X0113583Y0020772D01*
X0113583Y0021770D02*
X0114583Y0021770D01*
X0114583Y0022769D02*
X0113583Y0022769D01*
X0112619Y0022769D02*
X0107177Y0022769D01*
X0108236Y0021770D02*
X0110780Y0021770D01*
X0109906Y0020772D02*
X0109020Y0020772D01*
X0115548Y0022769D02*
X0120990Y0022769D01*
X0119931Y0021770D02*
X0117387Y0021770D01*
X0118261Y0020772D02*
X0119147Y0020772D01*
X0123437Y0023767D02*
X0049669Y0023767D01*
X0048671Y0022769D02*
X0072619Y0022769D01*
X0073583Y0022769D02*
X0074583Y0022769D01*
X0075548Y0022769D02*
X0080990Y0022769D01*
X0079931Y0021770D02*
X0077387Y0021770D01*
X0078261Y0020772D02*
X0079147Y0020772D01*
X0074583Y0020772D02*
X0073583Y0020772D01*
X0073583Y0021770D02*
X0074583Y0021770D01*
X0074583Y0019773D02*
X0073583Y0019773D01*
X0073583Y0018775D02*
X0074583Y0018775D01*
X0074583Y0017776D02*
X0073583Y0017776D01*
X0073583Y0016778D02*
X0074583Y0016778D01*
X0074583Y0015779D02*
X0073583Y0015779D01*
X0069040Y0015779D02*
X0020952Y0015779D01*
X0020538Y0016778D02*
X0069040Y0016778D01*
X0069040Y0017776D02*
X0020125Y0017776D01*
X0019212Y0018775D02*
X0069109Y0018775D01*
X0069376Y0019773D02*
X0044906Y0019773D01*
X0046674Y0020772D02*
X0069906Y0020772D01*
X0070780Y0021770D02*
X0047672Y0021770D01*
X0050668Y0024766D02*
X0124435Y0024766D01*
X0123082Y0027580D02*
X0122413Y0027363D01*
X0121851Y0027274D01*
X0121851Y0031237D01*
X0120883Y0031237D01*
X0120883Y0027274D01*
X0120321Y0027363D01*
X0119652Y0027580D01*
X0119025Y0027899D01*
X0118456Y0028313D01*
X0117959Y0028810D01*
X0117545Y0029379D01*
X0117226Y0030006D01*
X0117008Y0030675D01*
X0116919Y0031237D01*
X0120883Y0031237D01*
X0120883Y0032206D01*
X0120883Y0036169D01*
X0120321Y0036080D01*
X0119652Y0035862D01*
X0119025Y0035543D01*
X0118456Y0035130D01*
X0117959Y0034632D01*
X0117545Y0034063D01*
X0117226Y0033437D01*
X0117008Y0032768D01*
X0116919Y0032206D01*
X0120883Y0032206D01*
X0121851Y0032206D01*
X0121851Y0036169D01*
X0122413Y0036080D01*
X0123082Y0035862D01*
X0123709Y0035543D01*
X0124278Y0035130D01*
X0124775Y0034632D01*
X0125189Y0034063D01*
X0125508Y0033437D01*
X0125725Y0032768D01*
X0125814Y0032206D01*
X0121851Y0032206D01*
X0121851Y0031237D01*
X0125814Y0031237D01*
X0125725Y0030675D01*
X0125508Y0030006D01*
X0125189Y0029379D01*
X0124775Y0028810D01*
X0124278Y0028313D01*
X0123709Y0027899D01*
X0123082Y0027580D01*
X0123438Y0027761D02*
X0128159Y0027761D01*
X0127160Y0028760D02*
X0124725Y0028760D01*
X0125382Y0029758D02*
X0126694Y0029758D01*
X0126298Y0030757D02*
X0125738Y0030757D01*
X0126298Y0031755D02*
X0121851Y0031755D01*
X0120883Y0031755D02*
X0116435Y0031755D01*
X0116435Y0030757D02*
X0116995Y0030757D01*
X0117352Y0029758D02*
X0116040Y0029758D01*
X0115573Y0028760D02*
X0118009Y0028760D01*
X0119296Y0027761D02*
X0114575Y0027761D01*
X0112641Y0026763D02*
X0130093Y0026763D01*
X0132641Y0026763D02*
X0140093Y0026763D01*
X0138159Y0027761D02*
X0134575Y0027761D01*
X0135573Y0028760D02*
X0137160Y0028760D01*
X0136694Y0029758D02*
X0136040Y0029758D01*
X0136012Y0033752D02*
X0136722Y0033752D01*
X0137229Y0034751D02*
X0135505Y0034751D01*
X0134507Y0035749D02*
X0138227Y0035749D01*
X0140258Y0036748D02*
X0132476Y0036748D01*
X0130258Y0036748D02*
X0112476Y0036748D01*
X0110258Y0036748D02*
X0102476Y0036748D01*
X0100258Y0036748D02*
X0092476Y0036748D01*
X0090258Y0036748D02*
X0069600Y0036748D01*
X0070951Y0037746D02*
X0392601Y0037746D01*
X0392601Y0036748D02*
X0222476Y0036748D01*
X0220258Y0036748D02*
X0212476Y0036748D01*
X0210258Y0036748D02*
X0202476Y0036748D01*
X0200258Y0036748D02*
X0192476Y0036748D01*
X0190258Y0036748D02*
X0182476Y0036748D01*
X0180258Y0036748D02*
X0172476Y0036748D01*
X0170258Y0036748D02*
X0162476Y0036748D01*
X0160258Y0036748D02*
X0152476Y0036748D01*
X0150258Y0036748D02*
X0142476Y0036748D01*
X0144507Y0035749D02*
X0148227Y0035749D01*
X0147229Y0034751D02*
X0145505Y0034751D01*
X0146012Y0033752D02*
X0146722Y0033752D01*
X0146694Y0029758D02*
X0146040Y0029758D01*
X0145573Y0028760D02*
X0147160Y0028760D01*
X0148159Y0027761D02*
X0144575Y0027761D01*
X0142641Y0026763D02*
X0150093Y0026763D01*
X0152641Y0026763D02*
X0160093Y0026763D01*
X0158159Y0027761D02*
X0154575Y0027761D01*
X0155573Y0028760D02*
X0157160Y0028760D01*
X0156694Y0029758D02*
X0156040Y0029758D01*
X0156012Y0033752D02*
X0156722Y0033752D01*
X0157229Y0034751D02*
X0155505Y0034751D01*
X0154507Y0035749D02*
X0158227Y0035749D01*
X0164507Y0035749D02*
X0168227Y0035749D01*
X0167229Y0034751D02*
X0165505Y0034751D01*
X0166012Y0033752D02*
X0166722Y0033752D01*
X0166694Y0029758D02*
X0166040Y0029758D01*
X0165573Y0028760D02*
X0167160Y0028760D01*
X0168159Y0027761D02*
X0164575Y0027761D01*
X0162641Y0026763D02*
X0170093Y0026763D01*
X0172641Y0026763D02*
X0178334Y0026763D01*
X0178334Y0025764D02*
X0051666Y0025764D01*
X0052665Y0026763D02*
X0090093Y0026763D01*
X0088159Y0027761D02*
X0053663Y0027761D01*
X0045149Y0029712D02*
X0042590Y0027154D01*
X0022033Y0027154D01*
X0009437Y0039750D01*
X0009437Y0040509D01*
X0010914Y0039897D01*
X0020245Y0039897D01*
X0022320Y0040756D01*
X0023314Y0041751D01*
X0023314Y0035273D01*
X0023308Y0035258D01*
X0023314Y0034756D01*
X0023314Y0034255D01*
X0023320Y0034240D01*
X0023321Y0034224D01*
X0023518Y0033762D01*
X0023710Y0033300D01*
X0023722Y0033288D01*
X0024079Y0032454D01*
X0023900Y0032022D01*
X0023900Y0030633D01*
X0024431Y0029350D01*
X0025413Y0028368D01*
X0026696Y0027837D01*
X0028085Y0027837D01*
X0029368Y0028368D01*
X0030350Y0029350D01*
X0030881Y0030633D01*
X0030881Y0032022D01*
X0030350Y0033305D01*
X0029368Y0034287D01*
X0028861Y0034497D01*
X0028514Y0035306D01*
X0028514Y0036709D01*
X0029662Y0036709D01*
X0029662Y0039694D01*
X0030631Y0039694D01*
X0030631Y0036709D01*
X0030696Y0036709D01*
X0030696Y0034747D01*
X0031092Y0033792D01*
X0031823Y0033060D01*
X0034776Y0030108D01*
X0035732Y0029712D01*
X0045149Y0029712D01*
X0044197Y0028760D02*
X0029759Y0028760D01*
X0030519Y0029758D02*
X0035619Y0029758D01*
X0034127Y0030757D02*
X0030881Y0030757D01*
X0030881Y0031755D02*
X0033128Y0031755D01*
X0032130Y0032754D02*
X0030578Y0032754D01*
X0031131Y0033752D02*
X0029902Y0033752D01*
X0030696Y0034751D02*
X0028752Y0034751D01*
X0028514Y0035749D02*
X0030696Y0035749D01*
X0030146Y0035265D02*
X0030146Y0040178D01*
X0029662Y0038745D02*
X0030631Y0038745D01*
X0030631Y0037746D02*
X0029662Y0037746D01*
X0029662Y0036748D02*
X0030631Y0036748D01*
X0033296Y0035265D02*
X0033296Y0043139D01*
X0030335Y0046099D01*
X0030146Y0047083D01*
X0029359Y0046091D01*
X0025914Y0049536D02*
X0028859Y0052481D01*
X0030146Y0052481D01*
X0032902Y0056032D02*
X0025914Y0055934D01*
X0023844Y0058800D02*
X0022320Y0060324D01*
X0021032Y0060858D01*
X0021059Y0060866D01*
X0021766Y0061227D01*
X0022408Y0061693D01*
X0022970Y0062255D01*
X0023436Y0062897D01*
X0023797Y0063604D01*
X0024042Y0064359D01*
X0024150Y0065040D01*
X0016080Y0065040D01*
X0016080Y0066040D01*
X0024150Y0066040D01*
X0024042Y0066721D01*
X0023797Y0067476D01*
X0023436Y0068183D01*
X0022970Y0068826D01*
X0022408Y0069387D01*
X0021766Y0069854D01*
X0021059Y0070214D01*
X0021032Y0070223D01*
X0022320Y0070756D01*
X0023907Y0072343D01*
X0024766Y0074418D01*
X0024766Y0076663D01*
X0023907Y0078737D01*
X0022320Y0080324D01*
X0021798Y0080540D01*
X0022320Y0080756D01*
X0023907Y0082343D01*
X0024766Y0084418D01*
X0024766Y0084746D01*
X0026078Y0083172D01*
X0026078Y0082064D01*
X0026488Y0081075D01*
X0026530Y0081032D01*
X0026488Y0080989D01*
X0026078Y0080001D01*
X0026078Y0076174D01*
X0026488Y0075185D01*
X0027244Y0074429D01*
X0027582Y0074289D01*
X0027485Y0074233D01*
X0027096Y0073843D01*
X0026820Y0073367D01*
X0026678Y0072835D01*
X0026678Y0071666D01*
X0029662Y0071666D01*
X0029662Y0070698D01*
X0026678Y0070698D01*
X0026678Y0069529D01*
X0026820Y0068997D01*
X0027096Y0068520D01*
X0027485Y0068131D01*
X0027962Y0067856D01*
X0028493Y0067713D01*
X0029662Y0067713D01*
X0029662Y0070698D01*
X0030631Y0070698D01*
X0030631Y0067713D01*
X0031344Y0067713D01*
X0032303Y0066754D01*
X0033586Y0066223D01*
X0034975Y0066223D01*
X0035194Y0066314D01*
X0035133Y0066253D01*
X0035133Y0060182D01*
X0035444Y0059871D01*
X0035133Y0059560D01*
X0035133Y0058814D01*
X0033615Y0058696D01*
X0033615Y0058902D01*
X0030631Y0058902D01*
X0030631Y0059871D01*
X0033615Y0059871D01*
X0033615Y0061040D01*
X0033472Y0061571D01*
X0033197Y0062048D01*
X0032808Y0062437D01*
X0032331Y0062713D01*
X0031800Y0062855D01*
X0030631Y0062855D01*
X0030631Y0059871D01*
X0029662Y0059871D01*
X0029662Y0058902D01*
X0027869Y0058902D01*
X0026608Y0059424D01*
X0025220Y0059424D01*
X0023937Y0058893D01*
X0023844Y0058800D01*
X0022930Y0059714D02*
X0029662Y0059714D01*
X0029662Y0059871D02*
X0026678Y0059871D01*
X0026678Y0061040D01*
X0026820Y0061571D01*
X0027096Y0062048D01*
X0027485Y0062437D01*
X0027962Y0062713D01*
X0028493Y0062855D01*
X0029662Y0062855D01*
X0029662Y0059871D01*
X0030146Y0059387D02*
X0030146Y0064792D01*
X0030146Y0071182D01*
X0029662Y0070697D02*
X0030631Y0070697D01*
X0030631Y0069699D02*
X0029662Y0069699D01*
X0029662Y0068700D02*
X0030631Y0068700D01*
X0031356Y0067702D02*
X0023682Y0067702D01*
X0024045Y0066703D02*
X0032426Y0066703D01*
X0035133Y0065705D02*
X0016080Y0065705D01*
X0023830Y0063708D02*
X0035133Y0063708D01*
X0035133Y0064706D02*
X0024097Y0064706D01*
X0023300Y0062709D02*
X0027956Y0062709D01*
X0026901Y0061711D02*
X0022426Y0061711D01*
X0021383Y0060712D02*
X0026678Y0060712D01*
X0029662Y0060712D02*
X0030631Y0060712D01*
X0030631Y0059714D02*
X0035287Y0059714D01*
X0035133Y0060712D02*
X0033615Y0060712D01*
X0033392Y0061711D02*
X0035133Y0061711D01*
X0035133Y0062709D02*
X0032337Y0062709D01*
X0030631Y0062709D02*
X0029662Y0062709D01*
X0029662Y0061711D02*
X0030631Y0061711D01*
X0033615Y0058715D02*
X0033862Y0058715D01*
X0032902Y0056032D02*
X0039202Y0056524D01*
X0045698Y0056131D02*
X0045894Y0055934D01*
X0050028Y0055934D01*
X0050028Y0066761D01*
X0050300Y0066703D02*
X0069916Y0066703D01*
X0068918Y0065705D02*
X0050554Y0065705D01*
X0050554Y0066449D02*
X0050554Y0063760D01*
X0050733Y0063939D01*
X0057985Y0063939D01*
X0059215Y0062709D01*
X0065922Y0062709D01*
X0065684Y0062471D02*
X0059215Y0062471D01*
X0059215Y0062709D01*
X0058216Y0063708D02*
X0066921Y0063708D01*
X0067919Y0064706D02*
X0050554Y0064706D01*
X0050554Y0066449D02*
X0049774Y0067229D01*
X0049851Y0067363D01*
X0049954Y0067744D01*
X0049954Y0069426D01*
X0046182Y0069426D01*
X0046182Y0070394D01*
X0049921Y0070394D01*
X0050733Y0069582D01*
X0057985Y0069582D01*
X0059215Y0070812D01*
X0059215Y0071050D01*
X0074263Y0071050D01*
X0065684Y0062471D01*
X0066761Y0059871D02*
X0087430Y0080540D01*
X0087430Y0085461D01*
X0123847Y0121879D01*
X0125816Y0121879D01*
X0129753Y0125816D01*
X0135461Y0125816D01*
X0141367Y0131721D01*
X0146073Y0133603D02*
X0146660Y0133603D01*
X0146367Y0132895D02*
X0145664Y0134592D01*
X0144238Y0136018D01*
X0142375Y0136790D01*
X0140359Y0136790D01*
X0138496Y0136018D01*
X0137070Y0134592D01*
X0136367Y0132895D01*
X0135664Y0134592D01*
X0134238Y0136018D01*
X0132375Y0136790D01*
X0130359Y0136790D01*
X0128496Y0136018D01*
X0127070Y0134592D01*
X0126367Y0132895D01*
X0125664Y0134592D01*
X0124238Y0136018D01*
X0122375Y0136790D01*
X0120359Y0136790D01*
X0118496Y0136018D01*
X0117070Y0134592D01*
X0116367Y0132895D01*
X0115664Y0134592D01*
X0114238Y0136018D01*
X0112375Y0136790D01*
X0110359Y0136790D01*
X0108496Y0136018D01*
X0107070Y0134592D01*
X0106367Y0132895D01*
X0105664Y0134592D01*
X0104238Y0136018D01*
X0102375Y0136790D01*
X0100359Y0136790D01*
X0098496Y0136018D01*
X0097070Y0134592D01*
X0096298Y0132729D01*
X0096298Y0130713D01*
X0097070Y0128850D01*
X0098496Y0127424D01*
X0100359Y0126653D01*
X0102375Y0126653D01*
X0104238Y0127424D01*
X0105664Y0128850D01*
X0106367Y0130548D01*
X0107070Y0128850D01*
X0108496Y0127424D01*
X0110359Y0126653D01*
X0112375Y0126653D01*
X0114238Y0127424D01*
X0115664Y0128850D01*
X0116367Y0130548D01*
X0117070Y0128850D01*
X0118169Y0127751D01*
X0105684Y0115267D01*
X0105684Y0115683D01*
X0105153Y0116966D01*
X0104171Y0117948D01*
X0102888Y0118480D01*
X0101499Y0118480D01*
X0100216Y0117948D01*
X0099241Y0116973D01*
X0098265Y0117948D01*
X0096983Y0118480D01*
X0095594Y0118480D01*
X0094311Y0117948D01*
X0093329Y0116966D01*
X0092798Y0115683D01*
X0092798Y0115175D01*
X0087244Y0109621D01*
X0086736Y0109621D01*
X0085453Y0109090D01*
X0084471Y0108108D01*
X0083939Y0106825D01*
X0083939Y0105436D01*
X0084471Y0104153D01*
X0085453Y0103172D01*
X0086736Y0102640D01*
X0088124Y0102640D01*
X0089407Y0103172D01*
X0090092Y0103856D01*
X0090376Y0103169D01*
X0091358Y0102187D01*
X0092240Y0101822D01*
X0080447Y0090030D01*
X0059215Y0090030D01*
X0059215Y0090268D01*
X0057985Y0091498D01*
X0050733Y0091498D01*
X0050554Y0091319D01*
X0050554Y0094008D01*
X0049323Y0095239D01*
X0043270Y0095239D01*
X0043270Y0095288D01*
X0042040Y0096518D01*
X0036363Y0096518D01*
X0035133Y0095288D01*
X0035133Y0094792D01*
X0034975Y0094857D01*
X0033586Y0094857D01*
X0032303Y0094326D01*
X0032216Y0094239D01*
X0031800Y0094351D01*
X0030631Y0094351D01*
X0030631Y0091367D01*
X0029662Y0091367D01*
X0029662Y0094351D01*
X0029289Y0094351D01*
X0031833Y0096641D01*
X0071314Y0096641D01*
X0071673Y0096282D01*
X0072956Y0095750D01*
X0074345Y0095750D01*
X0075628Y0096282D01*
X0076610Y0097264D01*
X0077141Y0098547D01*
X0077141Y0099935D01*
X0076610Y0101218D01*
X0075628Y0102200D01*
X0074345Y0102731D01*
X0072956Y0102731D01*
X0071673Y0102200D01*
X0071314Y0101841D01*
X0059068Y0101841D01*
X0060015Y0102788D01*
X0060015Y0108490D01*
X0058785Y0109720D01*
X0053083Y0109720D01*
X0052603Y0109240D01*
X0023404Y0109240D01*
X0022320Y0110324D01*
X0021032Y0110858D01*
X0021059Y0110866D01*
X0021766Y0111227D01*
X0022408Y0111693D01*
X0022970Y0112255D01*
X0023436Y0112897D01*
X0023797Y0113604D01*
X0024042Y0114359D01*
X0024150Y0115040D01*
X0016080Y0115040D01*
X0016080Y0116040D01*
X0024150Y0116040D01*
X0024042Y0116721D01*
X0023797Y0117476D01*
X0023436Y0118183D01*
X0022970Y0118826D01*
X0022408Y0119387D01*
X0021766Y0119854D01*
X0021059Y0120214D01*
X0020304Y0120459D01*
X0019520Y0120583D01*
X0016080Y0120583D01*
X0016080Y0116040D01*
X0015080Y0116040D01*
X0015080Y0120583D01*
X0011639Y0120583D01*
X0010855Y0120459D01*
X0010100Y0120214D01*
X0009393Y0119854D01*
X0008751Y0119387D01*
X0008189Y0118826D01*
X0007723Y0118183D01*
X0007362Y0117476D01*
X0007117Y0116721D01*
X0007009Y0116040D01*
X0015079Y0116040D01*
X0015079Y0115040D01*
X0007009Y0115040D01*
X0007117Y0114359D01*
X0007362Y0113604D01*
X0007723Y0112897D01*
X0008189Y0112255D01*
X0008751Y0111693D01*
X0009393Y0111227D01*
X0010100Y0110866D01*
X0010127Y0110858D01*
X0008840Y0110324D01*
X0007252Y0108737D01*
X0006701Y0107406D01*
X0006537Y0107242D01*
X0004700Y0105405D01*
X0004700Y0156380D01*
X0150234Y0156380D01*
X0150049Y0156060D01*
X0149906Y0155528D01*
X0149906Y0154359D01*
X0152890Y0154359D01*
X0152890Y0153391D01*
X0149906Y0153391D01*
X0149906Y0152222D01*
X0150049Y0151690D01*
X0150324Y0151213D01*
X0150713Y0150824D01*
X0150810Y0150768D01*
X0150473Y0150628D01*
X0149716Y0149871D01*
X0149306Y0148882D01*
X0149306Y0145056D01*
X0149716Y0144067D01*
X0150473Y0143310D01*
X0151462Y0142901D01*
X0155288Y0142901D01*
X0155704Y0143073D01*
X0155704Y0139119D01*
X0156934Y0137889D01*
X0158767Y0137889D01*
X0158767Y0136130D01*
X0158496Y0136018D01*
X0157070Y0134592D01*
X0156367Y0132895D01*
X0155664Y0134592D01*
X0154238Y0136018D01*
X0152375Y0136790D01*
X0150359Y0136790D01*
X0148496Y0136018D01*
X0147070Y0134592D01*
X0146367Y0132895D01*
X0145654Y0134602D02*
X0147080Y0134602D01*
X0148078Y0135601D02*
X0144656Y0135601D01*
X0142836Y0136599D02*
X0149898Y0136599D01*
X0152836Y0136599D02*
X0158767Y0136599D01*
X0158767Y0137598D02*
X0004700Y0137598D01*
X0004700Y0138596D02*
X0156227Y0138596D01*
X0155704Y0139595D02*
X0004700Y0139595D01*
X0004700Y0140593D02*
X0010321Y0140593D01*
X0009299Y0141016D02*
X0012097Y0139857D01*
X0015125Y0139857D01*
X0017923Y0141016D01*
X0020064Y0143158D01*
X0021223Y0145955D01*
X0021223Y0148983D01*
X0020064Y0151781D01*
X0017923Y0153922D01*
X0015125Y0155081D01*
X0012097Y0155081D01*
X0009299Y0153922D01*
X0007158Y0151781D01*
X0005999Y0148983D01*
X0005999Y0145955D01*
X0007158Y0143158D01*
X0009299Y0141016D01*
X0008724Y0141592D02*
X0004700Y0141592D01*
X0004700Y0142590D02*
X0007725Y0142590D01*
X0006979Y0143589D02*
X0004700Y0143589D01*
X0004700Y0144587D02*
X0006566Y0144587D01*
X0006152Y0145586D02*
X0004700Y0145586D01*
X0004700Y0146584D02*
X0005999Y0146584D01*
X0005999Y0147583D02*
X0004700Y0147583D01*
X0004700Y0148581D02*
X0005999Y0148581D01*
X0006246Y0149580D02*
X0004700Y0149580D01*
X0004700Y0150578D02*
X0006660Y0150578D01*
X0007073Y0151577D02*
X0004700Y0151577D01*
X0004700Y0152575D02*
X0007952Y0152575D01*
X0008951Y0153574D02*
X0004700Y0153574D01*
X0004700Y0154572D02*
X0010868Y0154572D01*
X0004700Y0155571D02*
X0149918Y0155571D01*
X0149906Y0154572D02*
X0016354Y0154572D01*
X0018271Y0153574D02*
X0152890Y0153574D01*
X0153859Y0153574D02*
X0165686Y0153574D01*
X0165686Y0153391D02*
X0162702Y0153391D01*
X0162702Y0153022D01*
X0162611Y0153113D01*
X0156934Y0153113D01*
X0156843Y0153022D01*
X0156843Y0153391D01*
X0153859Y0153391D01*
X0153859Y0154359D01*
X0156843Y0154359D01*
X0156843Y0155528D01*
X0156701Y0156060D01*
X0156516Y0156380D01*
X0163029Y0156380D01*
X0162844Y0156060D01*
X0162702Y0155528D01*
X0162702Y0154359D01*
X0165686Y0154359D01*
X0165686Y0153391D01*
X0166654Y0153391D02*
X0166654Y0154359D01*
X0169639Y0154359D01*
X0169639Y0155528D01*
X0169496Y0156060D01*
X0169311Y0156380D01*
X0174840Y0156380D01*
X0174655Y0156060D01*
X0174513Y0155528D01*
X0174513Y0154359D01*
X0177497Y0154359D01*
X0177497Y0153391D01*
X0174513Y0153391D01*
X0174513Y0153113D01*
X0169639Y0153113D01*
X0169639Y0153391D01*
X0166654Y0153391D01*
X0166654Y0153574D02*
X0177497Y0153574D01*
X0178465Y0153574D02*
X0193990Y0153574D01*
X0194339Y0153922D02*
X0192197Y0151781D01*
X0191039Y0148983D01*
X0191039Y0145955D01*
X0192197Y0143158D01*
X0194339Y0141016D01*
X0197136Y0139857D01*
X0200164Y0139857D01*
X0202962Y0141016D01*
X0205103Y0143158D01*
X0206262Y0145955D01*
X0206262Y0148983D01*
X0205103Y0151781D01*
X0202962Y0153922D01*
X0200164Y0155081D01*
X0197136Y0155081D01*
X0194339Y0153922D01*
X0195908Y0154572D02*
X0181450Y0154572D01*
X0181438Y0155571D02*
X0392601Y0155571D01*
X0392601Y0154572D02*
X0386432Y0154572D01*
X0385204Y0155081D02*
X0388002Y0153922D01*
X0390143Y0151781D01*
X0391302Y0148983D01*
X0391302Y0145955D01*
X0390143Y0143158D01*
X0388002Y0141016D01*
X0385204Y0139857D01*
X0382176Y0139857D01*
X0379378Y0141016D01*
X0377237Y0143158D01*
X0376078Y0145955D01*
X0376078Y0148983D01*
X0377237Y0151781D01*
X0379378Y0153922D01*
X0382176Y0155081D01*
X0385204Y0155081D01*
X0388350Y0153574D02*
X0392601Y0153574D01*
X0392601Y0152575D02*
X0389349Y0152575D01*
X0390227Y0151577D02*
X0392601Y0151577D01*
X0392601Y0150578D02*
X0390641Y0150578D01*
X0391055Y0149580D02*
X0392601Y0149580D01*
X0392601Y0148581D02*
X0391302Y0148581D01*
X0391302Y0147583D02*
X0392601Y0147583D01*
X0392601Y0146584D02*
X0391302Y0146584D01*
X0391148Y0145586D02*
X0392601Y0145586D01*
X0392601Y0144587D02*
X0390735Y0144587D01*
X0390321Y0143589D02*
X0392601Y0143589D01*
X0392601Y0142590D02*
X0389575Y0142590D01*
X0388577Y0141592D02*
X0392601Y0141592D01*
X0392601Y0140593D02*
X0386980Y0140593D01*
X0392601Y0139595D02*
X0356804Y0139595D01*
X0356804Y0139592D02*
X0356804Y0143032D01*
X0352261Y0143032D01*
X0352261Y0144032D01*
X0356804Y0144032D01*
X0356804Y0147473D01*
X0356680Y0148257D01*
X0356434Y0149012D01*
X0356074Y0149719D01*
X0355607Y0150361D01*
X0355046Y0150922D01*
X0354404Y0151389D01*
X0353697Y0151749D01*
X0352942Y0151995D01*
X0352261Y0152103D01*
X0352261Y0144032D01*
X0351261Y0144032D01*
X0351261Y0152103D01*
X0350580Y0151995D01*
X0349825Y0151749D01*
X0349117Y0151389D01*
X0348475Y0150922D01*
X0347914Y0150361D01*
X0347447Y0149719D01*
X0347087Y0149012D01*
X0347078Y0148985D01*
X0346545Y0150272D01*
X0344957Y0151860D01*
X0342883Y0152719D01*
X0340638Y0152719D01*
X0338564Y0151860D01*
X0336976Y0150272D01*
X0336761Y0149751D01*
X0336545Y0150272D01*
X0334957Y0151860D01*
X0332883Y0152719D01*
X0330638Y0152719D01*
X0328564Y0151860D01*
X0326976Y0150272D01*
X0326761Y0149751D01*
X0326545Y0150272D01*
X0324957Y0151860D01*
X0322883Y0152719D01*
X0320638Y0152719D01*
X0318564Y0151860D01*
X0316976Y0150272D01*
X0316443Y0148985D01*
X0316434Y0149012D01*
X0316074Y0149719D01*
X0315607Y0150361D01*
X0315046Y0150922D01*
X0314404Y0151389D01*
X0313697Y0151749D01*
X0312942Y0151995D01*
X0312261Y0152103D01*
X0312261Y0144032D01*
X0311261Y0144032D01*
X0311261Y0152103D01*
X0310580Y0151995D01*
X0309825Y0151749D01*
X0309117Y0151389D01*
X0308475Y0150922D01*
X0307914Y0150361D01*
X0307447Y0149719D01*
X0307087Y0149012D01*
X0307078Y0148985D01*
X0306545Y0150272D01*
X0304957Y0151860D01*
X0302883Y0152719D01*
X0300638Y0152719D01*
X0298564Y0151860D01*
X0296976Y0150272D01*
X0296761Y0149751D01*
X0296545Y0150272D01*
X0294957Y0151860D01*
X0292883Y0152719D01*
X0290638Y0152719D01*
X0288564Y0151860D01*
X0286976Y0150272D01*
X0286761Y0149751D01*
X0286545Y0150272D01*
X0284957Y0151860D01*
X0282883Y0152719D01*
X0280638Y0152719D01*
X0278564Y0151860D01*
X0276976Y0150272D01*
X0276117Y0148198D01*
X0276117Y0138866D01*
X0276976Y0136792D01*
X0278564Y0135205D01*
X0280638Y0134346D01*
X0282883Y0134346D01*
X0284957Y0135205D01*
X0286545Y0136792D01*
X0286761Y0137313D01*
X0286976Y0136792D01*
X0288564Y0135205D01*
X0290638Y0134346D01*
X0292883Y0134346D01*
X0294957Y0135205D01*
X0296545Y0136792D01*
X0296761Y0137313D01*
X0296976Y0136792D01*
X0298564Y0135205D01*
X0300638Y0134346D01*
X0302883Y0134346D01*
X0304957Y0135205D01*
X0306545Y0136792D01*
X0307078Y0138080D01*
X0307087Y0138053D01*
X0307447Y0137346D01*
X0307914Y0136703D01*
X0308475Y0136142D01*
X0309117Y0135676D01*
X0309825Y0135315D01*
X0310580Y0135070D01*
X0311261Y0134962D01*
X0311261Y0143032D01*
X0312261Y0143032D01*
X0312261Y0134962D01*
X0312942Y0135070D01*
X0313697Y0135315D01*
X0314404Y0135676D01*
X0315046Y0136142D01*
X0315607Y0136703D01*
X0316074Y0137346D01*
X0316434Y0138053D01*
X0316443Y0138080D01*
X0316976Y0136792D01*
X0318564Y0135205D01*
X0320638Y0134346D01*
X0322883Y0134346D01*
X0324957Y0135205D01*
X0326545Y0136792D01*
X0326761Y0137313D01*
X0326976Y0136792D01*
X0328564Y0135205D01*
X0330638Y0134346D01*
X0332883Y0134346D01*
X0334957Y0135205D01*
X0336545Y0136792D01*
X0336761Y0137313D01*
X0336976Y0136792D01*
X0338564Y0135205D01*
X0340638Y0134346D01*
X0342883Y0134346D01*
X0344957Y0135205D01*
X0346545Y0136792D01*
X0347078Y0138080D01*
X0347087Y0138053D01*
X0347447Y0137346D01*
X0347914Y0136703D01*
X0348475Y0136142D01*
X0349117Y0135676D01*
X0349825Y0135315D01*
X0350580Y0135070D01*
X0351261Y0134962D01*
X0351261Y0143032D01*
X0352261Y0143032D01*
X0352261Y0134962D01*
X0352942Y0135070D01*
X0353697Y0135315D01*
X0354404Y0135676D01*
X0355046Y0136142D01*
X0355607Y0136703D01*
X0356074Y0137346D01*
X0356434Y0138053D01*
X0356680Y0138808D01*
X0356804Y0139592D01*
X0356804Y0140593D02*
X0380400Y0140593D01*
X0378803Y0141592D02*
X0356804Y0141592D01*
X0356804Y0142590D02*
X0377804Y0142590D01*
X0377058Y0143589D02*
X0352261Y0143589D01*
X0352261Y0144587D02*
X0351261Y0144587D01*
X0351261Y0145586D02*
X0352261Y0145586D01*
X0352261Y0146584D02*
X0351261Y0146584D01*
X0351261Y0147583D02*
X0352261Y0147583D01*
X0352261Y0148581D02*
X0351261Y0148581D01*
X0351261Y0149580D02*
X0352261Y0149580D01*
X0352261Y0150578D02*
X0351261Y0150578D01*
X0351261Y0151577D02*
X0352261Y0151577D01*
X0354036Y0151577D02*
X0377152Y0151577D01*
X0376739Y0150578D02*
X0355390Y0150578D01*
X0356145Y0149580D02*
X0376325Y0149580D01*
X0376078Y0148581D02*
X0356574Y0148581D01*
X0356786Y0147583D02*
X0376078Y0147583D01*
X0376078Y0146584D02*
X0356804Y0146584D01*
X0356804Y0145586D02*
X0376231Y0145586D01*
X0376645Y0144587D02*
X0356804Y0144587D01*
X0352261Y0142590D02*
X0351261Y0142590D01*
X0351261Y0141592D02*
X0352261Y0141592D01*
X0352261Y0140593D02*
X0351261Y0140593D01*
X0351261Y0139595D02*
X0352261Y0139595D01*
X0352261Y0138596D02*
X0351261Y0138596D01*
X0351261Y0137598D02*
X0352261Y0137598D01*
X0352261Y0136599D02*
X0351261Y0136599D01*
X0351261Y0135601D02*
X0352261Y0135601D01*
X0354257Y0135601D02*
X0392601Y0135601D01*
X0392601Y0136599D02*
X0355503Y0136599D01*
X0356202Y0137598D02*
X0392601Y0137598D01*
X0392601Y0138596D02*
X0356611Y0138596D01*
X0349265Y0135601D02*
X0345353Y0135601D01*
X0346352Y0136599D02*
X0348018Y0136599D01*
X0347319Y0137598D02*
X0346878Y0137598D01*
X0343502Y0134602D02*
X0392601Y0134602D01*
X0392601Y0133603D02*
X0236073Y0133603D01*
X0236435Y0132605D02*
X0392601Y0132605D01*
X0392601Y0131606D02*
X0236435Y0131606D01*
X0236392Y0130608D02*
X0392601Y0130608D01*
X0392601Y0129609D02*
X0235978Y0129609D01*
X0235425Y0128611D02*
X0392601Y0128611D01*
X0392601Y0127612D02*
X0234426Y0127612D01*
X0229937Y0126614D02*
X0392601Y0126614D01*
X0392601Y0125615D02*
X0228938Y0125615D01*
X0227940Y0124617D02*
X0392601Y0124617D01*
X0392601Y0123618D02*
X0227825Y0123618D01*
X0227825Y0122620D02*
X0392601Y0122620D01*
X0392601Y0121621D02*
X0227825Y0121621D01*
X0227825Y0120623D02*
X0392601Y0120623D01*
X0392601Y0119624D02*
X0227825Y0119624D01*
X0227825Y0118626D02*
X0392601Y0118626D01*
X0392601Y0117627D02*
X0342681Y0117627D01*
X0342360Y0117948D02*
X0341077Y0118480D01*
X0339688Y0118480D01*
X0338405Y0117948D01*
X0338046Y0117589D01*
X0333861Y0117589D01*
X0333502Y0117948D01*
X0332219Y0118480D01*
X0330830Y0118480D01*
X0329547Y0117948D01*
X0328565Y0116966D01*
X0328034Y0115683D01*
X0328034Y0114295D01*
X0328565Y0113012D01*
X0329547Y0112030D01*
X0330830Y0111498D01*
X0332219Y0111498D01*
X0333502Y0112030D01*
X0333861Y0112389D01*
X0338046Y0112389D01*
X0338405Y0112030D01*
X0339688Y0111498D01*
X0341077Y0111498D01*
X0342360Y0112030D01*
X0343342Y0113012D01*
X0343873Y0114295D01*
X0343873Y0115683D01*
X0343342Y0116966D01*
X0342360Y0117948D01*
X0343482Y0116629D02*
X0392601Y0116629D01*
X0392601Y0115630D02*
X0343873Y0115630D01*
X0343873Y0114632D02*
X0392601Y0114632D01*
X0392601Y0113633D02*
X0343599Y0113633D01*
X0342965Y0112635D02*
X0392601Y0112635D01*
X0392601Y0111636D02*
X0341410Y0111636D01*
X0339356Y0111636D02*
X0332551Y0111636D01*
X0330497Y0111636D02*
X0227825Y0111636D01*
X0227825Y0110638D02*
X0392601Y0110638D01*
X0392601Y0109639D02*
X0227825Y0109639D01*
X0228371Y0108641D02*
X0392601Y0108641D01*
X0392601Y0107642D02*
X0228716Y0107642D01*
X0228716Y0106644D02*
X0392601Y0106644D01*
X0392601Y0105645D02*
X0228395Y0105645D01*
X0227693Y0104647D02*
X0392601Y0104647D01*
X0392601Y0103648D02*
X0225977Y0103648D01*
X0224474Y0103648D02*
X0112246Y0103648D01*
X0111248Y0102650D02*
X0392601Y0102650D01*
X0392601Y0101651D02*
X0110249Y0101651D01*
X0109251Y0100653D02*
X0392601Y0100653D01*
X0392601Y0099654D02*
X0108252Y0099654D01*
X0107254Y0098656D02*
X0392601Y0098656D01*
X0392601Y0097657D02*
X0106255Y0097657D01*
X0105257Y0096659D02*
X0392601Y0096659D01*
X0392601Y0095660D02*
X0104258Y0095660D01*
X0103260Y0094662D02*
X0392601Y0094662D01*
X0392601Y0093663D02*
X0232332Y0093663D01*
X0231825Y0093873D02*
X0230436Y0093873D01*
X0229153Y0093342D01*
X0228172Y0092360D01*
X0227640Y0091077D01*
X0227640Y0089688D01*
X0228172Y0088405D01*
X0228531Y0088046D01*
X0228531Y0081892D01*
X0228172Y0081533D01*
X0227640Y0080250D01*
X0227640Y0078862D01*
X0228172Y0077579D01*
X0229153Y0076597D01*
X0230436Y0076065D01*
X0231825Y0076065D01*
X0233108Y0076597D01*
X0234090Y0077579D01*
X0234621Y0078862D01*
X0234621Y0080250D01*
X0234090Y0081533D01*
X0233731Y0081892D01*
X0233731Y0088046D01*
X0234090Y0088405D01*
X0234621Y0089688D01*
X0234621Y0091077D01*
X0234090Y0092360D01*
X0233108Y0093342D01*
X0231825Y0093873D01*
X0229929Y0093663D02*
X0102261Y0093663D01*
X0101263Y0092665D02*
X0228476Y0092665D01*
X0227884Y0091666D02*
X0100264Y0091666D01*
X0099266Y0090668D02*
X0227640Y0090668D01*
X0227648Y0089669D02*
X0098267Y0089669D01*
X0097269Y0088670D02*
X0228062Y0088670D01*
X0228531Y0087672D02*
X0096270Y0087672D01*
X0095272Y0086673D02*
X0228531Y0086673D01*
X0228531Y0085675D02*
X0094273Y0085675D01*
X0093275Y0084676D02*
X0168596Y0084676D01*
X0168130Y0084484D02*
X0167148Y0083502D01*
X0166617Y0082219D01*
X0166617Y0080830D01*
X0167148Y0079547D01*
X0167492Y0079203D01*
X0161617Y0079203D01*
X0161258Y0079562D01*
X0159975Y0080094D01*
X0158586Y0080094D01*
X0157303Y0079562D01*
X0156321Y0078580D01*
X0155790Y0077297D01*
X0155790Y0075909D01*
X0155798Y0075888D01*
X0154848Y0076839D01*
X0153892Y0077235D01*
X0147837Y0077235D01*
X0147478Y0077594D01*
X0146195Y0078125D01*
X0144806Y0078125D01*
X0143524Y0077594D01*
X0142542Y0076612D01*
X0142010Y0075329D01*
X0142010Y0073940D01*
X0142542Y0072657D01*
X0143524Y0071675D01*
X0144806Y0071144D01*
X0146195Y0071144D01*
X0147478Y0071675D01*
X0147837Y0072035D01*
X0152298Y0072035D01*
X0154123Y0070209D01*
X0154855Y0069478D01*
X0155810Y0069082D01*
X0180467Y0069082D01*
X0181422Y0069478D01*
X0182105Y0070160D01*
X0182612Y0070160D01*
X0183895Y0070691D01*
X0184877Y0071673D01*
X0185409Y0072956D01*
X0185409Y0074345D01*
X0184877Y0075628D01*
X0183895Y0076610D01*
X0182612Y0077141D01*
X0181472Y0077141D01*
X0181472Y0077297D01*
X0180951Y0078555D01*
X0182208Y0078034D01*
X0183597Y0078034D01*
X0184880Y0078565D01*
X0185862Y0079547D01*
X0186393Y0080830D01*
X0186393Y0082219D01*
X0185862Y0083502D01*
X0184880Y0084484D01*
X0183597Y0085015D01*
X0182208Y0085015D01*
X0180925Y0084484D01*
X0180566Y0084124D01*
X0172443Y0084124D01*
X0172084Y0084484D01*
X0170801Y0085015D01*
X0169413Y0085015D01*
X0168130Y0084484D01*
X0167324Y0083678D02*
X0092276Y0083678D01*
X0091998Y0082679D02*
X0166807Y0082679D01*
X0166617Y0081681D02*
X0091998Y0081681D01*
X0091998Y0080682D02*
X0166678Y0080682D01*
X0167091Y0079684D02*
X0160964Y0079684D01*
X0157597Y0079684D02*
X0091998Y0079684D01*
X0091998Y0078685D02*
X0156426Y0078685D01*
X0155951Y0077687D02*
X0147253Y0077687D01*
X0143748Y0077687D02*
X0091846Y0077687D01*
X0091192Y0076688D02*
X0142618Y0076688D01*
X0142160Y0075690D02*
X0090194Y0075690D01*
X0089195Y0074691D02*
X0142010Y0074691D01*
X0142113Y0073693D02*
X0088197Y0073693D01*
X0087198Y0072694D02*
X0142526Y0072694D01*
X0143503Y0071696D02*
X0086199Y0071696D01*
X0085201Y0070697D02*
X0153635Y0070697D01*
X0154634Y0069699D02*
X0084202Y0069699D01*
X0083204Y0068700D02*
X0392601Y0068700D01*
X0392601Y0067702D02*
X0082205Y0067702D01*
X0081207Y0066703D02*
X0392601Y0066703D01*
X0392601Y0065705D02*
X0080627Y0065705D01*
X0081570Y0064706D02*
X0392601Y0064706D01*
X0392601Y0063708D02*
X0081984Y0063708D01*
X0082062Y0062709D02*
X0392601Y0062709D01*
X0392601Y0061711D02*
X0081889Y0061711D01*
X0081397Y0060712D02*
X0392601Y0060712D01*
X0392601Y0059714D02*
X0080185Y0059714D01*
X0078140Y0058715D02*
X0392601Y0058715D01*
X0392601Y0057717D02*
X0077142Y0057717D01*
X0076250Y0056718D02*
X0392601Y0056718D01*
X0392601Y0055720D02*
X0076250Y0055720D01*
X0076250Y0054721D02*
X0392601Y0054721D01*
X0392601Y0053723D02*
X0076250Y0053723D01*
X0076250Y0052724D02*
X0392601Y0052724D01*
X0392601Y0051726D02*
X0080827Y0051726D01*
X0081653Y0050727D02*
X0392601Y0050727D01*
X0392601Y0049729D02*
X0082062Y0049729D01*
X0082062Y0048730D02*
X0392601Y0048730D01*
X0392601Y0047732D02*
X0081806Y0047732D01*
X0081197Y0046733D02*
X0392601Y0046733D01*
X0392601Y0045734D02*
X0344692Y0045734D01*
X0344328Y0046098D02*
X0343045Y0046629D01*
X0341657Y0046629D01*
X0340374Y0046098D01*
X0340015Y0045739D01*
X0335829Y0045739D01*
X0335470Y0046098D01*
X0334187Y0046629D01*
X0332799Y0046629D01*
X0331516Y0046098D01*
X0330534Y0045116D01*
X0330002Y0043833D01*
X0330002Y0042444D01*
X0330534Y0041161D01*
X0331516Y0040179D01*
X0332799Y0039648D01*
X0334187Y0039648D01*
X0335470Y0040179D01*
X0335829Y0040539D01*
X0340015Y0040539D01*
X0340374Y0040179D01*
X0341657Y0039648D01*
X0343045Y0039648D01*
X0344328Y0040179D01*
X0345310Y0041161D01*
X0345842Y0042444D01*
X0345842Y0043833D01*
X0345310Y0045116D01*
X0344328Y0046098D01*
X0345468Y0044736D02*
X0392601Y0044736D01*
X0392601Y0043737D02*
X0345842Y0043737D01*
X0345842Y0042739D02*
X0392601Y0042739D01*
X0392601Y0041740D02*
X0345550Y0041740D01*
X0344891Y0040742D02*
X0392601Y0040742D01*
X0392601Y0039743D02*
X0343276Y0039743D01*
X0341427Y0039743D02*
X0334418Y0039743D01*
X0332568Y0039743D02*
X0072948Y0039743D01*
X0071949Y0038745D02*
X0392601Y0038745D01*
X0392601Y0035749D02*
X0233304Y0035749D01*
X0233082Y0035862D02*
X0232413Y0036080D01*
X0231851Y0036169D01*
X0231851Y0032206D01*
X0230883Y0032206D01*
X0230883Y0036169D01*
X0230321Y0036080D01*
X0229652Y0035862D01*
X0229025Y0035543D01*
X0228456Y0035130D01*
X0227959Y0034632D01*
X0227545Y0034063D01*
X0227226Y0033437D01*
X0227008Y0032768D01*
X0226919Y0032206D01*
X0230883Y0032206D01*
X0230883Y0031237D01*
X0231851Y0031237D01*
X0231851Y0027274D01*
X0232413Y0027363D01*
X0233082Y0027580D01*
X0233709Y0027899D01*
X0234278Y0028313D01*
X0234775Y0028810D01*
X0235189Y0029379D01*
X0235508Y0030006D01*
X0235725Y0030675D01*
X0235814Y0031237D01*
X0231851Y0031237D01*
X0231851Y0032206D01*
X0235814Y0032206D01*
X0235725Y0032768D01*
X0235508Y0033437D01*
X0235189Y0034063D01*
X0234775Y0034632D01*
X0234278Y0035130D01*
X0233709Y0035543D01*
X0233082Y0035862D01*
X0231851Y0035749D02*
X0230883Y0035749D01*
X0230883Y0034751D02*
X0231851Y0034751D01*
X0231851Y0033752D02*
X0230883Y0033752D01*
X0230883Y0032754D02*
X0231851Y0032754D01*
X0231851Y0031755D02*
X0392601Y0031755D01*
X0392601Y0030757D02*
X0235738Y0030757D01*
X0235382Y0029758D02*
X0392601Y0029758D01*
X0392601Y0028760D02*
X0234725Y0028760D01*
X0233438Y0027761D02*
X0392601Y0027761D01*
X0392601Y0026763D02*
X0223967Y0026763D01*
X0223967Y0025764D02*
X0278453Y0025764D01*
X0277454Y0024766D02*
X0223967Y0024766D01*
X0223967Y0023767D02*
X0276761Y0023767D01*
X0276347Y0022769D02*
X0223967Y0022769D01*
X0223967Y0021770D02*
X0276117Y0021770D01*
X0276117Y0020772D02*
X0223967Y0020772D01*
X0218767Y0026763D02*
X0212641Y0026763D01*
X0214575Y0027761D02*
X0218159Y0027761D01*
X0217160Y0028760D02*
X0215573Y0028760D01*
X0216040Y0029758D02*
X0216694Y0029758D01*
X0221367Y0031721D02*
X0221367Y0008769D01*
X0217351Y0004753D01*
X0178251Y0021770D02*
X0166490Y0021770D01*
X0165611Y0022769D02*
X0178334Y0022769D01*
X0178334Y0023767D02*
X0164612Y0023767D01*
X0163614Y0024766D02*
X0178334Y0024766D01*
X0178159Y0027761D02*
X0174575Y0027761D01*
X0175573Y0028760D02*
X0177160Y0028760D01*
X0176694Y0029758D02*
X0176040Y0029758D01*
X0176012Y0033752D02*
X0176722Y0033752D01*
X0177229Y0034751D02*
X0175505Y0034751D01*
X0174507Y0035749D02*
X0178227Y0035749D01*
X0184507Y0035749D02*
X0188227Y0035749D01*
X0187229Y0034751D02*
X0185505Y0034751D01*
X0186012Y0033752D02*
X0186722Y0033752D01*
X0194507Y0035749D02*
X0198227Y0035749D01*
X0197229Y0034751D02*
X0195505Y0034751D01*
X0196012Y0033752D02*
X0196722Y0033752D01*
X0196694Y0029758D02*
X0196040Y0029758D01*
X0195573Y0028760D02*
X0197160Y0028760D01*
X0198159Y0027761D02*
X0194575Y0027761D01*
X0192641Y0026763D02*
X0200093Y0026763D01*
X0202641Y0026763D02*
X0210093Y0026763D01*
X0208159Y0027761D02*
X0204575Y0027761D01*
X0205573Y0028760D02*
X0207160Y0028760D01*
X0206694Y0029758D02*
X0206040Y0029758D01*
X0206012Y0033752D02*
X0206722Y0033752D01*
X0207229Y0034751D02*
X0205505Y0034751D01*
X0204507Y0035749D02*
X0208227Y0035749D01*
X0214507Y0035749D02*
X0218227Y0035749D01*
X0217229Y0034751D02*
X0215505Y0034751D01*
X0216012Y0033752D02*
X0216722Y0033752D01*
X0224507Y0035749D02*
X0229430Y0035749D01*
X0228077Y0034751D02*
X0225505Y0034751D01*
X0226012Y0033752D02*
X0227387Y0033752D01*
X0227006Y0032754D02*
X0226425Y0032754D01*
X0226435Y0031755D02*
X0230883Y0031755D01*
X0230883Y0031237D02*
X0226919Y0031237D01*
X0227008Y0030675D01*
X0227226Y0030006D01*
X0227545Y0029379D01*
X0227959Y0028810D01*
X0228456Y0028313D01*
X0229025Y0027899D01*
X0229652Y0027580D01*
X0230321Y0027363D01*
X0230883Y0027274D01*
X0230883Y0031237D01*
X0230883Y0030757D02*
X0231851Y0030757D01*
X0231851Y0029758D02*
X0230883Y0029758D01*
X0230883Y0028760D02*
X0231851Y0028760D01*
X0231851Y0027761D02*
X0230883Y0027761D01*
X0229296Y0027761D02*
X0224575Y0027761D01*
X0225573Y0028760D02*
X0228009Y0028760D01*
X0227352Y0029758D02*
X0226040Y0029758D01*
X0226435Y0030757D02*
X0226995Y0030757D01*
X0234657Y0034751D02*
X0392601Y0034751D01*
X0392601Y0033752D02*
X0235347Y0033752D01*
X0235728Y0032754D02*
X0392601Y0032754D01*
X0392601Y0025764D02*
X0353698Y0025764D01*
X0352261Y0025764D02*
X0351261Y0025764D01*
X0351261Y0024766D02*
X0352261Y0024766D01*
X0352261Y0023767D02*
X0351261Y0023767D01*
X0351261Y0022769D02*
X0352261Y0022769D01*
X0352261Y0021770D02*
X0351261Y0021770D01*
X0351261Y0020772D02*
X0352261Y0020772D01*
X0352261Y0019773D02*
X0351261Y0019773D01*
X0351261Y0018775D02*
X0352261Y0018775D01*
X0352261Y0017776D02*
X0377176Y0017776D01*
X0376762Y0016778D02*
X0356804Y0016778D01*
X0356804Y0017048D02*
X0352261Y0017048D01*
X0352261Y0008978D01*
X0352942Y0009086D01*
X0353697Y0009331D01*
X0354404Y0009691D01*
X0355046Y0010158D01*
X0355607Y0010719D01*
X0356074Y0011361D01*
X0356434Y0012069D01*
X0356680Y0012824D01*
X0356804Y0013608D01*
X0356804Y0017048D01*
X0356804Y0015779D02*
X0376349Y0015779D01*
X0376078Y0014781D02*
X0356804Y0014781D01*
X0356804Y0013782D02*
X0376078Y0013782D01*
X0376078Y0012784D02*
X0356667Y0012784D01*
X0356290Y0011785D02*
X0376207Y0011785D01*
X0376621Y0010787D02*
X0355656Y0010787D01*
X0354537Y0009788D02*
X0377034Y0009788D01*
X0377746Y0008790D02*
X0343917Y0008790D01*
X0345525Y0009788D02*
X0348984Y0009788D01*
X0347865Y0010787D02*
X0346523Y0010787D01*
X0346949Y0011785D02*
X0347231Y0011785D01*
X0351261Y0011785D02*
X0352261Y0011785D01*
X0352261Y0010787D02*
X0351261Y0010787D01*
X0351261Y0009788D02*
X0352261Y0009788D01*
X0352261Y0012784D02*
X0351261Y0012784D01*
X0351261Y0013782D02*
X0352261Y0013782D01*
X0352261Y0014781D02*
X0351261Y0014781D01*
X0351261Y0015779D02*
X0352261Y0015779D01*
X0352261Y0016778D02*
X0351261Y0016778D01*
X0356804Y0018775D02*
X0378089Y0018775D01*
X0379087Y0019773D02*
X0356804Y0019773D01*
X0356804Y0020772D02*
X0381087Y0020772D01*
X0386293Y0020772D02*
X0392601Y0020772D01*
X0392601Y0021770D02*
X0356759Y0021770D01*
X0356518Y0022769D02*
X0392601Y0022769D01*
X0392601Y0023767D02*
X0356050Y0023767D01*
X0355219Y0024766D02*
X0392601Y0024766D01*
X0392601Y0019773D02*
X0388292Y0019773D01*
X0389291Y0018775D02*
X0392601Y0018775D01*
X0392601Y0017776D02*
X0390203Y0017776D01*
X0390617Y0016778D02*
X0392601Y0016778D01*
X0392601Y0015779D02*
X0391031Y0015779D01*
X0391302Y0014781D02*
X0392601Y0014781D01*
X0392601Y0013782D02*
X0391302Y0013782D01*
X0391302Y0012784D02*
X0392601Y0012784D01*
X0392601Y0011785D02*
X0391172Y0011785D01*
X0390759Y0010787D02*
X0392601Y0010787D01*
X0392601Y0009788D02*
X0390345Y0009788D01*
X0389633Y0008790D02*
X0392601Y0008790D01*
X0392601Y0007791D02*
X0388635Y0007791D01*
X0387119Y0006793D02*
X0392601Y0006793D01*
X0349823Y0025764D02*
X0345069Y0025764D01*
X0346067Y0024766D02*
X0348303Y0024766D01*
X0347471Y0023767D02*
X0346760Y0023767D01*
X0338453Y0025764D02*
X0335069Y0025764D01*
X0336067Y0024766D02*
X0337454Y0024766D01*
X0328453Y0025764D02*
X0325069Y0025764D01*
X0326067Y0024766D02*
X0327454Y0024766D01*
X0318453Y0025764D02*
X0313698Y0025764D01*
X0312261Y0025764D02*
X0311261Y0025764D01*
X0311261Y0024766D02*
X0312261Y0024766D01*
X0312261Y0023767D02*
X0311261Y0023767D01*
X0311261Y0022769D02*
X0312261Y0022769D01*
X0312261Y0021770D02*
X0311261Y0021770D01*
X0311261Y0020772D02*
X0312261Y0020772D01*
X0312261Y0019773D02*
X0311261Y0019773D01*
X0311261Y0018775D02*
X0312261Y0018775D01*
X0312261Y0016778D02*
X0311261Y0016778D01*
X0311261Y0015779D02*
X0312261Y0015779D01*
X0312261Y0014781D02*
X0311261Y0014781D01*
X0311261Y0013782D02*
X0312261Y0013782D01*
X0312261Y0012784D02*
X0311261Y0012784D01*
X0311261Y0011785D02*
X0312261Y0011785D01*
X0312261Y0010787D02*
X0311261Y0010787D01*
X0311261Y0009788D02*
X0312261Y0009788D01*
X0314537Y0009788D02*
X0317996Y0009788D01*
X0316998Y0010787D02*
X0315656Y0010787D01*
X0316290Y0011785D02*
X0316572Y0011785D01*
X0319604Y0008790D02*
X0303917Y0008790D01*
X0305525Y0009788D02*
X0308984Y0009788D01*
X0307865Y0010787D02*
X0306523Y0010787D01*
X0306949Y0011785D02*
X0307231Y0011785D01*
X0299604Y0008790D02*
X0293917Y0008790D01*
X0295525Y0009788D02*
X0297996Y0009788D01*
X0296998Y0010787D02*
X0296523Y0010787D01*
X0289604Y0008790D02*
X0283917Y0008790D01*
X0285525Y0009788D02*
X0287996Y0009788D01*
X0286998Y0010787D02*
X0286523Y0010787D01*
X0306760Y0023767D02*
X0307471Y0023767D01*
X0308303Y0024766D02*
X0306067Y0024766D01*
X0305069Y0025764D02*
X0309823Y0025764D01*
X0315219Y0024766D02*
X0317454Y0024766D01*
X0316761Y0023767D02*
X0316050Y0023767D01*
X0298453Y0025764D02*
X0295069Y0025764D01*
X0296067Y0024766D02*
X0297454Y0024766D01*
X0288453Y0025764D02*
X0285069Y0025764D01*
X0286067Y0024766D02*
X0287454Y0024766D01*
X0325525Y0009788D02*
X0327996Y0009788D01*
X0326998Y0010787D02*
X0326523Y0010787D01*
X0323917Y0008790D02*
X0329604Y0008790D01*
X0333917Y0008790D02*
X0339604Y0008790D01*
X0337996Y0009788D02*
X0335525Y0009788D01*
X0336523Y0010787D02*
X0336998Y0010787D01*
X0330953Y0040742D02*
X0073946Y0040742D01*
X0074945Y0041740D02*
X0330294Y0041740D01*
X0330002Y0042739D02*
X0075943Y0042739D01*
X0076942Y0043737D02*
X0330002Y0043737D01*
X0330376Y0044736D02*
X0077940Y0044736D01*
X0079703Y0045734D02*
X0331152Y0045734D01*
X0333493Y0043139D02*
X0342351Y0043139D01*
X0392601Y0069699D02*
X0181643Y0069699D01*
X0183901Y0070697D02*
X0392601Y0070697D01*
X0392601Y0071696D02*
X0184887Y0071696D01*
X0185300Y0072694D02*
X0392601Y0072694D01*
X0392601Y0073693D02*
X0185409Y0073693D01*
X0185265Y0074691D02*
X0392601Y0074691D01*
X0392601Y0075690D02*
X0184815Y0075690D01*
X0183705Y0076688D02*
X0229062Y0076688D01*
X0228127Y0077687D02*
X0181310Y0077687D01*
X0177981Y0076603D02*
X0159280Y0076603D01*
X0155790Y0076688D02*
X0154998Y0076688D01*
X0153375Y0074635D02*
X0156328Y0071682D01*
X0179950Y0071682D01*
X0181918Y0073650D01*
X0185000Y0078685D02*
X0227713Y0078685D01*
X0227640Y0079684D02*
X0185918Y0079684D01*
X0186332Y0080682D02*
X0227819Y0080682D01*
X0228319Y0081681D02*
X0186393Y0081681D01*
X0186202Y0082679D02*
X0228531Y0082679D01*
X0228531Y0083678D02*
X0185685Y0083678D01*
X0184414Y0084676D02*
X0228531Y0084676D01*
X0233731Y0084676D02*
X0392601Y0084676D01*
X0392601Y0083678D02*
X0233731Y0083678D01*
X0233731Y0082679D02*
X0392601Y0082679D01*
X0392601Y0081681D02*
X0233942Y0081681D01*
X0234442Y0080682D02*
X0392601Y0080682D01*
X0392601Y0079684D02*
X0234621Y0079684D01*
X0234548Y0078685D02*
X0392601Y0078685D01*
X0392601Y0077687D02*
X0234135Y0077687D01*
X0233200Y0076688D02*
X0392601Y0076688D01*
X0392601Y0085675D02*
X0233731Y0085675D01*
X0233731Y0086673D02*
X0392601Y0086673D01*
X0392601Y0087672D02*
X0233731Y0087672D01*
X0234200Y0088670D02*
X0392601Y0088670D01*
X0392601Y0089669D02*
X0234613Y0089669D01*
X0234621Y0090668D02*
X0392601Y0090668D01*
X0392601Y0091666D02*
X0234377Y0091666D01*
X0233785Y0092665D02*
X0392601Y0092665D01*
X0340383Y0114989D02*
X0331524Y0114989D01*
X0328308Y0113633D02*
X0227825Y0113633D01*
X0227825Y0112635D02*
X0328942Y0112635D01*
X0328034Y0114632D02*
X0227825Y0114632D01*
X0227825Y0115630D02*
X0328034Y0115630D01*
X0328426Y0116629D02*
X0227825Y0116629D01*
X0227825Y0117627D02*
X0329226Y0117627D01*
X0333822Y0117627D02*
X0338085Y0117627D01*
X0340019Y0134602D02*
X0333502Y0134602D01*
X0335353Y0135601D02*
X0338168Y0135601D01*
X0337170Y0136599D02*
X0336352Y0136599D01*
X0330019Y0134602D02*
X0323502Y0134602D01*
X0325353Y0135601D02*
X0328168Y0135601D01*
X0327170Y0136599D02*
X0326352Y0136599D01*
X0320019Y0134602D02*
X0303502Y0134602D01*
X0305353Y0135601D02*
X0309265Y0135601D01*
X0308018Y0136599D02*
X0306352Y0136599D01*
X0306878Y0137598D02*
X0307319Y0137598D01*
X0311261Y0137598D02*
X0312261Y0137598D01*
X0312261Y0138596D02*
X0311261Y0138596D01*
X0311261Y0139595D02*
X0312261Y0139595D01*
X0312261Y0140593D02*
X0311261Y0140593D01*
X0311261Y0141592D02*
X0312261Y0141592D01*
X0312261Y0142590D02*
X0311261Y0142590D01*
X0311261Y0144587D02*
X0312261Y0144587D01*
X0312261Y0145586D02*
X0311261Y0145586D01*
X0311261Y0146584D02*
X0312261Y0146584D01*
X0312261Y0147583D02*
X0311261Y0147583D01*
X0311261Y0148581D02*
X0312261Y0148581D01*
X0312261Y0149580D02*
X0311261Y0149580D01*
X0311261Y0150578D02*
X0312261Y0150578D01*
X0312261Y0151577D02*
X0311261Y0151577D01*
X0309486Y0151577D02*
X0305240Y0151577D01*
X0306239Y0150578D02*
X0308131Y0150578D01*
X0307376Y0149580D02*
X0306832Y0149580D01*
X0303230Y0152575D02*
X0320291Y0152575D01*
X0318281Y0151577D02*
X0314036Y0151577D01*
X0315390Y0150578D02*
X0317282Y0150578D01*
X0316690Y0149580D02*
X0316145Y0149580D01*
X0323230Y0152575D02*
X0330291Y0152575D01*
X0328281Y0151577D02*
X0325240Y0151577D01*
X0326239Y0150578D02*
X0327282Y0150578D01*
X0333230Y0152575D02*
X0340291Y0152575D01*
X0338281Y0151577D02*
X0335240Y0151577D01*
X0336239Y0150578D02*
X0337282Y0150578D01*
X0343230Y0152575D02*
X0378031Y0152575D01*
X0379029Y0153574D02*
X0203311Y0153574D01*
X0204309Y0152575D02*
X0280291Y0152575D01*
X0278281Y0151577D02*
X0205188Y0151577D01*
X0205602Y0150578D02*
X0277282Y0150578D01*
X0276690Y0149580D02*
X0206015Y0149580D01*
X0206262Y0148581D02*
X0276276Y0148581D01*
X0276117Y0147583D02*
X0206262Y0147583D01*
X0206262Y0146584D02*
X0276117Y0146584D01*
X0276117Y0145586D02*
X0206109Y0145586D01*
X0205696Y0144587D02*
X0276117Y0144587D01*
X0276117Y0143589D02*
X0205282Y0143589D01*
X0204536Y0142590D02*
X0276117Y0142590D01*
X0276117Y0141592D02*
X0203537Y0141592D01*
X0201940Y0140593D02*
X0276117Y0140593D01*
X0276117Y0139595D02*
X0187955Y0139595D01*
X0187955Y0140593D02*
X0195360Y0140593D01*
X0193763Y0141592D02*
X0187955Y0141592D01*
X0187955Y0142590D02*
X0192765Y0142590D01*
X0192019Y0143589D02*
X0187955Y0143589D01*
X0187714Y0144587D02*
X0191605Y0144587D01*
X0191192Y0145586D02*
X0187955Y0145586D01*
X0187955Y0146584D02*
X0191039Y0146584D01*
X0191039Y0147583D02*
X0187955Y0147583D01*
X0187955Y0148581D02*
X0191039Y0148581D01*
X0191286Y0149580D02*
X0187955Y0149580D01*
X0187955Y0150578D02*
X0191699Y0150578D01*
X0192113Y0151577D02*
X0187277Y0151577D01*
X0192992Y0152575D02*
X0181450Y0152575D01*
X0174513Y0154572D02*
X0169639Y0154572D01*
X0169627Y0155571D02*
X0174524Y0155571D01*
X0162713Y0155571D02*
X0156832Y0155571D01*
X0156843Y0154572D02*
X0162702Y0154572D01*
X0159772Y0148847D02*
X0157706Y0148847D01*
X0155343Y0146485D01*
X0153859Y0146485D01*
X0153375Y0146969D01*
X0149306Y0146584D02*
X0021223Y0146584D01*
X0021223Y0147583D02*
X0149306Y0147583D01*
X0149306Y0148581D02*
X0021223Y0148581D01*
X0020976Y0149580D02*
X0149595Y0149580D01*
X0150423Y0150578D02*
X0020562Y0150578D01*
X0020149Y0151577D02*
X0150114Y0151577D01*
X0149906Y0152575D02*
X0019270Y0152575D01*
X0021070Y0145586D02*
X0149306Y0145586D01*
X0149501Y0144587D02*
X0020656Y0144587D01*
X0020243Y0143589D02*
X0150195Y0143589D01*
X0155704Y0142590D02*
X0019497Y0142590D01*
X0018498Y0141592D02*
X0155704Y0141592D01*
X0155704Y0140593D02*
X0016901Y0140593D01*
X0004700Y0136599D02*
X0099898Y0136599D01*
X0098078Y0135601D02*
X0093596Y0135601D01*
X0093709Y0135543D02*
X0093082Y0135862D01*
X0092413Y0136080D01*
X0091851Y0136169D01*
X0091851Y0132206D01*
X0090883Y0132206D01*
X0090883Y0136169D01*
X0090321Y0136080D01*
X0089652Y0135862D01*
X0089025Y0135543D01*
X0088456Y0135130D01*
X0087959Y0134632D01*
X0087545Y0134063D01*
X0087226Y0133437D01*
X0087008Y0132768D01*
X0086919Y0132206D01*
X0090883Y0132206D01*
X0090883Y0131237D01*
X0091851Y0131237D01*
X0091851Y0127274D01*
X0092413Y0127363D01*
X0093082Y0127580D01*
X0093709Y0127899D01*
X0094278Y0128313D01*
X0094775Y0128810D01*
X0095189Y0129379D01*
X0095508Y0130006D01*
X0095725Y0130675D01*
X0095814Y0131237D01*
X0091851Y0131237D01*
X0091851Y0132206D01*
X0095814Y0132206D01*
X0095725Y0132768D01*
X0095508Y0133437D01*
X0095189Y0134063D01*
X0094775Y0134632D01*
X0094278Y0135130D01*
X0093709Y0135543D01*
X0094797Y0134602D02*
X0097080Y0134602D01*
X0096660Y0133603D02*
X0095423Y0133603D01*
X0095751Y0132605D02*
X0096298Y0132605D01*
X0096298Y0131606D02*
X0091851Y0131606D01*
X0090883Y0131606D02*
X0004700Y0131606D01*
X0004700Y0130608D02*
X0087030Y0130608D01*
X0087008Y0130675D02*
X0087226Y0130006D01*
X0087545Y0129379D01*
X0087959Y0128810D01*
X0088456Y0128313D01*
X0089025Y0127899D01*
X0089652Y0127580D01*
X0090321Y0127363D01*
X0090883Y0127274D01*
X0090883Y0131237D01*
X0086919Y0131237D01*
X0087008Y0130675D01*
X0087428Y0129609D02*
X0004700Y0129609D01*
X0004700Y0128611D02*
X0088158Y0128611D01*
X0089588Y0127612D02*
X0004700Y0127612D01*
X0004700Y0126614D02*
X0117031Y0126614D01*
X0116033Y0125615D02*
X0004700Y0125615D01*
X0004700Y0124617D02*
X0115034Y0124617D01*
X0114036Y0123618D02*
X0004700Y0123618D01*
X0004700Y0122620D02*
X0113037Y0122620D01*
X0112039Y0121621D02*
X0004700Y0121621D01*
X0004700Y0120623D02*
X0111040Y0120623D01*
X0110042Y0119624D02*
X0022082Y0119624D01*
X0023115Y0118626D02*
X0109043Y0118626D01*
X0108045Y0117627D02*
X0104492Y0117627D01*
X0105293Y0116629D02*
X0107046Y0116629D01*
X0106048Y0115630D02*
X0105684Y0115630D01*
X0102194Y0114989D02*
X0102194Y0114005D01*
X0093335Y0105146D01*
X0090178Y0103648D02*
X0089884Y0103648D01*
X0090896Y0102650D02*
X0088147Y0102650D01*
X0086713Y0102650D02*
X0074542Y0102650D01*
X0072758Y0102650D02*
X0059877Y0102650D01*
X0060015Y0103648D02*
X0084976Y0103648D01*
X0084266Y0104647D02*
X0060015Y0104647D01*
X0060015Y0105645D02*
X0083939Y0105645D01*
X0083939Y0106644D02*
X0060015Y0106644D01*
X0060015Y0107642D02*
X0084278Y0107642D01*
X0085004Y0108641D02*
X0059864Y0108641D01*
X0058865Y0109639D02*
X0087261Y0109639D01*
X0088260Y0110638D02*
X0021563Y0110638D01*
X0022330Y0111636D02*
X0089259Y0111636D01*
X0090257Y0112635D02*
X0023246Y0112635D01*
X0023806Y0113633D02*
X0091256Y0113633D01*
X0092254Y0114632D02*
X0024085Y0114632D01*
X0024057Y0116629D02*
X0093189Y0116629D01*
X0092798Y0115630D02*
X0016080Y0115630D01*
X0016080Y0116629D02*
X0015080Y0116629D01*
X0015080Y0117627D02*
X0016080Y0117627D01*
X0016080Y0118626D02*
X0015080Y0118626D01*
X0015080Y0119624D02*
X0016080Y0119624D01*
X0023720Y0117627D02*
X0093990Y0117627D01*
X0098586Y0117627D02*
X0099896Y0117627D01*
X0096288Y0114989D02*
X0087430Y0106131D01*
X0092069Y0101651D02*
X0076177Y0101651D01*
X0076844Y0100653D02*
X0091070Y0100653D01*
X0090072Y0099654D02*
X0077141Y0099654D01*
X0077141Y0098656D02*
X0089073Y0098656D01*
X0088075Y0097657D02*
X0076772Y0097657D01*
X0076004Y0096659D02*
X0087076Y0096659D01*
X0086078Y0095660D02*
X0042898Y0095660D01*
X0039202Y0092253D02*
X0045698Y0090776D01*
X0045698Y0091170D01*
X0050554Y0091666D02*
X0082084Y0091666D01*
X0083082Y0092665D02*
X0050554Y0092665D01*
X0050554Y0093663D02*
X0084081Y0093663D01*
X0085079Y0094662D02*
X0049900Y0094662D01*
X0050028Y0094320D02*
X0048060Y0096288D01*
X0050028Y0094320D02*
X0050028Y0086446D01*
X0047272Y0083690D01*
X0045698Y0083690D01*
X0046182Y0083678D02*
X0050417Y0083678D01*
X0050733Y0083361D02*
X0057985Y0083361D01*
X0059215Y0084592D01*
X0059215Y0084830D01*
X0081877Y0084830D01*
X0081877Y0082601D01*
X0081608Y0082332D01*
X0081531Y0082517D01*
X0080549Y0083499D01*
X0079266Y0084031D01*
X0077877Y0084031D01*
X0076594Y0083499D01*
X0076235Y0083140D01*
X0049954Y0083140D01*
X0049954Y0083205D01*
X0046182Y0083205D01*
X0046182Y0084174D01*
X0049921Y0084174D01*
X0050733Y0083361D01*
X0058301Y0083678D02*
X0077026Y0083678D01*
X0080118Y0083678D02*
X0081877Y0083678D01*
X0081877Y0084676D02*
X0059215Y0084676D01*
X0054359Y0087430D02*
X0081524Y0087430D01*
X0120894Y0126800D01*
X0120894Y0131249D01*
X0121367Y0131721D01*
X0126073Y0133603D02*
X0126660Y0133603D01*
X0127080Y0134602D02*
X0125654Y0134602D01*
X0124656Y0135601D02*
X0128078Y0135601D01*
X0129898Y0136599D02*
X0122836Y0136599D01*
X0119898Y0136599D02*
X0112836Y0136599D01*
X0114656Y0135601D02*
X0118078Y0135601D01*
X0117080Y0134602D02*
X0115654Y0134602D01*
X0116073Y0133603D02*
X0116660Y0133603D01*
X0116756Y0129609D02*
X0115978Y0129609D01*
X0115425Y0128611D02*
X0117309Y0128611D01*
X0118030Y0127612D02*
X0114426Y0127612D01*
X0108308Y0127612D02*
X0104426Y0127612D01*
X0105425Y0128611D02*
X0107309Y0128611D01*
X0106756Y0129609D02*
X0105978Y0129609D01*
X0106073Y0133603D02*
X0106660Y0133603D01*
X0107080Y0134602D02*
X0105654Y0134602D01*
X0104656Y0135601D02*
X0108078Y0135601D01*
X0109898Y0136599D02*
X0102836Y0136599D01*
X0091851Y0135601D02*
X0090883Y0135601D01*
X0090883Y0134602D02*
X0091851Y0134602D01*
X0091851Y0133603D02*
X0090883Y0133603D01*
X0090883Y0132605D02*
X0091851Y0132605D01*
X0091851Y0130608D02*
X0090883Y0130608D01*
X0090883Y0129609D02*
X0091851Y0129609D01*
X0091851Y0128611D02*
X0090883Y0128611D01*
X0090883Y0127612D02*
X0091851Y0127612D01*
X0093146Y0127612D02*
X0098308Y0127612D01*
X0097309Y0128611D02*
X0094576Y0128611D01*
X0095306Y0129609D02*
X0096756Y0129609D01*
X0096342Y0130608D02*
X0095704Y0130608D01*
X0087937Y0134602D02*
X0004700Y0134602D01*
X0004700Y0133603D02*
X0087311Y0133603D01*
X0086983Y0132605D02*
X0004700Y0132605D01*
X0004700Y0135601D02*
X0089138Y0135601D01*
X0122863Y0124831D02*
X0124477Y0124831D01*
X0131367Y0131721D01*
X0136073Y0133603D02*
X0136660Y0133603D01*
X0137080Y0134602D02*
X0135654Y0134602D01*
X0134656Y0135601D02*
X0138078Y0135601D01*
X0139898Y0136599D02*
X0132836Y0136599D01*
X0146446Y0126800D02*
X0151367Y0131721D01*
X0156073Y0133603D02*
X0156660Y0133603D01*
X0157080Y0134602D02*
X0155654Y0134602D01*
X0154656Y0135601D02*
X0158078Y0135601D01*
X0161367Y0131721D02*
X0161367Y0140560D01*
X0159772Y0142154D01*
X0166170Y0146969D02*
X0166654Y0146485D01*
X0168139Y0146485D01*
X0170501Y0148847D01*
X0172076Y0148847D01*
X0177981Y0146969D02*
X0178875Y0147863D01*
X0183887Y0147863D01*
X0172076Y0142154D02*
X0171367Y0141446D01*
X0171367Y0131721D01*
X0175978Y0129609D02*
X0176756Y0129609D01*
X0177309Y0128611D02*
X0175425Y0128611D01*
X0174426Y0127612D02*
X0178308Y0127612D01*
X0181367Y0131721D02*
X0181367Y0138650D01*
X0183887Y0141170D01*
X0187955Y0138596D02*
X0276229Y0138596D01*
X0276643Y0137598D02*
X0187418Y0137598D01*
X0188078Y0135601D02*
X0184656Y0135601D01*
X0183967Y0136599D02*
X0189898Y0136599D01*
X0192836Y0136599D02*
X0199898Y0136599D01*
X0198078Y0135601D02*
X0194656Y0135601D01*
X0195654Y0134602D02*
X0197080Y0134602D01*
X0196660Y0133603D02*
X0196073Y0133603D01*
X0195978Y0129609D02*
X0196756Y0129609D01*
X0197309Y0128611D02*
X0195425Y0128611D01*
X0194426Y0127612D02*
X0198308Y0127612D01*
X0204426Y0127612D02*
X0208308Y0127612D01*
X0207309Y0128611D02*
X0205425Y0128611D01*
X0205978Y0129609D02*
X0206756Y0129609D01*
X0214426Y0127612D02*
X0218308Y0127612D01*
X0217309Y0128611D02*
X0215425Y0128611D01*
X0215978Y0129609D02*
X0216756Y0129609D01*
X0216660Y0133603D02*
X0216073Y0133603D01*
X0215654Y0134602D02*
X0217080Y0134602D01*
X0218078Y0135601D02*
X0214656Y0135601D01*
X0212836Y0136599D02*
X0219898Y0136599D01*
X0222836Y0136599D02*
X0229898Y0136599D01*
X0228078Y0135601D02*
X0224656Y0135601D01*
X0225654Y0134602D02*
X0227080Y0134602D01*
X0226660Y0133603D02*
X0226073Y0133603D01*
X0231367Y0131721D02*
X0225225Y0125580D01*
X0225225Y0107115D01*
X0222056Y0105645D02*
X0114243Y0105645D01*
X0113245Y0104647D02*
X0222757Y0104647D01*
X0221735Y0106644D02*
X0115242Y0106644D01*
X0116240Y0107642D02*
X0221735Y0107642D01*
X0222079Y0108641D02*
X0117239Y0108641D01*
X0118237Y0109639D02*
X0222625Y0109639D01*
X0222625Y0110638D02*
X0119236Y0110638D01*
X0120234Y0111636D02*
X0222625Y0111636D01*
X0222625Y0112635D02*
X0121233Y0112635D01*
X0122231Y0113633D02*
X0222625Y0113633D01*
X0222625Y0114632D02*
X0123230Y0114632D01*
X0124228Y0115630D02*
X0222625Y0115630D01*
X0222625Y0116629D02*
X0127064Y0116629D01*
X0128194Y0117627D02*
X0222625Y0117627D01*
X0222625Y0118626D02*
X0129193Y0118626D01*
X0130191Y0119624D02*
X0222625Y0119624D01*
X0222625Y0120623D02*
X0131190Y0120623D01*
X0139047Y0121621D02*
X0222625Y0121621D01*
X0222625Y0122620D02*
X0140076Y0122620D01*
X0141075Y0123618D02*
X0222625Y0123618D01*
X0222625Y0124617D02*
X0147939Y0124617D01*
X0148938Y0125615D02*
X0222625Y0125615D01*
X0222839Y0126614D02*
X0149937Y0126614D01*
X0146446Y0126800D02*
X0140580Y0126800D01*
X0137627Y0123847D01*
X0130737Y0123847D01*
X0125816Y0118926D01*
X0123847Y0118926D01*
X0089398Y0084477D01*
X0089398Y0078572D01*
X0056918Y0046091D01*
X0054359Y0046091D01*
X0055934Y0046091D01*
X0050028Y0043631D02*
X0049536Y0043139D01*
X0046485Y0043139D01*
X0045698Y0042351D01*
X0050028Y0043631D02*
X0050028Y0055934D01*
X0049954Y0055646D02*
X0046182Y0055646D01*
X0046182Y0056615D01*
X0049921Y0056615D01*
X0050733Y0055802D01*
X0057985Y0055802D01*
X0059215Y0057033D01*
X0059215Y0057271D01*
X0064421Y0057271D01*
X0057310Y0050160D01*
X0050733Y0050160D01*
X0050554Y0049980D01*
X0050554Y0052670D01*
X0049774Y0053449D01*
X0049851Y0053583D01*
X0049954Y0053965D01*
X0049954Y0055646D01*
X0049954Y0054721D02*
X0061871Y0054721D01*
X0060872Y0053723D02*
X0049889Y0053723D01*
X0050499Y0052724D02*
X0059874Y0052724D01*
X0058875Y0051726D02*
X0050554Y0051726D01*
X0050554Y0050727D02*
X0057877Y0050727D01*
X0062869Y0055720D02*
X0046182Y0055720D01*
X0054359Y0059871D02*
X0066761Y0059871D01*
X0063868Y0056718D02*
X0058901Y0056718D01*
X0045698Y0063217D02*
X0045698Y0063611D01*
X0045698Y0063217D02*
X0039202Y0063217D01*
X0049942Y0067702D02*
X0070915Y0067702D01*
X0071913Y0068700D02*
X0049954Y0068700D01*
X0050028Y0069713D02*
X0049831Y0069910D01*
X0045698Y0069910D01*
X0046182Y0069699D02*
X0050616Y0069699D01*
X0054359Y0073650D02*
X0076603Y0073650D01*
X0084477Y0081524D01*
X0084477Y0086446D01*
X0122863Y0124831D01*
X0154426Y0127612D02*
X0158308Y0127612D01*
X0157309Y0128611D02*
X0155425Y0128611D01*
X0155978Y0129609D02*
X0156756Y0129609D01*
X0164426Y0127612D02*
X0168308Y0127612D01*
X0167309Y0128611D02*
X0165425Y0128611D01*
X0165978Y0129609D02*
X0166756Y0129609D01*
X0184426Y0127612D02*
X0188308Y0127612D01*
X0187309Y0128611D02*
X0185425Y0128611D01*
X0185978Y0129609D02*
X0186756Y0129609D01*
X0186660Y0133603D02*
X0186073Y0133603D01*
X0185654Y0134602D02*
X0187080Y0134602D01*
X0202836Y0136599D02*
X0209898Y0136599D01*
X0208078Y0135601D02*
X0204656Y0135601D01*
X0205654Y0134602D02*
X0207080Y0134602D01*
X0206660Y0133603D02*
X0206073Y0133603D01*
X0232836Y0136599D02*
X0277170Y0136599D01*
X0278168Y0135601D02*
X0234656Y0135601D01*
X0235654Y0134602D02*
X0280019Y0134602D01*
X0283502Y0134602D02*
X0290019Y0134602D01*
X0288168Y0135601D02*
X0285353Y0135601D01*
X0286352Y0136599D02*
X0287170Y0136599D01*
X0293502Y0134602D02*
X0300019Y0134602D01*
X0298168Y0135601D02*
X0295353Y0135601D01*
X0296352Y0136599D02*
X0297170Y0136599D01*
X0311261Y0136599D02*
X0312261Y0136599D01*
X0312261Y0135601D02*
X0311261Y0135601D01*
X0314257Y0135601D02*
X0318168Y0135601D01*
X0317170Y0136599D02*
X0315503Y0136599D01*
X0316202Y0137598D02*
X0316643Y0137598D01*
X0297282Y0150578D02*
X0296239Y0150578D01*
X0295240Y0151577D02*
X0298281Y0151577D01*
X0300291Y0152575D02*
X0293230Y0152575D01*
X0290291Y0152575D02*
X0283230Y0152575D01*
X0285240Y0151577D02*
X0288281Y0151577D01*
X0287282Y0150578D02*
X0286239Y0150578D01*
X0345240Y0151577D02*
X0349486Y0151577D01*
X0348131Y0150578D02*
X0346239Y0150578D01*
X0346832Y0149580D02*
X0347376Y0149580D01*
X0380947Y0154572D02*
X0201393Y0154572D01*
X0073650Y0099241D02*
X0030835Y0099241D01*
X0025914Y0094812D01*
X0025914Y0087430D01*
X0028375Y0084477D01*
X0028859Y0084477D01*
X0030146Y0083977D01*
X0026078Y0082679D02*
X0024046Y0082679D01*
X0024460Y0083678D02*
X0025656Y0083678D01*
X0024824Y0084676D02*
X0024766Y0084676D01*
X0026237Y0081681D02*
X0023244Y0081681D01*
X0022142Y0080682D02*
X0026360Y0080682D01*
X0026078Y0079684D02*
X0022960Y0079684D01*
X0023928Y0078685D02*
X0026078Y0078685D01*
X0026078Y0077687D02*
X0024342Y0077687D01*
X0024755Y0076688D02*
X0026078Y0076688D01*
X0026279Y0075690D02*
X0024766Y0075690D01*
X0024766Y0074691D02*
X0026982Y0074691D01*
X0027009Y0073693D02*
X0024466Y0073693D01*
X0024052Y0072694D02*
X0026678Y0072694D01*
X0026678Y0071696D02*
X0023259Y0071696D01*
X0022178Y0070697D02*
X0026678Y0070697D01*
X0026678Y0069699D02*
X0021979Y0069699D01*
X0023061Y0068700D02*
X0026992Y0068700D01*
X0034280Y0069713D02*
X0038611Y0069812D01*
X0039202Y0070304D01*
X0039202Y0076997D02*
X0045698Y0076997D01*
X0045698Y0077391D01*
X0032312Y0080540D02*
X0030146Y0078087D01*
X0032312Y0080540D02*
X0078572Y0080540D01*
X0081369Y0082679D02*
X0081877Y0082679D01*
X0081085Y0090668D02*
X0058816Y0090668D01*
X0039202Y0085560D02*
X0034792Y0085540D01*
X0034280Y0086052D01*
X0034280Y0091367D01*
X0030631Y0091666D02*
X0029662Y0091666D01*
X0029359Y0092351D02*
X0030146Y0090883D01*
X0029359Y0092351D02*
X0033296Y0096288D01*
X0033113Y0094662D02*
X0029634Y0094662D01*
X0029662Y0093663D02*
X0030631Y0093663D01*
X0030631Y0092665D02*
X0029662Y0092665D01*
X0030743Y0095660D02*
X0035505Y0095660D01*
X0006799Y0107642D02*
X0004700Y0107642D01*
X0004700Y0106644D02*
X0005939Y0106644D01*
X0004940Y0105645D02*
X0004700Y0105645D01*
X0004700Y0108641D02*
X0007212Y0108641D01*
X0008154Y0109639D02*
X0004700Y0109639D01*
X0004700Y0110638D02*
X0009596Y0110638D01*
X0008829Y0111636D02*
X0004700Y0111636D01*
X0004700Y0112635D02*
X0007913Y0112635D01*
X0007353Y0113633D02*
X0004700Y0113633D01*
X0004700Y0114632D02*
X0007074Y0114632D01*
X0007102Y0116629D02*
X0004700Y0116629D01*
X0004700Y0117627D02*
X0007439Y0117627D01*
X0008044Y0118626D02*
X0004700Y0118626D01*
X0004700Y0119624D02*
X0009077Y0119624D01*
X0004700Y0115630D02*
X0015079Y0115630D01*
X0023005Y0109639D02*
X0053002Y0109639D01*
X0145501Y0074635D02*
X0153375Y0074635D01*
X0152637Y0071696D02*
X0147498Y0071696D01*
X0170107Y0081524D02*
X0182902Y0081524D01*
X0181391Y0084676D02*
X0171619Y0084676D01*
X0231131Y0079556D02*
X0231131Y0090383D01*
X0128227Y0035749D02*
X0123304Y0035749D01*
X0121851Y0035749D02*
X0120883Y0035749D01*
X0120883Y0034751D02*
X0121851Y0034751D01*
X0121851Y0033752D02*
X0120883Y0033752D01*
X0120883Y0032754D02*
X0121851Y0032754D01*
X0121851Y0030757D02*
X0120883Y0030757D01*
X0120883Y0029758D02*
X0121851Y0029758D01*
X0121851Y0028760D02*
X0120883Y0028760D01*
X0120883Y0027761D02*
X0121851Y0027761D01*
X0125728Y0032754D02*
X0126309Y0032754D01*
X0126722Y0033752D02*
X0125347Y0033752D01*
X0124657Y0034751D02*
X0127229Y0034751D01*
X0119430Y0035749D02*
X0114507Y0035749D01*
X0115505Y0034751D02*
X0118077Y0034751D01*
X0117387Y0033752D02*
X0116012Y0033752D01*
X0116425Y0032754D02*
X0117006Y0032754D01*
X0108227Y0035749D02*
X0104507Y0035749D01*
X0105505Y0034751D02*
X0107229Y0034751D01*
X0106722Y0033752D02*
X0106012Y0033752D01*
X0106040Y0029758D02*
X0106694Y0029758D01*
X0107160Y0028760D02*
X0105573Y0028760D01*
X0104575Y0027761D02*
X0108159Y0027761D01*
X0110093Y0026763D02*
X0102641Y0026763D01*
X0100093Y0026763D02*
X0092641Y0026763D01*
X0094575Y0027761D02*
X0098159Y0027761D01*
X0097160Y0028760D02*
X0095573Y0028760D01*
X0096040Y0029758D02*
X0096694Y0029758D01*
X0096722Y0033752D02*
X0096012Y0033752D01*
X0095505Y0034751D02*
X0097229Y0034751D01*
X0098227Y0035749D02*
X0094507Y0035749D01*
X0088227Y0035749D02*
X0052222Y0035749D01*
X0051997Y0039202D02*
X0045107Y0032312D01*
X0036249Y0032312D01*
X0033296Y0035265D01*
X0036741Y0037725D02*
X0039103Y0039300D01*
X0039202Y0042745D01*
X0045107Y0035265D02*
X0051013Y0041170D01*
X0062824Y0041170D01*
X0073650Y0051997D01*
X0073650Y0057902D01*
X0078572Y0062824D01*
X0072912Y0069699D02*
X0058102Y0069699D01*
X0059100Y0070697D02*
X0073910Y0070697D01*
X0076250Y0051726D02*
X0076317Y0051726D01*
X0078572Y0049044D02*
X0068729Y0039202D01*
X0051997Y0039202D01*
X0045107Y0035265D02*
X0042154Y0035265D01*
X0043198Y0027761D02*
X0021426Y0027761D01*
X0020427Y0028760D02*
X0025022Y0028760D01*
X0024262Y0029758D02*
X0019429Y0029758D01*
X0018430Y0030757D02*
X0023900Y0030757D01*
X0023900Y0031755D02*
X0017432Y0031755D01*
X0016433Y0032754D02*
X0023951Y0032754D01*
X0023522Y0033752D02*
X0015435Y0033752D01*
X0014436Y0034751D02*
X0023314Y0034751D01*
X0023314Y0035749D02*
X0013438Y0035749D01*
X0012439Y0036748D02*
X0023314Y0036748D01*
X0023314Y0037746D02*
X0011441Y0037746D01*
X0010442Y0038745D02*
X0023314Y0038745D01*
X0023314Y0039743D02*
X0009443Y0039743D01*
X0022286Y0040742D02*
X0023314Y0040742D01*
X0023304Y0041740D02*
X0023314Y0041740D01*
X0025914Y0034772D02*
X0025914Y0049536D01*
X0039202Y0049438D02*
X0045698Y0049438D01*
X0045698Y0049831D01*
X0025914Y0034772D02*
X0027391Y0031328D01*
X0019717Y0019773D02*
X0018214Y0019773D01*
X0017950Y0020772D02*
X0016214Y0020772D01*
X0073583Y0007791D02*
X0074583Y0007791D01*
X0074583Y0006793D02*
X0073583Y0006793D01*
X0086612Y0005794D02*
X0091555Y0005794D01*
X0090165Y0006793D02*
X0088002Y0006793D01*
X0088923Y0007791D02*
X0089244Y0007791D01*
X0096612Y0005794D02*
X0101555Y0005794D01*
X0100165Y0006793D02*
X0098002Y0006793D01*
X0098923Y0007791D02*
X0099244Y0007791D01*
X0113583Y0007791D02*
X0114583Y0007791D01*
X0114583Y0006793D02*
X0113583Y0006793D01*
X0117072Y0006793D02*
X0120165Y0006793D01*
X0119244Y0007791D02*
X0118091Y0007791D01*
X0118691Y0008790D02*
X0118831Y0008790D01*
X0099147Y0020772D02*
X0099020Y0020772D01*
X0098236Y0021770D02*
X0099931Y0021770D01*
X0100990Y0022769D02*
X0097177Y0022769D01*
X0090990Y0022769D02*
X0087177Y0022769D01*
X0088236Y0021770D02*
X0089931Y0021770D01*
X0089147Y0020772D02*
X0089020Y0020772D01*
D18*
X0144083Y0014398D02*
X0146643Y0016957D01*
X0155343Y0016957D01*
X0155737Y0016564D01*
X0158296Y0016564D01*
X0160265Y0014595D01*
X0160265Y0011643D01*
X0161643Y0010265D01*
X0163217Y0010265D01*
X0164202Y0010265D01*
X0164300Y0010166D01*
D19*
X0015580Y0095540D02*
X0015580Y0105540D01*
D20*
X0055835Y0105540D01*
X0055934Y0105639D01*
X0015580Y0105540D02*
X0015186Y0105146D01*
X0009674Y0105146D01*
X0005737Y0101209D01*
X0005737Y0038217D01*
X0020501Y0023454D01*
X0044123Y0023454D01*
X0052391Y0031721D01*
X0091367Y0031721D01*
D21*
X0055934Y0105639D03*
D22*
X0244910Y0154359D03*
X0249831Y0061839D03*
X0260658Y0016564D03*
M02*
