G75*
%MOIN*%
%OFA0B0*%
%FSLAX25Y25*%
%IPPOS*%
%LPD*%
%AMOC8*
5,1,8,0,0,1.08239X$1,22.5*
%
%ADD10C,0.07087*%
%ADD11C,0.07600*%
%ADD12C,0.01181*%
%ADD13R,0.03937X0.04331*%
%ADD14R,0.05512X0.03937*%
%ADD15R,0.04252X0.04134*%
%ADD16C,0.02781*%
%ADD17C,0.01000*%
%ADD18C,0.01600*%
%ADD19C,0.03200*%
%ADD20C,0.04000*%
%ADD21C,0.03569*%
D10*
X0074083Y0010855D02*
X0074083Y0017942D01*
X0084083Y0017942D02*
X0084083Y0010855D01*
X0094083Y0010855D02*
X0094083Y0017942D01*
X0104083Y0017942D02*
X0104083Y0010855D01*
X0114083Y0010855D02*
X0114083Y0017942D01*
X0124083Y0017942D02*
X0124083Y0010855D01*
X0134083Y0010855D02*
X0134083Y0017942D01*
X0144083Y0017942D02*
X0144083Y0010855D01*
X0019123Y0045540D02*
X0012036Y0045540D01*
X0012036Y0055540D02*
X0019123Y0055540D01*
X0019123Y0065540D02*
X0012036Y0065540D01*
X0012036Y0075540D02*
X0019123Y0075540D01*
X0019123Y0085540D02*
X0012036Y0085540D01*
X0012036Y0095540D02*
X0019123Y0095540D01*
X0019123Y0105540D02*
X0012036Y0105540D01*
X0012036Y0115540D02*
X0019123Y0115540D01*
X0281761Y0139989D02*
X0281761Y0147076D01*
X0291761Y0147076D02*
X0291761Y0139989D01*
X0301761Y0139989D02*
X0301761Y0147076D01*
X0311761Y0147076D02*
X0311761Y0139989D01*
X0321761Y0139989D02*
X0321761Y0147076D01*
X0331761Y0147076D02*
X0331761Y0139989D01*
X0341761Y0139989D02*
X0341761Y0147076D01*
X0351761Y0147076D02*
X0351761Y0139989D01*
X0351761Y0021091D02*
X0351761Y0014005D01*
X0341761Y0014005D02*
X0341761Y0021091D01*
X0331761Y0021091D02*
X0331761Y0014005D01*
X0321761Y0014005D02*
X0321761Y0021091D01*
X0311761Y0021091D02*
X0311761Y0014005D01*
X0301761Y0014005D02*
X0301761Y0021091D01*
X0291761Y0021091D02*
X0291761Y0014005D01*
X0281761Y0014005D02*
X0281761Y0021091D01*
D11*
X0233965Y0033690D03*
X0223965Y0033690D03*
X0213965Y0033690D03*
X0203965Y0033690D03*
X0193965Y0033690D03*
X0183965Y0033690D03*
X0173965Y0033690D03*
X0163965Y0033690D03*
X0153965Y0033690D03*
X0143965Y0033690D03*
X0133965Y0033690D03*
X0123965Y0033690D03*
X0113965Y0033690D03*
X0103965Y0033690D03*
X0093965Y0033690D03*
X0083965Y0033690D03*
X0073965Y0033690D03*
X0063965Y0033690D03*
X0053965Y0033690D03*
X0053965Y0133690D03*
X0063965Y0133690D03*
X0073965Y0133690D03*
X0083965Y0133690D03*
X0093965Y0133690D03*
X0103965Y0133690D03*
X0113965Y0133690D03*
X0123965Y0133690D03*
X0133965Y0133690D03*
X0143965Y0133690D03*
X0153965Y0133690D03*
X0163965Y0133690D03*
X0173965Y0133690D03*
X0183965Y0133690D03*
X0193965Y0133690D03*
X0203965Y0133690D03*
X0213965Y0133690D03*
X0223965Y0133690D03*
X0233965Y0133690D03*
D12*
X0171485Y0145591D02*
X0168729Y0145591D01*
X0168729Y0148347D01*
X0171485Y0148347D01*
X0171485Y0145591D01*
X0171485Y0146771D02*
X0168729Y0146771D01*
X0168729Y0147951D02*
X0171485Y0147951D01*
X0171485Y0152497D02*
X0168729Y0152497D01*
X0168729Y0155253D01*
X0171485Y0155253D01*
X0171485Y0152497D01*
X0171485Y0153677D02*
X0168729Y0153677D01*
X0168729Y0154857D02*
X0171485Y0154857D01*
X0159674Y0152497D02*
X0156918Y0152497D01*
X0156918Y0155253D01*
X0159674Y0155253D01*
X0159674Y0152497D01*
X0159674Y0153677D02*
X0156918Y0153677D01*
X0156918Y0154857D02*
X0159674Y0154857D01*
X0146879Y0152497D02*
X0144123Y0152497D01*
X0144123Y0155253D01*
X0146879Y0155253D01*
X0146879Y0152497D01*
X0146879Y0153677D02*
X0144123Y0153677D01*
X0144123Y0154857D02*
X0146879Y0154857D01*
X0146879Y0145591D02*
X0144123Y0145591D01*
X0144123Y0148347D01*
X0146879Y0148347D01*
X0146879Y0145591D01*
X0146879Y0146771D02*
X0144123Y0146771D01*
X0144123Y0147951D02*
X0146879Y0147951D01*
X0156918Y0145591D02*
X0159674Y0145591D01*
X0156918Y0145591D02*
X0156918Y0148347D01*
X0159674Y0148347D01*
X0159674Y0145591D01*
X0159674Y0146771D02*
X0156918Y0146771D01*
X0156918Y0147951D02*
X0159674Y0147951D01*
X0031524Y0089505D02*
X0028768Y0089505D01*
X0028768Y0092261D01*
X0031524Y0092261D01*
X0031524Y0089505D01*
X0031524Y0090685D02*
X0028768Y0090685D01*
X0028768Y0091865D02*
X0031524Y0091865D01*
X0031524Y0082599D02*
X0028768Y0082599D01*
X0028768Y0085355D01*
X0031524Y0085355D01*
X0031524Y0082599D01*
X0031524Y0083779D02*
X0028768Y0083779D01*
X0028768Y0084959D02*
X0031524Y0084959D01*
X0031524Y0079465D02*
X0028768Y0079465D01*
X0031524Y0079465D02*
X0031524Y0076709D01*
X0028768Y0076709D01*
X0028768Y0079465D01*
X0028768Y0077889D02*
X0031524Y0077889D01*
X0031524Y0079069D02*
X0028768Y0079069D01*
X0028768Y0072560D02*
X0031524Y0072560D01*
X0031524Y0069804D01*
X0028768Y0069804D01*
X0028768Y0072560D01*
X0028768Y0070984D02*
X0031524Y0070984D01*
X0031524Y0072164D02*
X0028768Y0072164D01*
X0028768Y0058009D02*
X0031524Y0058009D01*
X0028768Y0058009D02*
X0028768Y0060765D01*
X0031524Y0060765D01*
X0031524Y0058009D01*
X0031524Y0059189D02*
X0028768Y0059189D01*
X0028768Y0060369D02*
X0031524Y0060369D01*
X0031524Y0051103D02*
X0028768Y0051103D01*
X0028768Y0053859D01*
X0031524Y0053859D01*
X0031524Y0051103D01*
X0031524Y0052283D02*
X0028768Y0052283D01*
X0028768Y0053463D02*
X0031524Y0053463D01*
X0031524Y0048461D02*
X0028768Y0048461D01*
X0031524Y0048461D02*
X0031524Y0045705D01*
X0028768Y0045705D01*
X0028768Y0048461D01*
X0028768Y0046885D02*
X0031524Y0046885D01*
X0031524Y0048065D02*
X0028768Y0048065D01*
X0028768Y0041556D02*
X0031524Y0041556D01*
X0031524Y0038800D01*
X0028768Y0038800D01*
X0028768Y0041556D01*
X0028768Y0039980D02*
X0031524Y0039980D01*
X0031524Y0041160D02*
X0028768Y0041160D01*
D13*
X0039202Y0042745D03*
X0039202Y0049438D03*
X0039202Y0056524D03*
X0039202Y0063217D03*
X0039202Y0070304D03*
X0039202Y0076997D03*
X0039202Y0085560D03*
X0039202Y0092253D03*
X0151898Y0142154D03*
X0164202Y0142154D03*
X0176013Y0142154D03*
X0176013Y0148847D03*
X0164202Y0148847D03*
X0151898Y0148847D03*
X0155343Y0016957D03*
X0164202Y0016957D03*
X0164202Y0010265D03*
X0155343Y0010265D03*
D14*
X0054359Y0046091D03*
X0045698Y0042351D03*
X0045698Y0049831D03*
X0045698Y0056131D03*
X0054359Y0059871D03*
X0045698Y0063611D03*
X0045698Y0069910D03*
X0054359Y0073650D03*
X0045698Y0077391D03*
X0045698Y0083690D03*
X0054359Y0087430D03*
X0045698Y0091170D03*
D15*
X0172076Y0017056D03*
X0172076Y0010166D03*
D16*
X0181918Y0015087D03*
X0223965Y0040461D03*
X0181918Y0073650D03*
X0177981Y0076603D03*
X0182902Y0081524D03*
X0186839Y0079064D03*
X0193729Y0087430D03*
X0170107Y0081524D03*
X0163217Y0079556D03*
X0159280Y0076603D03*
X0145501Y0074635D03*
X0078572Y0080540D03*
X0078572Y0062824D03*
X0078572Y0049044D03*
X0042154Y0035265D03*
X0036741Y0037725D03*
X0030146Y0035265D03*
X0027391Y0031328D03*
X0025914Y0055934D03*
X0030146Y0064792D03*
X0034280Y0069713D03*
X0034280Y0091367D03*
X0033296Y0096288D03*
X0048060Y0096288D03*
X0073650Y0099241D03*
X0260658Y0121879D03*
X0286249Y0113020D03*
X0275422Y0109083D03*
X0285265Y0107115D03*
X0273454Y0096288D03*
X0296583Y0094812D03*
X0310363Y0107607D03*
X0331524Y0114989D03*
X0340383Y0114989D03*
X0342351Y0043139D03*
X0333493Y0043139D03*
D17*
X0004700Y0004700D02*
X0004700Y0156380D01*
X0142360Y0156380D01*
X0142175Y0156060D01*
X0142032Y0155528D01*
X0142032Y0154359D01*
X0145016Y0154359D01*
X0145016Y0153391D01*
X0142032Y0153391D01*
X0142032Y0152222D01*
X0142175Y0151690D01*
X0142450Y0151213D01*
X0142839Y0150824D01*
X0142936Y0150768D01*
X0142599Y0150628D01*
X0141842Y0149871D01*
X0141432Y0148882D01*
X0141432Y0145056D01*
X0141842Y0144067D01*
X0142599Y0143310D01*
X0143588Y0142901D01*
X0147414Y0142901D01*
X0147830Y0143073D01*
X0147830Y0139119D01*
X0149060Y0137889D01*
X0149298Y0137889D01*
X0149298Y0137367D01*
X0148965Y0137034D01*
X0147307Y0138692D01*
X0145139Y0139590D01*
X0142792Y0139590D01*
X0140623Y0138692D01*
X0138965Y0137034D01*
X0137307Y0138692D01*
X0135139Y0139590D01*
X0132792Y0139590D01*
X0130623Y0138692D01*
X0128965Y0137034D01*
X0127307Y0138692D01*
X0125139Y0139590D01*
X0122792Y0139590D01*
X0120623Y0138692D01*
X0118965Y0137034D01*
X0117307Y0138692D01*
X0115139Y0139590D01*
X0112792Y0139590D01*
X0110623Y0138692D01*
X0108964Y0137032D01*
X0108626Y0136217D01*
X0108498Y0136468D01*
X0108008Y0137142D01*
X0107418Y0137732D01*
X0106743Y0138223D01*
X0106000Y0138601D01*
X0105206Y0138859D01*
X0104450Y0138979D01*
X0104450Y0134174D01*
X0103481Y0134174D01*
X0103481Y0138979D01*
X0102724Y0138859D01*
X0101931Y0138601D01*
X0101188Y0138223D01*
X0100513Y0137732D01*
X0099923Y0137142D01*
X0099432Y0136468D01*
X0099305Y0136217D01*
X0098967Y0137032D01*
X0097307Y0138692D01*
X0095139Y0139590D01*
X0092792Y0139590D01*
X0090623Y0138692D01*
X0088965Y0137034D01*
X0087307Y0138692D01*
X0085139Y0139590D01*
X0082792Y0139590D01*
X0080623Y0138692D01*
X0078965Y0137034D01*
X0077307Y0138692D01*
X0075139Y0139590D01*
X0072792Y0139590D01*
X0070623Y0138692D01*
X0068965Y0137034D01*
X0067307Y0138692D01*
X0065139Y0139590D01*
X0062792Y0139590D01*
X0060623Y0138692D01*
X0058965Y0137034D01*
X0057307Y0138692D01*
X0055139Y0139590D01*
X0052792Y0139590D01*
X0050623Y0138692D01*
X0048964Y0137032D01*
X0048065Y0134863D01*
X0048065Y0132904D01*
X0025229Y0109240D01*
X0023404Y0109240D01*
X0022320Y0110324D01*
X0021032Y0110858D01*
X0021059Y0110866D01*
X0021766Y0111227D01*
X0022408Y0111693D01*
X0022970Y0112255D01*
X0023436Y0112897D01*
X0023797Y0113604D01*
X0024042Y0114359D01*
X0024150Y0115040D01*
X0016080Y0115040D01*
X0016080Y0116040D01*
X0024150Y0116040D01*
X0024042Y0116721D01*
X0023797Y0117476D01*
X0023436Y0118183D01*
X0022970Y0118826D01*
X0022408Y0119387D01*
X0021766Y0119854D01*
X0021059Y0120214D01*
X0020304Y0120459D01*
X0019520Y0120583D01*
X0016080Y0120583D01*
X0016080Y0116040D01*
X0015080Y0116040D01*
X0015080Y0120583D01*
X0011639Y0120583D01*
X0010855Y0120459D01*
X0010100Y0120214D01*
X0009393Y0119854D01*
X0008751Y0119387D01*
X0008189Y0118826D01*
X0007723Y0118183D01*
X0007362Y0117476D01*
X0007117Y0116721D01*
X0007009Y0116040D01*
X0015079Y0116040D01*
X0015079Y0115040D01*
X0007009Y0115040D01*
X0007117Y0114359D01*
X0007362Y0113604D01*
X0007723Y0112897D01*
X0008189Y0112255D01*
X0008751Y0111693D01*
X0009393Y0111227D01*
X0010100Y0110866D01*
X0010127Y0110858D01*
X0008840Y0110324D01*
X0007252Y0108737D01*
X0006393Y0106663D01*
X0006393Y0104418D01*
X0007252Y0102343D01*
X0008840Y0100756D01*
X0009361Y0100540D01*
X0008840Y0100324D01*
X0007252Y0098737D01*
X0006393Y0096663D01*
X0006393Y0094418D01*
X0007252Y0092343D01*
X0008840Y0090756D01*
X0009361Y0090540D01*
X0008840Y0090324D01*
X0007252Y0088737D01*
X0006393Y0086663D01*
X0006393Y0084418D01*
X0007252Y0082343D01*
X0008840Y0080756D01*
X0009361Y0080540D01*
X0008840Y0080324D01*
X0007252Y0078737D01*
X0006393Y0076663D01*
X0006393Y0074418D01*
X0007252Y0072343D01*
X0008840Y0070756D01*
X0010127Y0070223D01*
X0010100Y0070214D01*
X0009393Y0069854D01*
X0008751Y0069387D01*
X0008189Y0068826D01*
X0007723Y0068183D01*
X0007362Y0067476D01*
X0007117Y0066721D01*
X0007009Y0066040D01*
X0015079Y0066040D01*
X0015079Y0065040D01*
X0007009Y0065040D01*
X0007117Y0064359D01*
X0007362Y0063604D01*
X0007723Y0062897D01*
X0008189Y0062255D01*
X0008751Y0061693D01*
X0009393Y0061227D01*
X0010100Y0060866D01*
X0010127Y0060858D01*
X0008840Y0060324D01*
X0007252Y0058737D01*
X0006393Y0056663D01*
X0006393Y0054418D01*
X0007252Y0052343D01*
X0008840Y0050756D01*
X0009361Y0050540D01*
X0008840Y0050324D01*
X0007252Y0048737D01*
X0006393Y0046663D01*
X0006393Y0044418D01*
X0007252Y0042343D01*
X0008840Y0040756D01*
X0010914Y0039897D01*
X0020245Y0039897D01*
X0022320Y0040756D01*
X0023314Y0041751D01*
X0023314Y0035273D01*
X0023308Y0035258D01*
X0023314Y0034756D01*
X0023314Y0034255D01*
X0023320Y0034240D01*
X0023321Y0034224D01*
X0023518Y0033762D01*
X0023710Y0033300D01*
X0023722Y0033288D01*
X0024079Y0032454D01*
X0023900Y0032022D01*
X0023900Y0030633D01*
X0024431Y0029350D01*
X0025413Y0028368D01*
X0026696Y0027837D01*
X0028085Y0027837D01*
X0029368Y0028368D01*
X0030350Y0029350D01*
X0030881Y0030633D01*
X0030881Y0032022D01*
X0030350Y0033305D01*
X0029368Y0034287D01*
X0028861Y0034497D01*
X0028514Y0035306D01*
X0028514Y0036709D01*
X0029662Y0036709D01*
X0029662Y0039694D01*
X0030631Y0039694D01*
X0030631Y0036709D01*
X0030696Y0036709D01*
X0030696Y0034747D01*
X0031092Y0033792D01*
X0031823Y0033060D01*
X0034776Y0030108D01*
X0035732Y0029712D01*
X0045624Y0029712D01*
X0046580Y0030108D01*
X0047311Y0030839D01*
X0048336Y0031863D01*
X0048964Y0030348D01*
X0050623Y0028688D01*
X0052792Y0027790D01*
X0055139Y0027790D01*
X0057307Y0028688D01*
X0058965Y0030346D01*
X0060623Y0028688D01*
X0062792Y0027790D01*
X0065139Y0027790D01*
X0067307Y0028688D01*
X0068965Y0030346D01*
X0070623Y0028688D01*
X0072792Y0027790D01*
X0075139Y0027790D01*
X0077307Y0028688D01*
X0078965Y0030346D01*
X0080623Y0028688D01*
X0082792Y0027790D01*
X0085139Y0027790D01*
X0087307Y0028688D01*
X0088965Y0030346D01*
X0090623Y0028688D01*
X0092792Y0027790D01*
X0095139Y0027790D01*
X0097307Y0028688D01*
X0098965Y0030346D01*
X0100623Y0028688D01*
X0102792Y0027790D01*
X0105139Y0027790D01*
X0107307Y0028688D01*
X0108965Y0030346D01*
X0110623Y0028688D01*
X0112792Y0027790D01*
X0115139Y0027790D01*
X0117307Y0028688D01*
X0118965Y0030346D01*
X0120623Y0028688D01*
X0122792Y0027790D01*
X0125139Y0027790D01*
X0127307Y0028688D01*
X0128965Y0030346D01*
X0130623Y0028688D01*
X0132792Y0027790D01*
X0135139Y0027790D01*
X0137307Y0028688D01*
X0138965Y0030346D01*
X0140623Y0028688D01*
X0142792Y0027790D01*
X0145139Y0027790D01*
X0147307Y0028688D01*
X0148965Y0030346D01*
X0150623Y0028688D01*
X0152792Y0027790D01*
X0155139Y0027790D01*
X0157307Y0028688D01*
X0158965Y0030346D01*
X0160623Y0028688D01*
X0162792Y0027790D01*
X0165139Y0027790D01*
X0167307Y0028688D01*
X0168965Y0030346D01*
X0170623Y0028688D01*
X0172792Y0027790D01*
X0175139Y0027790D01*
X0177307Y0028688D01*
X0178965Y0030346D01*
X0180623Y0028688D01*
X0182792Y0027790D01*
X0185139Y0027790D01*
X0187307Y0028688D01*
X0188965Y0030346D01*
X0190623Y0028688D01*
X0192792Y0027790D01*
X0195139Y0027790D01*
X0197307Y0028688D01*
X0198965Y0030346D01*
X0200623Y0028688D01*
X0202792Y0027790D01*
X0205139Y0027790D01*
X0207307Y0028688D01*
X0208965Y0030346D01*
X0210623Y0028688D01*
X0212792Y0027790D01*
X0215139Y0027790D01*
X0217307Y0028688D01*
X0218965Y0030346D01*
X0220623Y0028688D01*
X0222792Y0027790D01*
X0225139Y0027790D01*
X0227307Y0028688D01*
X0228967Y0030348D01*
X0229305Y0031163D01*
X0229432Y0030912D01*
X0229923Y0030237D01*
X0230513Y0029647D01*
X0231188Y0029157D01*
X0231931Y0028778D01*
X0232724Y0028520D01*
X0233481Y0028400D01*
X0233481Y0033205D01*
X0234450Y0033205D01*
X0234450Y0034174D01*
X0239255Y0034174D01*
X0239135Y0034931D01*
X0238877Y0035724D01*
X0238498Y0036468D01*
X0238008Y0037142D01*
X0237418Y0037732D01*
X0236743Y0038223D01*
X0236000Y0038601D01*
X0235206Y0038859D01*
X0234450Y0038979D01*
X0234450Y0034174D01*
X0233481Y0034174D01*
X0233481Y0038979D01*
X0232724Y0038859D01*
X0231931Y0038601D01*
X0231188Y0038223D01*
X0230513Y0037732D01*
X0229923Y0037142D01*
X0229432Y0036468D01*
X0229305Y0036217D01*
X0228967Y0037032D01*
X0227307Y0038692D01*
X0227054Y0038797D01*
X0227456Y0039767D01*
X0227456Y0041156D01*
X0226924Y0042439D01*
X0225943Y0043421D01*
X0224660Y0043952D01*
X0224152Y0043952D01*
X0196329Y0071775D01*
X0196329Y0085094D01*
X0196688Y0085453D01*
X0197220Y0086736D01*
X0197220Y0088124D01*
X0196688Y0089407D01*
X0195706Y0090389D01*
X0194423Y0090920D01*
X0193035Y0090920D01*
X0191752Y0090389D01*
X0190770Y0089407D01*
X0190239Y0088124D01*
X0190239Y0086736D01*
X0190770Y0085453D01*
X0191129Y0085094D01*
X0191129Y0070180D01*
X0191525Y0069225D01*
X0220475Y0040275D01*
X0220475Y0039767D01*
X0220877Y0038797D01*
X0220623Y0038692D01*
X0218965Y0037034D01*
X0217307Y0038692D01*
X0215139Y0039590D01*
X0212792Y0039590D01*
X0210623Y0038692D01*
X0208965Y0037034D01*
X0207307Y0038692D01*
X0205139Y0039590D01*
X0202792Y0039590D01*
X0200623Y0038692D01*
X0198965Y0037034D01*
X0197307Y0038692D01*
X0195139Y0039590D01*
X0192792Y0039590D01*
X0190623Y0038692D01*
X0188965Y0037034D01*
X0187307Y0038692D01*
X0185139Y0039590D01*
X0182792Y0039590D01*
X0180623Y0038692D01*
X0178965Y0037034D01*
X0177307Y0038692D01*
X0175139Y0039590D01*
X0172792Y0039590D01*
X0170623Y0038692D01*
X0168965Y0037034D01*
X0167307Y0038692D01*
X0165139Y0039590D01*
X0162792Y0039590D01*
X0160623Y0038692D01*
X0158965Y0037034D01*
X0157307Y0038692D01*
X0155139Y0039590D01*
X0152792Y0039590D01*
X0150623Y0038692D01*
X0148965Y0037034D01*
X0147307Y0038692D01*
X0145139Y0039590D01*
X0142792Y0039590D01*
X0140623Y0038692D01*
X0138965Y0037034D01*
X0137307Y0038692D01*
X0135139Y0039590D01*
X0132792Y0039590D01*
X0130623Y0038692D01*
X0128965Y0037034D01*
X0127307Y0038692D01*
X0125139Y0039590D01*
X0122792Y0039590D01*
X0120623Y0038692D01*
X0118965Y0037034D01*
X0117307Y0038692D01*
X0115139Y0039590D01*
X0112792Y0039590D01*
X0110623Y0038692D01*
X0108965Y0037034D01*
X0107307Y0038692D01*
X0105139Y0039590D01*
X0102792Y0039590D01*
X0100623Y0038692D01*
X0098965Y0037034D01*
X0097307Y0038692D01*
X0095139Y0039590D01*
X0092792Y0039590D01*
X0090623Y0038692D01*
X0088965Y0037034D01*
X0087307Y0038692D01*
X0085139Y0039590D01*
X0082792Y0039590D01*
X0080623Y0038692D01*
X0078965Y0037034D01*
X0077307Y0038692D01*
X0075139Y0039590D01*
X0072794Y0039590D01*
X0078758Y0045554D01*
X0079266Y0045554D01*
X0080549Y0046085D01*
X0081531Y0047067D01*
X0082062Y0048350D01*
X0082062Y0049738D01*
X0081531Y0051021D01*
X0080549Y0052003D01*
X0079266Y0052535D01*
X0077877Y0052535D01*
X0076594Y0052003D01*
X0076250Y0051659D01*
X0076250Y0056825D01*
X0078758Y0059333D01*
X0079266Y0059333D01*
X0080549Y0059864D01*
X0081531Y0060846D01*
X0082062Y0062129D01*
X0082062Y0063518D01*
X0081531Y0064801D01*
X0080549Y0065783D01*
X0079667Y0066148D01*
X0088903Y0075383D01*
X0089634Y0076115D01*
X0090030Y0077070D01*
X0090030Y0094227D01*
X0117050Y0121247D01*
X0129286Y0121247D01*
X0130241Y0121643D01*
X0135163Y0126564D01*
X0135894Y0127296D01*
X0136290Y0128251D01*
X0136290Y0128266D01*
X0137307Y0128688D01*
X0138965Y0130346D01*
X0140623Y0128688D01*
X0142792Y0127790D01*
X0145139Y0127790D01*
X0147307Y0128688D01*
X0148965Y0130346D01*
X0150623Y0128688D01*
X0152792Y0127790D01*
X0155139Y0127790D01*
X0157307Y0128688D01*
X0158965Y0130346D01*
X0160623Y0128688D01*
X0162792Y0127790D01*
X0165139Y0127790D01*
X0167307Y0128688D01*
X0168965Y0130346D01*
X0170623Y0128688D01*
X0172792Y0127790D01*
X0175139Y0127790D01*
X0177307Y0128688D01*
X0178965Y0130346D01*
X0180623Y0128688D01*
X0182792Y0127790D01*
X0185139Y0127790D01*
X0187307Y0128688D01*
X0188965Y0130346D01*
X0190623Y0128688D01*
X0192792Y0127790D01*
X0195139Y0127790D01*
X0197307Y0128688D01*
X0198965Y0130346D01*
X0200623Y0128688D01*
X0202792Y0127790D01*
X0205139Y0127790D01*
X0207307Y0128688D01*
X0208965Y0130346D01*
X0210623Y0128688D01*
X0212792Y0127790D01*
X0215139Y0127790D01*
X0217307Y0128688D01*
X0218965Y0130346D01*
X0220623Y0128688D01*
X0222792Y0127790D01*
X0225139Y0127790D01*
X0227307Y0128688D01*
X0228965Y0130346D01*
X0230623Y0128688D01*
X0232792Y0127790D01*
X0235139Y0127790D01*
X0237307Y0128688D01*
X0238967Y0130348D01*
X0239865Y0132516D01*
X0239865Y0134863D01*
X0238967Y0137032D01*
X0237307Y0138692D01*
X0235139Y0139590D01*
X0232792Y0139590D01*
X0230623Y0138692D01*
X0228965Y0137034D01*
X0227307Y0138692D01*
X0225139Y0139590D01*
X0222792Y0139590D01*
X0220623Y0138692D01*
X0218965Y0137034D01*
X0217307Y0138692D01*
X0215139Y0139590D01*
X0212792Y0139590D01*
X0210623Y0138692D01*
X0208965Y0137034D01*
X0207307Y0138692D01*
X0205139Y0139590D01*
X0202792Y0139590D01*
X0200623Y0138692D01*
X0198965Y0137034D01*
X0197307Y0138692D01*
X0195139Y0139590D01*
X0192792Y0139590D01*
X0190623Y0138692D01*
X0188965Y0137034D01*
X0187307Y0138692D01*
X0185139Y0139590D01*
X0182792Y0139590D01*
X0180623Y0138692D01*
X0178965Y0137034D01*
X0178613Y0137386D01*
X0178613Y0137889D01*
X0178851Y0137889D01*
X0180081Y0139119D01*
X0180081Y0145190D01*
X0179770Y0145501D01*
X0180081Y0145812D01*
X0180081Y0151882D01*
X0178851Y0153113D01*
X0173576Y0153113D01*
X0173576Y0153391D01*
X0170591Y0153391D01*
X0170591Y0154359D01*
X0173576Y0154359D01*
X0173576Y0155528D01*
X0173433Y0156060D01*
X0173248Y0156380D01*
X0392601Y0156380D01*
X0392601Y0004700D01*
X0156999Y0004700D01*
X0157547Y0005248D01*
X0157858Y0005999D01*
X0158182Y0005999D01*
X0159412Y0007229D01*
X0159412Y0008394D01*
X0160000Y0007806D01*
X0160133Y0007751D01*
X0160133Y0007229D01*
X0161363Y0005999D01*
X0167040Y0005999D01*
X0168060Y0007019D01*
X0169080Y0005999D01*
X0175071Y0005999D01*
X0176302Y0007229D01*
X0176302Y0013103D01*
X0175369Y0014035D01*
X0175402Y0014068D01*
X0175599Y0014410D01*
X0175702Y0014791D01*
X0175702Y0016556D01*
X0172576Y0016556D01*
X0172576Y0017556D01*
X0175702Y0017556D01*
X0175702Y0019320D01*
X0175599Y0019702D01*
X0175402Y0020044D01*
X0175123Y0020323D01*
X0174781Y0020521D01*
X0174399Y0020623D01*
X0172576Y0020623D01*
X0172576Y0017556D01*
X0171576Y0017556D01*
X0171576Y0020623D01*
X0169752Y0020623D01*
X0169371Y0020521D01*
X0169029Y0020323D01*
X0168749Y0020044D01*
X0168552Y0019702D01*
X0168450Y0019320D01*
X0168450Y0017556D01*
X0171576Y0017556D01*
X0171576Y0016556D01*
X0168450Y0016556D01*
X0168450Y0014791D01*
X0168552Y0014410D01*
X0168749Y0014068D01*
X0168782Y0014035D01*
X0168158Y0013412D01*
X0167959Y0013611D01*
X0168270Y0013922D01*
X0168270Y0019993D01*
X0167040Y0021223D01*
X0166717Y0021223D01*
X0166406Y0021974D01*
X0163945Y0024434D01*
X0163214Y0025166D01*
X0162258Y0025561D01*
X0125791Y0025561D01*
X0124835Y0025166D01*
X0123255Y0023585D01*
X0122961Y0023585D01*
X0120887Y0022726D01*
X0119299Y0021138D01*
X0118766Y0019851D01*
X0118757Y0019878D01*
X0118397Y0020585D01*
X0117930Y0021227D01*
X0117369Y0021789D01*
X0116727Y0022255D01*
X0116019Y0022616D01*
X0115264Y0022861D01*
X0114583Y0022969D01*
X0114583Y0014898D01*
X0113583Y0014898D01*
X0113583Y0022969D01*
X0112902Y0022861D01*
X0112148Y0022616D01*
X0111440Y0022255D01*
X0110798Y0021789D01*
X0110237Y0021227D01*
X0109770Y0020585D01*
X0109410Y0019878D01*
X0109401Y0019851D01*
X0108868Y0021138D01*
X0107280Y0022726D01*
X0105206Y0023585D01*
X0102961Y0023585D01*
X0100887Y0022726D01*
X0099299Y0021138D01*
X0099083Y0020617D01*
X0098868Y0021138D01*
X0097280Y0022726D01*
X0095206Y0023585D01*
X0092961Y0023585D01*
X0090887Y0022726D01*
X0089299Y0021138D01*
X0089083Y0020617D01*
X0088868Y0021138D01*
X0087280Y0022726D01*
X0085206Y0023585D01*
X0082961Y0023585D01*
X0080887Y0022726D01*
X0079299Y0021138D01*
X0078766Y0019851D01*
X0078757Y0019878D01*
X0078397Y0020585D01*
X0077930Y0021227D01*
X0077369Y0021789D01*
X0076727Y0022255D01*
X0076019Y0022616D01*
X0075264Y0022861D01*
X0074583Y0022969D01*
X0074583Y0014898D01*
X0073583Y0014898D01*
X0073583Y0013898D01*
X0074583Y0013898D01*
X0074583Y0005828D01*
X0075264Y0005936D01*
X0076019Y0006181D01*
X0076727Y0006542D01*
X0077369Y0007008D01*
X0077930Y0007570D01*
X0078397Y0008212D01*
X0078757Y0008919D01*
X0078766Y0008946D01*
X0079299Y0007658D01*
X0080887Y0006071D01*
X0082961Y0005212D01*
X0085206Y0005212D01*
X0087280Y0006071D01*
X0088868Y0007658D01*
X0089083Y0008180D01*
X0089299Y0007658D01*
X0090887Y0006071D01*
X0092961Y0005212D01*
X0095206Y0005212D01*
X0097280Y0006071D01*
X0098868Y0007658D01*
X0099083Y0008180D01*
X0099299Y0007658D01*
X0100887Y0006071D01*
X0102961Y0005212D01*
X0105206Y0005212D01*
X0107280Y0006071D01*
X0108868Y0007658D01*
X0109401Y0008946D01*
X0109410Y0008919D01*
X0109770Y0008212D01*
X0110237Y0007570D01*
X0110798Y0007008D01*
X0111440Y0006542D01*
X0112148Y0006181D01*
X0112902Y0005936D01*
X0113583Y0005828D01*
X0113583Y0013898D01*
X0114583Y0013898D01*
X0114583Y0005828D01*
X0115264Y0005936D01*
X0116019Y0006181D01*
X0116727Y0006542D01*
X0117369Y0007008D01*
X0117930Y0007570D01*
X0118397Y0008212D01*
X0118757Y0008919D01*
X0118766Y0008946D01*
X0119299Y0007658D01*
X0120887Y0006071D01*
X0122961Y0005212D01*
X0125206Y0005212D01*
X0127280Y0006071D01*
X0128868Y0007658D01*
X0129083Y0008180D01*
X0129299Y0007658D01*
X0130887Y0006071D01*
X0131582Y0005783D01*
X0131582Y0005712D01*
X0131978Y0004756D01*
X0132034Y0004700D01*
X0004700Y0004700D01*
X0004700Y0004796D02*
X0131961Y0004796D01*
X0131555Y0005794D02*
X0126612Y0005794D01*
X0128002Y0006793D02*
X0130165Y0006793D01*
X0129244Y0007791D02*
X0128923Y0007791D01*
X0134182Y0006229D02*
X0134182Y0014300D01*
X0134083Y0014398D01*
X0124339Y0014654D02*
X0124083Y0014398D01*
X0124339Y0014654D02*
X0124339Y0020993D01*
X0126308Y0022961D01*
X0161741Y0022961D01*
X0164202Y0020501D01*
X0164202Y0016957D01*
X0168270Y0016778D02*
X0171576Y0016778D01*
X0172076Y0017056D02*
X0172568Y0017056D01*
X0175028Y0014595D01*
X0181426Y0014595D01*
X0181918Y0015087D01*
X0175699Y0014781D02*
X0191039Y0014781D01*
X0191039Y0015125D02*
X0191039Y0012097D01*
X0192197Y0009299D01*
X0194339Y0007158D01*
X0197136Y0005999D01*
X0200164Y0005999D01*
X0202962Y0007158D01*
X0205103Y0009299D01*
X0206262Y0012097D01*
X0206262Y0015125D01*
X0205103Y0017923D01*
X0202962Y0020064D01*
X0200164Y0021223D01*
X0197136Y0021223D01*
X0194339Y0020064D01*
X0192197Y0017923D01*
X0191039Y0015125D01*
X0191310Y0015779D02*
X0175702Y0015779D01*
X0175622Y0013782D02*
X0191039Y0013782D01*
X0191039Y0012784D02*
X0176302Y0012784D01*
X0176302Y0011785D02*
X0191168Y0011785D01*
X0191581Y0010787D02*
X0176302Y0010787D01*
X0176302Y0009788D02*
X0191995Y0009788D01*
X0192707Y0008790D02*
X0176302Y0008790D01*
X0176302Y0007791D02*
X0193706Y0007791D01*
X0195221Y0006793D02*
X0175865Y0006793D01*
X0168286Y0006793D02*
X0167833Y0006793D01*
X0160570Y0006793D02*
X0158975Y0006793D01*
X0159412Y0007791D02*
X0160036Y0007791D01*
X0157773Y0005794D02*
X0392601Y0005794D01*
X0392601Y0004796D02*
X0157095Y0004796D01*
X0155343Y0006721D02*
X0154359Y0005737D01*
X0134674Y0005737D01*
X0134182Y0006229D01*
X0121555Y0005794D02*
X0106612Y0005794D01*
X0108002Y0006793D02*
X0111095Y0006793D01*
X0110076Y0007791D02*
X0108923Y0007791D01*
X0109336Y0008790D02*
X0109476Y0008790D01*
X0113583Y0008790D02*
X0114583Y0008790D01*
X0114583Y0009788D02*
X0113583Y0009788D01*
X0113583Y0010787D02*
X0114583Y0010787D01*
X0114583Y0011785D02*
X0113583Y0011785D01*
X0113583Y0012784D02*
X0114583Y0012784D01*
X0114583Y0013782D02*
X0113583Y0013782D01*
X0113583Y0015779D02*
X0114583Y0015779D01*
X0114583Y0016778D02*
X0113583Y0016778D01*
X0113583Y0017776D02*
X0114583Y0017776D01*
X0114583Y0018775D02*
X0113583Y0018775D01*
X0113583Y0019773D02*
X0114583Y0019773D01*
X0114583Y0020772D02*
X0113583Y0020772D01*
X0113583Y0021770D02*
X0114583Y0021770D01*
X0114583Y0022769D02*
X0113583Y0022769D01*
X0112619Y0022769D02*
X0107177Y0022769D01*
X0108236Y0021770D02*
X0110780Y0021770D01*
X0109906Y0020772D02*
X0109020Y0020772D01*
X0115548Y0022769D02*
X0120990Y0022769D01*
X0119931Y0021770D02*
X0117387Y0021770D01*
X0118261Y0020772D02*
X0119147Y0020772D01*
X0123437Y0023767D02*
X0004700Y0023767D01*
X0004700Y0022769D02*
X0072619Y0022769D01*
X0072902Y0022861D02*
X0072148Y0022616D01*
X0071440Y0022255D01*
X0070798Y0021789D01*
X0070237Y0021227D01*
X0069770Y0020585D01*
X0069410Y0019878D01*
X0069164Y0019123D01*
X0069040Y0018339D01*
X0069040Y0014898D01*
X0073583Y0014898D01*
X0073583Y0022969D01*
X0072902Y0022861D01*
X0073583Y0022769D02*
X0074583Y0022769D01*
X0075548Y0022769D02*
X0080990Y0022769D01*
X0079931Y0021770D02*
X0077387Y0021770D01*
X0078261Y0020772D02*
X0079147Y0020772D01*
X0074583Y0020772D02*
X0073583Y0020772D01*
X0073583Y0021770D02*
X0074583Y0021770D01*
X0074583Y0019773D02*
X0073583Y0019773D01*
X0073583Y0018775D02*
X0074583Y0018775D01*
X0074583Y0017776D02*
X0073583Y0017776D01*
X0073583Y0016778D02*
X0074583Y0016778D01*
X0074583Y0015779D02*
X0073583Y0015779D01*
X0073583Y0014781D02*
X0021223Y0014781D01*
X0021223Y0015125D02*
X0020064Y0017923D01*
X0017923Y0020064D01*
X0015125Y0021223D01*
X0012097Y0021223D01*
X0009299Y0020064D01*
X0007158Y0017923D01*
X0005999Y0015125D01*
X0005999Y0012097D01*
X0007158Y0009299D01*
X0009299Y0007158D01*
X0012097Y0005999D01*
X0015125Y0005999D01*
X0017923Y0007158D01*
X0020064Y0009299D01*
X0021223Y0012097D01*
X0021223Y0015125D01*
X0020952Y0015779D02*
X0069040Y0015779D01*
X0069040Y0016778D02*
X0020538Y0016778D01*
X0020125Y0017776D02*
X0069040Y0017776D01*
X0069109Y0018775D02*
X0019212Y0018775D01*
X0018214Y0019773D02*
X0069376Y0019773D01*
X0069906Y0020772D02*
X0016214Y0020772D01*
X0011008Y0020772D02*
X0004700Y0020772D01*
X0004700Y0021770D02*
X0070780Y0021770D01*
X0070551Y0028760D02*
X0067379Y0028760D01*
X0068378Y0029758D02*
X0069553Y0029758D01*
X0077379Y0028760D02*
X0080551Y0028760D01*
X0079553Y0029758D02*
X0078378Y0029758D01*
X0087379Y0028760D02*
X0090551Y0028760D01*
X0089553Y0029758D02*
X0088378Y0029758D01*
X0097379Y0028760D02*
X0100551Y0028760D01*
X0099553Y0029758D02*
X0098378Y0029758D01*
X0107379Y0028760D02*
X0110551Y0028760D01*
X0109553Y0029758D02*
X0108378Y0029758D01*
X0117379Y0028760D02*
X0120551Y0028760D01*
X0119553Y0029758D02*
X0118378Y0029758D01*
X0124435Y0024766D02*
X0004700Y0024766D01*
X0004700Y0025764D02*
X0278453Y0025764D01*
X0278564Y0025875D02*
X0276976Y0024288D01*
X0276117Y0022214D01*
X0276117Y0012882D01*
X0276976Y0010808D01*
X0278564Y0009221D01*
X0280638Y0008361D01*
X0282883Y0008361D01*
X0284957Y0009221D01*
X0286545Y0010808D01*
X0286761Y0011329D01*
X0286976Y0010808D01*
X0288564Y0009221D01*
X0290638Y0008361D01*
X0292883Y0008361D01*
X0294957Y0009221D01*
X0296545Y0010808D01*
X0296761Y0011329D01*
X0296976Y0010808D01*
X0298564Y0009221D01*
X0300638Y0008361D01*
X0302883Y0008361D01*
X0304957Y0009221D01*
X0306545Y0010808D01*
X0307078Y0012096D01*
X0307087Y0012069D01*
X0307447Y0011361D01*
X0307914Y0010719D01*
X0308475Y0010158D01*
X0309117Y0009691D01*
X0309825Y0009331D01*
X0310580Y0009086D01*
X0311261Y0008978D01*
X0311261Y0017048D01*
X0312261Y0017048D01*
X0312261Y0008978D01*
X0312942Y0009086D01*
X0313697Y0009331D01*
X0314404Y0009691D01*
X0315046Y0010158D01*
X0315607Y0010719D01*
X0316074Y0011361D01*
X0316434Y0012069D01*
X0316443Y0012096D01*
X0316976Y0010808D01*
X0318564Y0009221D01*
X0320638Y0008361D01*
X0322883Y0008361D01*
X0324957Y0009221D01*
X0326545Y0010808D01*
X0326761Y0011329D01*
X0326976Y0010808D01*
X0328564Y0009221D01*
X0330638Y0008361D01*
X0332883Y0008361D01*
X0334957Y0009221D01*
X0336545Y0010808D01*
X0336761Y0011329D01*
X0336976Y0010808D01*
X0338564Y0009221D01*
X0340638Y0008361D01*
X0342883Y0008361D01*
X0344957Y0009221D01*
X0346545Y0010808D01*
X0347078Y0012096D01*
X0347087Y0012069D01*
X0347447Y0011361D01*
X0347914Y0010719D01*
X0348475Y0010158D01*
X0349117Y0009691D01*
X0349825Y0009331D01*
X0350580Y0009086D01*
X0351261Y0008978D01*
X0351261Y0017048D01*
X0352261Y0017048D01*
X0352261Y0018048D01*
X0356804Y0018048D01*
X0356804Y0021488D01*
X0356680Y0022272D01*
X0356434Y0023027D01*
X0356074Y0023735D01*
X0355607Y0024377D01*
X0355046Y0024938D01*
X0354404Y0025405D01*
X0353697Y0025765D01*
X0352942Y0026010D01*
X0352261Y0026118D01*
X0352261Y0018048D01*
X0351261Y0018048D01*
X0351261Y0026118D01*
X0350580Y0026010D01*
X0349825Y0025765D01*
X0349117Y0025405D01*
X0348475Y0024938D01*
X0347914Y0024377D01*
X0347447Y0023735D01*
X0347087Y0023027D01*
X0347078Y0023000D01*
X0346545Y0024288D01*
X0344957Y0025875D01*
X0342883Y0026735D01*
X0340638Y0026735D01*
X0338564Y0025875D01*
X0336976Y0024288D01*
X0336761Y0023767D01*
X0336760Y0023767D01*
X0336761Y0023767D02*
X0336545Y0024288D01*
X0334957Y0025875D01*
X0332883Y0026735D01*
X0330638Y0026735D01*
X0328564Y0025875D01*
X0326976Y0024288D01*
X0326761Y0023767D01*
X0326760Y0023767D01*
X0326761Y0023767D02*
X0326545Y0024288D01*
X0324957Y0025875D01*
X0322883Y0026735D01*
X0320638Y0026735D01*
X0318564Y0025875D01*
X0316976Y0024288D01*
X0316443Y0023000D01*
X0316434Y0023027D01*
X0316074Y0023735D01*
X0315607Y0024377D01*
X0315046Y0024938D01*
X0314404Y0025405D01*
X0313697Y0025765D01*
X0312942Y0026010D01*
X0312261Y0026118D01*
X0312261Y0018048D01*
X0311261Y0018048D01*
X0311261Y0026118D01*
X0310580Y0026010D01*
X0309825Y0025765D01*
X0309117Y0025405D01*
X0308475Y0024938D01*
X0307914Y0024377D01*
X0307447Y0023735D01*
X0307087Y0023027D01*
X0307078Y0023000D01*
X0306545Y0024288D01*
X0304957Y0025875D01*
X0302883Y0026735D01*
X0300638Y0026735D01*
X0298564Y0025875D01*
X0296976Y0024288D01*
X0296761Y0023767D01*
X0296760Y0023767D01*
X0296761Y0023767D02*
X0296545Y0024288D01*
X0294957Y0025875D01*
X0292883Y0026735D01*
X0290638Y0026735D01*
X0288564Y0025875D01*
X0286976Y0024288D01*
X0286761Y0023767D01*
X0286760Y0023767D01*
X0286761Y0023767D02*
X0286545Y0024288D01*
X0284957Y0025875D01*
X0282883Y0026735D01*
X0280638Y0026735D01*
X0278564Y0025875D01*
X0277454Y0024766D02*
X0163614Y0024766D01*
X0164612Y0023767D02*
X0276761Y0023767D01*
X0276347Y0022769D02*
X0165611Y0022769D01*
X0166490Y0021770D02*
X0276117Y0021770D01*
X0276117Y0020772D02*
X0201254Y0020772D01*
X0203253Y0019773D02*
X0276117Y0019773D01*
X0276117Y0018775D02*
X0204251Y0018775D01*
X0205164Y0017776D02*
X0276117Y0017776D01*
X0276117Y0016778D02*
X0205578Y0016778D01*
X0205991Y0015779D02*
X0276117Y0015779D01*
X0276117Y0014781D02*
X0206262Y0014781D01*
X0206262Y0013782D02*
X0276117Y0013782D01*
X0276158Y0012784D02*
X0206262Y0012784D01*
X0206133Y0011785D02*
X0276572Y0011785D01*
X0276998Y0010787D02*
X0205719Y0010787D01*
X0205306Y0009788D02*
X0277996Y0009788D01*
X0279604Y0008790D02*
X0204594Y0008790D01*
X0203595Y0007791D02*
X0378745Y0007791D01*
X0379378Y0007158D02*
X0382176Y0005999D01*
X0385204Y0005999D01*
X0388002Y0007158D01*
X0390143Y0009299D01*
X0391302Y0012097D01*
X0391302Y0015125D01*
X0390143Y0017923D01*
X0388002Y0020064D01*
X0385204Y0021223D01*
X0382176Y0021223D01*
X0379378Y0020064D01*
X0377237Y0017923D01*
X0376078Y0015125D01*
X0376078Y0012097D01*
X0377237Y0009299D01*
X0379378Y0007158D01*
X0380260Y0006793D02*
X0202080Y0006793D01*
X0191723Y0016778D02*
X0172576Y0016778D01*
X0172576Y0017776D02*
X0171576Y0017776D01*
X0171576Y0018775D02*
X0172576Y0018775D01*
X0172576Y0019773D02*
X0171576Y0019773D01*
X0168593Y0019773D02*
X0168270Y0019773D01*
X0168270Y0018775D02*
X0168450Y0018775D01*
X0168450Y0017776D02*
X0168270Y0017776D01*
X0167491Y0020772D02*
X0196047Y0020772D01*
X0194048Y0019773D02*
X0175558Y0019773D01*
X0175702Y0018775D02*
X0193049Y0018775D01*
X0192137Y0017776D02*
X0175702Y0017776D01*
X0168450Y0015779D02*
X0168270Y0015779D01*
X0168270Y0014781D02*
X0168453Y0014781D01*
X0168529Y0013782D02*
X0168130Y0013782D01*
X0155343Y0010265D02*
X0155343Y0006721D01*
X0120165Y0006793D02*
X0117072Y0006793D01*
X0118091Y0007791D02*
X0119244Y0007791D01*
X0118831Y0008790D02*
X0118691Y0008790D01*
X0114583Y0007791D02*
X0113583Y0007791D01*
X0113583Y0006793D02*
X0114583Y0006793D01*
X0101555Y0005794D02*
X0096612Y0005794D01*
X0098002Y0006793D02*
X0100165Y0006793D01*
X0099244Y0007791D02*
X0098923Y0007791D01*
X0091555Y0005794D02*
X0086612Y0005794D01*
X0088002Y0006793D02*
X0090165Y0006793D01*
X0089244Y0007791D02*
X0088923Y0007791D01*
X0081555Y0005794D02*
X0004700Y0005794D01*
X0004700Y0006793D02*
X0010182Y0006793D01*
X0008666Y0007791D02*
X0004700Y0007791D01*
X0004700Y0008790D02*
X0007668Y0008790D01*
X0006956Y0009788D02*
X0004700Y0009788D01*
X0004700Y0010787D02*
X0006542Y0010787D01*
X0006128Y0011785D02*
X0004700Y0011785D01*
X0004700Y0012784D02*
X0005999Y0012784D01*
X0005999Y0013782D02*
X0004700Y0013782D01*
X0004700Y0014781D02*
X0005999Y0014781D01*
X0006270Y0015779D02*
X0004700Y0015779D01*
X0004700Y0016778D02*
X0006684Y0016778D01*
X0007097Y0017776D02*
X0004700Y0017776D01*
X0004700Y0018775D02*
X0008010Y0018775D01*
X0009008Y0019773D02*
X0004700Y0019773D01*
X0004700Y0026763D02*
X0392601Y0026763D01*
X0392601Y0027761D02*
X0004700Y0027761D01*
X0004700Y0028760D02*
X0025022Y0028760D01*
X0024262Y0029758D02*
X0004700Y0029758D01*
X0004700Y0030757D02*
X0023900Y0030757D01*
X0023900Y0031755D02*
X0004700Y0031755D01*
X0004700Y0032754D02*
X0023951Y0032754D01*
X0023522Y0033752D02*
X0004700Y0033752D01*
X0004700Y0034751D02*
X0023314Y0034751D01*
X0023314Y0035749D02*
X0004700Y0035749D01*
X0004700Y0036748D02*
X0023314Y0036748D01*
X0023314Y0037746D02*
X0004700Y0037746D01*
X0004700Y0038745D02*
X0023314Y0038745D01*
X0023314Y0039743D02*
X0004700Y0039743D01*
X0004700Y0040742D02*
X0008873Y0040742D01*
X0007855Y0041740D02*
X0004700Y0041740D01*
X0004700Y0042739D02*
X0007088Y0042739D01*
X0006675Y0043737D02*
X0004700Y0043737D01*
X0004700Y0044736D02*
X0006393Y0044736D01*
X0006393Y0045734D02*
X0004700Y0045734D01*
X0004700Y0046733D02*
X0006422Y0046733D01*
X0006836Y0047732D02*
X0004700Y0047732D01*
X0004700Y0048730D02*
X0007249Y0048730D01*
X0008244Y0049729D02*
X0004700Y0049729D01*
X0004700Y0050727D02*
X0008909Y0050727D01*
X0007870Y0051726D02*
X0004700Y0051726D01*
X0004700Y0052724D02*
X0007094Y0052724D01*
X0006681Y0053723D02*
X0004700Y0053723D01*
X0004700Y0054721D02*
X0006393Y0054721D01*
X0006393Y0055720D02*
X0004700Y0055720D01*
X0004700Y0056718D02*
X0006416Y0056718D01*
X0006829Y0057717D02*
X0004700Y0057717D01*
X0004700Y0058715D02*
X0007243Y0058715D01*
X0008229Y0059714D02*
X0004700Y0059714D01*
X0004700Y0060712D02*
X0009776Y0060712D01*
X0008733Y0061711D02*
X0004700Y0061711D01*
X0004700Y0062709D02*
X0007859Y0062709D01*
X0007329Y0063708D02*
X0004700Y0063708D01*
X0004700Y0064706D02*
X0007062Y0064706D01*
X0007114Y0066703D02*
X0004700Y0066703D01*
X0004700Y0065705D02*
X0015079Y0065705D01*
X0016080Y0065705D02*
X0035133Y0065705D01*
X0034975Y0066223D02*
X0035194Y0066314D01*
X0035133Y0066253D01*
X0035133Y0060182D01*
X0035444Y0059871D01*
X0035133Y0059560D01*
X0035133Y0058814D01*
X0033615Y0058696D01*
X0033615Y0058902D01*
X0030631Y0058902D01*
X0030631Y0059871D01*
X0033615Y0059871D01*
X0033615Y0061040D01*
X0033472Y0061571D01*
X0033197Y0062048D01*
X0032808Y0062437D01*
X0032331Y0062713D01*
X0031800Y0062855D01*
X0030631Y0062855D01*
X0030631Y0059871D01*
X0029662Y0059871D01*
X0029662Y0058902D01*
X0027869Y0058902D01*
X0026608Y0059424D01*
X0025220Y0059424D01*
X0023937Y0058893D01*
X0023844Y0058800D01*
X0022320Y0060324D01*
X0021032Y0060858D01*
X0021059Y0060866D01*
X0021766Y0061227D01*
X0022408Y0061693D01*
X0022970Y0062255D01*
X0023436Y0062897D01*
X0023797Y0063604D01*
X0024042Y0064359D01*
X0024150Y0065040D01*
X0016080Y0065040D01*
X0016080Y0066040D01*
X0024150Y0066040D01*
X0024042Y0066721D01*
X0023797Y0067476D01*
X0023436Y0068183D01*
X0022970Y0068826D01*
X0022408Y0069387D01*
X0021766Y0069854D01*
X0021059Y0070214D01*
X0021032Y0070223D01*
X0022320Y0070756D01*
X0023907Y0072343D01*
X0024766Y0074418D01*
X0024766Y0076663D01*
X0023907Y0078737D01*
X0022320Y0080324D01*
X0021798Y0080540D01*
X0022320Y0080756D01*
X0023907Y0082343D01*
X0024766Y0084418D01*
X0024766Y0084746D01*
X0026078Y0083172D01*
X0026078Y0082064D01*
X0026488Y0081075D01*
X0026530Y0081032D01*
X0026488Y0080989D01*
X0026078Y0080001D01*
X0026078Y0076174D01*
X0026488Y0075185D01*
X0027244Y0074429D01*
X0027582Y0074289D01*
X0027485Y0074233D01*
X0027096Y0073843D01*
X0026820Y0073367D01*
X0026678Y0072835D01*
X0026678Y0071666D01*
X0029662Y0071666D01*
X0029662Y0070698D01*
X0026678Y0070698D01*
X0026678Y0069529D01*
X0026820Y0068997D01*
X0027096Y0068520D01*
X0027485Y0068131D01*
X0027962Y0067856D01*
X0028493Y0067713D01*
X0029662Y0067713D01*
X0029662Y0070698D01*
X0030631Y0070698D01*
X0030631Y0067713D01*
X0031344Y0067713D01*
X0032303Y0066754D01*
X0033586Y0066223D01*
X0034975Y0066223D01*
X0035133Y0064706D02*
X0024097Y0064706D01*
X0023830Y0063708D02*
X0035133Y0063708D01*
X0035133Y0062709D02*
X0032337Y0062709D01*
X0033392Y0061711D02*
X0035133Y0061711D01*
X0035133Y0060712D02*
X0033615Y0060712D01*
X0035287Y0059714D02*
X0030631Y0059714D01*
X0030146Y0059387D02*
X0030146Y0064792D01*
X0030146Y0071182D01*
X0029662Y0070697D02*
X0030631Y0070697D01*
X0030631Y0069699D02*
X0029662Y0069699D01*
X0029662Y0068700D02*
X0030631Y0068700D01*
X0031356Y0067702D02*
X0023682Y0067702D01*
X0024045Y0066703D02*
X0032426Y0066703D01*
X0034280Y0069713D02*
X0038611Y0069812D01*
X0039202Y0070304D01*
X0045698Y0069910D02*
X0049831Y0069910D01*
X0050028Y0069713D01*
X0049954Y0069426D02*
X0046182Y0069426D01*
X0046182Y0070394D01*
X0049921Y0070394D01*
X0050733Y0069582D01*
X0057985Y0069582D01*
X0059215Y0070812D01*
X0059215Y0071050D01*
X0073279Y0071050D01*
X0064699Y0062471D01*
X0059215Y0062471D01*
X0059215Y0062709D01*
X0064938Y0062709D01*
X0065936Y0063708D02*
X0058216Y0063708D01*
X0057985Y0063939D02*
X0050733Y0063939D01*
X0050554Y0063760D01*
X0050554Y0066449D01*
X0049774Y0067229D01*
X0049851Y0067363D01*
X0049954Y0067744D01*
X0049954Y0069426D01*
X0050616Y0069699D02*
X0046182Y0069699D01*
X0049954Y0068700D02*
X0070929Y0068700D01*
X0069930Y0067702D02*
X0049942Y0067702D01*
X0050028Y0066761D02*
X0050028Y0055934D01*
X0045894Y0055934D01*
X0045698Y0056131D01*
X0046182Y0055720D02*
X0061885Y0055720D01*
X0062884Y0056718D02*
X0058901Y0056718D01*
X0059215Y0057033D02*
X0059215Y0057271D01*
X0063436Y0057271D01*
X0056325Y0050160D01*
X0050733Y0050160D01*
X0050554Y0049980D01*
X0050554Y0052670D01*
X0049774Y0053449D01*
X0049851Y0053583D01*
X0049954Y0053965D01*
X0049954Y0055646D01*
X0046182Y0055646D01*
X0046182Y0056615D01*
X0049921Y0056615D01*
X0050733Y0055802D01*
X0057985Y0055802D01*
X0059215Y0057033D01*
X0060887Y0054721D02*
X0049954Y0054721D01*
X0049889Y0053723D02*
X0059888Y0053723D01*
X0058890Y0052724D02*
X0050499Y0052724D01*
X0050554Y0051726D02*
X0057891Y0051726D01*
X0056893Y0050727D02*
X0050554Y0050727D01*
X0045698Y0049831D02*
X0045698Y0049438D01*
X0039202Y0049438D01*
X0033296Y0043139D02*
X0030335Y0046099D01*
X0030146Y0047083D01*
X0029359Y0046091D01*
X0025914Y0049536D02*
X0028859Y0052481D01*
X0030146Y0052481D01*
X0032902Y0056032D02*
X0025914Y0055934D01*
X0032902Y0056032D02*
X0039202Y0056524D01*
X0033862Y0058715D02*
X0033615Y0058715D01*
X0030631Y0060712D02*
X0029662Y0060712D01*
X0029662Y0059871D02*
X0029662Y0062855D01*
X0028493Y0062855D01*
X0027962Y0062713D01*
X0027485Y0062437D01*
X0027096Y0062048D01*
X0026820Y0061571D01*
X0026678Y0061040D01*
X0026678Y0059871D01*
X0029662Y0059871D01*
X0029662Y0059714D02*
X0022930Y0059714D01*
X0021383Y0060712D02*
X0026678Y0060712D01*
X0026901Y0061711D02*
X0022426Y0061711D01*
X0023300Y0062709D02*
X0027956Y0062709D01*
X0029662Y0062709D02*
X0030631Y0062709D01*
X0030631Y0061711D02*
X0029662Y0061711D01*
X0039202Y0063217D02*
X0045698Y0063217D01*
X0045698Y0063611D01*
X0050554Y0064706D02*
X0066935Y0064706D01*
X0067933Y0065705D02*
X0050554Y0065705D01*
X0050300Y0066703D02*
X0068932Y0066703D01*
X0071927Y0069699D02*
X0058102Y0069699D01*
X0059100Y0070697D02*
X0072926Y0070697D01*
X0076603Y0073650D02*
X0081524Y0078572D01*
X0081524Y0096288D01*
X0114005Y0128769D01*
X0114005Y0133650D01*
X0113965Y0133690D01*
X0108626Y0131163D02*
X0108964Y0130348D01*
X0110435Y0128876D01*
X0096920Y0115360D01*
X0096920Y0128527D01*
X0097307Y0128688D01*
X0098967Y0130348D01*
X0099305Y0131163D01*
X0099432Y0130912D01*
X0099923Y0130237D01*
X0100513Y0129647D01*
X0101188Y0129157D01*
X0101931Y0128778D01*
X0102724Y0128520D01*
X0103481Y0128400D01*
X0103481Y0133205D01*
X0104450Y0133205D01*
X0104450Y0128400D01*
X0105206Y0128520D01*
X0106000Y0128778D01*
X0106743Y0129157D01*
X0107418Y0129647D01*
X0108008Y0130237D01*
X0108498Y0130912D01*
X0108626Y0131163D01*
X0108856Y0130608D02*
X0108277Y0130608D01*
X0107366Y0129609D02*
X0109702Y0129609D01*
X0110170Y0128611D02*
X0105485Y0128611D01*
X0104450Y0128611D02*
X0103481Y0128611D01*
X0103481Y0129609D02*
X0104450Y0129609D01*
X0104450Y0130608D02*
X0103481Y0130608D01*
X0103481Y0131606D02*
X0104450Y0131606D01*
X0104450Y0132605D02*
X0103481Y0132605D01*
X0103481Y0134602D02*
X0104450Y0134602D01*
X0104450Y0135601D02*
X0103481Y0135601D01*
X0103481Y0136599D02*
X0104450Y0136599D01*
X0104450Y0137598D02*
X0103481Y0137598D01*
X0103481Y0138596D02*
X0104450Y0138596D01*
X0106010Y0138596D02*
X0110528Y0138596D01*
X0109529Y0137598D02*
X0107553Y0137598D01*
X0108403Y0136599D02*
X0108784Y0136599D01*
X0101920Y0138596D02*
X0097403Y0138596D01*
X0098401Y0137598D02*
X0100378Y0137598D01*
X0099528Y0136599D02*
X0099146Y0136599D01*
X0094320Y0133335D02*
X0093965Y0133690D01*
X0094320Y0133335D02*
X0094320Y0112036D01*
X0069713Y0087430D01*
X0054359Y0087430D01*
X0050028Y0086446D02*
X0050028Y0094320D01*
X0048060Y0096288D01*
X0049323Y0095239D02*
X0043270Y0095239D01*
X0043270Y0095288D01*
X0042040Y0096518D01*
X0036363Y0096518D01*
X0035133Y0095288D01*
X0035133Y0094792D01*
X0034975Y0094857D01*
X0033586Y0094857D01*
X0032303Y0094326D01*
X0032216Y0094239D01*
X0031800Y0094351D01*
X0030631Y0094351D01*
X0030631Y0091367D01*
X0029662Y0091367D01*
X0029662Y0094351D01*
X0029289Y0094351D01*
X0031833Y0096641D01*
X0071314Y0096641D01*
X0071673Y0096282D01*
X0072956Y0095750D01*
X0074345Y0095750D01*
X0074366Y0095759D01*
X0068636Y0090030D01*
X0059215Y0090030D01*
X0059215Y0090268D01*
X0057985Y0091498D01*
X0050733Y0091498D01*
X0050554Y0091319D01*
X0050554Y0094008D01*
X0049323Y0095239D01*
X0049900Y0094662D02*
X0073268Y0094662D01*
X0074267Y0095660D02*
X0042898Y0095660D01*
X0039202Y0092253D02*
X0045698Y0090776D01*
X0045698Y0091170D01*
X0050554Y0091666D02*
X0070273Y0091666D01*
X0071271Y0092665D02*
X0050554Y0092665D01*
X0050554Y0093663D02*
X0072270Y0093663D01*
X0078625Y0092665D02*
X0078924Y0092665D01*
X0078924Y0092964D02*
X0078924Y0084031D01*
X0077877Y0084031D01*
X0076594Y0083499D01*
X0076235Y0083140D01*
X0049954Y0083140D01*
X0049954Y0083205D01*
X0046182Y0083205D01*
X0046182Y0084174D01*
X0049921Y0084174D01*
X0050733Y0083361D01*
X0057985Y0083361D01*
X0059215Y0084592D01*
X0059215Y0084830D01*
X0070231Y0084830D01*
X0071186Y0085226D01*
X0078924Y0092964D01*
X0078924Y0091666D02*
X0077626Y0091666D01*
X0076628Y0090668D02*
X0078924Y0090668D01*
X0078924Y0089669D02*
X0075629Y0089669D01*
X0074631Y0088670D02*
X0078924Y0088670D01*
X0078924Y0087672D02*
X0073632Y0087672D01*
X0072634Y0086673D02*
X0078924Y0086673D01*
X0078924Y0085675D02*
X0071635Y0085675D01*
X0078924Y0084676D02*
X0059215Y0084676D01*
X0058301Y0083678D02*
X0077026Y0083678D01*
X0078572Y0080540D02*
X0032312Y0080540D01*
X0030146Y0078087D01*
X0026078Y0077687D02*
X0024342Y0077687D01*
X0023928Y0078685D02*
X0026078Y0078685D01*
X0026078Y0079684D02*
X0022960Y0079684D01*
X0022142Y0080682D02*
X0026360Y0080682D01*
X0026237Y0081681D02*
X0023244Y0081681D01*
X0024046Y0082679D02*
X0026078Y0082679D01*
X0025656Y0083678D02*
X0024460Y0083678D01*
X0024766Y0084676D02*
X0024824Y0084676D01*
X0025914Y0087430D02*
X0028375Y0084477D01*
X0028859Y0084477D01*
X0030146Y0083977D01*
X0034280Y0086052D02*
X0034280Y0091367D01*
X0030631Y0091666D02*
X0029662Y0091666D01*
X0029359Y0092351D02*
X0030146Y0090883D01*
X0029359Y0092351D02*
X0033296Y0096288D01*
X0033113Y0094662D02*
X0029634Y0094662D01*
X0029662Y0093663D02*
X0030631Y0093663D01*
X0030631Y0092665D02*
X0029662Y0092665D01*
X0025914Y0094812D02*
X0025914Y0087430D01*
X0034280Y0086052D02*
X0034792Y0085540D01*
X0039202Y0085560D01*
X0045698Y0083690D02*
X0047272Y0083690D01*
X0050028Y0086446D01*
X0050417Y0083678D02*
X0046182Y0083678D01*
X0045698Y0077391D02*
X0045698Y0076997D01*
X0039202Y0076997D01*
X0026982Y0074691D02*
X0024766Y0074691D01*
X0024766Y0075690D02*
X0026279Y0075690D01*
X0026078Y0076688D02*
X0024755Y0076688D01*
X0024466Y0073693D02*
X0027009Y0073693D01*
X0026678Y0072694D02*
X0024052Y0072694D01*
X0023259Y0071696D02*
X0026678Y0071696D01*
X0026678Y0070697D02*
X0022178Y0070697D01*
X0021979Y0069699D02*
X0026678Y0069699D01*
X0026992Y0068700D02*
X0023061Y0068700D01*
X0009180Y0069699D02*
X0004700Y0069699D01*
X0004700Y0070697D02*
X0008981Y0070697D01*
X0007900Y0071696D02*
X0004700Y0071696D01*
X0004700Y0072694D02*
X0007107Y0072694D01*
X0006693Y0073693D02*
X0004700Y0073693D01*
X0004700Y0074691D02*
X0006393Y0074691D01*
X0006393Y0075690D02*
X0004700Y0075690D01*
X0004700Y0076688D02*
X0006404Y0076688D01*
X0006817Y0077687D02*
X0004700Y0077687D01*
X0004700Y0078685D02*
X0007231Y0078685D01*
X0008199Y0079684D02*
X0004700Y0079684D01*
X0004700Y0080682D02*
X0009017Y0080682D01*
X0007915Y0081681D02*
X0004700Y0081681D01*
X0004700Y0082679D02*
X0007113Y0082679D01*
X0006699Y0083678D02*
X0004700Y0083678D01*
X0004700Y0084676D02*
X0006393Y0084676D01*
X0006393Y0085675D02*
X0004700Y0085675D01*
X0004700Y0086673D02*
X0006397Y0086673D01*
X0006811Y0087672D02*
X0004700Y0087672D01*
X0004700Y0088670D02*
X0007225Y0088670D01*
X0008184Y0089669D02*
X0004700Y0089669D01*
X0004700Y0090668D02*
X0009053Y0090668D01*
X0007930Y0091666D02*
X0004700Y0091666D01*
X0004700Y0092665D02*
X0007119Y0092665D01*
X0006705Y0093663D02*
X0004700Y0093663D01*
X0004700Y0094662D02*
X0006393Y0094662D01*
X0006393Y0095660D02*
X0004700Y0095660D01*
X0004700Y0096659D02*
X0006393Y0096659D01*
X0006805Y0097657D02*
X0004700Y0097657D01*
X0004700Y0098656D02*
X0007218Y0098656D01*
X0008169Y0099654D02*
X0004700Y0099654D01*
X0004700Y0100653D02*
X0009089Y0100653D01*
X0007944Y0101651D02*
X0004700Y0101651D01*
X0004700Y0102650D02*
X0007125Y0102650D01*
X0006712Y0103648D02*
X0004700Y0103648D01*
X0004700Y0104647D02*
X0006393Y0104647D01*
X0006393Y0105645D02*
X0004700Y0105645D01*
X0004700Y0106644D02*
X0006393Y0106644D01*
X0006799Y0107642D02*
X0004700Y0107642D01*
X0004700Y0108641D02*
X0007212Y0108641D01*
X0008154Y0109639D02*
X0004700Y0109639D01*
X0004700Y0110638D02*
X0009596Y0110638D01*
X0008829Y0111636D02*
X0004700Y0111636D01*
X0004700Y0112635D02*
X0007913Y0112635D01*
X0007353Y0113633D02*
X0004700Y0113633D01*
X0004700Y0114632D02*
X0007074Y0114632D01*
X0007102Y0116629D02*
X0004700Y0116629D01*
X0004700Y0117627D02*
X0007439Y0117627D01*
X0008044Y0118626D02*
X0004700Y0118626D01*
X0004700Y0119624D02*
X0009077Y0119624D01*
X0004700Y0120623D02*
X0036213Y0120623D01*
X0035250Y0119624D02*
X0022082Y0119624D01*
X0023115Y0118626D02*
X0034286Y0118626D01*
X0033323Y0117627D02*
X0023720Y0117627D01*
X0024057Y0116629D02*
X0032359Y0116629D01*
X0031395Y0115630D02*
X0016080Y0115630D01*
X0016080Y0116629D02*
X0015080Y0116629D01*
X0015080Y0117627D02*
X0016080Y0117627D01*
X0016080Y0118626D02*
X0015080Y0118626D01*
X0015080Y0119624D02*
X0016080Y0119624D01*
X0015079Y0115630D02*
X0004700Y0115630D01*
X0004700Y0121621D02*
X0037177Y0121621D01*
X0038141Y0122620D02*
X0004700Y0122620D01*
X0004700Y0123618D02*
X0039104Y0123618D01*
X0040068Y0124617D02*
X0004700Y0124617D01*
X0004700Y0125615D02*
X0041031Y0125615D01*
X0041995Y0126614D02*
X0004700Y0126614D01*
X0004700Y0127612D02*
X0042959Y0127612D01*
X0043922Y0128611D02*
X0004700Y0128611D01*
X0004700Y0129609D02*
X0044886Y0129609D01*
X0045849Y0130608D02*
X0004700Y0130608D01*
X0004700Y0131606D02*
X0046813Y0131606D01*
X0047777Y0132605D02*
X0004700Y0132605D01*
X0004700Y0133603D02*
X0048065Y0133603D01*
X0048065Y0134602D02*
X0004700Y0134602D01*
X0004700Y0135601D02*
X0048371Y0135601D01*
X0048784Y0136599D02*
X0004700Y0136599D01*
X0004700Y0137598D02*
X0049529Y0137598D01*
X0050528Y0138596D02*
X0004700Y0138596D01*
X0004700Y0139595D02*
X0147830Y0139595D01*
X0147830Y0140593D02*
X0016901Y0140593D01*
X0017923Y0141016D02*
X0020064Y0143158D01*
X0021223Y0145955D01*
X0021223Y0148983D01*
X0020064Y0151781D01*
X0017923Y0153922D01*
X0015125Y0155081D01*
X0012097Y0155081D01*
X0009299Y0153922D01*
X0007158Y0151781D01*
X0005999Y0148983D01*
X0005999Y0145955D01*
X0007158Y0143158D01*
X0009299Y0141016D01*
X0012097Y0139857D01*
X0015125Y0139857D01*
X0017923Y0141016D01*
X0018498Y0141592D02*
X0147830Y0141592D01*
X0147830Y0142590D02*
X0019497Y0142590D01*
X0020243Y0143589D02*
X0142321Y0143589D01*
X0141627Y0144587D02*
X0020656Y0144587D01*
X0021070Y0145586D02*
X0141432Y0145586D01*
X0141432Y0146584D02*
X0021223Y0146584D01*
X0021223Y0147583D02*
X0141432Y0147583D01*
X0141432Y0148581D02*
X0021223Y0148581D01*
X0020976Y0149580D02*
X0141721Y0149580D01*
X0142549Y0150578D02*
X0020562Y0150578D01*
X0020149Y0151577D02*
X0142240Y0151577D01*
X0142032Y0152575D02*
X0019270Y0152575D01*
X0018271Y0153574D02*
X0145016Y0153574D01*
X0145985Y0153574D02*
X0157812Y0153574D01*
X0157812Y0153391D02*
X0154828Y0153391D01*
X0154828Y0153022D01*
X0154737Y0153113D01*
X0149060Y0153113D01*
X0148969Y0153022D01*
X0148969Y0153391D01*
X0145985Y0153391D01*
X0145985Y0154359D01*
X0148969Y0154359D01*
X0148969Y0155528D01*
X0148827Y0156060D01*
X0148642Y0156380D01*
X0155155Y0156380D01*
X0154970Y0156060D01*
X0154828Y0155528D01*
X0154828Y0154359D01*
X0157812Y0154359D01*
X0157812Y0153391D01*
X0158780Y0153391D02*
X0158780Y0154359D01*
X0161765Y0154359D01*
X0161765Y0155528D01*
X0161622Y0156060D01*
X0161437Y0156380D01*
X0166966Y0156380D01*
X0166781Y0156060D01*
X0166639Y0155528D01*
X0166639Y0154359D01*
X0169623Y0154359D01*
X0169623Y0153391D01*
X0166639Y0153391D01*
X0166639Y0153113D01*
X0161765Y0153113D01*
X0161765Y0153391D01*
X0158780Y0153391D01*
X0158780Y0153574D02*
X0169623Y0153574D01*
X0170591Y0153574D02*
X0193990Y0153574D01*
X0194339Y0153922D02*
X0192197Y0151781D01*
X0191039Y0148983D01*
X0191039Y0145955D01*
X0192197Y0143158D01*
X0194339Y0141016D01*
X0197136Y0139857D01*
X0200164Y0139857D01*
X0202962Y0141016D01*
X0205103Y0143158D01*
X0206262Y0145955D01*
X0206262Y0148983D01*
X0205103Y0151781D01*
X0202962Y0153922D01*
X0200164Y0155081D01*
X0197136Y0155081D01*
X0194339Y0153922D01*
X0195908Y0154572D02*
X0173576Y0154572D01*
X0173564Y0155571D02*
X0392601Y0155571D01*
X0392601Y0154572D02*
X0386432Y0154572D01*
X0385204Y0155081D02*
X0388002Y0153922D01*
X0390143Y0151781D01*
X0391302Y0148983D01*
X0391302Y0145955D01*
X0390143Y0143158D01*
X0388002Y0141016D01*
X0385204Y0139857D01*
X0382176Y0139857D01*
X0379378Y0141016D01*
X0377237Y0143158D01*
X0376078Y0145955D01*
X0376078Y0148983D01*
X0377237Y0151781D01*
X0379378Y0153922D01*
X0382176Y0155081D01*
X0385204Y0155081D01*
X0388350Y0153574D02*
X0392601Y0153574D01*
X0392601Y0152575D02*
X0389349Y0152575D01*
X0390227Y0151577D02*
X0392601Y0151577D01*
X0392601Y0150578D02*
X0390641Y0150578D01*
X0391055Y0149580D02*
X0392601Y0149580D01*
X0392601Y0148581D02*
X0391302Y0148581D01*
X0391302Y0147583D02*
X0392601Y0147583D01*
X0392601Y0146584D02*
X0391302Y0146584D01*
X0391148Y0145586D02*
X0392601Y0145586D01*
X0392601Y0144587D02*
X0390735Y0144587D01*
X0390321Y0143589D02*
X0392601Y0143589D01*
X0392601Y0142590D02*
X0389575Y0142590D01*
X0388577Y0141592D02*
X0392601Y0141592D01*
X0392601Y0140593D02*
X0386980Y0140593D01*
X0392601Y0139595D02*
X0356804Y0139595D01*
X0356804Y0139592D02*
X0356804Y0143032D01*
X0352261Y0143032D01*
X0352261Y0144032D01*
X0356804Y0144032D01*
X0356804Y0147473D01*
X0356680Y0148257D01*
X0356434Y0149012D01*
X0356074Y0149719D01*
X0355607Y0150361D01*
X0355046Y0150922D01*
X0354404Y0151389D01*
X0353697Y0151749D01*
X0352942Y0151995D01*
X0352261Y0152103D01*
X0352261Y0144032D01*
X0351261Y0144032D01*
X0351261Y0152103D01*
X0350580Y0151995D01*
X0349825Y0151749D01*
X0349117Y0151389D01*
X0348475Y0150922D01*
X0347914Y0150361D01*
X0347447Y0149719D01*
X0347087Y0149012D01*
X0347078Y0148985D01*
X0346545Y0150272D01*
X0344957Y0151860D01*
X0342883Y0152719D01*
X0340638Y0152719D01*
X0338564Y0151860D01*
X0336976Y0150272D01*
X0336761Y0149751D01*
X0336545Y0150272D01*
X0334957Y0151860D01*
X0332883Y0152719D01*
X0330638Y0152719D01*
X0328564Y0151860D01*
X0326976Y0150272D01*
X0326761Y0149751D01*
X0326545Y0150272D01*
X0324957Y0151860D01*
X0322883Y0152719D01*
X0320638Y0152719D01*
X0318564Y0151860D01*
X0316976Y0150272D01*
X0316443Y0148985D01*
X0316434Y0149012D01*
X0316074Y0149719D01*
X0315607Y0150361D01*
X0315046Y0150922D01*
X0314404Y0151389D01*
X0313697Y0151749D01*
X0312942Y0151995D01*
X0312261Y0152103D01*
X0312261Y0144032D01*
X0311261Y0144032D01*
X0311261Y0152103D01*
X0310580Y0151995D01*
X0309825Y0151749D01*
X0309117Y0151389D01*
X0308475Y0150922D01*
X0307914Y0150361D01*
X0307447Y0149719D01*
X0307087Y0149012D01*
X0307078Y0148985D01*
X0306545Y0150272D01*
X0304957Y0151860D01*
X0302883Y0152719D01*
X0300638Y0152719D01*
X0298564Y0151860D01*
X0296976Y0150272D01*
X0296761Y0149751D01*
X0296545Y0150272D01*
X0294957Y0151860D01*
X0292883Y0152719D01*
X0290638Y0152719D01*
X0288564Y0151860D01*
X0286976Y0150272D01*
X0286761Y0149751D01*
X0286545Y0150272D01*
X0284957Y0151860D01*
X0282883Y0152719D01*
X0280638Y0152719D01*
X0278564Y0151860D01*
X0276976Y0150272D01*
X0276117Y0148198D01*
X0276117Y0138866D01*
X0276976Y0136792D01*
X0278564Y0135205D01*
X0280638Y0134346D01*
X0282883Y0134346D01*
X0284957Y0135205D01*
X0286545Y0136792D01*
X0286761Y0137313D01*
X0286976Y0136792D01*
X0288564Y0135205D01*
X0290638Y0134346D01*
X0292883Y0134346D01*
X0294957Y0135205D01*
X0296545Y0136792D01*
X0296761Y0137313D01*
X0296976Y0136792D01*
X0298564Y0135205D01*
X0300638Y0134346D01*
X0302883Y0134346D01*
X0304957Y0135205D01*
X0306545Y0136792D01*
X0307078Y0138080D01*
X0307087Y0138053D01*
X0307447Y0137346D01*
X0307914Y0136703D01*
X0308475Y0136142D01*
X0309117Y0135676D01*
X0309825Y0135315D01*
X0310580Y0135070D01*
X0311261Y0134962D01*
X0311261Y0143032D01*
X0312261Y0143032D01*
X0312261Y0134962D01*
X0312942Y0135070D01*
X0313697Y0135315D01*
X0314404Y0135676D01*
X0315046Y0136142D01*
X0315607Y0136703D01*
X0316074Y0137346D01*
X0316434Y0138053D01*
X0316443Y0138080D01*
X0316976Y0136792D01*
X0318564Y0135205D01*
X0320638Y0134346D01*
X0322883Y0134346D01*
X0324957Y0135205D01*
X0326545Y0136792D01*
X0326761Y0137313D01*
X0326976Y0136792D01*
X0328564Y0135205D01*
X0330638Y0134346D01*
X0332883Y0134346D01*
X0334957Y0135205D01*
X0336545Y0136792D01*
X0336761Y0137313D01*
X0336976Y0136792D01*
X0338564Y0135205D01*
X0340638Y0134346D01*
X0342883Y0134346D01*
X0344957Y0135205D01*
X0346545Y0136792D01*
X0347078Y0138080D01*
X0347087Y0138053D01*
X0347447Y0137346D01*
X0347914Y0136703D01*
X0348475Y0136142D01*
X0349117Y0135676D01*
X0349825Y0135315D01*
X0350580Y0135070D01*
X0351261Y0134962D01*
X0351261Y0143032D01*
X0352261Y0143032D01*
X0352261Y0134962D01*
X0352942Y0135070D01*
X0353697Y0135315D01*
X0354404Y0135676D01*
X0355046Y0136142D01*
X0355607Y0136703D01*
X0356074Y0137346D01*
X0356434Y0138053D01*
X0356680Y0138808D01*
X0356804Y0139592D01*
X0356804Y0140593D02*
X0380400Y0140593D01*
X0378803Y0141592D02*
X0356804Y0141592D01*
X0356804Y0142590D02*
X0377804Y0142590D01*
X0377058Y0143589D02*
X0352261Y0143589D01*
X0352261Y0144587D02*
X0351261Y0144587D01*
X0351261Y0145586D02*
X0352261Y0145586D01*
X0352261Y0146584D02*
X0351261Y0146584D01*
X0351261Y0147583D02*
X0352261Y0147583D01*
X0352261Y0148581D02*
X0351261Y0148581D01*
X0351261Y0149580D02*
X0352261Y0149580D01*
X0352261Y0150578D02*
X0351261Y0150578D01*
X0351261Y0151577D02*
X0352261Y0151577D01*
X0354036Y0151577D02*
X0377152Y0151577D01*
X0376739Y0150578D02*
X0355390Y0150578D01*
X0356145Y0149580D02*
X0376325Y0149580D01*
X0376078Y0148581D02*
X0356574Y0148581D01*
X0356786Y0147583D02*
X0376078Y0147583D01*
X0376078Y0146584D02*
X0356804Y0146584D01*
X0356804Y0145586D02*
X0376231Y0145586D01*
X0376645Y0144587D02*
X0356804Y0144587D01*
X0352261Y0142590D02*
X0351261Y0142590D01*
X0351261Y0141592D02*
X0352261Y0141592D01*
X0352261Y0140593D02*
X0351261Y0140593D01*
X0351261Y0139595D02*
X0352261Y0139595D01*
X0352261Y0138596D02*
X0351261Y0138596D01*
X0351261Y0137598D02*
X0352261Y0137598D01*
X0352261Y0136599D02*
X0351261Y0136599D01*
X0351261Y0135601D02*
X0352261Y0135601D01*
X0354257Y0135601D02*
X0392601Y0135601D01*
X0392601Y0136599D02*
X0355503Y0136599D01*
X0356202Y0137598D02*
X0392601Y0137598D01*
X0392601Y0138596D02*
X0356611Y0138596D01*
X0349265Y0135601D02*
X0345353Y0135601D01*
X0346352Y0136599D02*
X0348018Y0136599D01*
X0347319Y0137598D02*
X0346878Y0137598D01*
X0343502Y0134602D02*
X0392601Y0134602D01*
X0392601Y0133603D02*
X0239865Y0133603D01*
X0239865Y0132605D02*
X0392601Y0132605D01*
X0392601Y0131606D02*
X0239489Y0131606D01*
X0239075Y0130608D02*
X0392601Y0130608D01*
X0392601Y0129609D02*
X0238229Y0129609D01*
X0237121Y0128611D02*
X0392601Y0128611D01*
X0392601Y0127612D02*
X0136025Y0127612D01*
X0135212Y0126614D02*
X0392601Y0126614D01*
X0392601Y0125615D02*
X0134214Y0125615D01*
X0133215Y0124617D02*
X0392601Y0124617D01*
X0392601Y0123618D02*
X0132217Y0123618D01*
X0131218Y0122620D02*
X0392601Y0122620D01*
X0392601Y0121621D02*
X0130189Y0121621D01*
X0128769Y0123847D02*
X0133690Y0128769D01*
X0133690Y0133414D01*
X0133965Y0133690D01*
X0138229Y0129609D02*
X0139702Y0129609D01*
X0140809Y0128611D02*
X0137121Y0128611D01*
X0128769Y0123847D02*
X0115973Y0123847D01*
X0087430Y0095304D01*
X0087430Y0077587D01*
X0055934Y0046091D01*
X0054359Y0046091D01*
X0050028Y0043631D02*
X0050028Y0055934D01*
X0054359Y0059871D02*
X0065776Y0059871D01*
X0084477Y0078572D01*
X0084477Y0096288D01*
X0114989Y0126800D01*
X0121879Y0126800D01*
X0124831Y0129753D01*
X0124831Y0132824D01*
X0123965Y0133690D01*
X0119529Y0137598D02*
X0118401Y0137598D01*
X0117403Y0138596D02*
X0120528Y0138596D01*
X0127403Y0138596D02*
X0130528Y0138596D01*
X0129529Y0137598D02*
X0128401Y0137598D01*
X0137403Y0138596D02*
X0140528Y0138596D01*
X0139529Y0137598D02*
X0138401Y0137598D01*
X0147403Y0138596D02*
X0148353Y0138596D01*
X0148401Y0137598D02*
X0149298Y0137598D01*
X0151898Y0135757D02*
X0153965Y0133690D01*
X0151898Y0135757D02*
X0151898Y0142154D01*
X0147461Y0146969D02*
X0145501Y0146969D01*
X0147461Y0146969D02*
X0149438Y0148946D01*
X0151800Y0148946D01*
X0151898Y0148847D01*
X0158296Y0146969D02*
X0160749Y0146969D01*
X0162233Y0148454D01*
X0163808Y0148454D01*
X0164202Y0148847D01*
X0170107Y0146969D02*
X0176013Y0148847D01*
X0180081Y0148581D02*
X0191039Y0148581D01*
X0191039Y0147583D02*
X0180081Y0147583D01*
X0180081Y0146584D02*
X0191039Y0146584D01*
X0191192Y0145586D02*
X0179855Y0145586D01*
X0180081Y0144587D02*
X0191605Y0144587D01*
X0192019Y0143589D02*
X0180081Y0143589D01*
X0180081Y0142590D02*
X0192765Y0142590D01*
X0193763Y0141592D02*
X0180081Y0141592D01*
X0180081Y0140593D02*
X0195360Y0140593D01*
X0197403Y0138596D02*
X0200528Y0138596D01*
X0199529Y0137598D02*
X0198401Y0137598D01*
X0201940Y0140593D02*
X0276117Y0140593D01*
X0276117Y0139595D02*
X0180081Y0139595D01*
X0180528Y0138596D02*
X0179558Y0138596D01*
X0179529Y0137598D02*
X0178613Y0137598D01*
X0176013Y0135737D02*
X0173965Y0133690D01*
X0176013Y0135737D02*
X0176013Y0142154D01*
X0164202Y0142154D02*
X0164202Y0133926D01*
X0163965Y0133690D01*
X0159702Y0129609D02*
X0158229Y0129609D01*
X0157121Y0128611D02*
X0160809Y0128611D01*
X0167121Y0128611D02*
X0170809Y0128611D01*
X0169702Y0129609D02*
X0168229Y0129609D01*
X0177121Y0128611D02*
X0180809Y0128611D01*
X0179702Y0129609D02*
X0178229Y0129609D01*
X0187121Y0128611D02*
X0190809Y0128611D01*
X0189702Y0129609D02*
X0188229Y0129609D01*
X0197121Y0128611D02*
X0200809Y0128611D01*
X0199702Y0129609D02*
X0198229Y0129609D01*
X0207121Y0128611D02*
X0210809Y0128611D01*
X0209702Y0129609D02*
X0208229Y0129609D01*
X0217121Y0128611D02*
X0220809Y0128611D01*
X0219702Y0129609D02*
X0218229Y0129609D01*
X0227121Y0128611D02*
X0230809Y0128611D01*
X0229702Y0129609D02*
X0228229Y0129609D01*
X0239865Y0134602D02*
X0280019Y0134602D01*
X0278168Y0135601D02*
X0239560Y0135601D01*
X0239146Y0136599D02*
X0277170Y0136599D01*
X0276643Y0137598D02*
X0238401Y0137598D01*
X0237403Y0138596D02*
X0276229Y0138596D01*
X0276117Y0141592D02*
X0203537Y0141592D01*
X0204536Y0142590D02*
X0276117Y0142590D01*
X0276117Y0143589D02*
X0205282Y0143589D01*
X0205696Y0144587D02*
X0276117Y0144587D01*
X0276117Y0145586D02*
X0206109Y0145586D01*
X0206262Y0146584D02*
X0276117Y0146584D01*
X0276117Y0147583D02*
X0206262Y0147583D01*
X0206262Y0148581D02*
X0276276Y0148581D01*
X0276690Y0149580D02*
X0206015Y0149580D01*
X0205602Y0150578D02*
X0277282Y0150578D01*
X0278281Y0151577D02*
X0205188Y0151577D01*
X0204309Y0152575D02*
X0280291Y0152575D01*
X0283230Y0152575D02*
X0290291Y0152575D01*
X0288281Y0151577D02*
X0285240Y0151577D01*
X0286239Y0150578D02*
X0287282Y0150578D01*
X0293230Y0152575D02*
X0300291Y0152575D01*
X0298281Y0151577D02*
X0295240Y0151577D01*
X0296239Y0150578D02*
X0297282Y0150578D01*
X0303230Y0152575D02*
X0320291Y0152575D01*
X0318281Y0151577D02*
X0314036Y0151577D01*
X0315390Y0150578D02*
X0317282Y0150578D01*
X0316690Y0149580D02*
X0316145Y0149580D01*
X0312261Y0149580D02*
X0311261Y0149580D01*
X0311261Y0150578D02*
X0312261Y0150578D01*
X0312261Y0151577D02*
X0311261Y0151577D01*
X0309486Y0151577D02*
X0305240Y0151577D01*
X0306239Y0150578D02*
X0308131Y0150578D01*
X0307376Y0149580D02*
X0306832Y0149580D01*
X0311261Y0148581D02*
X0312261Y0148581D01*
X0312261Y0147583D02*
X0311261Y0147583D01*
X0311261Y0146584D02*
X0312261Y0146584D01*
X0312261Y0145586D02*
X0311261Y0145586D01*
X0311261Y0144587D02*
X0312261Y0144587D01*
X0312261Y0142590D02*
X0311261Y0142590D01*
X0311261Y0141592D02*
X0312261Y0141592D01*
X0312261Y0140593D02*
X0311261Y0140593D01*
X0311261Y0139595D02*
X0312261Y0139595D01*
X0312261Y0138596D02*
X0311261Y0138596D01*
X0311261Y0137598D02*
X0312261Y0137598D01*
X0312261Y0136599D02*
X0311261Y0136599D01*
X0311261Y0135601D02*
X0312261Y0135601D01*
X0314257Y0135601D02*
X0318168Y0135601D01*
X0317170Y0136599D02*
X0315503Y0136599D01*
X0316202Y0137598D02*
X0316643Y0137598D01*
X0320019Y0134602D02*
X0303502Y0134602D01*
X0305353Y0135601D02*
X0309265Y0135601D01*
X0308018Y0136599D02*
X0306352Y0136599D01*
X0306878Y0137598D02*
X0307319Y0137598D01*
X0300019Y0134602D02*
X0293502Y0134602D01*
X0295353Y0135601D02*
X0298168Y0135601D01*
X0297170Y0136599D02*
X0296352Y0136599D01*
X0290019Y0134602D02*
X0283502Y0134602D01*
X0285353Y0135601D02*
X0288168Y0135601D01*
X0287170Y0136599D02*
X0286352Y0136599D01*
X0323502Y0134602D02*
X0330019Y0134602D01*
X0328168Y0135601D02*
X0325353Y0135601D01*
X0326352Y0136599D02*
X0327170Y0136599D01*
X0333502Y0134602D02*
X0340019Y0134602D01*
X0338168Y0135601D02*
X0335353Y0135601D01*
X0336352Y0136599D02*
X0337170Y0136599D01*
X0346832Y0149580D02*
X0347376Y0149580D01*
X0348131Y0150578D02*
X0346239Y0150578D01*
X0345240Y0151577D02*
X0349486Y0151577D01*
X0343230Y0152575D02*
X0378031Y0152575D01*
X0379029Y0153574D02*
X0203311Y0153574D01*
X0201393Y0154572D02*
X0380947Y0154572D01*
X0340291Y0152575D02*
X0333230Y0152575D01*
X0335240Y0151577D02*
X0338281Y0151577D01*
X0337282Y0150578D02*
X0336239Y0150578D01*
X0330291Y0152575D02*
X0323230Y0152575D01*
X0325240Y0151577D02*
X0328281Y0151577D01*
X0327282Y0150578D02*
X0326239Y0150578D01*
X0392601Y0120623D02*
X0116426Y0120623D01*
X0115427Y0119624D02*
X0392601Y0119624D01*
X0392601Y0118626D02*
X0114429Y0118626D01*
X0113430Y0117627D02*
X0329226Y0117627D01*
X0329547Y0117948D02*
X0328565Y0116966D01*
X0328034Y0115683D01*
X0328034Y0114295D01*
X0328565Y0113012D01*
X0329547Y0112030D01*
X0330830Y0111498D01*
X0332219Y0111498D01*
X0333502Y0112030D01*
X0333861Y0112389D01*
X0338046Y0112389D01*
X0338405Y0112030D01*
X0339688Y0111498D01*
X0341077Y0111498D01*
X0342360Y0112030D01*
X0343342Y0113012D01*
X0343873Y0114295D01*
X0343873Y0115683D01*
X0343342Y0116966D01*
X0342360Y0117948D01*
X0341077Y0118480D01*
X0339688Y0118480D01*
X0338405Y0117948D01*
X0338046Y0117589D01*
X0333861Y0117589D01*
X0333502Y0117948D01*
X0332219Y0118480D01*
X0330830Y0118480D01*
X0329547Y0117948D01*
X0328426Y0116629D02*
X0112432Y0116629D01*
X0111433Y0115630D02*
X0283922Y0115630D01*
X0284272Y0115980D02*
X0283290Y0114998D01*
X0282758Y0113715D01*
X0282758Y0112326D01*
X0283290Y0111043D01*
X0283349Y0110984D01*
X0283349Y0110100D01*
X0283287Y0110074D01*
X0282305Y0109092D01*
X0281774Y0107809D01*
X0281774Y0106421D01*
X0282305Y0105138D01*
X0283287Y0104156D01*
X0284570Y0103624D01*
X0285959Y0103624D01*
X0287242Y0104156D01*
X0288224Y0105138D01*
X0288755Y0106421D01*
X0288755Y0106572D01*
X0289149Y0107522D01*
X0289149Y0110984D01*
X0289208Y0111043D01*
X0289739Y0112326D01*
X0289739Y0113715D01*
X0289208Y0114998D01*
X0288226Y0115980D01*
X0286943Y0116511D01*
X0285554Y0116511D01*
X0284272Y0115980D01*
X0283138Y0114632D02*
X0110435Y0114632D01*
X0109436Y0113633D02*
X0282758Y0113633D01*
X0282758Y0112635D02*
X0108438Y0112635D01*
X0107439Y0111636D02*
X0283044Y0111636D01*
X0283349Y0110638D02*
X0106441Y0110638D01*
X0105442Y0109639D02*
X0282852Y0109639D01*
X0282118Y0108641D02*
X0104444Y0108641D01*
X0103445Y0107642D02*
X0281774Y0107642D01*
X0281774Y0106644D02*
X0102447Y0106644D01*
X0101448Y0105645D02*
X0282095Y0105645D01*
X0282796Y0104647D02*
X0100450Y0104647D01*
X0099451Y0103648D02*
X0284513Y0103648D01*
X0286016Y0103648D02*
X0392601Y0103648D01*
X0392601Y0102650D02*
X0098453Y0102650D01*
X0097454Y0101651D02*
X0392601Y0101651D01*
X0392601Y0100653D02*
X0096456Y0100653D01*
X0095457Y0099654D02*
X0392601Y0099654D01*
X0392601Y0098656D02*
X0094459Y0098656D01*
X0093460Y0097657D02*
X0392601Y0097657D01*
X0392601Y0096659D02*
X0092462Y0096659D01*
X0091463Y0095660D02*
X0392601Y0095660D01*
X0392601Y0094662D02*
X0090464Y0094662D01*
X0090030Y0093663D02*
X0392601Y0093663D01*
X0392601Y0092665D02*
X0090030Y0092665D01*
X0090030Y0091666D02*
X0392601Y0091666D01*
X0392601Y0090668D02*
X0195034Y0090668D01*
X0196426Y0089669D02*
X0392601Y0089669D01*
X0392601Y0088670D02*
X0196993Y0088670D01*
X0197220Y0087672D02*
X0392601Y0087672D01*
X0392601Y0086673D02*
X0197194Y0086673D01*
X0196780Y0085675D02*
X0392601Y0085675D01*
X0392601Y0084676D02*
X0196329Y0084676D01*
X0196329Y0083678D02*
X0392601Y0083678D01*
X0392601Y0082679D02*
X0196329Y0082679D01*
X0196329Y0081681D02*
X0392601Y0081681D01*
X0392601Y0080682D02*
X0196329Y0080682D01*
X0196329Y0079684D02*
X0392601Y0079684D01*
X0392601Y0078685D02*
X0196329Y0078685D01*
X0196329Y0077687D02*
X0392601Y0077687D01*
X0392601Y0076688D02*
X0196329Y0076688D01*
X0196329Y0075690D02*
X0392601Y0075690D01*
X0392601Y0074691D02*
X0196329Y0074691D01*
X0196329Y0073693D02*
X0392601Y0073693D01*
X0392601Y0072694D02*
X0196329Y0072694D01*
X0196408Y0071696D02*
X0392601Y0071696D01*
X0392601Y0070697D02*
X0197406Y0070697D01*
X0198405Y0069699D02*
X0392601Y0069699D01*
X0392601Y0068700D02*
X0199403Y0068700D01*
X0200402Y0067702D02*
X0392601Y0067702D01*
X0392601Y0066703D02*
X0201400Y0066703D01*
X0202399Y0065705D02*
X0392601Y0065705D01*
X0392601Y0064706D02*
X0203397Y0064706D01*
X0204396Y0063708D02*
X0392601Y0063708D01*
X0392601Y0062709D02*
X0205395Y0062709D01*
X0206393Y0061711D02*
X0392601Y0061711D01*
X0392601Y0060712D02*
X0207392Y0060712D01*
X0208390Y0059714D02*
X0392601Y0059714D01*
X0392601Y0058715D02*
X0209389Y0058715D01*
X0210387Y0057717D02*
X0392601Y0057717D01*
X0392601Y0056718D02*
X0211386Y0056718D01*
X0212384Y0055720D02*
X0392601Y0055720D01*
X0392601Y0054721D02*
X0213383Y0054721D01*
X0214381Y0053723D02*
X0392601Y0053723D01*
X0392601Y0052724D02*
X0215380Y0052724D01*
X0216378Y0051726D02*
X0392601Y0051726D01*
X0392601Y0050727D02*
X0217377Y0050727D01*
X0218375Y0049729D02*
X0392601Y0049729D01*
X0392601Y0048730D02*
X0219374Y0048730D01*
X0220372Y0047732D02*
X0392601Y0047732D01*
X0392601Y0046733D02*
X0221371Y0046733D01*
X0222369Y0045734D02*
X0331152Y0045734D01*
X0331516Y0046098D02*
X0330534Y0045116D01*
X0330002Y0043833D01*
X0330002Y0042444D01*
X0330534Y0041161D01*
X0331516Y0040179D01*
X0332799Y0039648D01*
X0334187Y0039648D01*
X0335470Y0040179D01*
X0335829Y0040539D01*
X0340015Y0040539D01*
X0340374Y0040179D01*
X0341657Y0039648D01*
X0343045Y0039648D01*
X0344328Y0040179D01*
X0345310Y0041161D01*
X0345842Y0042444D01*
X0345842Y0043833D01*
X0345310Y0045116D01*
X0344328Y0046098D01*
X0343045Y0046629D01*
X0341657Y0046629D01*
X0340374Y0046098D01*
X0340015Y0045739D01*
X0335829Y0045739D01*
X0335470Y0046098D01*
X0334187Y0046629D01*
X0332799Y0046629D01*
X0331516Y0046098D01*
X0330376Y0044736D02*
X0223368Y0044736D01*
X0225177Y0043737D02*
X0330002Y0043737D01*
X0330002Y0042739D02*
X0226624Y0042739D01*
X0227214Y0041740D02*
X0330294Y0041740D01*
X0330953Y0040742D02*
X0227456Y0040742D01*
X0227446Y0039743D02*
X0332568Y0039743D01*
X0334418Y0039743D02*
X0341427Y0039743D01*
X0343276Y0039743D02*
X0392601Y0039743D01*
X0392601Y0038745D02*
X0235558Y0038745D01*
X0234450Y0038745D02*
X0233481Y0038745D01*
X0233481Y0037746D02*
X0234450Y0037746D01*
X0234450Y0036748D02*
X0233481Y0036748D01*
X0233481Y0035749D02*
X0234450Y0035749D01*
X0234450Y0034751D02*
X0233481Y0034751D01*
X0234450Y0033752D02*
X0392601Y0033752D01*
X0392601Y0032754D02*
X0239183Y0032754D01*
X0239135Y0032449D02*
X0239255Y0033205D01*
X0234450Y0033205D01*
X0234450Y0028400D01*
X0235206Y0028520D01*
X0236000Y0028778D01*
X0236743Y0029157D01*
X0237418Y0029647D01*
X0238008Y0030237D01*
X0238498Y0030912D01*
X0238877Y0031655D01*
X0239135Y0032449D01*
X0238910Y0031755D02*
X0392601Y0031755D01*
X0392601Y0030757D02*
X0238386Y0030757D01*
X0237529Y0029758D02*
X0392601Y0029758D01*
X0392601Y0028760D02*
X0235944Y0028760D01*
X0234450Y0028760D02*
X0233481Y0028760D01*
X0233481Y0029758D02*
X0234450Y0029758D01*
X0234450Y0030757D02*
X0233481Y0030757D01*
X0233481Y0031755D02*
X0234450Y0031755D01*
X0234450Y0032754D02*
X0233481Y0032754D01*
X0229545Y0030757D02*
X0229137Y0030757D01*
X0228378Y0029758D02*
X0230401Y0029758D01*
X0231987Y0028760D02*
X0227379Y0028760D01*
X0220551Y0028760D02*
X0217379Y0028760D01*
X0218378Y0029758D02*
X0219553Y0029758D01*
X0210551Y0028760D02*
X0207379Y0028760D01*
X0208378Y0029758D02*
X0209553Y0029758D01*
X0200551Y0028760D02*
X0197379Y0028760D01*
X0198378Y0029758D02*
X0199553Y0029758D01*
X0190551Y0028760D02*
X0187379Y0028760D01*
X0188378Y0029758D02*
X0189553Y0029758D01*
X0180551Y0028760D02*
X0177379Y0028760D01*
X0178378Y0029758D02*
X0179553Y0029758D01*
X0170551Y0028760D02*
X0167379Y0028760D01*
X0168378Y0029758D02*
X0169553Y0029758D01*
X0160551Y0028760D02*
X0157379Y0028760D01*
X0158378Y0029758D02*
X0159553Y0029758D01*
X0150551Y0028760D02*
X0147379Y0028760D01*
X0148378Y0029758D02*
X0149553Y0029758D01*
X0140551Y0028760D02*
X0137379Y0028760D01*
X0138378Y0029758D02*
X0139553Y0029758D01*
X0130551Y0028760D02*
X0127379Y0028760D01*
X0128378Y0029758D02*
X0129553Y0029758D01*
X0129678Y0037746D02*
X0128253Y0037746D01*
X0127179Y0038745D02*
X0130752Y0038745D01*
X0137179Y0038745D02*
X0140752Y0038745D01*
X0139678Y0037746D02*
X0138253Y0037746D01*
X0147179Y0038745D02*
X0150752Y0038745D01*
X0149678Y0037746D02*
X0148253Y0037746D01*
X0157179Y0038745D02*
X0160752Y0038745D01*
X0159678Y0037746D02*
X0158253Y0037746D01*
X0167179Y0038745D02*
X0170752Y0038745D01*
X0169678Y0037746D02*
X0168253Y0037746D01*
X0177179Y0038745D02*
X0180752Y0038745D01*
X0179678Y0037746D02*
X0178253Y0037746D01*
X0187179Y0038745D02*
X0190752Y0038745D01*
X0189678Y0037746D02*
X0188253Y0037746D01*
X0197179Y0038745D02*
X0200752Y0038745D01*
X0199678Y0037746D02*
X0198253Y0037746D01*
X0207179Y0038745D02*
X0210752Y0038745D01*
X0209678Y0037746D02*
X0208253Y0037746D01*
X0217179Y0038745D02*
X0220752Y0038745D01*
X0220485Y0039743D02*
X0072948Y0039743D01*
X0073946Y0040742D02*
X0220008Y0040742D01*
X0219009Y0041740D02*
X0074945Y0041740D01*
X0075943Y0042739D02*
X0218011Y0042739D01*
X0217012Y0043737D02*
X0076942Y0043737D01*
X0077940Y0044736D02*
X0216014Y0044736D01*
X0215015Y0045734D02*
X0079703Y0045734D01*
X0081197Y0046733D02*
X0214017Y0046733D01*
X0213018Y0047732D02*
X0081806Y0047732D01*
X0082062Y0048730D02*
X0212020Y0048730D01*
X0211021Y0049729D02*
X0082062Y0049729D01*
X0081653Y0050727D02*
X0210023Y0050727D01*
X0209024Y0051726D02*
X0080827Y0051726D01*
X0076317Y0051726D02*
X0076250Y0051726D01*
X0076250Y0052724D02*
X0208026Y0052724D01*
X0207027Y0053723D02*
X0076250Y0053723D01*
X0076250Y0054721D02*
X0206029Y0054721D01*
X0205030Y0055720D02*
X0076250Y0055720D01*
X0076250Y0056718D02*
X0204032Y0056718D01*
X0203033Y0057717D02*
X0077142Y0057717D01*
X0078140Y0058715D02*
X0202035Y0058715D01*
X0201036Y0059714D02*
X0080185Y0059714D01*
X0081397Y0060712D02*
X0200038Y0060712D01*
X0199039Y0061711D02*
X0081889Y0061711D01*
X0082062Y0062709D02*
X0198041Y0062709D01*
X0197042Y0063708D02*
X0081984Y0063708D01*
X0081570Y0064706D02*
X0196044Y0064706D01*
X0195045Y0065705D02*
X0080627Y0065705D01*
X0080223Y0066703D02*
X0194047Y0066703D01*
X0193048Y0067702D02*
X0081221Y0067702D01*
X0082220Y0068700D02*
X0192050Y0068700D01*
X0191329Y0069699D02*
X0181643Y0069699D01*
X0181422Y0069478D02*
X0182105Y0070160D01*
X0182612Y0070160D01*
X0183895Y0070691D01*
X0184877Y0071673D01*
X0185409Y0072956D01*
X0185409Y0074345D01*
X0184877Y0075628D01*
X0184533Y0075972D01*
X0185183Y0075972D01*
X0186145Y0075573D01*
X0187534Y0075573D01*
X0188817Y0076105D01*
X0189799Y0077087D01*
X0190330Y0078369D01*
X0190330Y0079758D01*
X0189799Y0081041D01*
X0188817Y0082023D01*
X0187534Y0082554D01*
X0186254Y0082554D01*
X0185862Y0083502D01*
X0184880Y0084484D01*
X0183597Y0085015D01*
X0182208Y0085015D01*
X0180925Y0084484D01*
X0180566Y0084124D01*
X0172443Y0084124D01*
X0172084Y0084484D01*
X0170801Y0085015D01*
X0169413Y0085015D01*
X0168130Y0084484D01*
X0167148Y0083502D01*
X0166617Y0082219D01*
X0166617Y0082156D01*
X0165554Y0082156D01*
X0165195Y0082515D01*
X0163912Y0083046D01*
X0162523Y0083046D01*
X0161240Y0082515D01*
X0160258Y0081533D01*
X0159727Y0080250D01*
X0159727Y0080094D01*
X0158586Y0080094D01*
X0157303Y0079562D01*
X0156321Y0078580D01*
X0155790Y0077297D01*
X0155790Y0075909D01*
X0155798Y0075888D01*
X0154848Y0076839D01*
X0153892Y0077235D01*
X0147837Y0077235D01*
X0147478Y0077594D01*
X0146195Y0078125D01*
X0144806Y0078125D01*
X0143524Y0077594D01*
X0142542Y0076612D01*
X0142010Y0075329D01*
X0142010Y0073940D01*
X0142542Y0072657D01*
X0143524Y0071675D01*
X0144806Y0071144D01*
X0146195Y0071144D01*
X0147478Y0071675D01*
X0147837Y0072035D01*
X0152298Y0072035D01*
X0154123Y0070209D01*
X0154855Y0069478D01*
X0155810Y0069082D01*
X0180467Y0069082D01*
X0181422Y0069478D01*
X0179950Y0071682D02*
X0181918Y0073650D01*
X0179950Y0071682D02*
X0156328Y0071682D01*
X0153375Y0074635D01*
X0145501Y0074635D01*
X0142010Y0074691D02*
X0088211Y0074691D01*
X0087212Y0073693D02*
X0142113Y0073693D01*
X0142526Y0072694D02*
X0086214Y0072694D01*
X0085215Y0071696D02*
X0143503Y0071696D01*
X0147498Y0071696D02*
X0152637Y0071696D01*
X0153635Y0070697D02*
X0084217Y0070697D01*
X0083218Y0069699D02*
X0154634Y0069699D01*
X0142160Y0075690D02*
X0089209Y0075690D01*
X0089872Y0076688D02*
X0142618Y0076688D01*
X0143748Y0077687D02*
X0090030Y0077687D01*
X0090030Y0078685D02*
X0156426Y0078685D01*
X0155951Y0077687D02*
X0147253Y0077687D01*
X0154998Y0076688D02*
X0155790Y0076688D01*
X0159280Y0076603D02*
X0177981Y0076603D01*
X0176013Y0079556D02*
X0175028Y0078572D01*
X0167154Y0078572D01*
X0166170Y0079556D01*
X0163217Y0079556D01*
X0159906Y0080682D02*
X0090030Y0080682D01*
X0090030Y0079684D02*
X0157597Y0079684D01*
X0160406Y0081681D02*
X0090030Y0081681D01*
X0090030Y0082679D02*
X0161637Y0082679D01*
X0164798Y0082679D02*
X0166807Y0082679D01*
X0167324Y0083678D02*
X0090030Y0083678D01*
X0090030Y0084676D02*
X0168596Y0084676D01*
X0171619Y0084676D02*
X0181391Y0084676D01*
X0184414Y0084676D02*
X0191129Y0084676D01*
X0191129Y0083678D02*
X0185685Y0083678D01*
X0186202Y0082679D02*
X0191129Y0082679D01*
X0191129Y0081681D02*
X0189159Y0081681D01*
X0189947Y0080682D02*
X0191129Y0080682D01*
X0191129Y0079684D02*
X0190330Y0079684D01*
X0190330Y0078685D02*
X0191129Y0078685D01*
X0191129Y0077687D02*
X0190047Y0077687D01*
X0189400Y0076688D02*
X0191129Y0076688D01*
X0191129Y0075690D02*
X0187815Y0075690D01*
X0185864Y0075690D02*
X0184815Y0075690D01*
X0185265Y0074691D02*
X0191129Y0074691D01*
X0191129Y0073693D02*
X0185409Y0073693D01*
X0185300Y0072694D02*
X0191129Y0072694D01*
X0191129Y0071696D02*
X0184887Y0071696D01*
X0183901Y0070697D02*
X0191129Y0070697D01*
X0193729Y0070698D02*
X0223965Y0040461D01*
X0227179Y0038745D02*
X0232372Y0038745D01*
X0230532Y0037746D02*
X0228253Y0037746D01*
X0229085Y0036748D02*
X0229636Y0036748D01*
X0237399Y0037746D02*
X0392601Y0037746D01*
X0392601Y0036748D02*
X0238295Y0036748D01*
X0238864Y0035749D02*
X0392601Y0035749D01*
X0392601Y0034751D02*
X0239163Y0034751D01*
X0219678Y0037746D02*
X0218253Y0037746D01*
X0285069Y0025764D02*
X0288453Y0025764D01*
X0287454Y0024766D02*
X0286067Y0024766D01*
X0295069Y0025764D02*
X0298453Y0025764D01*
X0297454Y0024766D02*
X0296067Y0024766D01*
X0305069Y0025764D02*
X0309823Y0025764D01*
X0311261Y0025764D02*
X0312261Y0025764D01*
X0312261Y0024766D02*
X0311261Y0024766D01*
X0311261Y0023767D02*
X0312261Y0023767D01*
X0312261Y0022769D02*
X0311261Y0022769D01*
X0311261Y0021770D02*
X0312261Y0021770D01*
X0312261Y0020772D02*
X0311261Y0020772D01*
X0311261Y0019773D02*
X0312261Y0019773D01*
X0312261Y0018775D02*
X0311261Y0018775D01*
X0311261Y0016778D02*
X0312261Y0016778D01*
X0312261Y0015779D02*
X0311261Y0015779D01*
X0311261Y0014781D02*
X0312261Y0014781D01*
X0312261Y0013782D02*
X0311261Y0013782D01*
X0311261Y0012784D02*
X0312261Y0012784D01*
X0312261Y0011785D02*
X0311261Y0011785D01*
X0311261Y0010787D02*
X0312261Y0010787D01*
X0312261Y0009788D02*
X0311261Y0009788D01*
X0308984Y0009788D02*
X0305525Y0009788D01*
X0306523Y0010787D02*
X0307865Y0010787D01*
X0307231Y0011785D02*
X0306949Y0011785D01*
X0303917Y0008790D02*
X0319604Y0008790D01*
X0317996Y0009788D02*
X0314537Y0009788D01*
X0315656Y0010787D02*
X0316998Y0010787D01*
X0316572Y0011785D02*
X0316290Y0011785D01*
X0323917Y0008790D02*
X0329604Y0008790D01*
X0327996Y0009788D02*
X0325525Y0009788D01*
X0326523Y0010787D02*
X0326998Y0010787D01*
X0333917Y0008790D02*
X0339604Y0008790D01*
X0337996Y0009788D02*
X0335525Y0009788D01*
X0336523Y0010787D02*
X0336998Y0010787D01*
X0343917Y0008790D02*
X0377746Y0008790D01*
X0377034Y0009788D02*
X0354537Y0009788D01*
X0354404Y0009691D02*
X0355046Y0010158D01*
X0355607Y0010719D01*
X0356074Y0011361D01*
X0356434Y0012069D01*
X0356680Y0012824D01*
X0356804Y0013608D01*
X0356804Y0017048D01*
X0352261Y0017048D01*
X0352261Y0008978D01*
X0352942Y0009086D01*
X0353697Y0009331D01*
X0354404Y0009691D01*
X0355656Y0010787D02*
X0376621Y0010787D01*
X0376207Y0011785D02*
X0356290Y0011785D01*
X0356667Y0012784D02*
X0376078Y0012784D01*
X0376078Y0013782D02*
X0356804Y0013782D01*
X0356804Y0014781D02*
X0376078Y0014781D01*
X0376349Y0015779D02*
X0356804Y0015779D01*
X0356804Y0016778D02*
X0376762Y0016778D01*
X0377176Y0017776D02*
X0352261Y0017776D01*
X0352261Y0016778D02*
X0351261Y0016778D01*
X0351261Y0015779D02*
X0352261Y0015779D01*
X0352261Y0014781D02*
X0351261Y0014781D01*
X0351261Y0013782D02*
X0352261Y0013782D01*
X0352261Y0012784D02*
X0351261Y0012784D01*
X0351261Y0011785D02*
X0352261Y0011785D01*
X0352261Y0010787D02*
X0351261Y0010787D01*
X0351261Y0009788D02*
X0352261Y0009788D01*
X0348984Y0009788D02*
X0345525Y0009788D01*
X0346523Y0010787D02*
X0347865Y0010787D01*
X0347231Y0011785D02*
X0346949Y0011785D01*
X0351261Y0018775D02*
X0352261Y0018775D01*
X0352261Y0019773D02*
X0351261Y0019773D01*
X0351261Y0020772D02*
X0352261Y0020772D01*
X0352261Y0021770D02*
X0351261Y0021770D01*
X0351261Y0022769D02*
X0352261Y0022769D01*
X0352261Y0023767D02*
X0351261Y0023767D01*
X0351261Y0024766D02*
X0352261Y0024766D01*
X0352261Y0025764D02*
X0351261Y0025764D01*
X0349823Y0025764D02*
X0345069Y0025764D01*
X0346067Y0024766D02*
X0348303Y0024766D01*
X0347471Y0023767D02*
X0346760Y0023767D01*
X0353698Y0025764D02*
X0392601Y0025764D01*
X0392601Y0024766D02*
X0355219Y0024766D01*
X0356050Y0023767D02*
X0392601Y0023767D01*
X0392601Y0022769D02*
X0356518Y0022769D01*
X0356759Y0021770D02*
X0392601Y0021770D01*
X0392601Y0020772D02*
X0386293Y0020772D01*
X0388292Y0019773D02*
X0392601Y0019773D01*
X0392601Y0018775D02*
X0389291Y0018775D01*
X0390203Y0017776D02*
X0392601Y0017776D01*
X0392601Y0016778D02*
X0390617Y0016778D01*
X0391031Y0015779D02*
X0392601Y0015779D01*
X0392601Y0014781D02*
X0391302Y0014781D01*
X0391302Y0013782D02*
X0392601Y0013782D01*
X0392601Y0012784D02*
X0391302Y0012784D01*
X0391172Y0011785D02*
X0392601Y0011785D01*
X0392601Y0010787D02*
X0390759Y0010787D01*
X0390345Y0009788D02*
X0392601Y0009788D01*
X0392601Y0008790D02*
X0389633Y0008790D01*
X0388635Y0007791D02*
X0392601Y0007791D01*
X0392601Y0006793D02*
X0387119Y0006793D01*
X0378089Y0018775D02*
X0356804Y0018775D01*
X0356804Y0019773D02*
X0379087Y0019773D01*
X0381087Y0020772D02*
X0356804Y0020772D01*
X0338453Y0025764D02*
X0335069Y0025764D01*
X0336067Y0024766D02*
X0337454Y0024766D01*
X0328453Y0025764D02*
X0325069Y0025764D01*
X0326067Y0024766D02*
X0327454Y0024766D01*
X0318453Y0025764D02*
X0313698Y0025764D01*
X0315219Y0024766D02*
X0317454Y0024766D01*
X0316761Y0023767D02*
X0316050Y0023767D01*
X0308303Y0024766D02*
X0306067Y0024766D01*
X0306760Y0023767D02*
X0307471Y0023767D01*
X0296998Y0010787D02*
X0296523Y0010787D01*
X0295525Y0009788D02*
X0297996Y0009788D01*
X0299604Y0008790D02*
X0293917Y0008790D01*
X0289604Y0008790D02*
X0283917Y0008790D01*
X0285525Y0009788D02*
X0287996Y0009788D01*
X0286998Y0010787D02*
X0286523Y0010787D01*
X0344891Y0040742D02*
X0392601Y0040742D01*
X0392601Y0041740D02*
X0345550Y0041740D01*
X0345842Y0042739D02*
X0392601Y0042739D01*
X0392601Y0043737D02*
X0345842Y0043737D01*
X0345468Y0044736D02*
X0392601Y0044736D01*
X0392601Y0045734D02*
X0344692Y0045734D01*
X0342351Y0043139D02*
X0333493Y0043139D01*
X0193729Y0070698D02*
X0193729Y0087430D01*
X0190465Y0088670D02*
X0090030Y0088670D01*
X0090030Y0087672D02*
X0190239Y0087672D01*
X0190264Y0086673D02*
X0090030Y0086673D01*
X0090030Y0085675D02*
X0190678Y0085675D01*
X0191032Y0089669D02*
X0090030Y0089669D01*
X0090030Y0090668D02*
X0192424Y0090668D01*
X0182902Y0081524D02*
X0170107Y0081524D01*
X0176013Y0079556D02*
X0179950Y0079556D01*
X0180934Y0078572D01*
X0186347Y0078572D01*
X0186839Y0079064D01*
X0098188Y0116629D02*
X0096920Y0116629D01*
X0096920Y0117627D02*
X0099187Y0117627D01*
X0100185Y0118626D02*
X0096920Y0118626D01*
X0096920Y0119624D02*
X0101184Y0119624D01*
X0102182Y0120623D02*
X0096920Y0120623D01*
X0096920Y0121621D02*
X0103181Y0121621D01*
X0104179Y0122620D02*
X0096920Y0122620D01*
X0096920Y0123618D02*
X0105178Y0123618D01*
X0106176Y0124617D02*
X0096920Y0124617D01*
X0096920Y0125615D02*
X0107175Y0125615D01*
X0108173Y0126614D02*
X0096920Y0126614D01*
X0096920Y0127612D02*
X0109172Y0127612D01*
X0102445Y0128611D02*
X0097121Y0128611D01*
X0098229Y0129609D02*
X0100565Y0129609D01*
X0099653Y0130608D02*
X0099075Y0130608D01*
X0089529Y0137598D02*
X0088401Y0137598D01*
X0087403Y0138596D02*
X0090528Y0138596D01*
X0080528Y0138596D02*
X0077403Y0138596D01*
X0078401Y0137598D02*
X0079529Y0137598D01*
X0070528Y0138596D02*
X0067403Y0138596D01*
X0068401Y0137598D02*
X0069529Y0137598D01*
X0060528Y0138596D02*
X0057403Y0138596D01*
X0058401Y0137598D02*
X0059529Y0137598D01*
X0016354Y0154572D02*
X0142032Y0154572D01*
X0142044Y0155571D02*
X0004700Y0155571D01*
X0004700Y0154572D02*
X0010868Y0154572D01*
X0008951Y0153574D02*
X0004700Y0153574D01*
X0004700Y0152575D02*
X0007952Y0152575D01*
X0007073Y0151577D02*
X0004700Y0151577D01*
X0004700Y0150578D02*
X0006660Y0150578D01*
X0006246Y0149580D02*
X0004700Y0149580D01*
X0004700Y0148581D02*
X0005999Y0148581D01*
X0005999Y0147583D02*
X0004700Y0147583D01*
X0004700Y0146584D02*
X0005999Y0146584D01*
X0006152Y0145586D02*
X0004700Y0145586D01*
X0004700Y0144587D02*
X0006566Y0144587D01*
X0006979Y0143589D02*
X0004700Y0143589D01*
X0004700Y0142590D02*
X0007725Y0142590D01*
X0008724Y0141592D02*
X0004700Y0141592D01*
X0004700Y0140593D02*
X0010321Y0140593D01*
X0024085Y0114632D02*
X0030432Y0114632D01*
X0029468Y0113633D02*
X0023806Y0113633D01*
X0023246Y0112635D02*
X0028505Y0112635D01*
X0027541Y0111636D02*
X0022330Y0111636D01*
X0021563Y0110638D02*
X0026577Y0110638D01*
X0025614Y0109639D02*
X0023005Y0109639D01*
X0030835Y0099241D02*
X0073650Y0099241D01*
X0069274Y0090668D02*
X0058816Y0090668D01*
X0035505Y0095660D02*
X0030743Y0095660D01*
X0030835Y0099241D02*
X0025914Y0094812D01*
X0054359Y0073650D02*
X0076603Y0073650D01*
X0078572Y0062824D02*
X0073650Y0057902D01*
X0073650Y0051997D01*
X0062824Y0041170D01*
X0051013Y0041170D01*
X0045107Y0035265D01*
X0042154Y0035265D01*
X0045107Y0032312D02*
X0036249Y0032312D01*
X0033296Y0035265D01*
X0033296Y0043139D01*
X0039202Y0042745D02*
X0039103Y0039300D01*
X0036741Y0037725D01*
X0030631Y0037746D02*
X0029662Y0037746D01*
X0029662Y0036748D02*
X0030631Y0036748D01*
X0030696Y0035749D02*
X0028514Y0035749D01*
X0028752Y0034751D02*
X0030696Y0034751D01*
X0030146Y0035265D02*
X0030146Y0040178D01*
X0029662Y0038745D02*
X0030631Y0038745D01*
X0023314Y0040742D02*
X0022286Y0040742D01*
X0023304Y0041740D02*
X0023314Y0041740D01*
X0025914Y0034772D02*
X0025914Y0049536D01*
X0045698Y0042351D02*
X0046485Y0043139D01*
X0049536Y0043139D01*
X0050028Y0043631D01*
X0051997Y0039202D02*
X0068729Y0039202D01*
X0078572Y0049044D01*
X0077179Y0038745D02*
X0080752Y0038745D01*
X0079678Y0037746D02*
X0078253Y0037746D01*
X0087179Y0038745D02*
X0090752Y0038745D01*
X0089678Y0037746D02*
X0088253Y0037746D01*
X0097179Y0038745D02*
X0100752Y0038745D01*
X0099678Y0037746D02*
X0098253Y0037746D01*
X0107179Y0038745D02*
X0110752Y0038745D01*
X0109678Y0037746D02*
X0108253Y0037746D01*
X0117179Y0038745D02*
X0120752Y0038745D01*
X0119678Y0037746D02*
X0118253Y0037746D01*
X0100990Y0022769D02*
X0097177Y0022769D01*
X0098236Y0021770D02*
X0099931Y0021770D01*
X0099147Y0020772D02*
X0099020Y0020772D01*
X0090990Y0022769D02*
X0087177Y0022769D01*
X0088236Y0021770D02*
X0089931Y0021770D01*
X0089147Y0020772D02*
X0089020Y0020772D01*
X0074583Y0013782D02*
X0073583Y0013782D01*
X0073583Y0013898D02*
X0073583Y0005828D01*
X0072902Y0005936D01*
X0072148Y0006181D01*
X0071440Y0006542D01*
X0070798Y0007008D01*
X0070237Y0007570D01*
X0069770Y0008212D01*
X0069410Y0008919D01*
X0069164Y0009674D01*
X0069040Y0010458D01*
X0069040Y0013898D01*
X0073583Y0013898D01*
X0073583Y0012784D02*
X0074583Y0012784D01*
X0074583Y0011785D02*
X0073583Y0011785D01*
X0073583Y0010787D02*
X0074583Y0010787D01*
X0074583Y0009788D02*
X0073583Y0009788D01*
X0073583Y0008790D02*
X0074583Y0008790D01*
X0074583Y0007791D02*
X0073583Y0007791D01*
X0073583Y0006793D02*
X0074583Y0006793D01*
X0077072Y0006793D02*
X0080165Y0006793D01*
X0079244Y0007791D02*
X0078091Y0007791D01*
X0078691Y0008790D02*
X0078831Y0008790D01*
X0071095Y0006793D02*
X0017040Y0006793D01*
X0018556Y0007791D02*
X0070076Y0007791D01*
X0069476Y0008790D02*
X0019554Y0008790D01*
X0020266Y0009788D02*
X0069146Y0009788D01*
X0069040Y0010787D02*
X0020680Y0010787D01*
X0021094Y0011785D02*
X0069040Y0011785D01*
X0069040Y0012784D02*
X0021223Y0012784D01*
X0021223Y0013782D02*
X0069040Y0013782D01*
X0060551Y0028760D02*
X0057379Y0028760D01*
X0058378Y0029758D02*
X0059553Y0029758D01*
X0050551Y0028760D02*
X0029759Y0028760D01*
X0030519Y0029758D02*
X0035619Y0029758D01*
X0034127Y0030757D02*
X0030881Y0030757D01*
X0030881Y0031755D02*
X0033128Y0031755D01*
X0032130Y0032754D02*
X0030578Y0032754D01*
X0031131Y0033752D02*
X0029902Y0033752D01*
X0027391Y0031328D02*
X0025914Y0034772D01*
X0045107Y0032312D02*
X0051997Y0039202D01*
X0048380Y0031755D02*
X0048228Y0031755D01*
X0048794Y0030757D02*
X0047229Y0030757D01*
X0045737Y0029758D02*
X0049553Y0029758D01*
X0059215Y0062709D02*
X0057985Y0063939D01*
X0008098Y0068700D02*
X0004700Y0068700D01*
X0004700Y0067702D02*
X0007477Y0067702D01*
X0096920Y0115630D02*
X0097190Y0115630D01*
X0147121Y0128611D02*
X0150809Y0128611D01*
X0149702Y0129609D02*
X0148229Y0129609D01*
X0187403Y0138596D02*
X0190528Y0138596D01*
X0189529Y0137598D02*
X0188401Y0137598D01*
X0207403Y0138596D02*
X0210528Y0138596D01*
X0209529Y0137598D02*
X0208401Y0137598D01*
X0217403Y0138596D02*
X0220528Y0138596D01*
X0219529Y0137598D02*
X0218401Y0137598D01*
X0227403Y0138596D02*
X0230528Y0138596D01*
X0229529Y0137598D02*
X0228401Y0137598D01*
X0192992Y0152575D02*
X0179388Y0152575D01*
X0180081Y0151577D02*
X0192113Y0151577D01*
X0191699Y0150578D02*
X0180081Y0150578D01*
X0180081Y0149580D02*
X0191286Y0149580D01*
X0166639Y0154572D02*
X0161765Y0154572D01*
X0161753Y0155571D02*
X0166650Y0155571D01*
X0154839Y0155571D02*
X0148958Y0155571D01*
X0148969Y0154572D02*
X0154828Y0154572D01*
X0288575Y0115630D02*
X0328034Y0115630D01*
X0328034Y0114632D02*
X0289360Y0114632D01*
X0289739Y0113633D02*
X0328308Y0113633D01*
X0328942Y0112635D02*
X0289739Y0112635D01*
X0289454Y0111636D02*
X0330497Y0111636D01*
X0332551Y0111636D02*
X0339356Y0111636D01*
X0341410Y0111636D02*
X0392601Y0111636D01*
X0392601Y0110638D02*
X0289149Y0110638D01*
X0289149Y0109639D02*
X0392601Y0109639D01*
X0392601Y0108641D02*
X0289149Y0108641D01*
X0289149Y0107642D02*
X0392601Y0107642D01*
X0392601Y0106644D02*
X0288785Y0106644D01*
X0288434Y0105645D02*
X0392601Y0105645D01*
X0392601Y0104647D02*
X0287733Y0104647D01*
X0331524Y0114989D02*
X0340383Y0114989D01*
X0343599Y0113633D02*
X0392601Y0113633D01*
X0392601Y0112635D02*
X0342965Y0112635D01*
X0343873Y0114632D02*
X0392601Y0114632D01*
X0392601Y0115630D02*
X0343873Y0115630D01*
X0343482Y0116629D02*
X0392601Y0116629D01*
X0392601Y0117627D02*
X0342681Y0117627D01*
X0338085Y0117627D02*
X0333822Y0117627D01*
D18*
X0286249Y0113020D02*
X0286249Y0108099D01*
X0285265Y0107115D01*
X0160265Y0014595D02*
X0158296Y0016564D01*
X0155737Y0016564D01*
X0155343Y0016957D01*
X0146643Y0016957D01*
X0144083Y0014398D01*
X0160265Y0014595D02*
X0160265Y0011643D01*
X0161643Y0010265D01*
X0164202Y0010265D01*
X0164300Y0010166D01*
X0172076Y0010166D01*
D19*
X0053965Y0133690D02*
X0026800Y0105540D01*
X0015580Y0105540D01*
D20*
X0015580Y0095540D01*
D21*
X0244910Y0154359D03*
X0249831Y0061839D03*
X0260658Y0016564D03*
M02*
